<svg xmlns="http://www.w3.org/2000/svg" width="120" height="120" viewBox="0 0 120 120">
  <g id="Group_31244" data-name="Group 31244" transform="translate(-19678 -18329)">
    <path id="Path_12453" data-name="Path 12453" d="M60,0A60,60,0,1,1,0,60,60,60,0,0,1,60,0Z" transform="translate(19678 18329)" fill="#fff"/>
    <g id="Introduction" transform="translate(19664.844 18316.395)">
      <g id="variations" transform="translate(35.071 17.542)">
        <g id="images" transform="translate(0 0)">
          <g id="a-person_bust" data-name="a-person/bust" transform="translate(0 0)">
            <g id="body_Tee-1" data-name="body/Tee-1" transform="translate(0 49.071)">
              <path id="_-Background" data-name="ðŸŽ¨-Background" d="M75.539,48.022q-.566-3.2-1.038-6.411c-.149-1.017-.295-2.035-.426-3.055-.092-.714-.231-1.531.255-2.06a4.007,4.007,0,0,0,1.388-2.449,11.075,11.075,0,0,0-.473-3.072c-.444-2.043-1-4.061-1.61-6.059-.622-2.031-1.3-4.042-1.995-6.05a56.58,56.58,0,0,0-2.11-5.572,16.319,16.319,0,0,0-7.643-7.639c-.831-.42-2.526-1.921-3.394-2.257-.8-.309-.8.593-1.58.253a3.141,3.141,0,0,1-1.565-1.24C54.968,1.754,54.01.833,53.865.066c-.309-1.625.026-3.008-1.133-4.231a8.422,8.422,0,0,0-3.844-2.229c-3.149-.879-7.348-.264-9.247,2.663C38.733-2.334,38.415-.644,37.191.5c-1.069,1-.83,1.677-2.215,2.19-.078.029-2.2-.427-2.283-.4-1.515-.324-2.963.583-4.352,1.11a30.465,30.465,0,0,0-5.9,3.022,37.379,37.379,0,0,0-9.576,9.229A45.187,45.187,0,0,0,6.674,27.6q-.535,1.549-.96,3.133a3.186,3.186,0,0,0-.135,1.808A2.329,2.329,0,0,0,6.5,33.7c.558.4,1.678.664,1.656,1.473a14.137,14.137,0,0,1-.327,1.871c-.121.724-.221,1.452-.32,2.18-.453,3.31,4.621,4.647,4.465,7.985-.154,3.287-1.859-5.554-1.631-2.268.015.217,3.659-3.752,3.764-3.584-.1.037-3.885,2.515-3.764,2.541.085.018-.085,1.342,0,1.359a18.509,18.509,0,0,1-2.514.3c.171.005,1.556,1.087,1.727,1.1,1.807.378,2.953,2.279,4.783,2.549,2.225.328,5.868,5.5,8.106,5.72,4.6.447,5.644,2.71,10.25,2.469s13.79-4.717,18.394-4.6,6.192-4.851,10.8-4.769c5.148.091,7.48-3.054,12.613-3.464.7-.056,2.743,2.791,2.6,2.092C76.274,42.461,76.284,52.23,75.539,48.022Z" transform="translate(-4.838 6.763)" fill="#fff" fill-rule="evenodd"/>
              <path id="_-Ink" data-name="ðŸ–-Ink" d="M31.9-7.669c.476-.021-.507,13.089-.032,13.136.041,0,.057.068.01.078-.85.178-1.691.421-2.526.668L29,6.318a29.137,29.137,0,0,0-2.767.938A24.789,24.789,0,0,0,21.1,10.144C14.988,14.566,10.563,21.261,7.771,28.193A49.267,49.267,0,0,0,5.85,33.967q-.19.716-.359,1.437c-.033.141-.178.5-.1.646.07.127.342.206.469.272l.427.221c.833.429,2.22,1.135,2.359,1.2l.217.107c3.549,1.74,7.341,3.216,11.334,3.318l.031-.341h0a32.041,32.041,0,0,1,.922-5.61c.027-.1.152-.065.164.022a37.041,37.041,0,0,1,.094,6.52c-.176,3.851-.409,7.7-.616,11.549-.1,1.926-.238,1.583-.359,3.508s.277-1.737,0,.176c-.062.426-.059.775-.437.73-.418-.05-.467.216-.469-.207a24.045,24.045,0,0,1,0-2.443c.074-1.056-.081-.708,0-1.763.3-3.852-.127-2.856.189-6.706q.168-2.048.357-4.094c-4.231-.136-8.183-1.7-11.953-3.536-.055,1.24-.186,2.477-.314,3.711-.356,3.445.708-6.062.473-2.606-.119,1.745-.205,3.493-.28,5.24-.037.859.023,1.636,0,2.495q-.012.43-.021.86l-.013.656a1.354,1.354,0,0,1-.4,1.1.984.984,0,0,1-1.277.083c-.471-.433-.387-1.024-.374-1.607q.017-.736.042-1.473.049-1.473.124-2.945c.177-3.431-.627,4.788-.166,1.385H5.873a43.484,43.484,0,0,1,1.456-7.293q-.439-.218-.875-.439c-.515-.261-1.048-.506-1.549-.794a1.631,1.631,0,0,1-.851-1,3.453,3.453,0,0,1,.191-1.582l.011-.044q.184-.76.395-1.513A49.886,49.886,0,0,1,6.737,27.23a49,49,0,0,1,6.346-10.951,33.121,33.121,0,0,1,8.3-7.8,22.366,22.366,0,0,1,5.033-2.407,13.35,13.35,0,0,1,2.6-.606C29.493,5.415,31.431-7.648,31.9-7.669ZM38.87-.814a.855.855,0,0,1,1.418.826,10.128,10.128,0,0,1-3.244,4.865,7.431,7.431,0,0,1-5.19,1.767.114.114,0,0,1-.039-.01l.165.224a30.069,30.069,0,0,0,4.314,4.92,13.861,13.861,0,0,0,12.352,3.378A10.326,10.326,0,0,0,56.084,8.02a.717.717,0,0,1-.451.041,4.211,4.211,0,0,1-1.9-1.458,6.9,6.9,0,0,1-1.183-1.941A5.127,5.127,0,0,1,52.575.386a.168.168,0,0,1,.311.084l.027.239a9.673,9.673,0,0,0,.873,3.433,7.113,7.113,0,0,0,1.006,1.5,5.843,5.843,0,0,0,.7.666,7.758,7.758,0,0,1,.761.559l.04.043V6.9A.685.685,0,0,1,57,6.231a2.514,2.514,0,0,1,.824.217l.013.006a31.909,31.909,0,0,1,6.094,3.936,24.252,24.252,0,0,1,8.276,12.076,64.854,64.854,0,0,1,1.522,7.249l.261,1.49a30.158,30.158,0,0,0,1.727,6.625.878.878,0,0,1-.513,1.26c-.705.265-1.414.522-2.123.776.349,1.495.561,3.042.822,4.544a70.977,70.977,0,0,1,.57,8c-1.588-11.06.179.082,0,0-2.024-11.532-1.338-6.311-1.451-7.625-.191-2.234-.322-3.513-.34-4.778l-.424.151-2.07.732a6.118,6.118,0,0,1-2.355.213,71.921,71.921,0,0,0,.6,7.177c.2,1.2.868,4.777.988,5.372a4,4,0,0,1-.054,1.729c-.157.231-1.24-.2-1.339-.591-.09-.35-.145-.716-.215-1.072q-.193-.983-.374-1.968-.378-2.061-.691-4.133c-.729-4.866.072-1.624-.162-6.54-.116-2.425-.151-4.852-.131-7.28.011-1.244.051-2.492.139-3.734.089-1.256.275-2.488.44-3.732a.035.035,0,0,1,.07,0c.078,1.4.2,2.789.261,4.187.058,1.335.083,2.672.128,4.007q.09,2.633.253,5.266a.9.9,0,0,1,.8-.295,12.7,12.7,0,0,0,1.32-.459l1.566-.523h0c.824-.275,1.647-.548,2.474-.813a63.625,63.625,0,0,1-1.678-7.571l-.193-1.152a49.853,49.853,0,0,0-1.484-6.729,21.517,21.517,0,0,0-3.256-6.4,34.677,34.677,0,0,0-4.932-5.178c-1.525-1.35-3.156-2.569-4.711-3.882a.9.9,0,0,1,.006.288,10.98,10.98,0,0,1-3.352,6.352,13.022,13.022,0,0,1-13.289,2.488A15.426,15.426,0,0,1,31.412,6.3c-.023-.077.079-.107.12-.051l.228.312a.1.1,0,0,1,.067-.106,12.075,12.075,0,0,0,4.356-2.725,9.386,9.386,0,0,0,1.492-2.021,8.1,8.1,0,0,0,.5-1.1l.035-.1A3.586,3.586,0,0,1,38.87-.814Z" transform="translate(-4.014 3.585)" fill-rule="evenodd"/>
            </g>
            <g id="head_Bun-2" data-name="head/Bun-2" transform="translate(9.923 0)">
              <path id="_-Background-2" data-name="ðŸŽ¨-Background" d="M41.563,26.909c-.222-2.879.122-5.9-.987-8.633-1.935-4.54-7.36-6.054-11.566-7.783-1.685-.5-7.355-.568-9.328-1.227C15.217,7.774,14.15,6,10.6,8.837A3.859,3.859,0,0,0,9.355,10.57l.011,0a.961.961,0,0,0,.181.829,5.792,5.792,0,0,0-1.393,6.025c2.576,5.449,2.455,8.4,1.625,14.254-1.084,5.469,1.393,7.467,5.494,10.442a1.008,1.008,0,0,0,.016,1.04c4.743,6.668,13.686,9.851,21.348,6.467,3.11-1.385,4.5-4.7,5.291-7.688a21.4,21.4,0,0,0,.455-10.286A42.609,42.609,0,0,1,41.563,26.909Z" transform="translate(5.008 5.002)" fill="#fff" fill-rule="evenodd"/>
              <path id="_-Ink-2" data-name="ðŸ–-Ink" d="M-1.914-20.488A1.128,1.128,0,0,1-.7-19.714l.011.027c.066.171.14.338.22.5a3.479,3.479,0,0,1,4.408.907c.651,1.023.254,2.236.008,3.321l-.161.715a1.107,1.107,0,0,1,.535.92v.028l-.066,1a5.17,5.17,0,0,0,.567-.685c.117-.214.243-.425.379-.629a1.12,1.12,0,0,1,1.932,1.129,6.776,6.776,0,0,1-.421.71,6.279,6.279,0,0,0-.422,1.031.982.982,0,0,1,.577.892A2.751,2.751,0,0,1,5.483-7.342a.983.983,0,0,1-.775.135c-.043.058-.086.116-.127.175a5.645,5.645,0,0,1,.947.979,17.036,17.036,0,0,1,2.486-.184,5.517,5.517,0,0,1,3.32-.3c.7.12,1.376.353,2.067.521.728.176,1.468.183,2.2.3A3.451,3.451,0,0,1,17.861-4.45a3.373,3.373,0,0,1,1.645.56c1.142.729,2.278,1.467,3.417,2.2a1.166,1.166,0,0,1,.52,1.232l-.005.032L23.4-.218l.09.128a8.433,8.433,0,0,1,.954,1.552,16.685,16.685,0,0,1,1.129,1.884A13.72,13.72,0,0,1,26.645,6.1c.063.241.125.483.167.729a2.777,2.777,0,0,1-.081.948c-.062.421-.084.848-.15,1.271a.516.516,0,0,1-.531.425c.094.713.161,1.43.226,2.142.091,1.017.153,2.037.206,3.057a2.422,2.422,0,0,0,1.244.826,2.853,2.853,0,0,0,1.684-.205c.334-.121.608.3.446.581a1.816,1.816,0,0,1-2.437.488,2.3,2.3,0,0,1-.887-.715q.021.444.044.889l.014.269c.169,3.14.533,6.388-.057,9.5a11.936,11.936,0,0,1-10.919,9.8A15.064,15.064,0,0,1,9.2,34.958c-1.183-.471-.723-1.431.1-1.156a15.3,15.3,0,0,0,6.337.873c5.48-.716,10.127-3.457,9.649-15.258-.068-1.674-.276-3.348-.321-5.021-.043-1.636-.027-3.273-.1-4.908l-.024-.558c-.028-.652-.058-1.307-.107-1.959-.059-.253-.108-.509-.18-.758a11.276,11.276,0,0,0-.769-1.958.544.544,0,0,1-.234.107,3.072,3.072,0,0,1-1.859-.186,2.925,2.925,0,0,1-.764-.5,1.162,1.162,0,0,1-.242-.288.986.986,0,0,1-.769-.294.69.69,0,0,1-.162-.718l.009-.023-.021-.007a3.605,3.605,0,0,1-1.28,1.583,5.19,5.19,0,0,1-2.946.793,20.415,20.415,0,0,1-3.439-.335c-.295-.047-.588-.1-.875-.172-.011.011-.022.024-.035.036a3.187,3.187,0,0,1-3.52.629A5.477,5.477,0,0,1,5.833,3.535c-.007.292-.023.584-.048.874l-.01.115a2.287,2.287,0,0,1-.559,1.5A2,2,0,0,1,2.844,5.99c0,.02,0,.04,0,.061q.308,1.045.617,2.092l.044.149A7.515,7.515,0,0,1,3.865,9.8c.086.991-.573,1.969-1.674,1.637A4.4,4.4,0,0,1,.708,10.39l-.28-.242A26.774,26.774,0,0,1,1.7,17.435a.243.243,0,0,1-.24.24,2.274,2.274,0,0,1-.917-.166.492.492,0,0,1-.051,0,3.479,3.479,0,0,1-1.4-.531,2.607,2.607,0,0,1,.114.979c-.007.083-.137.112-.155.021a2.557,2.557,0,0,0-2.83-1.859,3.212,3.212,0,0,0-2.466,2.611,5.031,5.031,0,0,0,1.11,3.962,2.677,2.677,0,0,0,1.575.984,2.009,2.009,0,0,0,.873-.052,3.657,3.657,0,0,0,.346-.132c.167-.067.361-.078.519-.149a.394.394,0,0,1,.534.535,1.536,1.536,0,0,1-.56.7c.212.258.4.618.475.715a16.63,16.63,0,0,0,1.146,1.4,12.055,12.055,0,0,0,1.367,1.256l.2.161a4.789,4.789,0,0,1,1.206,1.248.66.66,0,0,1-.564.984C.456,30.317-.653,28.976-1.443,27.8c-.112-.168-.218-.345-.316-.526a1.116,1.116,0,0,1-.119.159l.087.234c.258.689-.855,1.14-1.178.5a9.793,9.793,0,0,0-.811-1.33.687.687,0,0,1-.451-.274c-.246-.357-.522-.717-.755-1.1-.129-.123-.262-.241-.4-.356-.039.035-.08.069-.118.106a4.98,4.98,0,0,1-.642,1.078l-.056.071A3.574,3.574,0,0,1-8.159,27.8c-.246.047-.483-.259-.265-.455.564-.508,1.232-.853,1.752-1.42a6.327,6.327,0,0,0,.694-.909l.046-.075c.034-.055.068-.111.1-.167l-.7-.482a18.508,18.508,0,0,1-2.2,1.264l-.071.047c-.647.433-1.328-.524-.81-1.05a22.134,22.134,0,0,0,1.555-1.906,3.748,3.748,0,0,1-.393-1.482c-.017-.148-.03-.3-.043-.445a1.792,1.792,0,0,1-1.037-.333l-.117-.083a3.491,3.491,0,0,1-1.147.168,1,1,0,0,1-.7-1.682,2.1,2.1,0,0,1,2.343-.48l.077-.041a.907.907,0,0,1,.013-.466l-.012-.084a2.152,2.152,0,0,1-.329-.888,2.068,2.068,0,0,1,.031-.755,2.551,2.551,0,0,1,.091-.256,1.655,1.655,0,0,1-.113-.5c-.018-.021-.036-.043-.053-.067a1.332,1.332,0,0,1,.06-1.65c0-.028,0-.056.008-.084q-.033-.073-.06-.148a1.687,1.687,0,0,1-.579-1.351,1.4,1.4,0,0,1,.36-.825.471.471,0,0,1,0-.327A4.911,4.911,0,0,1-9.7,8.051a1.273,1.273,0,0,1-.071-.466A1.405,1.405,0,0,1-8.416,6.244a1.226,1.226,0,0,1,.246.029V6.256A1.894,1.894,0,0,1-8,5.675a.369.369,0,0,1-.114-.065,6.4,6.4,0,0,1-1.463.563.473.473,0,0,1-.529-.688,3.17,3.17,0,0,1,.358-.446,4.583,4.583,0,0,0-.559.038,1.082,1.082,0,0,1-.937-.5q-.41.4-.822.8a1.1,1.1,0,0,1-1.853-.71,1.562,1.562,0,0,1-.569-.283,9.724,9.724,0,0,1-3.479.787,1.129,1.129,0,0,1-.966-1.684,5.622,5.622,0,0,1,1-1.279,11.642,11.642,0,0,1-1.861.4,1.073,1.073,0,0,1-.967-.554,4.16,4.16,0,0,1,.125-3.66c.023-.047.05-.092.075-.137q.094-.235.205-.463a2.678,2.678,0,0,1-.408-2.9.977.977,0,0,1-.113-.861,7.37,7.37,0,0,1,1.328-2.226,2.369,2.369,0,0,1-.142-.336,2.787,2.787,0,0,1,.8-2.814,3.862,3.862,0,0,1,1.584-.843,4.536,4.536,0,0,1,.917-1.142c.014-.031.028-.062.044-.093a3.427,3.427,0,0,1,2.7-1.769,1.111,1.111,0,0,1,.732-.944,3.431,3.431,0,0,1,.51-1.018,1.151,1.151,0,0,1,1.531-.4,6.714,6.714,0,0,1,.887.6,1.214,1.214,0,0,1,.428-.109l.04,0,.923-.047c.387-.171.772-.351,1.159-.526a3.1,3.1,0,0,1,.774-.471,3.145,3.145,0,0,1,.976-.235c.267-.087.535-.164.809-.224A8.917,8.917,0,0,1-2.9-18.776c.014-.173.02-.347.019-.524v-.089A1.116,1.116,0,0,1-1.914-20.488Zm-.647,45.329c-.092.02-.184.036-.277.047.028.069.056.139.083.208.075.042.151.082.227.12A1.93,1.93,0,0,1-2.561,24.841Zm-4.809-1.43-.062.115-.03.056a2.071,2.071,0,0,1,.4.007v-.014a.414.414,0,0,1-.05-.019A2.1,2.1,0,0,1-7.37,23.411Zm2.6-5.23a5.738,5.738,0,0,1,2.283.538l.065.032c.666.331,1.766.941,1.674,1.817a.5.5,0,0,1-.491.492c-.78-.053-1.225-.84-1.753-1.331a9.039,9.039,0,0,0-1.832-1.343.111.111,0,0,1,.044-.2ZM-8.527,6.645c-.2.007-.132.2-.03.038A.281.281,0,0,1-8.527,6.645ZM2.186-6.234A9.331,9.331,0,0,0-2.993-3.952,18.343,18.343,0,0,0-6.212-.563a19.487,19.487,0,0,0-.623,1.9c-.115.423-.187.851-.284,1.278l-.03.131a2.052,2.052,0,0,0-.173.451,1.336,1.336,0,0,0,.636.352.4.4,0,0,1,.2.113,4.191,4.191,0,0,0,.467-1.04l0-.017A21.419,21.419,0,0,1-4.793.812,21.54,21.54,0,0,1-.645-3.451a13.676,13.676,0,0,1,4.021-2.1A4.4,4.4,0,0,0,2.186-6.234Z" transform="translate(21.127 20.501)" fill-rule="evenodd"/>
            </g>
            <g id="face_Smiling" data-name="face/Smiling" transform="translate(39.129 31.372)">
              <path id="_-Ink-3" data-name="ðŸ–-Ink" d="M19.958,28.682a3.811,3.811,0,0,1-1.6-1.232.739.739,0,0,1-.15-.575.83.83,0,0,1,.322-.519.772.772,0,0,1,.578-.156.725.725,0,0,1,.489.323l.029.04a2.523,2.523,0,0,0,.924.776,2.083,2.083,0,0,0,1.144.2,3.071,3.071,0,0,0,1.864-1.069c.07-.071.14-.145.21-.22a.33.33,0,0,1,.174-.134.375.375,0,0,1,.241,0,.382.382,0,0,1,.189.144.351.351,0,0,1,.06.232,2.4,2.4,0,0,1-.793,1.52,3.4,3.4,0,0,1-3.681.667Zm2.268-9.042c.707.43,1.784,1.432,1.024,2.5-.9.94-2.184-.138-2.819-.625-.589-.378-1.251.594-.7,1.035,4.589,3.4,6.451-2.795,2.857-3.413C22.188,19.067,22.041,19.507,22.226,19.64ZM14,15.686c.078-.97,1.555-1.19,1.7-.23a3.93,3.93,0,0,1-.41,2.423.722.722,0,0,1-1.37-.279A7.817,7.817,0,0,1,14,15.686Zm11.239-.429a.788.788,0,0,1,.859-.35c1.113.325.785,1.905.394,2.674a.774.774,0,0,1-1.209.156,1.876,1.876,0,0,1-.1-2.388A.813.813,0,0,1,25.241,15.257Zm-9.964-3.814.176-.031c.544-.094,1.22-.184,1.6.253a.635.635,0,0,1,0,.885c-.482.39-1.015.239-1.593.272a6.337,6.337,0,0,0-1.393.237,9.464,9.464,0,0,0-2.686,1.39c-.113.076-.228-.069-.174-.174a5.55,5.55,0,0,1,2.421-2.258A5.988,5.988,0,0,1,15.277,11.443Zm8.95-.436.135.028c1.464.306,3.366.918,4.059,2.356.026.2,0,.247-.024.275l-.008.009a.189.189,0,0,1-.122.086l-.074-.019a4.2,4.2,0,0,1-.812-.317l-.264-.13a7.265,7.265,0,0,0-.942-.4,11.092,11.092,0,0,0-2.147-.474.881.881,0,0,1-.431-.163.647.647,0,0,1-.241-.367.658.658,0,0,1,.074-.55.7.7,0,0,1,.34-.293A.8.8,0,0,1,24.227,11.007Z" transform="translate(-11.197 -10.99)" fill-rule="evenodd"/>
            </g>
            <g id="facial-hair_Full-3" data-name="facial-hair/Full-3" transform="translate(30.329 38.208)">
              <path id="_-Ink-4" data-name="ðŸ–-Ink" d="M20.754,6.59c-.872-.777-1.849-2.339-3.1-1.1-.31.349-.435,1.132-.909,1.286-.629.2-1.253-.462-1.467-.973-.877-2.841,2.749-3.62,4.814-3.161a3.954,3.954,0,0,1,1.8,2.954c.029.585-.466,1.446-1.135,1m6.577-4.379a.517.517,0,0,0-.035-.1.7.7,0,0,0-.879.281c.006.069.027.139.04.207a5.82,5.82,0,0,1-.474.951.333.333,0,0,1-.118-.012C22.6,3.877,24.193.456,20.878-.394c-2.562-.423-7.194.062-8.4,2.73-.953,4.262-5.8,1.292-7.392-.924A28.077,28.077,0,0,1,1.228-5.462C1-5.968.306-5.606.382-5.121-.6-3.157-.564-.8-.806,1.354c-.412,4.292-.814,10.312,3.173,12.933,5.194,5.873,18.164,7.946,24.155,2.549,2.074-4.46,1.818-9.9.81-14.624" transform="translate(1.056 5.706)" fill-rule="evenodd"/>
            </g>
            <g id="accessories_Glasses-3" data-name="accessories/Glasses-3" transform="translate(22.466 32.495)">
              <path id="_-Ink-5" data-name="ðŸ–-Ink" d="M32.838,10.266a3.192,3.192,0,0,1-2.876,1.024c-2.324-.224-3.056-2.865-3.132-4.917,1.559.439-.132-2.668,5.2-3.01,1.878-.157,1.36.978,2.19,1.807a8.729,8.729,0,0,1-1.378,5.1m-11.071-2c-1.372,6.429-8.887,4.9-9.676-.9.729-.515.537-1.786,1.443-2.246,1.435-.917,3.229-.878,4.859-.857,2.083.143,2.677,1.007,3.747,1.948a13.083,13.083,0,0,1-.372,2.05M35.815,2.3l-.231-.036a.694.694,0,0,0-.213-.076,3.643,3.643,0,0,0-.56-.1c-2.671-.6-8.85.252-9.1,2.533a8.473,8.473,0,0,1-2.572.055c-.75-3.138-13.723-2.695-14.347-.8l-.007,0A9.737,9.737,0,0,0,6.61,3.7a18.838,18.838,0,0,0-4.365.409C-.44,4.537-4.1,5.036-2.237,8.39v0h0a.53.53,0,0,0,.888-.382C-1.975,6.42-.557,6.229.534,5.773a18.28,18.28,0,0,1,8.284-.809,2.021,2.021,0,0,0,.87.579c1.877.312.888,1.7,2.074,1.907a5.476,5.476,0,0,0,9.088,4.313c1.363-1.333,1.688-3.308,2-5.088a.473.473,0,0,0,.335-.25,2.19,2.19,0,0,1,1.449-.882,2.593,2.593,0,0,1,1.489.179c.021.042.043.084.069.126A.479.479,0,0,0,26.339,6c-.785,4.834,2.967,7.892,6.754,5.384,1.646-1.549,1.993-3.92,2.062-6.036a.64.64,0,0,0,.287-.724.917.917,0,0,1,.541-1.041A.711.711,0,0,0,35.815,2.3" transform="translate(2.746 -1.902)" fill-rule="evenodd"/>
            </g>
          </g>
        </g>
      </g>
    </g>
  </g>
</svg>
