<svg xmlns="http://www.w3.org/2000/svg" width="49.997" height="40" viewBox="0 0 49.997 40">
  <path id="Icon_awesome-user-edit" data-name="Icon awesome-user-edit" d="M17.5,20a10,10,0,1,0-10-10A10,10,0,0,0,17.5,20Zm7,2.5h-1.3a13.6,13.6,0,0,1-11.39,0H10.5A10.5,10.5,0,0,0,0,33v3.25A3.751,3.751,0,0,0,3.75,40H25.226a3.752,3.752,0,0,1-.2-1.664l.531-4.758.094-.867.617-.617L32.3,26.054A10.393,10.393,0,0,0,24.5,22.5Zm3.539,11.351-.531,4.766a1.244,1.244,0,0,0,1.375,1.375l4.758-.531L44.413,28.687l-5.6-5.6L28.038,33.851ZM49.452,21.007l-2.961-2.961a1.872,1.872,0,0,0-2.641,0L40.9,21l-.32.32,5.609,5.6,3.266-3.266a1.881,1.881,0,0,0,0-2.648Z" fill="#21c98b"/>
</svg>
