<svg xmlns="http://www.w3.org/2000/svg" xmlns:xlink="http://www.w3.org/1999/xlink" width="1018" height="618" viewBox="0 0 1018 618">
  <defs>
    <filter id="Path_1" x="0" y="12.843" width="870.604" height="605.157" filterUnits="userSpaceOnUse">
      <feOffset dy="3" input="SourceAlpha"/>
      <feGaussianBlur stdDeviation="3" result="blur"/>
      <feFlood flood-opacity="0.161"/>
      <feComposite operator="in" in2="blur"/>
      <feComposite in="SourceGraphic"/>
    </filter>
    <filter id="Path_2" x="264.429" y="0" width="753.571" height="524.561" filterUnits="userSpaceOnUse">
      <feOffset dy="3" input="SourceAlpha"/>
      <feGaussianBlur stdDeviation="3" result="blur-2"/>
      <feFlood flood-opacity="0.161"/>
      <feComposite operator="in" in2="blur-2"/>
      <feComposite in="SourceGraphic"/>
    </filter>
  </defs>
  <g id="Group_26906" data-name="Group 26906" transform="translate(-2959.5 -8558.37)">
    <g id="Group_26892" data-name="Group 26892" transform="translate(2968.5 8564.37)">
      <g transform="matrix(1, 0, 0, 1, -9, -6)" filter="url(#Path_1)">
        <path id="Path_1-2" data-name="Path 1" d="M395.3,145.292c218.676-89.917,250.338,134.182,365.3,112.871s155.2,3.4,205.456,101.218c73.933,143.9-19.545,337.554-163.208,315.517C542.527,634.966,494.448,740,305.421,703.052S82.037,429.138,237.112,355.635C313.807,319.284,227.582,214.253,395.3,145.292Z" transform="translate(-130.37 -105.07)" fill="#dee8f0" opacity="0.5"/>
      </g>
      <g transform="matrix(1, 0, 0, 1, -9, -6)" filter="url(#Path_2)">
        <path id="Path_2-2" data-name="Path 2" d="M788.059,135.818C599.4,58.244,572.082,251.58,472.9,233.194s-133.9,2.936-177.254,87.326C231.864,444.667,312.511,611.74,436.456,592.727c224.583-34.452,266.062,56.161,429.142,24.29s192.722-236.317,58.931-299.73C858.361,285.925,932.752,195.313,788.059,135.818Z" transform="translate(0.15 -111.37)" fill="#dee8f0" opacity="0.5"/>
      </g>
    </g>
    <g id="Group_26893" data-name="Group 26893" transform="translate(2981.589 8606.539)">
      <g id="Group_2" data-name="Group 2" transform="translate(0 0)">
        <path id="Path_3" data-name="Path 3" d="M534.756,392.631h-156V146.7H231.347V138.84H386.659V384.775h148.1Z" transform="translate(-62.817 -138.84)" fill="#fff"/>
        <rect id="Rectangle_3" data-name="Rectangle 3" width="319.893" height="7.856" transform="translate(0 245.935)" fill="#fff"/>
        <path id="Path_4" data-name="Path 4" d="M425.983,493.891H191v-7.856H418.084V266.055h7.9Z" transform="translate(-102.141 -16.192)" fill="#fff"/>
      </g>
      <g id="Group_3" data-name="Group 3" transform="translate(432.448 0)">
        <path id="Path_5" data-name="Path 5" d="M521,392.631H365v-7.856H513.1V138.84H668.41V146.7H521Z" transform="translate(-365 -138.84)" fill="#fff"/>
        <rect id="Rectangle_4" data-name="Rectangle 4" width="319.893" height="7.856" transform="translate(152.047 245.935)" fill="#fff"/>
        <path id="Path_6" data-name="Path 6" d="M674.983,493.891H440V266.055h7.9V486.034H674.983Z" transform="translate(-291.902 -16.192)" fill="#fff"/>
      </g>
    </g>
  </g>
</svg>
