<svg xmlns="http://www.w3.org/2000/svg" width="50" height="50" viewBox="0 0 50 50">
  <g id="Group_31418" data-name="Group 31418" transform="translate(-10875 -8329)">
    <path id="Path" d="M0,25A25,25,0,1,1,25,50,25,25,0,0,1,0,25Z" transform="translate(10875 8329)" fill="#fff"/>
    <g id="Behance" transform="translate(10883 8337)">
      <g id="Behance-2" data-name="Behance">
        <path id="back" d="M0,17A17,17,0,1,1,17,34,17,17,0,0,1,0,17Z" fill="#1769ff"/>
        <path id="Shape" d="M14.1,11.333a4.566,4.566,0,0,1-2.918-1.006A3.944,3.944,0,0,1,9.913,7.056,4.416,4.416,0,0,1,11.054,3.8a4.048,4.048,0,0,1,2.962-1.134,4.788,4.788,0,0,1,1.949.384A3.347,3.347,0,0,1,17.4,4.256a3.963,3.963,0,0,1,.662,1.69,10.424,10.424,0,0,1,.073,1.623H12.093a1.963,1.963,0,0,0,.868,1.724,2.229,2.229,0,0,0,1.195.308,1.858,1.858,0,0,0,1.2-.374,1.794,1.794,0,0,0,.447-.563h2.212a2.683,2.683,0,0,1-.8,1.478A4.074,4.074,0,0,1,14.1,11.333Zm-.079-6.907a1.74,1.74,0,0,0-1.293.467,2.224,2.224,0,0,0-.578,1.265h3.734a1.8,1.8,0,0,0-.576-1.293A1.938,1.938,0,0,0,14.018,4.426ZM5.05,11.055H0V0H5.415a3.473,3.473,0,0,1,2.9,1.178,2.8,2.8,0,0,1,.514,1.687,2.447,2.447,0,0,1-.518,1.628,2.691,2.691,0,0,1-.855.629,2.526,2.526,0,0,1,1.3.976,2.909,2.909,0,0,1,.436,1.62,3.208,3.208,0,0,1-.5,1.763,3.086,3.086,0,0,1-2.059,1.425A7.909,7.909,0,0,1,5.05,11.055ZM2.234,6.188V9.136H4.955A2.694,2.694,0,0,0,6.09,8.942a1.4,1.4,0,0,0,.737-1.38,1.191,1.191,0,0,0-.713-1.186,2.88,2.88,0,0,0-1.121-.187Zm0-4.268V4.359H4.958a2.291,2.291,0,0,0,1.186-.274,1.044,1.044,0,0,0,.455-.97A1,1,0,0,0,6,2.092,4.314,4.314,0,0,0,4.673,1.92Zm14.155-.028h-4.8V.515h4.8V1.891Z" transform="translate(7.933 11.333)" fill="#fff"/>
      </g>
    </g>
  </g>
</svg>
