<svg xmlns="http://www.w3.org/2000/svg" width="50" height="50" viewBox="0 0 50 50">
  <g id="Group_31417" data-name="Group 31417" transform="translate(-10806.984 -8328.54)">
    <path id="Path" d="M0,25A25,25,0,1,1,25,50,25,25,0,0,1,0,25Z" transform="translate(10806.984 8328.54)" fill="#fff"/>
    <g id="Blogger" transform="translate(10815 8337)">
      <g id="Blogger-2" data-name="Blogger">
        <path id="Combined-Shape" d="M17,34A17,17,0,1,0,0,17,17,17,0,0,0,17,34Z" fill="#f57d00"/>
        <path id="Combined-Shape-2" data-name="Combined-Shape" d="M6.4,20.4A6.532,6.532,0,0,1,1.57,18.7,6.276,6.276,0,0,1,.015,13.746h0a.254.254,0,0,1,0-.028c0-.008,0-.016,0-.024s0-.022,0-.032a.316.316,0,0,1,0-.037H.024L.156,5.508h0A5.723,5.723,0,0,1,1.206,2.25,5.963,5.963,0,0,1,6.1.074h.065L10.952,0h.093A5.634,5.634,0,0,1,14.9,1.666a5.47,5.47,0,0,1,1.607,3.593h.009c0,.042.006.087.008.13s0,.074.006.111a7.578,7.578,0,0,1-.142,2.389c.109,0,.2.008.283.013a3.914,3.914,0,0,1,2.649.961,3.577,3.577,0,0,1,1.033,2.529c.031.465.033.919.035,1.445,0,.3,0,.609.009.953v.061a6.708,6.708,0,0,1-1.772,4.757A6.513,6.513,0,0,1,13.977,20.4H6.4Zm-.071-5.1H14.66a1.8,1.8,0,0,0,1.532-.843,1.645,1.645,0,0,0,0-1.714,1.8,1.8,0,0,0-1.53-.843H6.305a1.8,1.8,0,0,0-1.53.843,1.645,1.645,0,0,0,0,1.714,1.8,1.8,0,0,0,1.532.843Zm.6-10.767A1.764,1.764,0,0,0,5.1,6.177a1.584,1.584,0,0,0,.46,1.132A1.909,1.909,0,0,0,6.9,7.871l4.278.062h.031a1.764,1.764,0,0,0,1.825-1.642,1.582,1.582,0,0,0-.458-1.132A1.908,1.908,0,0,0,11.237,4.6L6.954,4.533H6.927Z" transform="translate(6.8 6.8)" fill="#fff"/>
      </g>
    </g>
  </g>
</svg>
