<svg xmlns="http://www.w3.org/2000/svg" width="18" height="17.082" viewBox="0 0 18 17.082">
  <g id="icons8-blogger" transform="translate(-19 -29.278)">
    <path id="Path_3506" data-name="Path 3506" d="M226.621,269.821a.775.775,0,0,0-.683-.543,5.675,5.675,0,0,0-1.268.046c-.547.038-1.094.061-1.637.144h0a.723.723,0,0,0-.057.919,1.292,1.292,0,0,0,1.094.4c.44-.008.881-.049,1.318-.068a2.278,2.278,0,0,0,.9-.178A.584.584,0,0,0,226.621,269.821Z" transform="translate(-196.097 -230.864)" fill="#f6851f"/>
    <path id="Path_3507" data-name="Path 3507" d="M167.608,135.944a1.5,1.5,0,0,0-.664-.938,9.978,9.978,0,0,1-1.359-.7c-.775-.627-.957-1.678-1.674-2.347a3.51,3.51,0,0,0-2.286-.782A2.962,2.962,0,0,0,159,131.9c0,1.283,0,2.567.046,3.85.023.653.053,1.31.11,1.963a3.058,3.058,0,0,0,.365,1.3,1.991,1.991,0,0,0,.854.816,3.563,3.563,0,0,0,1.58.273c.589-.008,1.177-.076,1.762-.057a10.8,10.8,0,0,0,1.568,0,3.273,3.273,0,0,0,1.5-.486,1.876,1.876,0,0,0,.729-1.037,5.71,5.71,0,0,0,.182-1.318A4.465,4.465,0,0,0,167.608,135.944Zm-6.975-2.035c-.486-.178-.4-.983.011-1.321a2.231,2.231,0,0,1,1.853-.243,1.249,1.249,0,0,1,.7.414.8.8,0,0,1,.027.82c-.209.41-.832.349-1.223.387-.289.027-.619-.027-.911.019a3.462,3.462,0,0,0-.44-.046A.082.082,0,0,1,160.633,133.909Zm4.746,3.922a1.775,1.775,0,0,1-.938.406c-.38.061-.771.046-1.154.076a3.315,3.315,0,0,1-1.458-.087,1.232,1.232,0,0,1-.8-.832,1.162,1.162,0,0,1,.292-1.094.191.191,0,0,1,.156-.065.253.253,0,0,1,.1-.042c.706-.106,1.424-.11,2.134-.182.695-.072,1.678-.019,1.887.816A1,1,0,0,1,165.379,137.831Z" transform="translate(-134.684 -98.008)" fill="#d6e5e5"/>
    <path id="Path_3508" data-name="Path 3508" d="M206.06,171.581a.618.618,0,0,0-.38-.27,2.183,2.183,0,0,0-1.295-.023.64.64,0,0,0-.494.467c-.038.2-.023.319.2.292a.191.191,0,0,1,.163.053c.186-.015.376,0,.558,0a5.359,5.359,0,0,0,.957-.072,1.243,1.243,0,0,0,.228-.061.613.613,0,0,0,.065-.156A.335.335,0,0,0,206.06,171.581Z" transform="translate(-177.856 -136.535)" fill="#f6851f"/>
    <path id="Path_3509" data-name="Path 3509" d="M46.941,46.637a7.463,7.463,0,0,0-.915-2.874c-1.693-2.791-5.411-3.793-8.486-3.467a9.2,9.2,0,0,0-5.2,2.255A6.914,6.914,0,0,0,30.546,45a8.992,8.992,0,0,0-.608,3.03.214.214,0,0,1-.038.114,9.429,9.429,0,0,0,.794,3.641A8.983,8.983,0,0,0,32.733,54.8a6.183,6.183,0,0,0,2.085,1.329,7.743,7.743,0,0,0,3.034.349,21.4,21.4,0,0,0,3.5-.494,10.14,10.14,0,0,0,2.741-.938,5.147,5.147,0,0,0,2.119-2.02,7.555,7.555,0,0,0,.809-3.049A16.336,16.336,0,0,0,46.941,46.637ZM43.888,50.1a2.925,2.925,0,0,1-1.029,2.32,4.706,4.706,0,0,1-3,.6,15.2,15.2,0,0,1-3.429-.11,2.52,2.52,0,0,1-1.7-1.663,5.5,5.5,0,0,1-.22-1.382c-.042-.611-.068-1.226-.087-1.842-.038-1.238-.038-2.479-.038-3.717a.211.211,0,0,1,.163-.209,2.651,2.651,0,0,1,1.8-.809,7.667,7.667,0,0,1,1.1.011,6.982,6.982,0,0,1,.972.106,3.141,3.141,0,0,1,1.6.813,3.72,3.72,0,0,1,.589.763c.186.323.338.664.547.976a2.549,2.549,0,0,0,1.215.961,2.408,2.408,0,0,1,1.113.748A3.66,3.66,0,0,1,43.888,50.1Z" transform="translate(-10.486 -10.543)" fill="#f6851f"/>
    <path id="Path_3510" data-name="Path 3510" d="M36.971,37.226a10.291,10.291,0,0,0-.634-3.319A6.264,6.264,0,0,0,35.042,31.9a8.544,8.544,0,0,0-4.2-2.293A11.081,11.081,0,0,0,26,29.5a9.5,9.5,0,0,0-4.883,2.647,6.938,6.938,0,0,0-1.561,2.476,9.588,9.588,0,0,0-.513,2.814.214.214,0,0,0-.042.133,10.08,10.08,0,0,0,1.424,5.027A7.594,7.594,0,0,0,24.1,45.936a7.828,7.828,0,0,0,2.946.421,19.144,19.144,0,0,0,3.5-.433,8.27,8.27,0,0,0,5.111-2.582C36.994,41.657,37.066,39.276,36.971,37.226Zm-.433,2.2a7.584,7.584,0,0,1-.809,3.049,5.149,5.149,0,0,1-2.119,2.02,10.14,10.14,0,0,1-2.741.938,21.4,21.4,0,0,1-3.5.494,7.878,7.878,0,0,1-3.034-.349,6.183,6.183,0,0,1-2.085-1.329,8.945,8.945,0,0,1-2.039-3.007,9.4,9.4,0,0,1-.794-3.641.214.214,0,0,0,.038-.114,9.085,9.085,0,0,1,.608-3.03,6.868,6.868,0,0,1,1.8-2.453,9.2,9.2,0,0,1,5.2-2.255c3.079-.327,6.8.68,8.486,3.47a7.422,7.422,0,0,1,.915,2.874A16.306,16.306,0,0,1,36.538,39.428Z"/>
    <path id="Path_3511" data-name="Path 3511" d="M157,124.495a2.408,2.408,0,0,0-1.113-.748,2.509,2.509,0,0,1-1.215-.961c-.209-.311-.361-.653-.547-.976a3.593,3.593,0,0,0-.589-.763,3.156,3.156,0,0,0-1.6-.813,7.535,7.535,0,0,0-.972-.106,7.668,7.668,0,0,0-1.1-.011,2.651,2.651,0,0,0-1.8.809.211.211,0,0,0-.163.209c0,1.238,0,2.479.038,3.717.019.615.046,1.226.087,1.842a5.5,5.5,0,0,0,.22,1.382,2.52,2.52,0,0,0,1.7,1.663,15.2,15.2,0,0,0,3.429.11,4.755,4.755,0,0,0,3-.6,2.925,2.925,0,0,0,1.029-2.32A3.668,3.668,0,0,0,157,124.495Zm.011,2.088a5.327,5.327,0,0,1-.182,1.318,1.9,1.9,0,0,1-.729,1.037,3.273,3.273,0,0,1-1.5.486,11.377,11.377,0,0,1-1.568,0c-.589-.019-1.177.049-1.762.057a3.564,3.564,0,0,1-1.58-.273,1.992,1.992,0,0,1-.854-.816,3.059,3.059,0,0,1-.365-1.3c-.053-.653-.087-1.306-.11-1.963-.046-1.283-.046-2.567-.046-3.85a2.954,2.954,0,0,1,2.624-.725,3.51,3.51,0,0,1,2.286.782c.718.668.9,1.72,1.674,2.347a9.567,9.567,0,0,0,1.359.7,1.5,1.5,0,0,1,.664.938A4.206,4.206,0,0,1,157.013,126.583Z" transform="translate(-124.006 -87.375)"/>
    <path id="Path_3512" data-name="Path 3512" d="M198.437,164.733c-.209-.835-1.188-.889-1.887-.816s-1.424.076-2.134.182a.278.278,0,0,0-.1.042.225.225,0,0,0-.156.065,1.169,1.169,0,0,0-.292,1.094,1.239,1.239,0,0,0,.8.832,3.316,3.316,0,0,0,1.458.087c.383-.03.775-.015,1.154-.076a1.746,1.746,0,0,0,.938-.406A.984.984,0,0,0,198.437,164.733Zm-.729.854a2.279,2.279,0,0,1-.9.178c-.44.019-.881.061-1.318.068a1.288,1.288,0,0,1-1.094-.4.723.723,0,0,1,.057-.919h0c.543-.084,1.09-.106,1.637-.144a5.912,5.912,0,0,1,1.268-.046.767.767,0,0,1,.683.543A.577.577,0,0,1,197.708,165.588Zm-1.674-4.921a1.205,1.205,0,0,0-.7-.414,2.231,2.231,0,0,0-1.853.243c-.41.334-.5,1.143-.011,1.321,0,.011.011.023.015.034a3.4,3.4,0,0,1,.44.046c.3-.046.623.008.911-.019.391-.038,1.014.023,1.223-.387A.785.785,0,0,0,196.033,160.667Zm-.3.52a.792.792,0,0,1-.065.156,1.513,1.513,0,0,1-.228.061,5.032,5.032,0,0,1-.957.072c-.182,0-.376-.011-.558,0a.181.181,0,0,0-.163-.053c-.224.027-.239-.095-.2-.292a.635.635,0,0,1,.494-.467,2.182,2.182,0,0,1,1.295.023.618.618,0,0,1,.38.27A.336.336,0,0,1,195.73,161.187Z" transform="translate(-167.522 -125.912)"/>
  </g>
</svg>
