<svg xmlns="http://www.w3.org/2000/svg" width="553.859" height="350" viewBox="0 0 553.859 350">
  <g id="Group_30640" data-name="Group 30640" transform="translate(-430.94 -385.753)">
    <path id="Exclusion_16" data-name="Exclusion 16" d="M155.417,310.835a156.565,156.565,0,0,1-31.322-3.158,154.567,154.567,0,0,1-55.573-23.385,155.872,155.872,0,0,1-56.308-68.379,154.636,154.636,0,0,1-9.056-29.173,156.934,156.934,0,0,1,0-62.644A154.567,154.567,0,0,1,26.543,68.522,155.87,155.87,0,0,1,94.922,12.213,154.634,154.634,0,0,1,124.1,3.157a156.934,156.934,0,0,1,62.644,0,154.567,154.567,0,0,1,55.573,23.385,155.87,155.87,0,0,1,56.309,68.379,154.625,154.625,0,0,1,9.056,29.173,156.932,156.932,0,0,1,0,62.644,154.567,154.567,0,0,1-23.385,55.573,155.872,155.872,0,0,1-68.379,56.309,154.627,154.627,0,0,1-29.173,9.056A156.563,156.563,0,0,1,155.417,310.835Zm0-281.616c-67.872,0-123.09,56.613-123.09,126.2s55.218,126.2,123.09,126.2,123.09-56.612,123.09-126.2S223.29,29.218,155.417,29.218Z" transform="translate(430.94 424.918)" fill="#2c2167" opacity="0.56"/>
    <path id="Exclusion_17" data-name="Exclusion 17" d="M140.5,274.778a144.625,144.625,0,0,1-28.315-2.791,141.109,141.109,0,0,1-71.031-37.449A139.1,139.1,0,0,1,23.995,214.2a136.479,136.479,0,0,1-12.954-23.338,134.813,134.813,0,0,1,0-106.956A136.476,136.476,0,0,1,23.995,60.573,139.094,139.094,0,0,1,41.151,40.24,141.269,141.269,0,0,1,112.182,2.791a145.014,145.014,0,0,1,56.63,0A141.109,141.109,0,0,1,239.844,40.24,139.1,139.1,0,0,1,257,60.573a136.47,136.47,0,0,1,12.954,23.338,134.813,134.813,0,0,1,0,106.956A136.478,136.478,0,0,1,257,214.2a139.1,139.1,0,0,1-17.156,20.333,141.269,141.269,0,0,1-71.032,37.449A144.623,144.623,0,0,1,140.5,274.778Zm0-248.949c-61.357,0-111.274,50.046-111.274,111.56S79.141,248.948,140.5,248.948,251.771,198.9,251.771,137.389,201.854,25.829,140.5,25.829Z" transform="translate(626.766 385.753)" fill="#2a0f60" opacity="0.56"/>
    <path id="Shape" d="M38.39,17.466l.171,2.84-2.856-.348A46.375,46.375,0,0,1,8.512,6.512L4.742,2.745,3.77,5.527A16.787,16.787,0,0,0,7.312,22.682c2.285,2.434,1.771,2.782-2.171,1.333-1.371-.464-2.571-.811-2.685-.638-.4.406.971,5.68,2.057,7.766a18.487,18.487,0,0,0,7.827,7.419l2.8,1.333-3.313.058c-3.2,0-3.313.058-2.971,1.275C10,45,14.511,48.995,19.538,50.734l3.542,1.217-3.085,1.855a32.045,32.045,0,0,1-15.31,4.289c-2.571.058-4.684.29-4.684.464,0,.58,6.97,3.825,11.026,5.1A48.048,48.048,0,0,0,48.5,59.369c7.712-4.579,15.425-13.678,19.024-22.487,1.942-4.695,3.885-13.272,3.885-17.387,0-2.666.171-3.014,3.371-6.2a37.786,37.786,0,0,0,4-4.463c.571-1.1.514-1.1-2.4-.116-4.856,1.739-5.541,1.507-3.142-1.1,1.771-1.855,3.885-5.216,3.885-6.2,0-.174-.857.116-1.828.638A31.779,31.779,0,0,1,70.267,4.02l-3.085.985-2.8-1.913A23.212,23.212,0,0,0,59.527.543a19.425,19.425,0,0,0-10,.232A16.593,16.593,0,0,0,38.39,17.466Z" transform="translate(895.689 419.412)" fill="#2c2167"/>
    <path id="Shape-path" d="M12.7,0V38.169H0V0Z" transform="matrix(1, 0.017, -0.017, 1, 794.07, 682.179)" fill="#2c2167" stroke="rgba(0,0,0,0)" stroke-miterlimit="10" stroke-width="1"/>
    <path id="Shape-path-2" data-name="Shape-path" d="M14.292,6.593c0,3.665-2.759,6.6-7.188,6.6H7.022C2.757,13.19,0,10.258,0,6.593,0,2.85,2.841,0,7.187,0S14.209,2.85,14.292,6.593Z" transform="matrix(1, 0.017, -0.017, 1, 793.641, 663.769)" fill="#2c2167" stroke="rgba(0,0,0,0)" stroke-miterlimit="10" stroke-width="1"/>
    <path id="Shape-path-3" data-name="Shape-path" d="M38.782,17.18V39.065h-12.7V18.645c0-5.129-1.838-8.629-6.437-8.629a6.952,6.952,0,0,0-6.518,4.638,8.677,8.677,0,0,0-.418,3.1V39.066H0S.167,4.479,0,.9H12.705V6.3A12.614,12.614,0,0,1,24.156,0C32.515,0,38.782,5.456,38.782,17.18Z" transform="matrix(1, 0.017, -0.017, 1, 813.819, 681.628)" fill="#2c2167" stroke="rgba(0,0,0,0)" stroke-miterlimit="10" stroke-width="1"/>
    <path id="Fill-1" d="M48.391,5.2A6.078,6.078,0,0,0,44.021.994C40.167,0,24.712,0,24.712,0S9.257,0,5.4.994A6.078,6.078,0,0,0,1.033,5.2C0,8.91,0,16.651,0,16.651S0,24.392,1.033,28.1A6.079,6.079,0,0,0,5.4,32.308c3.854.994,19.31.994,19.31.994s15.455,0,19.309-.994a6.079,6.079,0,0,0,4.37-4.206c1.033-3.71,1.033-11.451,1.033-11.451s0-7.741-1.033-11.451" transform="translate(935.376 613.017)" fill="#2c2167"/>
    <path id="Fill-2" d="M0,14.479V0L12.356,7.24Z" transform="translate(955.454 623.152)" fill="#776cb4"/>
  </g>
</svg>
