<svg id="Group_26750" data-name="Group 26750" xmlns="http://www.w3.org/2000/svg" width="160.732" height="160.732" viewBox="0 0 160.732 160.732">
  <circle id="Ellipse_24" data-name="Ellipse 24" cx="80.366" cy="80.366" r="80.366" fill="#fff"/>
  <g id="treecard_logo" data-name="treecard logo" transform="translate(10.715 58.935)">
    <path id="Path_3579" data-name="Path 3579" d="M.719,7.107A6.387,6.387,0,0,1,7.107.719H24.794a6.387,6.387,0,0,1,6.387,6.387V31.468a6.387,6.387,0,0,1-6.387,6.387H7.107A6.387,6.387,0,0,1,.719,31.468ZM7.107,3.667A3.439,3.439,0,0,0,3.667,7.107V31.468a3.439,3.439,0,0,0,3.439,3.439H24.794a3.439,3.439,0,0,0,3.439-3.439V7.107a3.439,3.439,0,0,0-3.439-3.439Z" transform="translate(-0.719 -0.719)" fill="#30214f" fill-rule="evenodd"/>
    <path id="Path_3580" data-name="Path 3580" d="M15.621,28.22V2.214H12.673V43.575h2.948V35.306c.086-4.259,3.16-6.5,7.425-8.222A9.8,9.8,0,0,0,29.378,18.1H26.43a6.854,6.854,0,0,1-4.489,6.256A18.713,18.713,0,0,0,15.621,28.22Z" transform="translate(1.084 -0.494)" fill="#30214f" fill-rule="evenodd"/>
    <path id="Path_3581" data-name="Path 3581" d="M7.065,17.242A9.755,9.755,0,0,1,.719,8.266H3.667A6.81,6.81,0,0,0,8.154,14.5a18.833,18.833,0,0,1,6.336,3.8,9.57,9.57,0,0,1,2.934,7.172l-2.948-.03A6.629,6.629,0,0,0,12.418,20.4,15.989,15.989,0,0,0,7.065,17.242Z" transform="translate(-0.719 0.419)" fill="#30214f" fill-rule="evenodd"/>
    <path id="Path_3582" data-name="Path 3582" d="M45.155,18.442H42.227v5.389a1.281,1.281,0,0,0,.337.985,1.6,1.6,0,0,0,.985.363q.648.026,1.606-.026v3.031q-3.446.389-4.871-.648-1.4-1.036-1.4-3.705V12.612l3.342-1.01v3.627h2.928Z" transform="translate(5.039 0.923)" fill="#30214f"/>
    <path id="Path_3583" data-name="Path 3583" d="M49.449,17.016a3.507,3.507,0,0,1,1.529-1.865,4.771,4.771,0,0,1,2.41-.622v3.731a3.981,3.981,0,0,0-2.746.622,2.981,2.981,0,0,0-1.192,2.669v6.192H46.106V14.788h3.342Z" transform="translate(6.128 1.364)" fill="#30214f"/>
    <path id="Path_3584" data-name="Path 3584" d="M56.175,22.652q.674,2.435,3.653,2.435a3.418,3.418,0,0,0,2.9-1.3l2.695,1.555a6.426,6.426,0,0,1-5.648,2.772,6.969,6.969,0,0,1-5.156-1.943,6.639,6.639,0,0,1-1.943-4.9,6.654,6.654,0,0,1,1.917-4.871,6.571,6.571,0,0,1,4.923-1.969,6.136,6.136,0,0,1,4.69,1.969,6.811,6.811,0,0,1,1.865,4.871,7.819,7.819,0,0,1-.13,1.373Zm-.052-2.591H62.73a3.109,3.109,0,0,0-1.192-1.969,3.322,3.322,0,0,0-2.021-.648,3.471,3.471,0,0,0-2.228.7A3.222,3.222,0,0,0,56.124,20.061Z" transform="translate(7.12 1.351)" fill="#30214f"/>
    <path id="Path_3585" data-name="Path 3585" d="M68.718,22.652q.674,2.435,3.653,2.435a3.418,3.418,0,0,0,2.9-1.3l2.695,1.555a6.426,6.426,0,0,1-5.648,2.772,6.969,6.969,0,0,1-5.156-1.943,6.639,6.639,0,0,1-1.943-4.9,6.655,6.655,0,0,1,1.917-4.871,6.571,6.571,0,0,1,4.923-1.969,6.136,6.136,0,0,1,4.69,1.969,6.811,6.811,0,0,1,1.865,4.871,7.828,7.828,0,0,1-.129,1.373Zm-.052-2.591h6.607a3.109,3.109,0,0,0-1.192-1.969,3.322,3.322,0,0,0-2.021-.648,3.471,3.471,0,0,0-2.228.7A3.222,3.222,0,0,0,68.667,20.061Z" transform="translate(9.012 1.351)" fill="#30214f"/>
    <path id="Path_3586" data-name="Path 3586" d="M84.6,28.119a6.685,6.685,0,0,1-6.84-6.84A6.874,6.874,0,0,1,88.05,15.345a6.03,6.03,0,0,1,2.358,2.435l-2.876,1.684A2.912,2.912,0,0,0,86.34,18.2a3.564,3.564,0,0,0-4.249.544,3.436,3.436,0,0,0-.985,2.539,3.491,3.491,0,0,0,.985,2.539,3.371,3.371,0,0,0,2.487.985,3.562,3.562,0,0,0,1.788-.44,2.912,2.912,0,0,0,1.192-1.27l2.9,1.658a6.586,6.586,0,0,1-2.41,2.461A6.714,6.714,0,0,1,84.6,28.119Z" transform="translate(10.905 1.351)" fill="#30214f"/>
    <path id="Path_3587" data-name="Path 3587" d="M99.639,14.8h3.342V27.756H99.639V26.227a5.087,5.087,0,0,1-4.223,1.891,5.927,5.927,0,0,1-4.456-1.969,6.922,6.922,0,0,1-1.84-4.871,6.831,6.831,0,0,1,1.84-4.845,5.893,5.893,0,0,1,4.456-2,5.086,5.086,0,0,1,4.223,1.891Zm-6.166,9.12a3.761,3.761,0,0,0,5.13,0,3.579,3.579,0,0,0,1.036-2.643A3.493,3.493,0,0,0,98.6,18.662a3.693,3.693,0,0,0-5.13,0,3.541,3.541,0,0,0-1.01,2.617A3.629,3.629,0,0,0,93.473,23.921Z" transform="translate(12.618 1.351)" fill="#30214f"/>
    <path id="Path_3588" data-name="Path 3588" d="M106.69,17.016a3.507,3.507,0,0,1,1.528-1.865,4.769,4.769,0,0,1,2.41-.622v3.731a3.983,3.983,0,0,0-2.747.622,2.981,2.981,0,0,0-1.191,2.669v6.192h-3.343V14.788h3.343Z" transform="translate(14.764 1.364)" fill="#30214f"/>
    <path id="Path_3589" data-name="Path 3589" d="M120.416,10.251h3.342V28.388h-3.342V26.859a5.016,5.016,0,0,1-4.2,1.891,5.955,5.955,0,0,1-4.483-1.969,6.921,6.921,0,0,1-1.84-4.871,6.83,6.83,0,0,1,1.84-4.845,5.92,5.92,0,0,1,4.483-2,5.016,5.016,0,0,1,4.2,1.891Zm-6.166,14.3a3.561,3.561,0,0,0,2.591,1.01,3.478,3.478,0,0,0,2.565-1.01,3.631,3.631,0,0,0,1.01-2.643,3.542,3.542,0,0,0-1.01-2.617,3.433,3.433,0,0,0-2.565-1.036,3.5,3.5,0,0,0-3.6,3.653A3.627,3.627,0,0,0,114.25,24.553Z" transform="translate(15.752 0.719)" fill="#30214f"/>
    <path id="Path_3590" data-name="Path 3590" d="M17.3,16.454a5.457,5.457,0,0,0,6.07-6.069,5.457,5.457,0,0,0-6.07,6.069Z" transform="translate(1.776 0.733)" fill="#33bc84" fill-rule="evenodd"/>
    <path id="Path_3591" data-name="Path 3591" d="M11.6,12.171A5.458,5.458,0,0,1,5.529,6.1a5.458,5.458,0,0,1,6.07,6.07Z" transform="translate(0.001 0.087)" fill="#33bc84" fill-rule="evenodd"/>
    <path id="Path_3592" data-name="Path 3592" d="M11.6,27.433a5.457,5.457,0,0,1-6.07-6.069,5.457,5.457,0,0,1,6.07,6.069Z" transform="translate(0.001 2.39)" fill="#33bc84" fill-rule="evenodd"/>
  </g>
</svg>
