<svg xmlns="http://www.w3.org/2000/svg" width="15.404" height="15.716" viewBox="0 0 15.404 15.716">
  <path id="Icon_ionic-ios-call" data-name="Icon ionic-ios-call" d="M14.453,11.907a12.485,12.485,0,0,0-2.611-1.785c-.783-.384-1.069-.376-1.623.032-.461.34-.759.657-1.29.538a7.7,7.7,0,0,1-2.592-1.96A7.806,7.806,0,0,1,4.418,6.083c-.112-.546.2-.847.527-1.318.4-.566.411-.859.031-1.659A12.543,12.543,0,0,0,3.229.438c-.57-.582-.7-.455-1.011-.34a5.71,5.71,0,0,0-.926.5A2.831,2.831,0,0,0,.18,1.8c-.221.487-.477,1.393.825,3.761a20.954,20.954,0,0,0,3.611,4.921h0l0,0,0,0h0a20.661,20.661,0,0,0,4.816,3.69c2.317,1.33,3.2,1.069,3.681.843a2.77,2.77,0,0,0,1.174-1.136,5.927,5.927,0,0,0,.492-.946C14.9,12.619,15.026,12.488,14.453,11.907Z" transform="matrix(0.999, 0.035, -0.035, 0.999, 0.531, 0)" fill="#30214f"/>
</svg>
