<svg id="Group_31379" data-name="Group 31379" xmlns="http://www.w3.org/2000/svg" xmlns:xlink="http://www.w3.org/1999/xlink" width="122.194" height="53" viewBox="0 0 122.194 53">
  <defs>
    <filter id="e" x="10.757" y="6.295" width="27" height="36" filterUnits="userSpaceOnUse">
      <feOffset dx="6" dy="6" input="SourceAlpha"/>
      <feGaussianBlur stdDeviation="3" result="blur"/>
      <feFlood flood-opacity="0.161"/>
      <feComposite operator="in" in2="blur"/>
      <feComposite in="SourceGraphic"/>
    </filter>
    <filter id="card" x="28.602" y="6.028" width="63" height="41" filterUnits="userSpaceOnUse">
      <feOffset dy="3" input="SourceAlpha"/>
      <feGaussianBlur stdDeviation="3" result="blur-2"/>
      <feFlood flood-opacity="0.161"/>
      <feComposite operator="in" in2="blur-2"/>
      <feComposite in="SourceGraphic"/>
    </filter>
  </defs>
  <g id="Group_31218" data-name="Group 31218" transform="translate(0 0)">
    <g id="Group_30641" data-name="Group 30641" transform="translate(0 0)">
      <g id="Group_26816" data-name="Group 26816" transform="translate(13.757 9.295)">
        <g transform="matrix(1, 0, 0, 1, -13.76, -9.29)" filter="url(#e)">
          <text id="e-2" data-name="e" transform="translate(13.76 23.29)" fill="#21c98b" font-size="14" font-family="Montserrat-ExtraBold, Montserrat" font-weight="800"><tspan x="0" y="0">e</tspan></text>
        </g>
      </g>
      <g id="Group_26831" data-name="Group 26831" transform="translate(0 17.221)">
        <rect id="Rectangle_1557" data-name="Rectangle 1557" width="8.048" height="28.147" fill="#232b58"/>
      </g>
      <g id="Group_26832" data-name="Group 26832" transform="translate(88.393 0)">
        <rect id="Rectangle_1557-2" data-name="Rectangle 1557" width="8.048" height="33.8" rx="4.024" transform="translate(25.752 4.024)" fill="#232b58"/>
        <path id="Rectangle_1558" data-name="Rectangle 1558" d="M0,0H8.048a0,0,0,0,1,0,0V25.753A8.048,8.048,0,0,1,0,33.8H0a0,0,0,0,1,0,0V0A0,0,0,0,1,0,0Z" transform="translate(0 8.048) rotate(-90)" fill="#232b58"/>
      </g>
      <g id="Group_26833" data-name="Group 26833" transform="translate(0)">
        <rect id="Rectangle_1559" data-name="Rectangle 1559" width="8.048" height="81.011" transform="translate(7.841 8.048) rotate(-90)" fill="#21c98b"/>
        <path id="Rectangle_1560" data-name="Rectangle 1560" d="M8.048,0h0a0,0,0,0,1,0,0V17.169a0,0,0,0,1,0,0H0a0,0,0,0,1,0,0V8.048A8.048,8.048,0,0,1,8.048,0Z" transform="translate(0 0)" fill="#21c98b"/>
      </g>
    </g>
    <rect id="Rectangle_1693" data-name="Rectangle 1693" width="8.048" height="33.8" rx="4.024" transform="translate(33.8 41.952) rotate(90)" fill="#232b58"/>
  </g>
  <g id="Group_31256" data-name="Group 31256" transform="translate(13.857 12.028)">
    <g id="Group_26815" data-name="Group 26815" transform="translate(23.744)">
      <g transform="matrix(1, 0, 0, 1, -37.6, -12.03)" filter="url(#card)">
        <text id="card-2" data-name="card" transform="translate(37.6 30.03)" fill="#232b58" font-size="19" font-family="Montserrat-ExtraBold, Montserrat" font-weight="800"><tspan x="0" y="0">card</tspan></text>
      </g>
    </g>
    <g id="Group_31216" data-name="Group 31216" transform="translate(0 1.851)">
      <g id="Group_31215" data-name="Group 31215">
        <path id="Path_12439" data-name="Path 12439" d="M16370.764,16320.037s-4.07,1.1-6.871-.437a4.9,4.9,0,0,1-2.8-3.984s10.986,2.016,10.813-6.564-10.812-7.223-10.812-7.223-8.49.133-9.414,10.943,9.414,10.986,9.414,10.986a13.482,13.482,0,0,0,5.207-.7A14.6,14.6,0,0,0,16370.764,16320.037Z" transform="translate(-16351.62 -16301.75)" fill="#21c98b"/>
        <path id="Path_12440" data-name="Path 12440" d="M16469.152,16373.076a4.282,4.282,0,0,1,2.453-3.9,3.279,3.279,0,0,1,4.246,1.01s1.135,2.186-1.752,3.15A6.3,6.3,0,0,1,16469.152,16373.076Z" transform="translate(-16460.385 -16363.762)" fill="#fff"/>
      </g>
      <path id="Path_12438" data-name="Path 12438" d="M16369.828,16339.011s-6.01,2.9-9.4-.75a7,7,0,0,1-1.686-7.434,10.192,10.192,0,0,1,1.451-3.186,5.558,5.558,0,0,1,2.389-1.727s2.566-.279,3.438,1.568-2.641,3.965-2.641,3.965,2.461.053,3.16-1.891a4.567,4.567,0,0,0-.52-3.756s.729-4.123-5.592-3.477-7.744,4.248-7.744,4.248-2.359,1.967-2.152,6.344,1.84,6.094,1.84,6.094,2.1,3.594,8.057,3.8A12.461,12.461,0,0,0,16369.828,16339.011Z" transform="translate(-16350.519 -16320.788)" fill="#232b58"/>
    </g>
  </g>
  <text id="Personal" transform="translate(35.469 49)" fill="#21c98b" font-size="10" font-family="Poppins-ExtraBold, Poppins" font-weight="800"><tspan x="0" y="0">Personal</tspan></text>
</svg>
