<svg xmlns="http://www.w3.org/2000/svg" xmlns:xlink="http://www.w3.org/1999/xlink" width="1381.052" height="850.128" viewBox="0 0 1381.052 850.128">
  <defs>
    <filter id="Path_2" x="310.856" y="213.906" width="910.91" height="636.221" filterUnits="userSpaceOnUse">
      <feOffset dx="3" dy="3" input="SourceAlpha"/>
      <feGaussianBlur stdDeviation="3" result="blur"/>
      <feFlood flood-opacity="0.161"/>
      <feComposite operator="in" in2="blur"/>
      <feComposite in="SourceGraphic"/>
    </filter>
  </defs>
  <g id="Group_30643" data-name="Group 30643" transform="translate(-381 -185.403)">
    <g id="Group_30642" data-name="Group 30642" transform="translate(381 185.403)">
      <g id="Group_30566" data-name="Group 30566" transform="translate(316.856 219.906)">
        <g transform="matrix(1, 0, 0, 1, -316.86, -219.91)" filter="url(#Path_2)">
          <path id="Path_2-2" data-name="Path 2" d="M541.317,139.879c229-94.661,262.178,141.289,382.549,118.853,120.4-22.436,162.516,3.6,215.2,106.574,77.381,151.516-20.483,355.406-170.946,332.2-272.6-42.034-322.954,68.558-520.929,29.643-197.976-38.887-233.94-288.394-71.565-365.774C455.956,323.089,365.679,212.511,541.317,139.879Z" transform="translate(43.57 102.54)" fill="#dee8f0" opacity="0.5"/>
        </g>
      </g>
      <path id="Path_10746" data-name="Path 10746" d="M161.525,114.216,47.31,228.432h0A161.523,161.523,0,0,1,47.31,0V0L161.525,114.216Z" transform="translate(676.702 108.081) rotate(-42)" fill="#21c98b" opacity="0.77"/>
      <path id="Rectangle_1585" data-name="Rectangle 1585" d="M0,0H146.626a0,0,0,0,1,0,0V145.869a120,120,0,0,1-120,120H0a0,0,0,0,1,0,0V0A0,0,0,0,1,0,0Z" transform="translate(0 566.718)" fill="#21c98b"/>
      <path id="Path_11309" data-name="Path 11309" d="M-1158.614,783.127a79.959,79.959,0,0,1-79.91,80.022,79.959,79.959,0,0,1-79.909-80.022,79.959,79.959,0,0,1,79.909-80.022,79.959,79.959,0,0,1,79.91,80.022Z" transform="translate(2172.318 -83.833)" fill="#303970" opacity="0.67"/>
      <path id="Path_3500" data-name="Path 3500" d="M0,0H34.609V48.581L17.6,33.014,0,48.581Z" transform="translate(1209.769 114.635)" fill="#fff"/>
      <path id="Line" d="M0,.5H154.341" transform="translate(472.166 504.316)" fill="none" stroke="#d2d2d2" stroke-linecap="square" stroke-miterlimit="10" stroke-width="1"/>
      <path id="Rectangle_1586" data-name="Rectangle 1586" d="M0,0H146.626a0,0,0,0,1,0,0V265.869a0,0,0,0,1,0,0H120a120,120,0,0,1-120-120V0A0,0,0,0,1,0,0Z" transform="translate(1180.941 580.858)" fill="#303970" opacity="0.79"/>
      <path id="Path_11310" data-name="Path 11310" d="M-1158.614,783.127a79.959,79.959,0,0,1-79.91,80.022,79.959,79.959,0,0,1-79.909-80.022,79.959,79.959,0,0,1,79.909-80.022,79.959,79.959,0,0,1,79.91,80.022Z" transform="translate(2539.666 -483.212)" fill="#21c98b" opacity="0.74"/>
    </g>
  </g>
</svg>
