<svg xmlns="http://www.w3.org/2000/svg" width="50" height="50" viewBox="0 0 50 50">
  <g id="Group_31416" data-name="Group 31416" transform="translate(-10731 -8329)">
    <path id="Path" d="M0,25A25,25,0,1,1,25,50,25,25,0,0,1,0,25Z" transform="translate(10731 8329)" fill="#fff"/>
    <g id="Dribbble" transform="translate(10739 8337)">
      <g id="Dribbble-2" data-name="Dribbble">
        <path id="back" d="M0,17A17,17,0,1,1,17,34,17,17,0,0,1,0,17Z" fill="#f26798"/>
        <path id="Path-2" data-name="Path" d="M9.067,18.108A9.054,9.054,0,0,1,4,16.561a9.243,9.243,0,0,1-1.34-1.105A9.062,9.062,0,0,1,.184,7.231a9.017,9.017,0,0,1,1.365-3.24A9.108,9.108,0,0,1,5.537.711a8.985,8.985,0,0,1,1.7-.527,9.17,9.17,0,0,1,3.652,0,8.992,8.992,0,0,1,1.7.527,9.114,9.114,0,0,1,1.54.836,9.238,9.238,0,0,1,1.341,1.1,9.084,9.084,0,0,1,1.106,1.34,8.987,8.987,0,0,1,1.365,3.24,9.057,9.057,0,0,1-.528,5.347,8.884,8.884,0,0,1-.836,1.538,9.09,9.09,0,0,1-1.106,1.34,9.287,9.287,0,0,1-1.341,1.105,9.079,9.079,0,0,1-5.069,1.547ZM10.435,10.3h0l-.017.006-.034.012a11.95,11.95,0,0,0-4.745,3,7.687,7.687,0,0,0-1.331,1.832,7.747,7.747,0,0,0,7.781,1.024A32.012,32.012,0,0,0,10.435,10.3ZM13.5,9.818h0a10.228,10.228,0,0,0-1.612.125,33.719,33.719,0,0,1,1.507,5.523,7.756,7.756,0,0,0,3.318-5.187A11.315,11.315,0,0,0,13.5,9.819ZM1.33,8.808l0,.064c0,.059,0,.121,0,.183a7.707,7.707,0,0,0,1.984,5.166,11.5,11.5,0,0,1,1.586-2.056A11.529,11.529,0,0,1,9.6,9.113c.1-.034.207-.064.305-.092-.185-.418-.4-.86-.628-1.314a28.59,28.59,0,0,1-7.67,1.1C1.45,8.811,1.352,8.809,1.33,8.808ZM13.2,8.618a19,19,0,0,1,3.6.355l.01,0a7.736,7.736,0,0,0-1.761-4.832A10.343,10.343,0,0,1,10.732,7.2c.2.4.366.772.514,1.121.066.155.119.283.167.4A14.381,14.381,0,0,1,13.2,8.618ZM5.762,2.06a7.769,7.769,0,0,0-4.273,5.4h.13a28.951,28.951,0,0,0,7.018-.945A46.092,46.092,0,0,0,5.762,2.06Zm3.3-.738a7.8,7.8,0,0,0-1.825.217l.012.015A39.835,39.835,0,0,1,10.136,6.05a8.453,8.453,0,0,0,4.043-2.8A7.723,7.723,0,0,0,9.067,1.323Z" transform="translate(7.933 7.933)" fill="#fff"/>
      </g>
    </g>
  </g>
</svg>
