<svg xmlns="http://www.w3.org/2000/svg" xmlns:xlink="http://www.w3.org/1999/xlink" width="238" height="106" viewBox="0 0 238 106">
  <defs>
    <filter id="e" x="25" y="16" width="54" height="86" filterUnits="userSpaceOnUse">
      <feOffset dx="6" dy="6" input="SourceAlpha"/>
      <feGaussianBlur stdDeviation="3" result="blur"/>
      <feFlood flood-opacity="0.161"/>
      <feComposite operator="in" in2="blur"/>
      <feComposite in="SourceGraphic"/>
    </filter>
    <filter id="card" x="68" y="13" width="149" height="85" filterUnits="userSpaceOnUse">
      <feOffset dy="3" input="SourceAlpha"/>
      <feGaussianBlur stdDeviation="3" result="blur-2"/>
      <feFlood flood-opacity="0.161"/>
      <feComposite operator="in" in2="blur-2"/>
      <feComposite in="SourceGraphic"/>
    </filter>
  </defs>
  <g id="Group_26913" data-name="Group 26913" transform="translate(-118 -268)">
    <g id="Group_26816" data-name="Group 26816" transform="translate(146.117 286.998)">
      <g transform="matrix(1, 0, 0, 1, -28.12, -19)" filter="url(#e)">
        <text id="e-2" data-name="e" transform="translate(28 73)" fill="#21c98b" font-size="56" font-family="Montserrat-ExtraBold, Montserrat" font-weight="800"><tspan x="0" y="0">e</tspan></text>
      </g>
    </g>
    <g id="Group_26815" data-name="Group 26815" transform="translate(194.75 286.998)">
      <g transform="matrix(1, 0, 0, 1, -76.75, -19)" filter="url(#card)">
        <text id="card-2" data-name="card" transform="translate(77 72)" fill="#fff" font-size="55" font-family="Montserrat-ExtraBold, Montserrat" font-weight="800"><tspan x="0" y="0">card</tspan></text>
      </g>
    </g>
    <g id="Group_26831" data-name="Group 26831" transform="translate(118 302.956)">
      <rect id="Rectangle_1557" data-name="Rectangle 1557" width="13" height="58" transform="translate(0 0.044)" fill="#fff"/>
      <path id="Rectangle_1558" data-name="Rectangle 1558" d="M0,0H13a0,0,0,0,1,0,0V44A13,13,0,0,1,0,57H0a0,0,0,0,1,0,0V0A0,0,0,0,1,0,0Z" transform="translate(57 58.044) rotate(90)" fill="#fff"/>
    </g>
    <g id="Group_26832" data-name="Group 26832" transform="translate(298.858 268)">
      <rect id="Rectangle_1557-2" data-name="Rectangle 1557" width="13" height="60" transform="translate(44.142 11)" fill="#fff"/>
      <path id="Rectangle_1558-2" data-name="Rectangle 1558" d="M0,0H13a0,0,0,0,1,0,0V44A13,13,0,0,1,0,57H0a0,0,0,0,1,0,0V0A0,0,0,0,1,0,0Z" transform="translate(0.142 13) rotate(-90)" fill="#fff"/>
    </g>
    <g id="Group_26833" data-name="Group 26833" transform="translate(118 268)">
      <rect id="Rectangle_1559" data-name="Rectangle 1559" width="13" height="169" transform="translate(12 13) rotate(-90)" fill="#21c98b"/>
      <path id="Rectangle_1560" data-name="Rectangle 1560" d="M13,0h0a0,0,0,0,1,0,0V36a0,0,0,0,1,0,0H0a0,0,0,0,1,0,0V13A13,13,0,0,1,13,0Z" fill="#21c98b"/>
    </g>
  </g>
</svg>
