<svg xmlns="http://www.w3.org/2000/svg" xmlns:xlink="http://www.w3.org/1999/xlink" width="589" height="262" viewBox="0 0 589 262">
  <defs>
    <filter id="e" x="67" y="44" width="108" height="188" filterUnits="userSpaceOnUse">
      <feOffset dx="6" dy="6" input="SourceAlpha"/>
      <feGaussianBlur stdDeviation="3" result="blur"/>
      <feFlood flood-opacity="0.161"/>
      <feComposite operator="in" in2="blur"/>
      <feComposite in="SourceGraphic"/>
    </filter>
    <filter id="card" x="180" y="41" width="340" height="184" filterUnits="userSpaceOnUse">
      <feOffset dy="3" input="SourceAlpha"/>
      <feGaussianBlur stdDeviation="3" result="blur-2"/>
      <feFlood flood-opacity="0.161"/>
      <feComposite operator="in" in2="blur-2"/>
      <feComposite in="SourceGraphic"/>
    </filter>
  </defs>
  <g id="Group_26905" data-name="Group 26905" transform="translate(-118 -268)">
    <g id="Group_26816" data-name="Group 26816" transform="translate(188.05 315.064)">
      <g transform="matrix(1, 0, 0, 1, -70.05, -47.06)" filter="url(#e)">
        <text id="e-2" data-name="e" transform="translate(70 182)" fill="#21c98b" font-size="139" font-family="Montserrat-ExtraBold, Montserrat" font-weight="800"><tspan x="0" y="0">e</tspan></text>
      </g>
    </g>
    <g id="Group_26815" data-name="Group 26815" transform="translate(307.352 315.064)">
      <g transform="matrix(1, 0, 0, 1, -189.35, -47.06)" filter="url(#card)">
        <text id="card-2" data-name="card" transform="translate(189 179)" fill="#102754" font-size="136" font-family="Montserrat-ExtraBold, Montserrat" font-weight="800"><tspan x="0" y="0">card</tspan></text>
      </g>
    </g>
    <g id="Group_26831" data-name="Group 26831" transform="translate(118 355.562)">
      <rect id="Rectangle_1557" data-name="Rectangle 1557" width="33" height="142" transform="translate(0 0.438)" fill="#102754"/>
      <path id="Rectangle_1558" data-name="Rectangle 1558" d="M0,0H33a0,0,0,0,1,0,0V108A33,33,0,0,1,0,141H0a0,0,0,0,1,0,0V0A0,0,0,0,1,0,0Z" transform="translate(141 141.438) rotate(90)" fill="#102754"/>
    </g>
    <g id="Group_26832" data-name="Group 26832" transform="translate(565.66 268)">
      <rect id="Rectangle_1557-2" data-name="Rectangle 1557" width="34" height="142" transform="translate(107.34 32)" fill="#102754"/>
      <path id="Rectangle_1558-2" data-name="Rectangle 1558" d="M0,0H33a0,0,0,0,1,0,0V108A33,33,0,0,1,0,141H0a0,0,0,0,1,0,0V0A0,0,0,0,1,0,0Z" transform="translate(0.34 33) rotate(-90)" fill="#102754"/>
    </g>
    <g id="Group_26833" data-name="Group 26833" transform="translate(118 268)">
      <rect id="Rectangle_1559" data-name="Rectangle 1559" width="33" height="416" transform="translate(32 33) rotate(-90)" fill="#21c98b"/>
      <path id="Rectangle_1560" data-name="Rectangle 1560" d="M33,0h0a0,0,0,0,1,0,0V88a0,0,0,0,1,0,0H0a0,0,0,0,1,0,0V33A33,33,0,0,1,33,0Z" fill="#21c98b"/>
    </g>
  </g>
</svg>
