<svg id="Facebook" xmlns="http://www.w3.org/2000/svg" width="73.297" height="73.297" viewBox="0 0 73.297 73.297">
  <path id="Path" d="M73.3,36.649a36.649,36.649,0,1,0-42.375,36.2V47.242H21.617V36.649h9.305V28.575c0-9.184,5.469-14.259,13.843-14.259a56.365,56.365,0,0,1,8.2.716v9.019H48.345c-4.553,0-5.97,2.827-5.97,5.726v6.872H52.539L50.914,47.242H42.375V72.854A36.654,36.654,0,0,0,73.3,36.649Z" fill="#fff"/>
  <path id="Path-2" data-name="Path" d="M29.3,32.927l1.625-10.594H20.758V15.461c0-2.9,1.417-5.726,5.97-5.726h4.624V.716A56.365,56.365,0,0,0,23.149,0C14.774,0,9.305,5.075,9.305,14.259v8.074H0V32.927H9.305V58.538a37.17,37.17,0,0,0,11.453,0V32.927Z" transform="translate(21.617 14.316)" fill="#1877f2"/>
</svg>
