<svg id="Group_9" data-name="Group 9" xmlns="http://www.w3.org/2000/svg" width="17.745" height="32.821" viewBox="0 0 17.745 32.821">
  <path id="Path_4" data-name="Path 4" d="M39.154.007,34.9,0c-4.782,0-7.872,3.17-7.872,8.077V11.8H22.746a.669.669,0,0,0-.669.67v5.4a.669.669,0,0,0,.669.669h4.279V32.152a.669.669,0,0,0,.669.669h5.583a.669.669,0,0,0,.669-.669V18.536h5a.669.669,0,0,0,.669-.669l0-5.4a.67.67,0,0,0-.67-.67H33.948V8.645c0-1.517.362-2.288,2.338-2.288h2.867a.669.669,0,0,0,.669-.669V.676A.669.669,0,0,0,39.154.007Z" transform="translate(-22.077)" fill="#3b5998"/>
</svg>
