<svg xmlns="http://www.w3.org/2000/svg" xmlns:xlink="http://www.w3.org/1999/xlink" width="684.665" height="705.406" viewBox="0 0 684.665 705.406">
  <defs>
    <filter id="path14" x="0" y="0" width="684.665" height="705.406" filterUnits="userSpaceOnUse">
      <feOffset dy="3" input="SourceAlpha"/>
      <feGaussianBlur stdDeviation="3" result="blur"/>
      <feFlood flood-opacity="0.161"/>
      <feComposite operator="in" in2="blur"/>
      <feComposite in="SourceGraphic"/>
    </filter>
    <linearGradient id="linear-gradient" x1="0.065" y1="0.027" x2="0.974" y2="0.977" gradientUnits="objectBoundingBox">
      <stop offset="0" stop-color="#ce3348"/>
      <stop offset="1" stop-color="#1a2267"/>
    </linearGradient>
    <clipPath id="clip-path">
      <path id="path78" d="M194.113-183.3H464.393V-437.907H194.113Z" fill="#102754"/>
    </clipPath>
  </defs>
  <g id="g10" transform="translate(9 672.665)">
    <g id="g12">
      <g transform="matrix(1, 0, 0, 1, -9, -672.67)" filter="url(#path14)">
        <path id="path14-2" data-name="path14" d="M218.379-83.519C385.045,83.148,666.665,0,666.665,0S639.144-284.952,472.478-451.618,0-666.665,0-666.665,51.713-250.185,218.379-83.519Z" transform="translate(9 672.67)" fill="#e5e2f3"/>
      </g>
      <path id="path16" d="M530.973-107.076l.271.608a183.169,183.169,0,0,0,42.5-28.429c21.239-18.969,42.548-47.537,42.55-85.776q0-1.334-.035-2.681c-1.389-54.021-41.293-88.194-84.373-88.182-19.3,0-39.233,6.856-56.595,21.8-18.007,15.5-33.861,21.689-48.027,21.689-14.752,0-27.776-6.713-39.588-16.892s-22.36-23.8-32.1-37.487a190.21,190.21,0,0,0-52.933-49.761c-22.984-14.4-50.965-24.608-82.842-24.608a158.237,158.237,0,0,0-42.772,6.024c-39.26,10.983-66.554,34.7-84,62.907s-25.067,60.907-25.069,89.95a153.248,153.248,0,0,0,1.566,22.164C75.855-172.585,98.992-136,130.48-107.924q1.541,1.374,3.155,2.713l.185.155,397.295-1.355.128-.057-.271-.608,0-.667L134.058-106.39l0,.667.425-.513q-1.6-1.323-3.118-2.681c-31.3-27.921-54.247-64.222-60.52-107.021A151.927,151.927,0,0,1,69.3-237.91c0-28.813,7.573-61.286,24.869-89.249s44.294-51.428,83.222-62.324a156.881,156.881,0,0,1,42.412-5.975c31.588,0,59.32,10.116,82.134,24.405a188.873,188.873,0,0,1,52.556,49.4c9.767,13.715,20.367,27.419,32.319,37.723s25.283,17.216,40.459,17.216c14.571,0,30.741-6.377,48.9-22.012C493.3-303.47,512.9-310.2,531.888-310.2c42.369.012,81.646,33.537,83.04,86.882q.034,1.332.035,2.648c0,37.711-21.017,65.94-42.105,84.781a188.922,188.922,0,0,1-29,21.173c-3.955,2.349-7.248,4.111-9.552,5.281-1.151.587-2.055,1.025-2.669,1.318s-.936.433-.936.434l.271.609,0-.667,0,.667" fill="#30214f"/>
      <path id="path18" d="M455.666-601.138H455a5.8,5.8,0,0,1-1.7,4.116,5.8,5.8,0,0,1-4.117,1.705,5.8,5.8,0,0,1-4.117-1.705,5.8,5.8,0,0,1-1.705-4.116,5.8,5.8,0,0,1,1.705-4.117,5.807,5.807,0,0,1,4.117-1.705,5.807,5.807,0,0,1,4.117,1.705,5.8,5.8,0,0,1,1.7,4.117h1.333a7.156,7.156,0,0,0-7.155-7.156,7.156,7.156,0,0,0-7.156,7.156,7.155,7.155,0,0,0,7.156,7.155,7.154,7.154,0,0,0,7.155-7.155h-.667" fill="#fff"/>
      <path id="path20" d="M44.2-248.827h-.667a5.8,5.8,0,0,1-1.705,4.117,5.8,5.8,0,0,1-4.117,1.7,5.8,5.8,0,0,1-4.117-1.7,5.8,5.8,0,0,1-1.705-4.117,5.8,5.8,0,0,1,1.705-4.117,5.8,5.8,0,0,1,4.117-1.705,5.8,5.8,0,0,1,4.117,1.705,5.8,5.8,0,0,1,1.705,4.117H44.87a7.155,7.155,0,0,0-7.156-7.156,7.155,7.155,0,0,0-7.155,7.156,7.154,7.154,0,0,0,7.155,7.155,7.155,7.155,0,0,0,7.156-7.155H44.2" fill="#fff"/>
      <path id="path22" d="M624.073-327.541h-.667a5.8,5.8,0,0,1-1.705,4.117,5.8,5.8,0,0,1-4.116,1.705,5.8,5.8,0,0,1-4.117-1.705,5.8,5.8,0,0,1-1.705-4.117,5.8,5.8,0,0,1,1.705-4.117,5.805,5.805,0,0,1,4.117-1.705,5.8,5.8,0,0,1,4.116,1.705,5.8,5.8,0,0,1,1.705,4.117h1.333a7.156,7.156,0,0,0-7.155-7.156,7.156,7.156,0,0,0-7.156,7.156,7.155,7.155,0,0,0,7.156,7.156,7.155,7.155,0,0,0,7.155-7.156h-.667" fill="#fff"/>
      <path id="path24" d="M122.7-589.689H245.181v-1.333H122.7Z" fill="#fff"/>
      <path id="path26" d="M473.244-497.007h43.572v-1.333H473.244Z" fill="#fff"/>
      <path id="path28" d="M68.89-450.546H99.021v-1.333H68.89Z" fill="#fff"/>
      <path id="path30" d="M595.516-442.478a20.027,20.027,0,0,1-20.027,20.028,20.028,20.028,0,0,1-20.028-20.028,20.029,20.029,0,0,1,20.028-20.028,20.027,20.027,0,0,1,20.027,20.028" fill="#21c98b"/>
      <path id="path32" d="M582.3-447.63a4.151,4.151,0,0,0-5.875.063l-1.059,1.08-1.089-1.073a4.153,4.153,0,0,0-5.875.045,4.155,4.155,0,0,0,.045,5.875l4.043,3.98.021.027a4.131,4.131,0,0,0,2.272,1.137,4.152,4.152,0,0,0,3.6-1.2l3.975-4.06a4.155,4.155,0,0,0-.063-5.875" fill="#fff"/>
      <path id="path34" d="M186.2-524.273a27.66,27.66,0,0,1-27.66,27.661,27.66,27.66,0,0,1-27.66-27.661,27.66,27.66,0,0,1,27.66-27.66,27.66,27.66,0,0,1,27.66,27.66" fill="#21c98b"/>
      <path id="path36" d="M167.946-531.389a5.732,5.732,0,0,0-8.113.085l-1.461,1.492-1.5-1.48a5.735,5.735,0,0,0-8.115.061,5.737,5.737,0,0,0,.064,8.113l5.581,5.5.032.037a5.691,5.691,0,0,0,3.137,1.571,5.732,5.732,0,0,0,4.975-1.656l5.491-5.607a5.737,5.737,0,0,0-.087-8.115" fill="#fff"/>
      <path id="path52" d="M97.34-323.1h7.987v-13.748H97.34V-323.1" fill="#faf9f9"/>
      <path id="path54" d="M473.8-105.509h-287.5a15,15,0,0,1-15-15V-445.682a15,15,0,0,1,15-15H473.8a15,15,0,0,1,15,15v325.171a15,15,0,0,1-15,15" fill="url(#linear-gradient)"/>
      <path id="path56" d="M251.545-158.1a8.642,8.642,0,0,0-12.232.129l-2.2,2.249-2.268-2.232a8.647,8.647,0,0,0-12.232.092,8.651,8.651,0,0,0,.1,12.233l8.413,8.287.048.056a8.6,8.6,0,0,0,4.729,2.368,8.639,8.639,0,0,0,7.5-2.5l8.276-8.453a8.651,8.651,0,0,0-.129-12.233" fill="#fff"/>
      <path id="path64" d="M339.349-138.145H309.806a2.025,2.025,0,0,1-2.024-2.024v-17.209a2.023,2.023,0,0,1,2.024-2.023h29.543a2.023,2.023,0,0,1,2.024,2.023v17.209a2.025,2.025,0,0,1-2.024,2.024" fill="#7484c7"/>
      <path id="path66" d="M316.145-151.344h15.2a.767.767,0,0,0,.767-.767.768.768,0,0,0-.767-.767h-15.2a.767.767,0,0,0-.767.767.766.766,0,0,0,.767.767" fill="#f5f1f9"/>
      <path id="path68" d="M316.145-145.642h6.6a.767.767,0,0,0,.767-.767.766.766,0,0,0-.767-.767h-6.6a.766.766,0,0,0-.767.767.767.767,0,0,0,.767.767" fill="#f5f1f9"/>
      <path id="path70" d="M333.774-140.46v7.432a.262.262,0,0,1-.425.2l-9.605-7.636h10.031" fill="#7484c7"/>
      <path id="path72" d="M194.113-183.3H464.393V-437.907H194.113Z" fill="#fff"/>
      <g id="g74">
        <g id="g76" clip-path="url(#clip-path)">
          <path id="path82" d="M396.972-253.542s29.812,7.979,53.28,82.309l-59.7,32.163-12.575-43.219,18.993-71.253" fill="#102754"/>
          <path id="path84" d="M268.559-253.106s-24.3,7.543-47.769,81.873l54.219,32.163,12.575-43.219-19.024-70.817" fill="#102754"/>
          <path id="path86" d="M313.141-269.689l-42.132,15.443a16.432,16.432,0,0,0-10.273,19.465l30.941,122.049h82.892l28.58-127.681a11.837,11.837,0,0,0-7.173-13.581l-40.843-16.257-41.992.563" fill="#102754"/>
          <path id="path88" d="M278.681-166.916l-9.709-38.3-1.391.352,9.708,38.3" fill="#1e1416"/>
          <path id="path90" d="M385.552-158.518l9.725-44.888-1.4-.3-9.725,44.888" fill="#1e1416"/>
          <path id="path92" d="M313.141-269.689l-18.42,6.752,40.151,25.463,37.165-26.048-16.9-6.729-41.992.563" fill="#dd7d50"/>
          <path id="path94" d="M402.275-341.435c-3.667-13.913-5-11.425-17.337-39.1-7.372-16.533-13.073-23.18-16.472-25.855h0S356-419.806,333.709-419.806c-21.287,0-33.612,12.748-33.612,12.748h0c-3.233,2.155-9.308,8.4-17.387,26.523-12.337,27.675-13.671,25.187-17.339,39.1s1,39.589,29.676,44.589a21.307,21.307,0,0,1-5-9.668s12,16.339,28.343,15.337H349.26c16.337,1,28.341-15.337,28.341-15.337a21.3,21.3,0,0,1-5,9.668c28.673-5,33.341-30.673,29.675-44.589" fill="#22243e"/>
          <path id="path96" d="M355.132-270.251l-5.1-44.476s-5.268,5.371-12.257,6.669-13.761-2.788-13.848-2.839l-5.708-4.731-5.075,45.939c0,.5-.376,4.621-.453,5.107l42.555-4.368a8.585,8.585,0,0,1-.109-1.3" fill="#dd7d50"/>
          <path id="path98" d="M315-314.034s10.7,20.664,23.444,17.7c13.3-3.089,13.243-20.565,13.243-20.565L315-314.034" fill="#232238"/>
          <path id="path100" d="M379.648-373.423c0,25.307-19.693,45.823-43.985,45.823s-43.987-20.516-43.987-45.823,19.693-42.524,43.987-42.524,43.985,17.217,43.985,42.524" fill="#232238"/>
          <path id="path102" d="M372.01-371.066a178.28,178.28,0,0,1-4.387,39.055c-2.145,9.46-8.181,16.071-16.712,21.392l-1.555.971a28.944,28.944,0,0,1-29.853.336c-9.243-5.473-15.715-12.688-17.705-22.839-3.623-18.465-4.019-38.915-4.019-38.915s-3.447-39.828,36.585-39.053,37.645,39.053,37.645,39.053" fill="#dd7d50"/>
          <path id="path104" d="M302.145-333.661c-7.053,6.091-21.9-18.027-15.075-24.529s11.661,4.079,11.661,4.079l1.385,7.62,2.063,10.259.532,2.3-.567.272" fill="#dd7d50"/>
          <path id="path106" d="M291-349.666l-.476-.22.473.227,0-.007-.476-.22.473.227a2.026,2.026,0,0,1,.123-.211,2.652,2.652,0,0,1,.617-.672,1.626,1.626,0,0,1,1-.344,3.72,3.72,0,0,1,2.3,1.1,20.442,20.442,0,0,1,3.9,4.94.95.95,0,0,0,1.305.313.95.95,0,0,0,.313-1.305,22.262,22.262,0,0,0-4.291-5.4,5.554,5.554,0,0,0-3.523-1.547,3.651,3.651,0,0,0-2.648,1.176,4.51,4.51,0,0,0-.811,1.145.95.95,0,0,0,.463,1.26.949.949,0,0,0,1.26-.464" fill="#232238"/>
          <path id="path108" d="M367.6-333.519c7.157,5.968,21.593-18.4,14.652-24.784s-11.591,4.277-11.591,4.277l-1.253,7.644-1.887,10.291-.492,2.309.571.263" fill="#dd7d50"/>
          <path id="path110" d="M380.182-350.538a4.491,4.491,0,0,0-.815-1.117,3.665,3.665,0,0,0-2.621-1.145,5.465,5.465,0,0,0-3.52,1.576,22.027,22.027,0,0,0-4.235,5.5.949.949,0,0,0,.336,1.3.95.95,0,0,0,1.3-.336,20.312,20.312,0,0,1,3.841-5.032,3.638,3.638,0,0,1,2.279-1.113,1.764,1.764,0,0,1,1.272.581,2.9,2.9,0,0,1,.357.445l.084.137.016.031v0l.472-.236-.475.229,0,.007.472-.236-.475.229a.948.948,0,0,0,1.267.441.948.948,0,0,0,.441-1.267" fill="#232238"/>
          <path id="path112" d="M298.294-358.66s13.264-21.639,9.572-43.559c0,0-9.139,5.979-12.232,21.409s2.66,22.149,2.66,22.149" fill="#22243e"/>
          <path id="path114" d="M372.682-358.236s-16.5-23.533-12.805-45.455c0,0,10.155,7.451,13.249,22.881s-.444,22.573-.444,22.573" fill="#22243e"/>
          <path id="path116" d="M366.206-404.648s-33.679,40.268-70.572,23.839c0,0-8.167-32.092,36.2-34.984l34.373,11.145" fill="#22243e"/>
          <path id="path118" d="M341.815-410.682c6.905,1.923,7.82,36.673,37.833,37.259L368.466-406.39l-26.651-4.292" fill="#22243e"/>
          <path id="path120" d="M328.122-367.032l-22.368,2.689s1.8-5.933,10.936-6.952,11.432,4.263,11.432,4.263" fill="#232238"/>
          <path id="path122" d="M341.019-367.032l22.368,2.689s-1.795-5.933-10.936-6.952-11.432,4.263-11.432,4.263" fill="#232238"/>
          <path id="path124" d="M321.581-332.149l6.469-2.756a7.927,7.927,0,0,1,3.331.051l2.821.624,2.416-.768a6.741,6.741,0,0,1,3.643-.049l6.088,2.793-24.768.105" fill="#ef2d75"/>
          <path id="path126" d="M321.581-332.149s3.18,8.557,12.575,8.557,12.193-8.663,12.193-8.663l-24.768.105" fill="#ef2d75"/>
          <path id="path128" d="M323.542-331.691s1.4,3.813,10.613,3.82c8.393.005,10.671-3.913,10.671-3.913l-21.284.093" fill="#fff"/>
          <path id="path130" d="M330.045-326.542c0,.4-.473.724-1.059.724s-1.057-.324-1.057-.724.473-.724,1.057-.724,1.059.324,1.059.724" fill="#f46e90"/>
          <path id="path132" d="M331.594-347.259v6.741a.932.932,0,0,0,.916.933l3.956.072a.934.934,0,0,0,.951-.916.934.934,0,0,0-.917-.951l-3.039-.055v-5.825a.934.934,0,0,0-.933-.935.934.934,0,0,0-.933.935" fill="#232238"/>
          <path id="path134" d="M322.745-355.418a11.221,11.221,0,0,0-5.937-1.827,8.975,8.975,0,0,0-5.449,1.841.949.949,0,0,0-.195,1.328.95.95,0,0,0,1.328.195,7.055,7.055,0,0,1,4.316-1.467,8.974,8.974,0,0,1,3.464.751,9.6,9.6,0,0,1,1.036.517l.269.164.063.041.013.008.052-.075-.053.075h0l.052-.075-.053.075a.95.95,0,0,0,1.323-.229.95.95,0,0,0-.229-1.323" fill="#232238"/>
          <path id="path136" d="M347.612-353.866l-.053-.076.053.076h0l-.053-.076.053.076a9.42,9.42,0,0,1,4.844-1.481,7.055,7.055,0,0,1,4.316,1.467.95.95,0,0,0,1.328-.195.948.948,0,0,0-.195-1.328,8.974,8.974,0,0,0-5.449-1.841,11.222,11.222,0,0,0-5.937,1.827.949.949,0,0,0-.228,1.323.949.949,0,0,0,1.321.229" fill="#232238"/>
          <path id="path138" d="M298.853-353.443l-.121-.668s-.117-.257-.341-.667a14.774,14.774,0,0,1,.215-1.528q.114,1.392.248,2.863" fill="#464b65"/>
          <path id="path140" d="M313.337-338.442a14.991,14.991,0,0,1-12.648-6.929.954.954,0,0,0-.14-.467c-.148-.243-.295-.476-.44-.7l-1.256-6.9q-.134-1.47-.248-2.863a15.029,15.029,0,0,1,9.12-11.061,8.348,8.348,0,0,0-1.971,3.024l15.484-1.861a14.994,14.994,0,0,1,7.1,12.757,15,15,0,0,1-15,15.005m8.316-15.424a.947.947,0,0,0,.544.173.952.952,0,0,0,.777-.4.95.95,0,0,0-.229-1.323,11.221,11.221,0,0,0-5.937-1.827h-.021a8.972,8.972,0,0,0-5.428,1.841.949.949,0,0,0-.195,1.328.946.946,0,0,0,.761.383.947.947,0,0,0,.567-.188,7.055,7.055,0,0,1,4.316-1.467h.007a8.95,8.95,0,0,1,3.457.751,9.594,9.594,0,0,1,1.036.517l.269.164.063.041.013.008h0" fill="#e49570"/>
          <path id="path142" d="M300.109-346.542c-.131-.2-.261-.4-.389-.595a14.941,14.941,0,0,1-1.388-6.311q0-.672.059-1.331c.224.409.341.667.341.667l.121.668,1.256,6.9" fill="#e49570"/>
          <path id="path144" d="M300.689-345.371a14.9,14.9,0,0,1-.969-1.765c.128.192.259.391.389.595.145.228.292.461.44.7a.955.955,0,0,1,.14.467" fill="#464b65"/>
          <path id="path146" d="M305.754-364.343a8.348,8.348,0,0,1,1.971-3.024,14.98,14.98,0,0,1,5.612-1.084,14.937,14.937,0,0,1,7.9,2.247l-15.484,1.861" fill="#464b65"/>
          <path id="path148" d="M322.2-353.692a.947.947,0,0,1-.544-.173h0l-.013-.008-.063-.041-.269-.164a9.593,9.593,0,0,0-1.036-.517,8.95,8.95,0,0,0-3.457-.751h-.007a7.055,7.055,0,0,0-4.316,1.467.948.948,0,0,1-.567.188.946.946,0,0,1-.761-.383.949.949,0,0,1,.195-1.328,8.972,8.972,0,0,1,5.428-1.841h.021a11.222,11.222,0,0,1,5.937,1.827.95.95,0,0,1,.229,1.323.952.952,0,0,1-.777.4" fill="#464b65"/>
          <path id="path150" d="M355.242-338.442a15,15,0,0,1-15-15.005,14.994,14.994,0,0,1,7.195-12.813l15.955,1.917a7.963,7.963,0,0,0-1.583-2.6,15.006,15.006,0,0,1,8.441,13.5,15,15,0,0,1-15,15.005m-2.764-18.8h-.021a11.222,11.222,0,0,0-5.937,1.827.949.949,0,0,0-.228,1.323.948.948,0,0,0,.776.4.944.944,0,0,0,.545-.173h0a9.431,9.431,0,0,1,4.808-1.481h.036a7.055,7.055,0,0,1,4.316,1.467.947.947,0,0,0,.567.188.946.946,0,0,0,.761-.383.948.948,0,0,0-.195-1.328,8.972,8.972,0,0,0-5.428-1.841" fill="#e49570"/>
          <path id="path152" d="M363.387-364.343l-15.955-1.917a14.924,14.924,0,0,1,7.809-2.191,14.932,14.932,0,0,1,6.563,1.508,7.964,7.964,0,0,1,1.583,2.6" fill="#464b65"/>
          <path id="path154" d="M347.067-353.692a.948.948,0,0,1-.776-.4.949.949,0,0,1,.228-1.323,11.222,11.222,0,0,1,5.937-1.827h.021a8.972,8.972,0,0,1,5.428,1.841.948.948,0,0,1,.195,1.328.946.946,0,0,1-.761.383.948.948,0,0,1-.567-.188,7.055,7.055,0,0,0-4.316-1.467h-.036a9.431,9.431,0,0,0-4.808,1.481h0a.945.945,0,0,1-.545.173" fill="#464b65"/>
          <path id="path156" d="M328.341-353.447h-1.369a13.586,13.586,0,0,1-3.995,9.641,13.585,13.585,0,0,1-9.64,3.993,13.591,13.591,0,0,1-9.641-3.993,13.588,13.588,0,0,1-3.993-9.641,13.589,13.589,0,0,1,3.993-9.64,13.585,13.585,0,0,1,9.641-3.993,13.579,13.579,0,0,1,9.64,3.993,13.585,13.585,0,0,1,3.995,9.64h2.74a16.376,16.376,0,0,0-16.375-16.375,16.376,16.376,0,0,0-16.375,16.375,16.375,16.375,0,0,0,16.375,16.376,16.376,16.376,0,0,0,16.375-16.376h-1.371" fill="#edbe1c"/>
          <path id="path158" d="M370.836-353.447h-1.369a13.588,13.588,0,0,1-3.993,9.641,13.591,13.591,0,0,1-9.641,3.993,13.59,13.59,0,0,1-9.641-3.993,13.588,13.588,0,0,1-3.993-9.641,13.589,13.589,0,0,1,3.993-9.64,13.585,13.585,0,0,1,9.641-3.993,13.585,13.585,0,0,1,9.641,3.993,13.587,13.587,0,0,1,3.993,9.64h2.74a16.376,16.376,0,0,0-16.375-16.375,16.376,16.376,0,0,0-16.375,16.375,16.375,16.375,0,0,0,16.375,16.376,16.375,16.375,0,0,0,16.375-16.376h-1.371" fill="#edbe1c"/>
          <path id="path160" d="M329.49-351.451l-.241-.157.24.16v0l-.241-.157.24.16a8.414,8.414,0,0,1,1.472-1.595,5.437,5.437,0,0,1,3.435-1.407,5.058,5.058,0,0,1,2.375.636,10.946,10.946,0,0,1,3.031,2.521l2.055-1.813a13.644,13.644,0,0,0-3.811-3.135,7.787,7.787,0,0,0-3.649-.949,7.352,7.352,0,0,0-3.077.691,10.062,10.062,0,0,0-3.027,2.208,9.869,9.869,0,0,0-1.1,1.345l2.3,1.495" fill="#edbe1c"/>
        </g>
      </g>
      <path id="path162" d="M493.5-153.518l-8.372-13.813,25.084-11.847,8.372,13.812L493.5-153.518" fill="#ed8787"/>
      <path id="path164" d="M488.211-171.926,499.441-153.4s-3.828,2.741-.888,8.981,1.815,11.352-2.072,14.341l-22.265-36.736a75.827,75.827,0,0,1,13.995-5.115" fill="#fff"/>
      <path id="path166" d="M493.857-128.486l-22.267-36.735,2.625-1.591,22.265,36.736-2.624,1.59" fill="#181523"/>
      <path id="path168" d="M480.775-169.517l.039.087a12.087,12.087,0,0,1,.971,4.507,6.947,6.947,0,0,1-.625,3,6.054,6.054,0,0,1-2.412,2.588l.557.92a7.131,7.131,0,0,0,2.825-3.045,8,8,0,0,0,.732-3.463,13.093,13.093,0,0,0-1.115-5.055l-.972.461" fill="#181523"/>
      <path id="path170" d="M497.817-150.074c-.071-.121-.873-1.361-4.081-2.637a.538.538,0,0,0-.7.3.537.537,0,0,0,.3.7,11.7,11.7,0,0,1,2.947,1.595,4.18,4.18,0,0,1,.509.471l.089.111.012.017.171-.111-.175.1,0,.008.171-.111-.175.1a.536.536,0,0,0,.736.189.539.539,0,0,0,.191-.737" fill="#181523"/>
      <path id="path172" d="M498.044-147.054a6.432,6.432,0,0,0-1.1-1.172,5.891,5.891,0,0,0-3.1-1.4.539.539,0,0,0-.6.472.539.539,0,0,0,.473.6,4.831,4.831,0,0,1,2.527,1.151,5.994,5.994,0,0,1,.685.677l.172.212.041.055.008.012a.537.537,0,0,0,.748.141.538.538,0,0,0,.141-.748" fill="#181523"/>
      <path id="path174" d="M540.205-284.118s14.18,52.912,16.267,63.344,6.259,31.3-2.5,38.811-42.427,25.527-42.427,25.527l-12.384-22.235,20.057-12.056,20.991-93.39" fill="#2c325c"/>
      <path id="path176" d="M523.787-117.435H507.636l2.869-27.593h16.152l-2.871,27.593" fill="#ed8787"/>
      <path id="path178" d="M505.305-122.454h21.665s.361,4.692,7.22,5.415,10.648,4.332,11.191,9.2H502.425a75.779,75.779,0,0,1,2.88-14.619" fill="#fff"/>
      <path id="path180" d="M545.381-104.766H502.425v-3.069h42.956v3.069" fill="#181523"/>
      <path id="path182" d="M503.512-114.847l.077.009a12.214,12.214,0,0,1,4.16,1.383,7.123,7.123,0,0,1,2.38,2.105,6.018,6.018,0,0,1,1.036,3.513h1.076a7.071,7.071,0,0,0-1.377-4.336,9.531,9.531,0,0,0-4.545-3.1,12.891,12.891,0,0,0-2.7-.643l-.109,1.07" fill="#181523"/>
      <path id="path184" d="M528.967-119.344c-.176,0-1.649.071-4.364,2.121a.538.538,0,0,0-.105.755.538.538,0,0,0,.753.106,11.817,11.817,0,0,1,2.864-1.683,3.982,3.982,0,0,1,.676-.2l.151-.023.028,0,0-.053v.053h0l0-.053v.053a.537.537,0,0,0,.539-.537.539.539,0,0,0-.539-.539" fill="#181523"/>
      <path id="path186" d="M531.673-117.972a6.5,6.5,0,0,0-1.575.334,5.894,5.894,0,0,0-2.8,1.925.537.537,0,0,0,.095.755.537.537,0,0,0,.755-.095,4.827,4.827,0,0,1,2.295-1.565,6.013,6.013,0,0,1,.935-.235l.269-.037.068-.006h.016a.538.538,0,0,0,.508-.567.538.538,0,0,0-.567-.508" fill="#181523"/>
      <path id="path188" d="M545.012-265.979l-4.807-18.14-26.667.147c-13.337,8.823-8.472,37.711-8.472,37.711,1.585,15.572,5.821,29.871,6.115,42.641l-6.924,69.428h24.816l11.859-61.561a43.993,43.993,0,0,0,.68-8.541l-.924-52.468,4.324-9.216" fill="#323e85"/>
      <path id="path190" d="M541.1-309.379l21.671.563a9.039,9.039,0,0,0,7.912-6.753c1.332-5.2,1.537-9.017-3.779-9.788l-24.856-3.221-.948,19.2" fill="#f4a379"/>
      <path id="path192" d="M524.507-308.843s9.128,4.109,23.279,4.7l1.057-24.436-23.255-2.855-1.081,22.591" fill="#fff"/>
      <path id="path194" d="M556.307-320.153,575.172-361l8.535,1.377-13.541,45.58a9.048,9.048,0,0,1-15.721,1.159c-1.792-2.695.42-4.373,1.863-7.271" fill="#f4a379"/>
      <path id="path196" d="M573.583-354.906l-3.473-7.061c-.627-1.277-1.228-2.591-.767-3.936l2.143-5.839A2.2,2.2,0,0,1,574.7-373a1.864,1.864,0,0,1,.923,1.649l-.247,3.957,1.941,2.837,11.512-.173s0,5.488-6.733,10.532l-4.507,1.023-4.007-1.727" fill="#f4a379"/>
      <path id="path198" d="M594.087-384.923l-5.02,25.544a1.324,1.324,0,0,1-1.465,1.08l-12.736-1.575a1.324,1.324,0,0,1-1.137-1.569l4.987-25.365a1.322,1.322,0,0,1,1.437-1.061l12.771,1.395a1.325,1.325,0,0,1,1.164,1.552" fill="#22243e"/>
      <path id="path200" d="M591.221-383.33l-3.656,20.52a.94.94,0,0,1-1,.791l-9.463-.688a.941.941,0,0,1-.855-1.121l4.145-20.957a.941.941,0,0,1,1.036-.752l8.972,1.127a.942.942,0,0,1,.817,1.081" fill="#fff"/>
      <path id="path202" d="M523.2-332.463s15.54,3.141,19.359,16.212c1.161,3.975-2.356,32.133-2.356,32.133l-26.667.145s-4.5-9.048-9.337-17.909-5.044-22.28,6.772-26.7l12.229-3.884" fill="#fff"/>
      <path id="path204" d="M543.015-304.047a39.057,39.057,0,0,0,.277-4.819c-.012-4.1-.553-9.913-3.6-13.808l-1.117.88c2.684,3.375,3.3,8.965,3.292,12.928,0,1.352-.067,2.515-.133,3.336-.033.411-.067.736-.091.957s-.041.332-.04.332l1.408.193" fill="#e5e2f3"/>
      <path id="path206" d="M502.917-287.2,496.747-238.5l-8.436-.86s-2.812-37.169-.329-50.359a9.041,9.041,0,0,1,14.956-4.981c2.4,2.173.667,4.343-.02,7.505" fill="#f4a379"/>
      <path id="path208" d="M499.091-230.782a2.938,2.938,0,0,1-.816,2.772,1.748,1.748,0,0,1-2.883-.589l-.461-.991c-1.107.784-2.661,2.889-1.3,9.552a2.41,2.41,0,0,1-1.284,2.695,1.485,1.485,0,0,1-1.867-.705l-.048-.1a2.194,2.194,0,0,1-1.233,1.483,1.485,1.485,0,0,1-1.867-.705l-.137-.291a1.9,1.9,0,0,1-.759.576,1.486,1.486,0,0,1-1.868-.7,2.153,2.153,0,0,1-.244-.659l-.048-.257-.089.045a1.483,1.483,0,0,1-1.867-.7,2.2,2.2,0,0,1-.245-.657,27.979,27.979,0,0,1-.6-5.105h0v-.072a18.9,18.9,0,0,1,.087-2.111c.2-3.192,4.605-7.364,6.751-12.049l8.436.86,2.344,7.719" fill="#f4a379"/>
      <path id="path210" d="M495.755-310.863l-6.788,17.64a9.035,9.035,0,0,0,2.533,10.091c4.069,3.507,7.393,5.384,10.447.964L512.737-302.6l-16.983-8.261" fill="#f4a379"/>
      <path id="path212" d="M507.912-327.065s-10.6,6.731-16.432,22.623l19.432,9.845,12.14-16.128-15.14-16.34" fill="#fff"/>
      <path id="path214" d="M509.509-295.379l8.192-13.088-1.205-.753L508.3-296.134" fill="#e5e2f3"/>
      <path id="path216" d="M486.489-350.8c6.233.071,11.335-3.885,11.391-8.837s-4.951-9.023-11.185-9.095-11.335,3.885-11.391,8.836,4.951,9.024,11.185,9.1" fill="#f2514b"/>
      <path id="path218" d="M493.008-354.819a6.888,6.888,0,0,0,9.739.112,6.888,6.888,0,0,0,.112-9.739,6.887,6.887,0,0,0-9.739-.112,6.887,6.887,0,0,0-.112,9.739" fill="#fff"/>
      <path id="path220" d="M524.441-344.15l1.248,16.743L512-328.363l-1.76-23.865,14.2,8.079" fill="#f4a379"/>
      <path id="path222" d="M525.2-334.009c-.023-.293-7.179-8.364-7.179-8.364l6.636.195.543,8.169" fill="#1e1416"/>
      <path id="path224" d="M515.639-375.7s7.323-2.236,11.92,6.087c0,0,3.265,6.067,7.893,14.837a8.206,8.206,0,0,1-5,11.824,24.505,24.505,0,0,1-10.661.4l-5.737-1.716c-14.207-5.675-13.964-26.175.52-31.1.347-.117.7-.229,1.064-.339" fill="#f4a379"/>
      <path id="path226" d="M530.333-361.222l4.891,1.783c.883.213,1.275,1.451.724,1.8l-2.908,1.853-2.707-5.436" fill="#f4a379"/>
      <path id="path228" d="M514.22-355.976s-12.449-18.884,9.569-19.352c0,0-14.368-7.639-26.667,6.995a15.946,15.946,0,0,0-2.84,12.608c2.4,9.493,9.941,7.717,17,15.96,0,0,4.116-3.019,2.527-9.916-.369-1.607.411-6.295.411-6.295" fill="#f2514b"/>
      <path id="path230" d="M516.775-370.416c3.215,14.631-.987,17.628-.987,17.628l-9.107-12.125,10.093-5.5" fill="#f2514b"/>
      <path id="path232" d="M507.043-351.608A5.044,5.044,0,0,0,513.6-348.8a5.045,5.045,0,0,0,2.813-6.556,5.046,5.046,0,0,0-6.557-2.815,5.047,5.047,0,0,0-2.813,6.557" fill="#f4a379"/>
      <path id="path234" d="M514.533-353.514a4.709,4.709,0,0,0-.712-1.157,3.039,3.039,0,0,0-2.325-1.191,3.7,3.7,0,0,0-1.908.6.384.384,0,0,0-.131.527.384.384,0,0,0,.527.131,2.94,2.94,0,0,1,1.512-.488,2.278,2.278,0,0,1,1.736.916,4.007,4.007,0,0,1,.448.663l.109.216.032.072a.384.384,0,0,0,.5.213.385.385,0,0,0,.215-.5" fill="#171921"/>
      <path id="path236" d="M525.207-365.282s2.268-1.5,2.952-.479c0,0,.445.7-1.563,1.964s-2.655,1.395-3.265.841.753-1.716,1.876-2.327" fill="#1e1416"/>
      <path id="path238" d="M528.023-359.51a1.156,1.156,0,0,0,1.38.875,1.15,1.15,0,0,0,.829-1.4,1.158,1.158,0,0,0-1.381-.876,1.153,1.153,0,0,0-.828,1.405" fill="#1e1416"/>
      <path id="path240" d="M532.919-354.034l.041.019-.04-.02h0l.041.019-.04-.02c-.043.055-.505,1-2.305,1.007a6.141,6.141,0,0,1-1.036-.1.383.383,0,0,0-.443.313.383.383,0,0,0,.312.443,6.765,6.765,0,0,0,1.167.107,3.764,3.764,0,0,0,2.341-.692,2.209,2.209,0,0,0,.66-.757.383.383,0,0,0-.188-.509.382.382,0,0,0-.508.187" fill="#171921"/>
      <path id="path242" d="M507.411-375.975s10.553-9.569,21.168,3.583l-19.672,10.515-1.5-14.1" fill="#f2514b"/>
      <path id="path244" d="M517.951-331.726,512-328.363l17.743,4.081c.713-1.336-5.94-9.727-5.94-9.727l-5.851,2.283" fill="#f4a379"/>
      <path id="path246" d="M172.57-145.894l20.939-5.333c6.445-.947,11.785-.231,14.768,4.893.149.26.3.533.44.819,4.129,8.3.081,18.378-8.425,22.061L175.61-112.773H127.987l3.342-29.7,41.241-3.424" fill="#2c325c"/>
      <path id="path248" d="M160.164-112.732l2.239-1.985,4.213-4.809a2,2,0,0,1,1.551-.7l22.68.615c3.8.119,6.776,3.743,6.341,7.984a6.959,6.959,0,0,1-6.851,6.339l-1.289-.011c-9.659.054-29.043.14-28.884-.033.212-.232,0-7.4,0-7.4" fill="#181523"/>
      <path id="path250" d="M97.787-132.568s69.316,10.216,69.57,10.979-4.985,16.857-4.985,16.857H97.787S79.2-106.307,81.744-121.824c0,0,2.61-10.166,16.043-10.744" fill="#323e85"/>
      <path id="path252" d="M139.568-216.513s-9.849,2.679-13.107,19.143-7.245,32.44-7.245,32.44L97.051-147.077l16.577,5.288,23.121-16.5,11.579-32.841-8.76-25.385" fill="#fff"/>
      <path id="path254" d="M156.956-219l16.516,3.413a11.294,11.294,0,0,1,7.852,12.5l-8.753,57.2-41.241,3.424,1.041-63.368a11.294,11.294,0,0,1,10.377-11.417L156.956-219" fill="#fff"/>
      <path id="path256" d="M133.073-196.036,131.116-154.8l1.4.067,1.957-41.233" fill="#e5e2f3"/>
      <path id="path258" d="M136.749-122.5l24.212-9.7a2.3,2.3,0,0,0,1.439-2.255,2.3,2.3,0,0,0-1.887-2.136l-33.725-6.057L94.971-131.058l41.778,8.559" fill="#e5e3e2"/>
      <path id="path260" d="M132.438-151.894,117.955-149.8a3.36,3.36,0,0,0-2.794,1.755l-3.734,6.888a3.054,3.054,0,0,0,2.65,4.509,3.053,3.053,0,0,0,2.771-1.7l1.722-3.473s10.116,6.281,15.2-1.768l-1.338-8.307" fill="#dd7d50"/>
      <path id="path262" d="M132.438-151.894l9.115-3.408,3.507,9.3-11.284,2.417-1.338-8.307" fill="#dd7d50"/>
      <path id="path264" d="M121.82-146.645,136.749-122.5l-41.778-8.559L77.33-156.2a1.392,1.392,0,0,1,1.438-2.159l38.449,8.456a7.23,7.23,0,0,1,4.6,3.263" fill="#fff"/>
      <path id="path266" d="M174.3-215.175s13.919,5.087,13.633,20.048c-.211,11.095-2.2,32.985-3.021,42.127a7.515,7.515,0,0,1-5.453,6.561l-39.044,2.98L134.8-154.769l31.892-8.581.62-35.388,6.992-16.437" fill="#fff"/>
      <path id="path268" d="M134.98-154.089l32.4-8.72.536-26.305-1.407-.028L166-163.893l-31.381,8.445.365,1.359" fill="#e5e2f3"/>
      <path id="path270" d="M135.116-229.943c1.443-6.473,2.684-15.257,2.465-19.021h0l11.1-6.532s4.927,14.568,5.7,24.32l7.169-1.112L159.6-252.954l-2.847-15.172c18.264,1.3,23.113,22.4,23.113,22.4,2.665,13.887,2.787,20-5.536,22.405v.007l-.336.08c-.367.1-.724.2-1.123.287-.633.137-1.228.24-1.789.32a116.939,116.939,0,0,1-25.54,2.048c-.161,0-.321-.011-.484-.02l-.2-.008,0-.005c-5.447-.371-11.005-3.657-9.74-9.331" fill="#22243e"/>
      <path id="path272" d="M137.581-248.965c.632,10.177,9.1,15.677,19.505,15.032s17.367-6.829,16.735-17.007-9.569-17.755-19.98-17.257c-14.336.684-16.893,9.053-16.26,19.232" fill="#22243e"/>
      <path id="path274" d="M148.049-241.978a4.892,4.892,0,0,1-4.249,5.429,4.841,4.841,0,0,1-5.269-4.4,4.893,4.893,0,0,1,4.249-5.429,4.84,4.84,0,0,1,5.269,4.4" fill="#cc693d"/>
      <path id="path276" d="M150.189-230.306l.559,15.6c.143,4.143,2.571,2.459,6.519,2.273,3.371-.159,8.293.9,8.012-2.743l-2.024-23.031-13.065,7.9" fill="#dd7d50"/>
      <path id="path278" d="M150.534-220.663l11.972-10.108c.813-3.443-12.325.643-12.325.643l.353,9.465" fill="#1e1416"/>
      <path id="path280" d="M153.856-227h0c-6.736.265-12.5-5.013-12.9-10.687l-.88-13.391a13.066,13.066,0,0,1,11.4-14.087c7.028-.76,14.567,4.375,15.32,11.633l.593,10.777A14.829,14.829,0,0,1,153.856-227" fill="#dd7d50"/>
      <path id="path282" d="M147.873-240.615l-.341,3.425.087.264.255.112,1.668,0a.341.341,0,0,0,.343-.341.342.342,0,0,0-.341-.344l-1.291,0,.3-3.049a.344.344,0,0,0-.308-.375.343.343,0,0,0-.375.307" fill="#141113"/>
      <path id="path284" d="M155.2-248.417s-2.767-.135-2.753,1.025c0,0,.031.785,2.444.855s3.032-.136,3.225-.88-1.621-1.039-2.916-1" fill="#141113"/>
      <path id="path286" d="M143.681-247.67s2.268-.325,2.493.759c0,0,.135.733-1.853.971s-2.647,0-2.856-.588c-.237-.667,1.133-1.085,2.216-1.141" fill="#141113"/>
      <path id="path288" d="M145.588-241.982a1.181,1.181,0,0,1-1.076,1.275,1.175,1.175,0,0,1-1.237-1.113,1.181,1.181,0,0,1,1.076-1.275,1.177,1.177,0,0,1,1.237,1.113" fill="#141113"/>
      <path id="path290" d="M155.753-242.442a1.181,1.181,0,0,1-1.075,1.275,1.174,1.174,0,0,1-1.237-1.113,1.182,1.182,0,0,1,1.076-1.276,1.176,1.176,0,0,1,1.236,1.115" fill="#141113"/>
      <path id="path292" d="M147.6-234.99l7.393-.237s-.431,2.393-4.243,2.323c-2.857-.053-3.151-2.085-3.151-2.085" fill="#fff"/>
      <path id="path294" d="M160.558-254.27c.092.524.193,9.119,5.192,11.855,2.928,1.6,5.9-9.789,5.9-9.789l-11.1-2.065" fill="#22243e"/>
      <path id="path296" d="M173.572-243.221a4.843,4.843,0,0,1-4.208,5.377,4.792,4.792,0,0,1-5.217-4.357,4.843,4.843,0,0,1,4.208-5.376,4.793,4.793,0,0,1,5.217,4.356" fill="#dd7d50"/>
      <path id="path298" d="M167.7-241.121l-.005-.064-.005-.2a3.551,3.551,0,0,1,.38-1.657,2.051,2.051,0,0,1,1.979-1.032l.248.007a.341.341,0,0,0,.363-.32.343.343,0,0,0-.32-.364l-.291-.009a2.749,2.749,0,0,0-2.577,1.384,4.21,4.21,0,0,0-.467,1.992c0,.2.012.328.013.337a.344.344,0,0,0,.377.307.344.344,0,0,0,.305-.377" fill="#141113"/>
      <path id="path300" d="M140.152-260.991s6.023,14.08,26.052,10.133c0,0,5.747,1.961,4.391-3.435s-11.707-12.779-11.707-12.779l-9.4,1.113-9.34,4.967" fill="#22243e"/>
      <path id="path302" d="M149.824-263.154s-10.323,3.353-9.751,12.075l-1.356-5.388,3.221-6.079,1.551-1.675,3.82-1.479,2.515,2.545" fill="#22243e"/>
      <path id="path304" d="M144.77-217.5s15.64-2.673,27.112,1.588c0,0-1.409,8.228-15.265,8.464a18.544,18.544,0,0,1-7.6-1.361c-3.229-1.376-6.764-4.029-4.249-8.691" fill="#dd7d50"/>
      <path id="path306" d="M324.815-494.768l36.955-33.505,16.579,13.024-37.413,45.664c-9.225,9.8-29.157,12.037-36.5.755-1.036-1.592-.051-3.705-1.044-5.727l21.42-20.211" fill="#315bb2"/>
      <path id="path308" d="M388.858-471.346l-14.837.031-6.808-27.22,14.837-.031,6.808,27.22" fill="#ed8787"/>
      <path id="path310" d="M371.871-475.921l19.9-.041s.339,4.309,6.641,4.959,9.789,3.96,10.3,8.435l-39.459.083a69.584,69.584,0,0,1,2.617-13.435" fill="#181523"/>
      <path id="path312" d="M408.718-459.751l-39.459.081-.005-2.817,39.459-.083.005,2.819" fill="#fff"/>
      <path id="path314" d="M370.239-468.931l.071.008a11.228,11.228,0,0,1,3.824,1.263,6.556,6.556,0,0,1,2.191,1.931,5.533,5.533,0,0,1,.959,3.225h.988A6.49,6.49,0,0,0,377-466.487a8.76,8.76,0,0,0-4.18-2.843,11.925,11.925,0,0,0-2.48-.585l-.1.984" fill="#fff"/>
      <path id="path316" d="M393.612-473.109c-.153,0-1.509.063-4.007,1.959a.493.493,0,0,0-.095.692.494.494,0,0,0,.692.095,10.8,10.8,0,0,1,2.633-1.552,3.768,3.768,0,0,1,.62-.183l.136-.02h.024l0-.079v.079h0l0-.079v.079a.494.494,0,0,0,.495-.495.494.494,0,0,0-.495-.495" fill="#fff"/>
      <path id="path318" d="M396.1-471.855a5.962,5.962,0,0,0-1.445.311,5.419,5.419,0,0,0-2.568,1.772.5.5,0,0,0,.088.695.5.5,0,0,0,.693-.089,4.432,4.432,0,0,1,2.105-1.441,5.516,5.516,0,0,1,.859-.217l.248-.035.076-.007a.5.5,0,0,0,.465-.521.494.494,0,0,0-.521-.467" fill="#fff"/>
      <path id="path320" d="M356.778-519.161l8.975,37.3,23.176-3.04-8.239-34.9c-1.561-9.927-6.4-11.249-10.2-11.347-9.78-.252-13.711,11.987-13.711,11.987" fill="#315bb2"/>
      <path id="path322" d="M405.222-435.107l-10.083,10.883-19.353-19.159,10.084-10.884,19.352,19.16" fill="#ed8787"/>
      <path id="path324" d="M390.3-425.787l13.527-14.6s3.387,2.687,8.155-1.484,9.567-4.472,13.188-1.795L398.355-414.72a69.707,69.707,0,0,1-8.053-11.067" fill="#181523"/>
      <path id="path326" d="M427.239-441.75,400.423-412.8l-2.068-1.916,26.816-28.945,2.068,1.916" fill="#fff"/>
      <path id="path328" d="M394.308-419.83l.111-.093A9.815,9.815,0,0,1,400-422.162a5.446,5.446,0,0,1,3.815,1.552l.672-.725A6.446,6.446,0,0,0,400-423.151a10.9,10.9,0,0,0-6.343,2.579l.653.743" fill="#fff"/>
      <path id="path330" d="M407.174-439.794c-.089.093-.983,1.116-1.3,4.271a.5.5,0,0,0,.443.541.5.5,0,0,0,.541-.443,10.708,10.708,0,0,1,.665-3,3.642,3.642,0,0,1,.287-.569l.075-.107.013-.016-.141-.121.135.128.007-.007-.141-.121.135.128a.5.5,0,0,0-.019-.7.493.493,0,0,0-.7.019" fill="#fff"/>
      <path id="path332" d="M409.783-440.758a6.1,6.1,0,0,0-1.273,3.569,4.776,4.776,0,0,0,.065.789.493.493,0,0,0,.568.407.493.493,0,0,0,.407-.568,3.92,3.92,0,0,1-.051-.628,4.76,4.76,0,0,1,.528-2.1,5.406,5.406,0,0,1,.364-.625l.117-.163.029-.039.007-.008a.494.494,0,0,0-.065-.7.5.5,0,0,0-.7.064" fill="#fff"/>
      <path id="path334" d="M367.21-482.542l33.309,34.561-19.261,18.537L340.4-469.512l26.808-13.029" fill="#3957af"/>
      <path id="path336" d="M323.443-488.777l-27.492,7.92a14.636,14.636,0,0,0,1.733,9.02c3.667,6.969,11.148,12.557,19.007,12.044h40.9a13.4,13.4,0,0,0,12.111-7.659,13.4,13.4,0,0,0-11.267-19.12l-35-2.205" fill="#3957af"/>
      <path id="path338" d="M326.342-557.008l-6.561,13.46-12.232-7.121,9.92-20.011,8.873,13.672" fill="#f4a379"/>
      <path id="path340" d="M322.478-549.081c.115-.236-1.265-9.124-1.265-9.124l4.381,2.731-3.116,6.393" fill="#1e1416"/>
      <path id="path342" d="M333.951-585.751s6.536,1.98,5.811,10.428c0,0-.595,6.117-1.52,14.915a7.317,7.317,0,0,1-9.573,6.277,21.875,21.875,0,0,1-8.1-4.995l-3.4-4.119c-7.708-11.259,2.649-26.328,15.825-22.783.315.084.635.177.957.276" fill="#f4a379"/>
      <path id="path344" d="M338.082-568.517l2.669,3.285a.682.682,0,0,1-.544,1.112l-3.077-.071.952-4.327" fill="#f4a379"/>
      <path id="path346" d="M308.209-581.552c1.056-3.411,4.955-6.875,8.364-7.932,14.628-4.533,22.152,7.407,22.152,7.407-22.069-8.652-15.619,10.239-15.619,10.239s-2.895,3.089-3.429,4.459c-2.413,6.173-6.452,5.627-6.452,5.627-3.865-9.521-6.723-14.28-5.016-19.8" fill="#22243f"/>
      <path id="path348" d="M335.915-575.315s2.267-.072,2.307.951c0,0,.009.692-1.968.712s-2.5-.171-2.688-.831,1.284-.888,2.349-.832" fill="#131112"/>
      <path id="path350" d="M335.787-568.663a.959.959,0,0,0,1.116.769.957.957,0,0,0,.769-1.115.959.959,0,0,0-1.116-.771.959.959,0,0,0-.769,1.116" fill="#131112"/>
      <path id="path352" d="M332.81-564.469l3.895,2.3s-.6,1.6-2.461.588a2.683,2.683,0,0,1-1.433-2.885" fill="#fcfbfd"/>
      <path id="path354" d="M323.355-569.227h0a4.285,4.285,0,0,0,3.539-4.467l-.372-6.549s7.657,4.975,9.552-1.4c0,0,9.925,2.364,10.037-4.179s-5.967-6.483-19.291-6.729c0,0,1.825-2.781-.3-3.371s-5.181,3.1-5.181,3.1-1.071-3.572-3.181-3-2.505,3.357-2.505,3.357-15.852,1.824-8.911,17.908l6.484,12.8,6.969-9.148,3.161,1.675" fill="#22243f"/>
      <path id="path356" d="M315.309-570.593a4.5,4.5,0,0,0,3.463,5.34,4.5,4.5,0,0,0,5.34-3.461,4.5,4.5,0,0,0-3.461-5.34,4.5,4.5,0,0,0-5.341,3.461" fill="#f4a379"/>
      <path id="path358" d="M321.814-568.284a4.07,4.07,0,0,0,.069-.772,3.274,3.274,0,0,0-.5-1.833,2.845,2.845,0,0,0-2.371-1.157.349.349,0,0,0-.365.333.35.35,0,0,0,.333.367,2.14,2.14,0,0,1,1.823.851,2.6,2.6,0,0,1,.381,1.44,3.921,3.921,0,0,1-.028.46l-.019.128-.008.039a.351.351,0,0,0,.271.415.35.35,0,0,0,.416-.269" fill="#131112"/>
      <path id="path360" d="M321.442-544.993s2.167,7.253.757,20.475,5.4,27.1,5.4,27.1.14,20.453-33.945,21.452c0,0-7.945-30.2-4.005-52.633,3.607-20.539,19.217-23.46,19.217-23.46l12.572,7.063" fill="#fcfbfd"/>
      <path id="path362" d="M313.383-546.749l41.843,11-1.305,17.135-43.609-2.9,3.072-25.233" fill="#fcfbfd"/>
      <path id="path364" d="M324.69-521.213l-14.336-.955-.087,1.3,14.336.953" fill="#e5e2f3"/>
      <path id="path366" d="M355.226-535.751l21.839-14.791,9.495,4.407L353.92-518.616l1.305-17.135" fill="#f4a379"/>
      <path id="path368" d="M383.99-549.82l-11.543.732a2.282,2.282,0,0,1-2.5-2.508l1.872-24.613a3.2,3.2,0,0,1,2.913-2.852l11.541-.732a2.284,2.284,0,0,1,2.505,2.509L386.9-552.672a3.2,3.2,0,0,1-2.912,2.852" fill="#131112"/>
      <path id="path370" d="M380.442-546.039c4.74,1.861,8.447-.527,10.309-5.269s1.173-10.04-3.569-11.9a9.224,9.224,0,0,0-11.957,5.215,9.225,9.225,0,0,0,5.217,11.956" fill="#f4a379"/>
      <path id="path372" d="M383.99-549.82l-11.543.732a2.282,2.282,0,0,1-2.5-2.508l1.872-24.613a3.2,3.2,0,0,1,2.913-2.852l11.541-.732a2.284,2.284,0,0,1,2.505,2.509L386.9-552.672a3.2,3.2,0,0,1-2.912,2.852" fill="#131112"/>
      <path id="path374" d="M380.442-546.039c4.74,1.861,8.447-.527,10.309-5.269s1.173-10.04-3.569-11.9a9.224,9.224,0,0,0-11.957,5.215,9.225,9.225,0,0,0,5.217,11.956" fill="#f4a379"/>
      <path id="path376" d="M51.149-104.229H599.331v-2H51.149Z" fill="#1e1416"/>
    </g>
  </g>
</svg>
