<svg xmlns="http://www.w3.org/2000/svg" width="113.917" height="150.279" viewBox="0 0 113.917 150.279">
  <g id="Group_31534" data-name="Group 31534" transform="translate(0 0)">
    <g id="g20" transform="translate(10.131 37.067)">
      <text id="text24" transform="translate(0 13)" fill="#1c1c1c" font-size="12" font-family="SegoeUI-Semibold, Segoe UI" font-weight="600"><tspan x="0" y="0">COLLECTION</tspan></text>
    </g>
    <path id="path64" d="M280.917-384H224.429a24.531,24.531,0,0,1-24.53-24.531V-465.02a24.531,24.531,0,0,1,24.53-24.531h56.488a24.531,24.531,0,0,1,24.53,24.531v56.486A24.531,24.531,0,0,1,280.917-384" transform="translate(-194.846 493.341)" fill="#ff5151"/>
    <path id="path66" d="M283.049-482.876l-51.61-4.292a23.571,23.571,0,0,0-25.112,20.583L200.11-414.9c-1.492,12.4,8.543,23.509,22.411,24.818l17.049,1.609,10.841,18.347L263.3-386.228l17.048,1.609c13.87,1.31,25.113-7.906,25.113-20.582v-52.856c0-12.676-10.034-23.788-22.413-24.818" transform="translate(-194.861 492.783)" fill="#ff5151"/>
    <path id="path68" d="M199.287-467.991l-.627,5.014a1.516,1.516,0,0,0,1.316,1.693,1.516,1.516,0,0,0,1.692-1.317l.628-5.014a1.518,1.518,0,0,0-1.317-1.693,1.517,1.517,0,0,0-1.692,1.317m-1.755,14.04L193.4-420.918a21.857,21.857,0,0,0-.171,2.729,22.517,22.517,0,0,0,6.243,15.4,27.116,27.116,0,0,0,15.7,8.117,1.516,1.516,0,0,0,1.731-1.264,1.517,1.517,0,0,0-1.264-1.731,24.1,24.1,0,0,1-13.95-7.193,19.484,19.484,0,0,1-5.425-13.334,18.938,18.938,0,0,1,.147-2.353l4.129-33.033a1.516,1.516,0,0,0-1.316-1.693,1.518,1.518,0,0,0-1.693,1.317h0m37.507,64.22,2.551,4.362a1.516,1.516,0,0,0,2.074.544,1.516,1.516,0,0,0,.543-2.075l-2.55-4.362a1.516,1.516,0,0,0-2.075-.543,1.516,1.516,0,0,0-.543,2.074m7.141,12.213,1.316,2.25a1.521,1.521,0,0,0,1.2.747,1.523,1.523,0,0,0,1.294-.563L258.4-390.548l16.165,1.52q1.378.129,2.724.128c10.073.007,18.641-5.37,22.241-13.577a1.516,1.516,0,0,0-.779-2,1.516,1.516,0,0,0-2,.779c-3.074,7.008-10.457,11.757-19.465,11.764q-1.2,0-2.44-.115l-16.978-1.6a1.512,1.512,0,0,0-1.324.561L245-378.7l-.2-.348a1.516,1.516,0,0,0-2.074-.544,1.515,1.515,0,0,0-.543,2.074h0M301.4-426.087l.023-5.053a1.516,1.516,0,0,0-1.509-1.523,1.516,1.516,0,0,0-1.523,1.509l-.023,5.053a1.516,1.516,0,0,0,1.509,1.523,1.515,1.515,0,0,0,1.523-1.509m.064-14.149.107-23.689h0v-.115a26.564,26.564,0,0,0-6.884-17.7,25.416,25.416,0,0,0-16.713-8.48L226.6-494.469q-1-.083-1.988-.082a24.75,24.75,0,0,0-15.131,5.236,1.516,1.516,0,0,0-.272,2.126,1.516,1.516,0,0,0,2.127.272,21.718,21.718,0,0,1,13.276-4.6q.864,0,1.738.072l51.372,4.248a22.388,22.388,0,0,1,14.709,7.487,23.533,23.533,0,0,1,6.106,15.673v.1h0l-.107,23.688a1.517,1.517,0,0,0,1.51,1.523,1.515,1.515,0,0,0,1.522-1.509" transform="translate(-193.233 494.551)" fill="#ff5151"/>
    <path id="path70" d="M260.367-345.795c-.036,0-.074,0-.11,0a1.521,1.521,0,0,1-1.2-.747l-1.316-2.25h0a1.5,1.5,0,0,1-.208-.762,1.518,1.518,0,0,1,.751-1.312,1.512,1.512,0,0,1,.764-.207,1.516,1.516,0,0,1,1.31.751l.2.348,11.54-14.382a1.508,1.508,0,0,1,1.18-.567c.047,0,.1,0,.143.006l16.978,1.6q1.237.115,2.44.115c9.008-.007,16.39-4.756,19.465-11.764a1.516,1.516,0,0,1,1.389-.906,1.508,1.508,0,0,1,.608.127,1.516,1.516,0,0,1,.908,1.391,1.508,1.508,0,0,1-.128.607c-3.6,8.2-12.157,13.577-22.221,13.577h-.019q-1.345,0-2.724-.128l-16.165-1.52-11.886,14.812-.522.652a1.522,1.522,0,0,1-1.183.567" transform="translate(-208.796 465.828)" fill="#1c0909"/>
    <path id="path72" d="M252.183-351.876a1.514,1.514,0,0,1-1.31-.751l-2.551-4.362a1.518,1.518,0,0,1-.208-.762,1.518,1.518,0,0,1,.751-1.312,1.5,1.5,0,0,1,.764-.208,1.516,1.516,0,0,1,1.311.751l2.55,4.362a1.519,1.519,0,0,1,.208.762c0,.028,0,.056,0,.084a1.528,1.528,0,0,1-.31.842,1.532,1.532,0,0,1-.439.387,1.512,1.512,0,0,1-.764.207" transform="translate(-206.516 461.808)" fill="#1c0909"/>
    <path id="path74" d="M215.408-382.108a1.43,1.43,0,0,1-.235-.019,27.115,27.115,0,0,1-15.7-8.117,22.517,22.517,0,0,1-6.243-15.4,21.861,21.861,0,0,1,.171-2.729l4.128-33.033h0a1.516,1.516,0,0,1,1.5-1.328,1.513,1.513,0,0,1,.19.011,1.517,1.517,0,0,1,1.328,1.5,1.559,1.559,0,0,1-.012.193l-2.255,18.041L196.411-408a18.935,18.935,0,0,0-.147,2.353h0a19.483,19.483,0,0,0,5.425,13.334,24.1,24.1,0,0,0,13.95,7.193,1.518,1.518,0,0,1,1.282,1.5,1.484,1.484,0,0,1-.018.23,1.517,1.517,0,0,1-1.5,1.283" transform="translate(-193.233 482.011)" fill="#1c0909"/>
    <path id="path76" d="M333.454-404.817h-.007a1.516,1.516,0,0,1-1.509-1.513v-.01l.023-5.053a1.516,1.516,0,0,1,1.516-1.509h.007a1.516,1.516,0,0,1,1.509,1.513v.01l-.023,5.053a1.515,1.515,0,0,1-1.516,1.509" transform="translate(-226.804 474.789)" fill="#1c0909"/>
    <path id="path78" d="M304.948-438.727h-.007a1.516,1.516,0,0,1-1.51-1.513v-.01l.107-23.688h0v-.1h0a23.534,23.534,0,0,0-6.106-15.673,22.388,22.388,0,0,0-14.709-7.487l-51.372-4.248q-.873-.073-1.738-.072h0a21.721,21.721,0,0,0-13.273,4.6,1.515,1.515,0,0,1-.927.317,1.514,1.514,0,0,1-1.2-.589,1.51,1.51,0,0,1-.316-.929,1.513,1.513,0,0,1,.588-1.2,24.75,24.75,0,0,1,15.131-5.236q.988,0,1.988.082l51.372,4.248a25.416,25.416,0,0,1,16.713,8.48,26.564,26.564,0,0,1,6.884,17.7v.115h0l-.107,23.689a1.515,1.515,0,0,1-1.515,1.509" transform="translate(-198.233 494.551)" fill="#1c0909"/>
    <path id="path80" d="M201.9-453.216a1.5,1.5,0,0,1-.19-.011,1.516,1.516,0,0,1-1.328-1.5,1.573,1.573,0,0,1,.012-.193l.627-5.014a1.516,1.516,0,0,1,1.5-1.328,1.716,1.716,0,0,1,.19.011,1.516,1.516,0,0,1,1.328,1.5,1.555,1.555,0,0,1-.011.193l-.628,5.014a1.515,1.515,0,0,1-1.5,1.328" transform="translate(-194.962 486.494)" fill="#1c0909"/>
    <path id="path82" d="M269.433-405.311q-.917,0-1.855-.077l-13.631-1.12-18.973-1.559-13.631-1.12c-11.089-.912-18.927-9.529-17.5-19.248l5.926-40.524a19.385,19.385,0,0,1,18.826-16.405c.415,0,.834.014,1.252.044l40.311,2.849c9.668.683,17.5,9.3,17.5,19.248v41.474c0,9.387-8,16.438-18.223,16.438" transform="translate(-195.759 492.327)" fill="#f88"/>
    <path id="path84" d="M299.149-383.142c-.6,0-1.215-.028-1.825-.085l-4.7-.438a1.516,1.516,0,0,1-1.368-1.65,1.508,1.508,0,0,1,1.5-1.375,1.486,1.486,0,0,1,.149.007l4.694.438c.517.049,1.037.072,1.544.072,7.677,0,13.538-5.323,13.634-12.382l.535-39.461a1.5,1.5,0,0,1,1.537-1.5,1.516,1.516,0,0,1,1.495,1.537l-.535,39.461c-.118,8.764-7.284,15.373-16.666,15.373" transform="translate(-216.957 481.23)" fill="#ff1a1a"/>
    <path id="path86" d="M322.042-450.093h-.02a1.517,1.517,0,0,1-1.5-1.536l.058-4.362c0-.206,0-.405-.012-.6a1.515,1.515,0,0,1,1.447-1.582c.026,0,.054,0,.08,0a1.521,1.521,0,0,1,1.5,1.45c.012.247.017.5.016.744l-.058,4.4a1.515,1.515,0,0,1-1.516,1.5" transform="translate(-224.042 485.747)" fill="#ff1a1a"/>
    <path id="path88" d="M211.289-446.25l-.176-.01a1.516,1.516,0,0,1-1.332-1.68l.58-5.02a1.515,1.515,0,0,1,1.68-1.332,1.516,1.516,0,0,1,1.332,1.681l-.58,5.019a1.516,1.516,0,0,1-1.5,1.342" transform="translate(-197.235 484.809)" fill="#fff"/>
    <path id="path90" d="M213.861-467.511a1.527,1.527,0,0,1-.451-.069,1.517,1.517,0,0,1-1-1.9,21.237,21.237,0,0,1,20.1-14.846c.573,0,1.153.024,1.72.072l42.177,3.528a1.517,1.517,0,0,1,1.386,1.637,1.506,1.506,0,0,1-1.638,1.383l-42.178-3.528a18.129,18.129,0,0,0-18.666,12.653,1.518,1.518,0,0,1-1.447,1.067" transform="translate(-197.858 492.076)" fill="#fff"/>
    <path id="path92" d="M273.964-457.4A14.833,14.833,0,0,0,257.7-444.145c-.022.217-.02.432-.033.648l-.032,0h0l-.032,0c.031-.214.076-.423.1-.641A14.835,14.835,0,0,0,244.449-460.4a14.833,14.833,0,0,0-16.259,13.256h0c-2.685,26.4,25.493,42.524,25.493,42.524s30.85-10.12,33.537-36.518h0A14.833,14.833,0,0,0,273.964-457.4" transform="translate(-201.65 486.305)" fill="#fff"/>
    <path id="path94" d="M233.591-422.427c.973,1.484,2.006,2.885,3.068,4.2a1.517,1.517,0,0,0,2.132.228,1.516,1.516,0,0,0,.227-2.131c-1-1.246-1.979-2.568-2.893-3.962a1.515,1.515,0,0,0-2.1-.436A1.516,1.516,0,0,0,233.591-422.427Zm17.6,17.388c1.215.81,1.954,1.233,1.979,1.248a1.522,1.522,0,0,0,1.226.124,65.541,65.541,0,0,0,16.177-8.572,50.383,50.383,0,0,0,11.755-11.673,36.763,36.763,0,0,0,6.641-17.56l.005-.065h0l-1.513-.089,1.508.154a16.394,16.394,0,0,0,.085-1.674,16.275,16.275,0,0,0-2.757-9.066,1.515,1.515,0,0,0-2.1-.417,1.516,1.516,0,0,0-.416,2.1,13.246,13.246,0,0,1,2.245,7.381,13.552,13.552,0,0,1-.069,1.366l-.006.065v0l1.514.088-1.508-.154a33.707,33.707,0,0,1-6.107,16.125c-4.715,6.727-11.327,11.536-16.77,14.635a65.462,65.462,0,0,1-6.877,3.407c-.867.367-1.562.636-2.036.812-.238.088-.419.153-.54.194l-.133.047-.037.012.472,1.44.753-1.316-.022-.013c-.128-.075-.775-.456-1.781-1.126a1.514,1.514,0,0,0-2.1.42,1.515,1.515,0,0,0,.42,2.1Zm23.166-54.354a16.659,16.659,0,0,0-1.673-.085,16.351,16.351,0,0,0-16.248,14.7c-.032.326-.028.564-.038.713l1.513.089.137-1.51-.032,0-.137,1.51.368-1.471h0a1.509,1.509,0,0,0-.368-.044h0v1.516l.166-1.507-.032,0-.166,1.507,1.5.218c.02-.148.072-.379.106-.705a16.383,16.383,0,0,0,.085-1.673,16.35,16.35,0,0,0-14.7-16.248,16.4,16.4,0,0,0-1.674-.086,16.359,16.359,0,0,0-13.95,7.847,1.514,1.514,0,0,0,.505,2.083,1.515,1.515,0,0,0,2.083-.5,13.328,13.328,0,0,1,11.361-6.394,13.546,13.546,0,0,1,1.366.07A13.32,13.32,0,0,1,256.5-446.148a13.547,13.547,0,0,1-.069,1.365c-.01.109-.048.3-.091.576a1.524,1.524,0,0,0,.3,1.146,1.519,1.519,0,0,0,1.034.579l.031,0,.167.009h0v-1.516l-.368,1.47h0l.23.038.032,0a1.511,1.511,0,0,0,1.127-.361,1.515,1.515,0,0,0,.524-1.06c.014-.283.015-.473.027-.582a13.32,13.32,0,0,1,13.232-11.971,13.56,13.56,0,0,1,1.365.07,1.517,1.517,0,0,0,1.662-1.354,1.517,1.517,0,0,0-1.355-1.662" transform="translate(-201.888 486.789)" fill="#1c1c1c"/>
    <path id="path96" d="M307.706-314.577c0,6.166-25.111,11.163-56.086,11.163s-56.087-5-56.087-11.163,25.111-11.162,56.087-11.162,56.086,5,56.086,11.162" transform="translate(-193.789 453.693)" fill="#243163"/>
  </g>
</svg>
