<svg xmlns="http://www.w3.org/2000/svg" width="737.941" height="628.922" viewBox="0 0 737.941 628.922">
  <g id="g12" transform="translate(0 11.295)">
    <path id="path16" d="M760.514-81.9H626.468a19.209,19.209,0,0,1-19.208-19.209v-45.737a19.209,19.209,0,0,1,19.208-19.209H760.514a19.209,19.209,0,0,1,19.208,19.209v45.737A19.209,19.209,0,0,1,760.514-81.9" transform="translate(-169.317 592.654)" fill="#da9226"/>
    <path id="path18" d="M767.765-94.495H633.72A19.208,19.208,0,0,1,614.51-113.7v-45.74a19.208,19.208,0,0,1,19.209-19.207H767.765a19.206,19.206,0,0,1,19.207,19.207v45.74a19.206,19.206,0,0,1-19.207,19.207" transform="translate(-169.499 592.971)" fill="#fff"/>
    <path id="path20" d="M661.409-164.294l9.125,18.489,20.4,2.965-14.764,14.392,3.486,20.322-18.25-9.6-18.25,9.6,3.485-20.322L631.88-142.84l20.4-2.965,9.125-18.489" transform="translate(-169.935 592.61)" fill="#f9ac35"/>
    <path id="path22" d="M715.711-140.555a10.28,10.28,0,0,1,7.37,2.6,9.345,9.345,0,0,1,2.739,7.12q0,5.351-3.3,8.232t-9.433,2.881a18.481,18.481,0,0,1-8.6-1.725v-5.83a17.849,17.849,0,0,0,4.018,1.5,17.772,17.772,0,0,0,4.345.579q6.179,0,6.18-5.068,0-4.826-6.4-4.826a15.961,15.961,0,0,0-2.554.23,18.06,18.06,0,0,0-2.271.493l-2.687-1.443,1.2-16.268h17.317v5.721h-11.4l-.589,6.268.764-.153a15.1,15.1,0,0,1,3.3-.305" transform="translate(-171.757 592.304)" fill="#303970"/>
    <path id="path24" d="M746.693-152.085l-11.9,31.925h-6.05l11.9-31.925h6.049" transform="translate(-172.366 592.304)" fill="#303970"/>
    <path id="path26" d="M760.845-140.555a10.278,10.278,0,0,1,7.37,2.6,9.347,9.347,0,0,1,2.74,7.12q0,5.351-3.3,8.232t-9.432,2.881a18.483,18.483,0,0,1-8.6-1.725v-5.83a17.848,17.848,0,0,0,4.018,1.5,17.789,17.789,0,0,0,4.347.579q6.179,0,6.18-5.068,0-4.826-6.4-4.826a15.975,15.975,0,0,0-2.556.23,18.07,18.07,0,0,0-2.271.493l-2.685-1.443,1.2-16.268h17.317v5.721h-11.4l-.589,6.268.764-.153a15.1,15.1,0,0,1,3.3-.305" transform="translate(-172.89 592.304)" fill="#303970"/>
    <path id="path28" d="M825.083-198.117H559.7a18.4,18.4,0,0,1-18.4-18.4V-390.325a18.4,18.4,0,0,1,18.4-18.4H825.083a18.4,18.4,0,0,1,18.4,18.4v173.808a18.4,18.4,0,0,1-18.4,18.4" transform="translate(-167.661 598.746)" fill="#da9226"/>
    <path id="path30" d="M831.194-210.1H565.81a18.4,18.4,0,0,1-18.4-18.4V-402.306a18.4,18.4,0,0,1,18.4-18.4H831.194a18.4,18.4,0,0,1,18.4,18.4V-228.5a18.4,18.4,0,0,1-18.4,18.4" transform="translate(-167.815 599.047)" fill="#fff"/>
    <path id="path32" d="M592.745-347.271h213.79v-1.3H592.745Z" transform="translate(-168.953 597.236)" fill="#54b4ad"/>
    <path id="path34" d="M592.745-321.482h213.79v-1.3H592.745Z" transform="translate(-168.953 596.589)" fill="#54b4ad"/>
    <path id="path36" d="M592.745-295.691h213.79v-1.3H592.745Z" transform="translate(-168.953 595.941)" fill="#54b4ad"/>
    <path id="path38" d="M592.745-269.9h213.79v-1.3H592.745Z" transform="translate(-168.953 595.294)" fill="#54b4ad"/>
    <path id="path40" d="M592.745-244.112h213.79v-1.3H592.745Z" transform="translate(-168.953 594.646)" fill="#54b4ad"/>
    <path id="path42" d="M831.194-420.7H565.81a18.4,18.4,0,0,0-18.4,18.4v25.995h302.18v-25.995a18.4,18.4,0,0,0-18.4-18.4" transform="translate(-167.815 599.047)" fill="#303970"/>
    <path id="path44" d="M832.773-398.136h-.65a6.429,6.429,0,0,1-1.89,4.563,6.431,6.431,0,0,1-4.564,1.891,6.436,6.436,0,0,1-4.564-1.891,6.43,6.43,0,0,1-1.89-4.562,6.431,6.431,0,0,1,1.89-4.564,6.435,6.435,0,0,1,4.564-1.89,6.43,6.43,0,0,1,4.564,1.89,6.43,6.43,0,0,1,1.89,4.564h1.3a7.754,7.754,0,0,0-7.754-7.754,7.754,7.754,0,0,0-7.754,7.754,7.755,7.755,0,0,0,7.754,7.754,7.756,7.756,0,0,0,7.754-7.754h-.65" transform="translate(-174.605 598.675)" fill="#fff"/>
    <path id="path46" d="M799.352-398.136h-.65a6.43,6.43,0,0,1-1.89,4.563,6.43,6.43,0,0,1-4.563,1.891,6.431,6.431,0,0,1-4.564-1.891,6.429,6.429,0,0,1-1.89-4.562,6.43,6.43,0,0,1,1.89-4.564,6.43,6.43,0,0,1,4.564-1.89,6.429,6.429,0,0,1,4.563,1.89,6.43,6.43,0,0,1,1.89,4.564H800a7.753,7.753,0,0,0-7.752-7.754,7.753,7.753,0,0,0-7.754,7.754,7.754,7.754,0,0,0,7.754,7.754A7.755,7.755,0,0,0,800-398.136h-.65" transform="translate(-173.766 598.675)" fill="#fff"/>
    <path id="path48" d="M765.93-398.136h-.65a6.429,6.429,0,0,1-1.89,4.563,6.431,6.431,0,0,1-4.564,1.891,6.431,6.431,0,0,1-4.564-1.891,6.435,6.435,0,0,1-1.89-4.562,6.436,6.436,0,0,1,1.89-4.564,6.43,6.43,0,0,1,4.564-1.89,6.43,6.43,0,0,1,4.564,1.89,6.43,6.43,0,0,1,1.89,4.564h1.3a7.753,7.753,0,0,0-7.754-7.754,7.753,7.753,0,0,0-7.754,7.754,7.755,7.755,0,0,0,7.754,7.754,7.754,7.754,0,0,0,7.754-7.754h-.65" transform="translate(-172.927 598.675)" fill="#fff"/>
    <path id="path50" d="M825.341-450.615h-265.9A18.14,18.14,0,0,1,541.3-468.755v-41.381a18.14,18.14,0,0,1,18.141-18.141h265.9a18.141,18.141,0,0,1,18.141,18.141v41.381a18.141,18.141,0,0,1-18.141,18.141" transform="translate(-167.661 601.747)" fill="#da9226"/>
    <path id="path52" d="M831.451-459h-265.9a18.14,18.14,0,0,1-18.141-18.141v-41.381a18.14,18.14,0,0,1,18.141-18.141h265.9a18.14,18.14,0,0,1,18.141,18.141v41.381A18.14,18.14,0,0,1,831.451-459" transform="translate(-167.815 601.957)" fill="#fff"/>
    <path id="path54" d="M594.985-519.529l6.849,13.879,15.315,2.227-11.081,10.8,2.617,15.254-13.7-7.2-13.7,7.2,2.615-15.254-11.081-10.8,15.315-2.227,6.85-13.879" transform="translate(-168.452 601.527)" fill="#f9ac35"/>
    <path id="path56" d="M648.4-519.529l6.849,13.879,15.316,2.227-11.084,10.8,2.617,15.254-13.7-7.2-13.7,7.2,2.617-15.254-11.084-10.8,15.318-2.227,6.849-13.879" transform="translate(-169.793 601.527)" fill="#f9ac35"/>
    <path id="path58" d="M701.822-519.529l6.849,13.879,15.315,2.227-11.081,10.8,2.617,15.254-13.7-7.2-13.7,7.2,2.617-15.254-11.082-10.8,15.315-2.227,6.85-13.879" transform="translate(-171.134 601.527)" fill="#f9ac35"/>
    <path id="path60" d="M755.241-519.529l6.85,13.879,15.315,2.227-11.084,10.8,2.617,15.254-13.7-7.2-13.7,7.2,2.617-15.254-11.084-10.8,15.316-2.227,6.85-13.879" transform="translate(-172.475 601.527)" fill="#f9ac35"/>
    <path id="path62" d="M808.658-519.529l6.85,13.879,15.316,2.227-11.083,10.8,2.617,15.254-13.7-7.2-13.7,7.2,2.617-15.254-11.083-10.8,15.316-2.227,6.848-13.879" transform="translate(-173.816 601.527)" fill="#f9ac35"/>
    <path id="path64" d="M437.837-141.06H207.759a28.364,28.364,0,0,1-28.366-28.364,28.365,28.365,0,0,1,28.366-28.366H437.837A28.366,28.366,0,0,1,466.2-169.425a28.364,28.364,0,0,1-28.366,28.364" transform="translate(-158.577 593.451)" fill="#da9226"/>
    <path id="path66" d="M434.907-150.952H204.83a28.365,28.365,0,0,1-28.367-28.364,28.365,28.365,0,0,1,28.367-28.366H434.907a28.365,28.365,0,0,1,28.367,28.366,28.365,28.365,0,0,1-28.367,28.364" transform="translate(-158.503 593.699)" fill="#303970"/>
    <path id="path68" d="M214.832-190.32l-.919.919a11.775,11.775,0,0,1,3.46,8.354,11.777,11.777,0,0,1-3.46,8.353,11.777,11.777,0,0,1-8.354,3.46,11.772,11.772,0,0,1-8.353-3.46,11.766,11.766,0,0,1-3.46-8.353,11.767,11.767,0,0,1,3.46-8.354,11.766,11.766,0,0,1,8.353-3.46,11.771,11.771,0,0,1,8.354,3.46l.919-.919.919-.919a14.374,14.374,0,0,0-10.192-4.222,14.374,14.374,0,0,0-10.192,4.222,14.374,14.374,0,0,0-4.221,10.192,14.369,14.369,0,0,0,4.222,10.191,14.374,14.374,0,0,0,10.191,4.222,14.379,14.379,0,0,0,10.192-4.222,14.374,14.374,0,0,0,4.222-10.191,14.375,14.375,0,0,0-4.222-10.192l-.919.919" transform="translate(-158.872 593.393)" fill="#fff"/>
    <path id="path70" d="M228.441-160l-12.1-12.1L214.5-170.27l12.1,12.1" transform="translate(-159.458 592.806)" fill="#fff"/>
    <path id="path72" d="M181.105-532.777q-1.63,1.687-3.143,3.448l2.958,2.541q1.439-1.675,2.988-3.28l-2.8-2.71" transform="translate(-158.541 601.86)" fill="#fcd693"/>
    <path id="path74" d="M171.76-521.544a80.334,80.334,0,0,0-4.78,8.116l3.469,1.78A76.7,76.7,0,0,1,175-519.372Zm-8.586,16.731a81.746,81.746,0,0,0-2.787,9l3.785.937a77.772,77.772,0,0,1,2.654-8.566Zm-4.513,18.255a78.069,78.069,0,0,0-.62,9.406l3.9.02a74.351,74.351,0,0,1,.589-8.937Zm-.074,18.827a69.438,69.438,0,0,0,1.779,9.286l3.771-1a65.5,65.5,0,0,1-1.679-8.764l-3.871.474Zm4.869,18.247a58.383,58.383,0,0,0,4.452,8.395l3.282-2.106a54.486,54.486,0,0,1-4.154-7.834Zm10.27,15.932a51.949,51.949,0,0,0,7.087,6.382l2.332-3.126a48.02,48.02,0,0,1-6.555-5.9Zm15.215,11.36a55.791,55.791,0,0,0,8.86,3.46l1.109-3.738a51.723,51.723,0,0,1-8.241-3.218Zm18.117,5.446q4.6.659,9.328.893l.2-3.894q-4.559-.234-8.974-.859Zm18.669,1q4.607-.115,9.3-.534l-.342-3.885q-4.58.4-9.056.521Zm18.536-1.595q4.551-.636,9.159-1.481l-.7-3.836q-4.535.825-9,1.454Zm18.242-3.3q4.49-.969,9.013-2.072l-.92-3.79q-4.479,1.088-8.917,2.051Zm17.967-4.34q4.444-1.168,8.9-2.406l-1.04-3.758q-4.436,1.228-8.851,2.392Zm17.768-4.9q4.428-1.262,8.849-2.539l-1.079-3.747q-4.418,1.271-8.839,2.536Zm17.692-5.076q4.438-1.264,8.848-2.488l-1.039-3.758q-4.43,1.225-8.878,2.5Zm17.707-4.876q4.465-1.168,8.883-2.237l-.912-3.79q-4.459,1.072-8.959,2.255Zm17.8-4.262q4.52-.961,8.961-1.746l-.675-3.841q-4.516.794-9.1,1.772Zm17.965-3.129q4.576-.593,9.037-.919l-.279-3.889q-4.58.329-9.259.941Zm18.084-1.257h.042q4.566,0,8.974.381l.342-3.884c-3.06-.27-6.167-.4-9.316-.4h-.042Zm17.912,1.631a71.447,71.447,0,0,1,8.656,2.263l1.224-3.7a75.473,75.473,0,0,0-9.126-2.387l-.754,3.826" transform="translate(-158.041 601.578)" fill="#fcd693"/>
    <path id="path76" d="M429.132-439.218q1.967.973,3.88,2.093l1.972-3.364q-2.034-1.191-4.126-2.224l-1.726,3.5" transform="translate(-164.846 599.599)" fill="#fcd693"/>
    <path id="path78" d="M322.4-231.031H205.347a22.087,22.087,0,0,1-22.087-22.086V-370.168a22.087,22.087,0,0,1,22.087-22.086H322.4a22.087,22.087,0,0,1,22.087,22.086v117.051A22.087,22.087,0,0,1,322.4-231.031" transform="translate(-158.674 598.332)" fill="#da9226"/>
    <path id="path80" d="M315.6-238.507H198.55a22.087,22.087,0,0,1-22.086-22.086V-377.644A22.087,22.087,0,0,1,198.55-399.73H315.6a22.087,22.087,0,0,1,22.087,22.086v117.051A22.087,22.087,0,0,1,315.6-238.507" transform="translate(-158.503 598.52)" fill="#fff"/>
    <path id="path82" d="M290.088-264.688a51.223,51.223,0,0,1-22.521,5.247H223.2a7.132,7.132,0,0,1-7.035-7.21,7.133,7.133,0,0,1,7.035-7.21,2.494,2.494,0,0,0,2.493-2.493,2.494,2.494,0,0,0-2.493-2.493h-4.674a7.132,7.132,0,0,1-7.035-7.21,7.132,7.132,0,0,1,7.035-7.209,2.494,2.494,0,0,0,2.493-2.493,2.494,2.494,0,0,0-2.493-2.493h-4.674a7.133,7.133,0,0,1-7.035-7.209,7.132,7.132,0,0,1,7.035-7.21,2.493,2.493,0,0,0,2.493-2.493,2.492,2.492,0,0,0-2.493-2.493h-4.674a7.132,7.132,0,0,1-7.035-7.21,7.132,7.132,0,0,1,7.035-7.21h33.653a2.494,2.494,0,0,0,2.024-1.037,2.492,2.492,0,0,0,.339-2.249l-5.832-17.369-1.12-10.561a13.182,13.182,0,0,1,3.213-10.368,12.96,12.96,0,0,1,8.038-4.163l1.56,6.464A62.429,62.429,0,0,0,272.63-337.43l18.809,15.051v57.025Zm1.351-67.463v3.387l-15.695-12.559A57.426,57.426,0,0,1,255.9-372.531l-2.05-8.5a2.494,2.494,0,0,0-2.424-1.908A18.114,18.114,0,0,0,237.75-377a18.112,18.112,0,0,0-4.465,14.228l1.149,10.832a2.462,2.462,0,0,0,.116.53l4.816,14.343H209.181a12.121,12.121,0,0,0-12.02,12.2,12.213,12.213,0,0,0,7.663,11.367,12.249,12.249,0,0,0-2.99,8.04A12.215,12.215,0,0,0,209.5-294.1a12.244,12.244,0,0,0-2.988,8.038,12.217,12.217,0,0,0,7.661,11.369,12.248,12.248,0,0,0-2.988,8.038,12.123,12.123,0,0,0,12.021,12.2h44.363a56.271,56.271,0,0,0,23.872-5.354v2.861H318.03v-75.2H291.439" transform="translate(-159.023 598.099)" fill="#303970"/>
    <path id="path84" d="M419.3-531.774a68.135,68.135,0,0,1-68.134,68.135,68.135,68.135,0,0,1-68.135-68.135,68.135,68.135,0,0,1,68.135-68.134A68.135,68.135,0,0,1,419.3-531.774" transform="translate(-161.178 603.545)" fill="#fff"/>
    <path id="path86" d="M411.47-523.988l57.432,41.57-68.257-11.673Z" transform="translate(-164.131 601.639)" fill="#fff"/>
    <path id="path88" d="M377.645-562.6c-11.882-3.473-25.774,9.139-25.774,9.139S337.978-566.071,326.1-562.6s-19.088,18.57-12.429,34.365c7.86,18.645,26.687,31.441,38.2,38.388,11.515-6.946,30.343-19.742,38.2-38.388,6.659-15.795-.549-30.891-12.429-34.365" transform="translate(-161.883 602.623)" fill="#21c98b"/>
    <path id="path96" d="M595.223-153.336H409.2L388.928-3.849H490.7l4.964-58.061h13.1l4.965,58.061H615.494L595.223-153.336" transform="translate(-163.837 592.335)" fill="#243163"/>
    <path id="path98" d="M603.96-92.4,595.7-153.336H409.674l-1.868,13.775C421.731-124.3,475.721-77.514,603.96-92.4" transform="translate(-164.31 592.335)" fill="#1b2444"/>
    <path id="path100" d="M504.461-61.387h1.3v-71.092h-1.3Z" transform="translate(-166.737 591.812)" fill="#0a101a"/>
    <path id="path102" d="M490.84-134.1v35.975a16.053,16.053,0,0,0,13.84,15.9l.179-1.287A14.754,14.754,0,0,1,492.14-98.129V-134.1h-1.3" transform="translate(-166.395 591.852)" fill="#0a101a"/>
    <path id="path104" d="M402.1-98.531l.412-.092c39.192-8.928,42.409-54.714,42.409-54.714H409.53L402.1-98.531" transform="translate(-164.167 592.335)" fill="#0a101a"/>
    <path id="path106" d="M607.033-98.531l-.412-.092c-39.192-8.928-42.409-54.714-42.409-54.714H599.6l7.433,54.805" transform="translate(-168.236 592.335)" fill="#0a101a"/>
    <path id="path108" d="M641.505-415.5a93.56,93.56,0,0,0-60.039-42.65l-56.8-12.29-24.414-2.384-24.414,2.384-56.8,12.29A93.557,93.557,0,0,0,359-415.5l-48.082,78.669,89.8,43.853,2.809,134.472S446.7-139.78,500.253-139.78s96.727-18.729,96.727-18.729l2.81-134.472,89.8-43.853L641.505-415.5" transform="translate(-161.878 600.355)" fill="#21c98b"/>
    <path id="path110" d="M607.228-290.564,648.3-310.621s-3.46-18.567-14.192-28.113a22.075,22.075,0,0,1-7.295-14.734,80.639,80.639,0,0,0-3.774-18.049c-2.518-7.773-13.95-6.125-14.124,2.045l-1.685,78.908" transform="translate(-169.316 597.938)" fill="#118c5f"/>
    <path id="path112" d="M602.56-313.143H402.5l-.8-43.331H603.359l-.8,43.331" transform="translate(-164.157 597.434)" fill="#303970"/>
    <path id="path114" d="M608.885-403.156l-2.324,111.269,1.3.027,2.324-111.27" transform="translate(-169.299 598.606)" fill="#0a101a"/>
    <path id="path116" d="M601.378-254.214H403.742l-.91-43.331H602.288l-.91,43.331" transform="translate(-164.186 595.955)" fill="#303970"/>
    <path id="path118" d="M553.911-464.886l-25.675-5.557-24.414-2.384-24.414,2.384-26.318,5.7c6.965,10.067,30.748,19.482,50.362,19.482,19.7,0,43.62-9.5,50.459-19.621" transform="translate(-165.447 600.355)" fill="#4cbf68"/>
    <path id="path120" d="M689.557-345.863l7.468,12.216-89.8,43.853.286-14.356,82.043-41.714" transform="translate(-169.316 597.168)" fill="#4cbf68"/>
    <path id="path122" d="M536.06-340.563H498.538a10.546,10.546,0,0,1-10.546-10.546v-77.053a10.545,10.545,0,0,1,10.546-10.544H536.06a10.546,10.546,0,0,1,10.547,10.544v77.053a10.547,10.547,0,0,1-10.547,10.546" transform="translate(-166.323 599.498)" fill="#fff"/>
    <path id="path124" d="M498.812-411.391h0a5.1,5.1,0,0,1-5.1-5.1v-11.034a5.1,5.1,0,0,1,5.1-5.1,5.1,5.1,0,0,1,5.1,5.1v11.034a5.1,5.1,0,0,1-5.1,5.1" transform="translate(-166.467 599.346)" fill="#243163"/>
    <path id="path126" d="M501.6-427.32a2.73,2.73,0,0,1-2.73,2.731,2.731,2.731,0,0,1-2.731-2.731,2.73,2.73,0,0,1,2.731-2.73,2.729,2.729,0,0,1,2.73,2.73" transform="translate(-166.528 599.281)" fill="#0a101a"/>
    <path id="path128" d="M501.6-416.281a2.729,2.729,0,0,1-2.73,2.73,2.73,2.73,0,0,1-2.731-2.73,2.73,2.73,0,0,1,2.731-2.731,2.73,2.73,0,0,1,2.73,2.731" transform="translate(-166.528 599.004)" fill="#0a101a"/>
    <path id="path130" d="M403.731-103.931c18.5-5.6,28.234-19.788,33.325-32.179l-34.208-13.706L381.153-257.537l16.114-33.4-73.073-35.684-13.008,33.208a72.87,72.87,0,0,0,8.829,69.31L386.851-131.8l16.88,27.865" transform="translate(-161.759 596.685)" fill="#ffb78d"/>
    <path id="path132" d="M377.614-282.609l4.691,26.286,1.28-.229-4.691-26.286" transform="translate(-163.552 595.586)" fill="#732029"/>
    <path id="path134" d="M329.137-298.819l63.9,17.341,4.565-9.46-73.073-35.684-4.108,10.486a13.022,13.022,0,0,0,8.716,17.317" transform="translate(-162.094 596.685)" fill="#d4875b"/>
    <path id="path136" d="M645.632-311.445l-64.517-49.421-32.537-41.941a10.679,10.679,0,0,0-7.733-4.113l-36.754-2.453v9.979l28.239,3.88L501.061-384.7l3.03,24.294,7.6-1.566,1.518,8.87,13.859-2.218,16.909,7.864s5.544,10.984,16.354,9.321c0,0,40.552,82.377,60.428,111.288s50.1,34.944,75.288,17.769c26.5-18.069,16.4-68.568,11.745-82.309a225.454,225.454,0,0,0-18.973-41.165l-43.183,21.108" transform="translate(-166.651 598.762)" fill="#ffb78d"/>
    <path id="path138" d="M703.866-308.689a213.083,213.083,0,0,0-11.328-21.886l-43.183,21.108,13.807,10.453a22.706,22.706,0,0,0,27.07.252l13.634-9.928" transform="translate(-170.374 596.784)" fill="#d4875b"/>
    <path id="path140" d="M636.766-317.643,685.2-280.972l.785-1.037L637.55-318.681" transform="translate(-170.057 596.486)" fill="#732029"/>
    <path id="path142" d="M533.349-394.6l3.852-1.371,17.252,17.23.918-.92-17.831-17.809-4.626,1.647.437,1.224" transform="translate(-167.451 598.463)" fill="#732029"/>
    <path id="path144" d="M502.706-371.794l30.441-8.15,19.27,12.138.693-1.1L533.36-381.347l-30.989,8.3.335,1.256" transform="translate(-166.684 598.059)" fill="#732029"/>
    <path id="path146" d="M512.1-360.248l18.982-4.283,15.887,6.171.472-1.212-16.259-6.315-19.368,4.37.286,1.269" transform="translate(-166.921 597.67)" fill="#732029"/>
    <path id="path148" d="M401.972-290.564,360.9-310.621s3.46-18.567,14.191-28.113a22.072,22.072,0,0,0,7.3-14.734,80.69,80.69,0,0,1,3.773-18.049c2.518-7.773,13.949-6.125,14.124,2.045l1.686,78.908" transform="translate(-163.133 597.938)" fill="#118c5f"/>
    <path id="path150" d="M318.386-345.863l-7.466,12.216,89.8,43.853-.287-14.356-82.045-41.714" transform="translate(-161.878 597.168)" fill="#4cbf68"/>
    <path id="path152" d="M399.979-404.462,402.3-293.193l1.3-.027L401.278-404.49" transform="translate(-164.114 598.639)" fill="#0a101a"/>
    <path id="path154" d="M527.646-471.149l-1.769-29.792h-44.55l-1.769,29.792-20.505,4.355c5.765,8.426,27.05,16.408,44.549,16.408s38.785-7.982,44.55-16.408l-20.505-4.355" transform="translate(-165.597 601.06)" fill="#ffb78d"/>
    <path id="path156" d="M527.614-481.148l-1.175-19.792h-44.55l-.435,7.338c6.736,14,20.243,16.971,28.724,16.971a34.816,34.816,0,0,0,17.436-4.517" transform="translate(-166.159 601.06)" fill="#d4875b"/>
    <path id="path158" d="M484.737-463.7,500.38-456.5l.542-1.18-15.641-7.2" transform="translate(-166.241 600.155)" fill="#732029"/>
    <path id="path160" d="M503.831-577.292a242.771,242.771,0,0,0-35.64,2.56s.924,23.964,3.018,50.206c2.194,27.505,21.632,32.478,32.621,32.478s30.427-4.973,32.623-32.478c2.094-26.242,3.018-50.206,3.018-50.206a242.778,242.778,0,0,0-35.641-2.56" transform="translate(-165.826 602.977)" fill="#ffb78d"/>
    <path id="path162" d="M549.546-573.926a13.84,13.84,0,0,0-9.194-13.027c-1.57-7.858-10.76-12.229-17.323-8.463-1.675-7.6-14.822-11.084-20.058-5.413-5.236-5.671-18.384-2.192-20.06,5.413-6.562-3.766-15.753.606-17.323,8.463a13.839,13.839,0,0,0-9.193,13.027,13.822,13.822,0,0,0,5.916,11.34l4.607,24.531,2.709.911,3.763-23.3a13.863,13.863,0,0,0,10.083-9.38c3.746,2.5,11.452,5.771,19.5-1.872,8.046,7.643,15.752,4.368,19.5,1.872a13.863,13.863,0,0,0,10.082,9.38l3.764,23.3,2.709-.911,4.607-24.531a13.822,13.822,0,0,0,5.916-11.34" transform="translate(-165.53 603.638)" fill="#0a101a"/>
    <path id="path164" d="M501.365-536.708h-.65a11.526,11.526,0,0,1-3.107,7.941,10.232,10.232,0,0,1-7.459,3.272,10.232,10.232,0,0,1-7.459-3.272,11.521,11.521,0,0,1-3.108-7.941,11.524,11.524,0,0,1,3.108-7.941,10.233,10.233,0,0,1,7.459-3.272,10.232,10.232,0,0,1,7.459,3.272,11.529,11.529,0,0,1,3.107,7.941h1.3a12.828,12.828,0,0,0-3.462-8.834,11.535,11.535,0,0,0-8.4-3.679,11.535,11.535,0,0,0-8.4,3.679,12.829,12.829,0,0,0-3.463,8.834,12.826,12.826,0,0,0,3.463,8.834,11.536,11.536,0,0,0,8.4,3.678,11.536,11.536,0,0,0,8.4-3.678,12.825,12.825,0,0,0,3.462-8.834h-.65" transform="translate(-166.079 602.273)" fill="#fff"/>
    <path id="path166" d="M529.954-536.708h-.65a11.521,11.521,0,0,1-3.108,7.941,10.232,10.232,0,0,1-7.459,3.272,10.232,10.232,0,0,1-7.459-3.272,11.52,11.52,0,0,1-3.108-7.941,11.524,11.524,0,0,1,3.108-7.941,10.233,10.233,0,0,1,7.459-3.272,10.232,10.232,0,0,1,7.459,3.272,11.524,11.524,0,0,1,3.108,7.941h1.3a12.829,12.829,0,0,0-3.463-8.834,11.535,11.535,0,0,0-8.4-3.679,11.536,11.536,0,0,0-8.4,3.679,12.823,12.823,0,0,0-3.463,8.834,12.821,12.821,0,0,0,3.463,8.834,11.536,11.536,0,0,0,8.4,3.678,11.535,11.535,0,0,0,8.4-3.678,12.826,12.826,0,0,0,3.463-8.834h-.65" transform="translate(-166.797 602.273)" fill="#fff"/>
    <path id="path168" d="M501.865-537.278h5.618v-1.3h-5.618Z" transform="translate(-166.671 602.005)" fill="#fff"/>
    <path id="path170" d="M466.6-538.544h12.426v-1.3H466.6Z" transform="translate(-165.786 602.037)" fill="#fff"/>
    <path id="path172" d="M530.155-538.544h12.424v-1.3H530.155Z" transform="translate(-167.382 602.037)" fill="#fff"/>
    <path id="path174" d="M503.4-535.432v6.8A9.063,9.063,0,0,1,502.071-524a10.078,10.078,0,0,1-.919,1.3c-.123.147-.226.26-.3.333l-.078.081-.021.02-1.182,1.122h7.763v-1.3H501.2v.65l.447.472a10.158,10.158,0,0,0,1.535-2.007,10.367,10.367,0,0,0,1.517-5.3v-6.8h-1.3" transform="translate(-166.614 601.926)" fill="#732029"/>
    <path id="path176" d="M492.371-531.462a2.876,2.876,0,0,1-2.877,2.877,2.877,2.877,0,0,1-2.875-2.877,2.876,2.876,0,0,1,2.875-2.875,2.876,2.876,0,0,1,2.877,2.875" transform="translate(-166.289 601.899)" fill="#0a101a"/>
    <path id="path178" d="M522.729-531.462a2.876,2.876,0,0,1-2.875,2.877,2.876,2.876,0,0,1-2.875-2.877,2.875,2.875,0,0,1,2.875-2.875,2.875,2.875,0,0,1,2.875,2.875" transform="translate(-167.051 601.899)" fill="#0a101a"/>
    <path id="path180" d="M491.982-520.521c.061.1,4.126,5.513,14,5.508a33.021,33.021,0,0,0,7.7-.971l-.3-1.265a31.748,31.748,0,0,1-7.4.936,19.005,19.005,0,0,1-10.006-2.527,13.039,13.039,0,0,1-2.264-1.715c-.241-.231-.415-.422-.526-.551l-.122-.146-.026-.034,0-.005-1.048.77" transform="translate(-166.423 601.571)" fill="#732029"/>
    <path id="path182" d="M491.35-519.269l3.39-2.393-.75-1.062-3.39,2.393" transform="translate(-166.389 601.607)" fill="#732029"/>
    <path id="path184" d="M481.293-550.845a13.637,13.637,0,0,1,7.734-2.311,14.878,14.878,0,0,1,6.12,1.3,10.111,10.111,0,0,1,4.191,3.33l2.146-1.468a12.682,12.682,0,0,0-5.257-4.227,17.456,17.456,0,0,0-7.2-1.538,16.239,16.239,0,0,0-9.2,2.765l1.468,2.146" transform="translate(-166.118 602.437)" fill="#0a101a"/>
    <path id="path186" d="M529.114-552.991a16.24,16.24,0,0,0-9.2-2.765,17.457,17.457,0,0,0-7.2,1.538,12.683,12.683,0,0,0-5.257,4.227l2.146,1.468a10.112,10.112,0,0,1,4.191-3.33,14.874,14.874,0,0,1,6.12-1.3,13.646,13.646,0,0,1,7.737,2.311l1.466-2.146" transform="translate(-166.812 602.436)" fill="#0a101a"/>
    <path id="path188" d="M508.251-509.356c0,.953-1.61,1.725-3.6,1.725s-3.594-.772-3.594-1.725,1.609-1.722,3.594-1.722,3.6.771,3.6,1.722" transform="translate(-166.651 601.315)" fill="#f03d4e"/>
    <path id="path190" d="M473.54-532.8c1.763,7.191-1.266,14.111-6.763,15.458s-11.382-3.391-13.143-10.582,1.266-14.113,6.763-15.458,11.382,3.391,13.143,10.582" transform="translate(-165.448 602.132)" fill="#ffb78d"/>
    <path id="path192" d="M458.569-534.418a6.08,6.08,0,0,1,1.8-2.739,3.693,3.693,0,0,1,2.372-.865,5.477,5.477,0,0,1,3.848,1.9,13.6,13.6,0,0,1,3.107,6.031l1.257-.33a14.87,14.87,0,0,0-3.428-6.6,6.768,6.768,0,0,0-4.784-2.3,5.015,5.015,0,0,0-3.194,1.156,7.381,7.381,0,0,0-2.2,3.312l1.224.435" transform="translate(-165.554 602.024)" fill="#732029"/>
    <path id="path194" d="M535.419-532.8c-1.763,7.191,1.265,14.111,6.763,15.458s11.382-3.391,13.143-10.582-1.266-14.113-6.765-15.458-11.382,3.391-13.142,10.582" transform="translate(-167.501 602.132)" fill="#ffb78d"/>
    <path id="path196" d="M551.8-534.854a7.37,7.37,0,0,0-2.2-3.312,5.012,5.012,0,0,0-3.192-1.156,6.767,6.767,0,0,0-4.784,2.3,14.884,14.884,0,0,0-3.428,6.6l1.257.33a13.6,13.6,0,0,1,3.107-6.031,5.477,5.477,0,0,1,3.848-1.9,3.7,3.7,0,0,1,2.372.864,6.079,6.079,0,0,1,1.8,2.739l1.224-.435" transform="translate(-167.583 602.024)" fill="#732029"/>
    <path id="path198" d="M838.609-184.348a10.216,10.216,0,0,1-8.023-3.872l-3.7-4.666h5.368a18.373,18.373,0,0,0,14.8-7.47,10.235,10.235,0,0,1-2.088,13.79,10.193,10.193,0,0,1-6.356,2.219" transform="translate(-174.83 593.516)" fill="#bd852d"/>
    <path id="path200" d="M832.013-193.013h-5.369l-2.049-2.582-7.223-9.1h20.6a18.388,18.388,0,0,0,4.991-.685l3.419,4.309q.23.289.434.588a18.373,18.373,0,0,1-14.8,7.47" transform="translate(-174.591 593.642)" fill="#a26e20"/>
    <path id="path202" d="M835.768-207.871h-20.6l-30.488-38.412h25.289v-1.063l28.454,35.85,2.334,2.94a18.387,18.387,0,0,1-4.991.685m-25.986-39.712H783.65l-18.925-23.843h26.134l18.923,23.843m-19.955-25.143H763.695l-18.923-23.842H770.9l18.923,23.842m-19.955-25.142H743.739l-2.949-3.715h0l-.989-1.245a10.847,10.847,0,0,1-1.8-3.321l-5.182-15.561H747.06l5.948,3.651a10.885,10.885,0,0,1,2.826,2.506l.988,1.245,13.049,16.441m-24.929-25.143H732.389l-2.716-8.149a.592.592,0,0,1,.56-.779.579.579,0,0,1,.308.09l14.4,8.838" transform="translate(-172.389 596.818)" fill="#bcbebc"/>
    <path id="path204" d="M747.131-321.482H732.893l-.433-1.3h12.554l2.117,1.3" transform="translate(-172.46 596.589)" fill="#428786"/>
    <path id="path206" d="M771.267-295.691H745.134l-1.032-1.3h26.132l1.032,1.3" transform="translate(-172.752 595.941)" fill="#428786"/>
    <path id="path208" d="M791.736-269.9H765.6l-1.031-1.3H790.7l1.032,1.3" transform="translate(-173.266 595.294)" fill="#428786"/>
    <path id="path210" d="M811.362-244.112H786.073l-1.032-1.3h26.132l.188.237v1.063" transform="translate(-173.779 594.646)" fill="#428786"/>
    <path id="path212" d="M729.759-331.065l11.132,23.893a10.9,10.9,0,0,0,2.166,3.095L756.832-290.3l14.474-14.474-13.775-13.775a10.833,10.833,0,0,0-3.094-2.166l-23.894-11.132a.59.59,0,0,0-.784.784" transform="translate(-172.39 596.818)" fill="#f25367"/>
    <path id="path214" d="M748.187-313.422c-4,4-5.632,8.842-3.651,10.82l92.815,92.817,14.474-14.473-92.817-92.818c-1.98-1.978-6.824-.343-10.821,3.654" transform="translate(-172.742 596.466)" fill="#4564a6"/>
    <path id="path216" d="M734.633-326.977a20.567,20.567,0,0,1,2.228-1.93l-6.317-2.942a.59.59,0,0,0-.784.784l2.943,6.316a20.279,20.279,0,0,1,1.93-2.228" transform="translate(-172.39 596.818)" fill="#0a101a"/>
    <path id="path218" d="M747.437-307.49l88,88,.919-.919-88-88" transform="translate(-172.836 596.228)" fill="#fff"/>
    <path id="path220" d="M753.2-313.254l88,88,.919-.919-88-88" transform="translate(-172.98 596.372)" fill="#fff"/>
    <path id="path222" d="M843.393-218.216c-4,4-5.632,8.842-3.653,10.821l6.542,6.543a10.236,10.236,0,0,0,14.474,0,10.234,10.234,0,0,0,0-14.474l-6.542-6.542c-1.98-1.981-6.824-.344-10.821,3.651" transform="translate(-175.131 594.077)" fill="#fff"/>
    <path id="path224" d="M374.35-91.7c-12.026,2.5-15.4,5.879-17.9,17.906a1.169,1.169,0,0,1-2.288,0c-2.5-12.026-5.879-15.4-17.906-17.906a1.169,1.169,0,0,1,0-2.288c12.026-2.5,15.4-5.878,17.906-17.9a1.169,1.169,0,0,1,2.288,0c2.5,12.026,5.878,15.4,17.9,17.9a1.169,1.169,0,0,1,0,2.288" transform="translate(-162.491 591.318)" fill="#21c98b"/>
    <path id="path226" d="M614.09-576.661c-12.026,2.5-15.4,5.878-17.906,17.9a1.168,1.168,0,0,1-2.286,0c-2.5-12.026-5.879-15.4-17.906-17.9a1.169,1.169,0,0,1,0-2.288c12.026-2.5,15.4-5.879,17.906-17.906a1.168,1.168,0,0,1,2.286,0c2.5,12.026,5.879,15.4,17.906,17.906a1.169,1.169,0,0,1,0,2.288" transform="translate(-168.509 603.492)" fill="#21c98b"/>
    <path id="path228" d="M841.628-146.358c-10.225,2.129-13.095,5-15.224,15.224a.993.993,0,0,1-1.945,0c-2.129-10.224-5-13.095-15.224-15.224a.993.993,0,0,1,0-1.945c10.226-2.128,13.095-5,15.224-15.224a.994.994,0,0,1,1.945,0c2.129,10.226,5,13.1,15.224,15.224a.994.994,0,0,1,0,1.945" transform="translate(-174.367 592.611)" fill="#fff"/>
    <path id="path230" d="M690.042-571.4c-6.74,1.4-8.63,3.292-10.032,10.031a.655.655,0,0,1-1.282,0c-1.4-6.738-3.3-8.63-10.032-10.031a.655.655,0,0,1,0-1.282c6.737-1.4,8.63-3.294,10.032-10.032a.655.655,0,0,1,1.282,0c1.4,6.739,3.292,8.63,10.032,10.032a.655.655,0,0,1,0,1.282" transform="translate(-170.846 603.126)" fill="#21c98b"/>
    <path id="path232" d="M258.455-458.338c-6.738,1.4-8.63,3.294-10.032,10.032a.655.655,0,0,1-1.282,0c-1.4-6.738-3.294-8.63-10.032-10.032a.655.655,0,0,1,0-1.282c6.738-1.4,8.63-3.294,10.032-10.032a.655.655,0,0,1,1.282,0c1.4,6.738,3.294,8.63,10.032,10.032a.655.655,0,0,1,0,1.282" transform="translate(-160.013 600.288)" fill="#21c98b"/>
    <path id="path234" d="M288.674-112.467c-6.738,1.4-8.628,3.294-10.032,10.032a.655.655,0,0,1-1.282,0c-1.4-6.738-3.294-8.63-10.032-10.032a.655.655,0,0,1,0-1.282c6.738-1.4,8.63-3.292,10.032-10.032a.655.655,0,0,1,1.282,0c1.4,6.74,3.294,8.63,10.032,10.032a.655.655,0,0,1,0,1.282" transform="translate(-160.771 591.606)" fill="#21c98b"/>
    <path id="path226-2" data-name="path226" d="M623.236-566.972c-14.845,3.652-19.012,8.574-22.1,26.117a1.412,1.412,0,0,1-2.822,0c-3.092-17.543-7.257-22.465-22.1-26.117a1.788,1.788,0,0,1,0-3.337c14.845-3.654,19.01-8.576,22.1-26.119a1.412,1.412,0,0,1,2.822,0c3.09,17.543,7.257,22.465,22.1,26.119a1.788,1.788,0,0,1,0,3.337" transform="translate(113.56 1069.927)" fill="#21c98b"/>
    <path id="path226-3" data-name="path226" d="M623.236-566.972c-14.845,3.652-19.012,8.574-22.1,26.117a1.412,1.412,0,0,1-2.822,0c-3.092-17.543-7.257-22.465-22.1-26.117a1.788,1.788,0,0,1,0-3.337c14.845-3.654,19.01-8.576,22.1-26.119a1.412,1.412,0,0,1,2.822,0c3.09,17.543,7.257,22.465,22.1,26.119a1.788,1.788,0,0,1,0,3.337" transform="translate(-570.056 1157.128)" fill="#21c98b"/>
    <g id="Group_39580" data-name="Group 39580" transform="matrix(0.951, -0.309, 0.309, 0.951, -193.128, 560.135)">
      <path id="path208-2" data-name="path208" d="M380.586-389.414l13.671,14.661,104.2-43.463Z" fill="#d49229"/>
      <path id="path210-2" data-name="path210" d="M385.447-437.792l-10.292,15.527,6.959,15.216L366.5-404.395l-13.795,30.284L501.8-419.227,385.447-437.792" fill="#f6e991"/>
      <path id="path212-2" data-name="path212" d="M382.114-407.05l-6.959-15.216,80.757,3.776Z" fill="#d49229"/>
    </g>
  </g>
</svg>
