<svg xmlns="http://www.w3.org/2000/svg" width="113.916" height="150.28" viewBox="0 0 113.916 150.28">
  <g id="Group_31532" data-name="Group 31532" transform="translate(-0.001 0)">
    <path id="path208" d="M500.938-77.244c0,6.166-25.11,11.163-56.086,11.163s-56.086-5-56.086-11.163,25.111-11.162,56.086-11.162,56.086,5,56.086,11.162" transform="translate(-387.022 216.361)" fill="#243163"/>
    <path id="path210" d="M474.149-146.671H417.662a24.53,24.53,0,0,1-24.53-24.53v-56.487a24.53,24.53,0,0,1,24.53-24.53h56.486a24.53,24.53,0,0,1,24.531,24.53V-171.2a24.53,24.53,0,0,1-24.531,24.53" transform="translate(-388.079 256.009)" fill="#d61516"/>
    <path id="path212" d="M476.282-245.543l-51.61-4.292a23.57,23.57,0,0,0-25.112,20.582l-6.218,51.69c-1.491,12.4,8.544,23.508,22.412,24.818l17.048,1.609,10.842,18.346L456.534-148.9l17.048,1.61c13.87,1.309,25.113-7.906,25.113-20.583v-52.855c0-12.677-10.034-23.788-22.412-24.818" transform="translate(-388.094 255.451)" fill="#d61516"/>
    <path id="path214" d="M392.52-230.659l-.628,5.015a1.517,1.517,0,0,0,1.317,1.692,1.515,1.515,0,0,0,1.692-1.316l.627-5.015a1.515,1.515,0,0,0-1.316-1.692,1.515,1.515,0,0,0-1.692,1.316m-1.755,14.04-4.129,33.033a21.874,21.874,0,0,0-.17,2.729,22.515,22.515,0,0,0,6.243,15.406,27.127,27.127,0,0,0,15.7,8.117,1.516,1.516,0,0,0,1.731-1.264,1.515,1.515,0,0,0-1.264-1.731,24.1,24.1,0,0,1-13.949-7.192,19.483,19.483,0,0,1-5.425-13.335,18.956,18.956,0,0,1,.147-2.353l4.129-33.033a1.515,1.515,0,0,0-1.316-1.692,1.516,1.516,0,0,0-1.693,1.316m37.507,64.22,2.55,4.362a1.515,1.515,0,0,0,2.074.544,1.515,1.515,0,0,0,.544-2.074l-2.551-4.362a1.516,1.516,0,0,0-2.074-.544,1.515,1.515,0,0,0-.543,2.074m7.141,12.214,1.316,2.249a1.523,1.523,0,0,0,1.2.747,1.523,1.523,0,0,0,1.294-.563l12.408-15.464,16.165,1.52q1.378.129,2.724.129c10.072.007,18.64-5.37,22.241-13.577a1.515,1.515,0,0,0-.779-2,1.515,1.515,0,0,0-2,.779c-3.074,7.007-10.457,11.756-19.465,11.763q-1.2,0-2.44-.115l-16.978-1.6a1.509,1.509,0,0,0-1.324.561l-11.541,14.382-.2-.349a1.515,1.515,0,0,0-2.074-.542,1.516,1.516,0,0,0-.544,2.074m59.218-48.57.023-5.053a1.517,1.517,0,0,0-1.51-1.523,1.516,1.516,0,0,0-1.522,1.51l-.023,5.053a1.515,1.515,0,0,0,1.509,1.522,1.515,1.515,0,0,0,1.523-1.509m.064-14.149.107-23.688v-.115a26.562,26.562,0,0,0-6.884-17.7,25.412,25.412,0,0,0-16.713-8.48l-51.372-4.249q-1-.082-1.988-.082a24.751,24.751,0,0,0-15.131,5.237,1.515,1.515,0,0,0-.272,2.126,1.516,1.516,0,0,0,2.126.271,21.73,21.73,0,0,1,13.276-4.6q.864,0,1.738.072l51.372,4.249a22.385,22.385,0,0,1,14.709,7.486,23.539,23.539,0,0,1,6.106,15.674v.1l-.107,23.688a1.516,1.516,0,0,0,1.509,1.523,1.516,1.516,0,0,0,1.523-1.51h0" transform="translate(-386.465 257.219)" fill="#d61516"/>
    <path id="path216" d="M453.6-108.463c-.037,0-.074,0-.11,0a1.522,1.522,0,0,1-1.2-.747l-1.316-2.249a1.517,1.517,0,0,1-.207-.762,1.512,1.512,0,0,1,.751-1.312,1.5,1.5,0,0,1,.764-.208,1.516,1.516,0,0,1,1.31.751l.2.349,11.541-14.382a1.509,1.509,0,0,1,1.18-.568c.048,0,.1,0,.144.007l16.978,1.6q1.237.117,2.44.115c9.008-.007,16.39-4.756,19.465-11.763a1.516,1.516,0,0,1,1.389-.908,1.513,1.513,0,0,1,.608.128,1.517,1.517,0,0,1,.908,1.391,1.507,1.507,0,0,1-.128.606c-3.6,8.2-12.157,13.577-22.221,13.577h-.019q-1.345,0-2.724-.129l-16.165-1.52-11.886,14.813-.522.652a1.524,1.524,0,0,1-1.183.567" transform="translate(-402.029 228.497)" fill="#170202"/>
    <path id="path218" d="M445.416-114.545a1.516,1.516,0,0,1-1.311-.751l-2.55-4.362a1.5,1.5,0,0,1-.208-.762,1.515,1.515,0,0,1,.751-1.311,1.511,1.511,0,0,1,.764-.207,1.514,1.514,0,0,1,1.31.751l2.551,4.362a1.5,1.5,0,0,1,.207.762.759.759,0,0,1,0,.083,1.523,1.523,0,0,1-.309.842,1.492,1.492,0,0,1-.44.387,1.507,1.507,0,0,1-.763.207" transform="translate(-399.748 224.477)" fill="#170202"/>
    <path id="path220" d="M408.64-144.777a1.548,1.548,0,0,1-.235-.018,27.127,27.127,0,0,1-15.7-8.117,22.515,22.515,0,0,1-6.243-15.406,21.874,21.874,0,0,1,.17-2.729l4.129-33.033a1.516,1.516,0,0,1,1.5-1.328,1.523,1.523,0,0,1,.19.012,1.517,1.517,0,0,1,1.328,1.5,1.553,1.553,0,0,1-.012.193l-2.255,18.04-1.875,14.994a18.945,18.945,0,0,0-.147,2.353h0a19.483,19.483,0,0,0,5.425,13.335,24.1,24.1,0,0,0,13.949,7.192,1.516,1.516,0,0,1,1.284,1.5,1.639,1.639,0,0,1-.019.232,1.515,1.515,0,0,1-1.5,1.282" transform="translate(-386.465 244.679)" fill="#170202"/>
    <path id="path222" d="M526.687-167.485h-.007A1.516,1.516,0,0,1,525.171-169v-.009l.023-5.053a1.516,1.516,0,0,1,1.516-1.51h.006a1.517,1.517,0,0,1,1.51,1.513v.01l-.023,5.053a1.516,1.516,0,0,1-1.516,1.509" transform="translate(-420.036 237.457)" fill="#170202"/>
    <path id="path224" d="M498.179-201.395h-.007a1.517,1.517,0,0,1-1.509-1.514v-.009l.107-23.688v-.1h0a23.539,23.539,0,0,0-6.106-15.674,22.385,22.385,0,0,0-14.709-7.486l-51.372-4.249q-.875-.073-1.738-.072h0a21.732,21.732,0,0,0-13.274,4.6,1.5,1.5,0,0,1-.926.317,1.514,1.514,0,0,1-1.2-.588,1.512,1.512,0,0,1-.317-.929,1.512,1.512,0,0,1,.589-1.2,24.751,24.751,0,0,1,15.131-5.237q.988,0,1.988.082l51.372,4.249a25.412,25.412,0,0,1,16.713,8.48,26.562,26.562,0,0,1,6.884,17.7v.115L499.7-202.9h0a1.516,1.516,0,0,1-1.516,1.51" transform="translate(-391.465 257.219)" fill="#170202"/>
    <path id="path226" d="M395.129-215.884a1.51,1.51,0,0,1-.19-.012,1.515,1.515,0,0,1-1.328-1.5,1.551,1.551,0,0,1,.011-.193l.628-5.015a1.515,1.515,0,0,1,1.5-1.328,1.513,1.513,0,0,1,.19.012,1.515,1.515,0,0,1,1.328,1.5,1.552,1.552,0,0,1-.012.193l-.627,5.015a1.516,1.516,0,0,1-1.5,1.328" transform="translate(-388.194 249.162)" fill="#170202"/>
    <path id="path228" d="M462.666-167.98q-.917,0-1.855-.076l-13.631-1.121-18.973-1.558-13.631-1.121c-11.089-.911-18.927-9.528-17.5-19.248L403-231.627a19.388,19.388,0,0,1,18.827-16.405c.415,0,.834.015,1.252.044l40.31,2.849c9.669.684,17.506,9.3,17.506,19.248v41.475c0,9.386-8,16.437-18.223,16.437" transform="translate(-388.991 254.996)" fill="#f8282a"/>
    <path id="path230" d="M492.382-145.809c-.6,0-1.216-.029-1.825-.085l-4.7-.439a1.515,1.515,0,0,1-1.367-1.649,1.509,1.509,0,0,1,1.5-1.377,1.46,1.46,0,0,1,.149.007l4.694.438c.517.049,1.037.073,1.544.073,7.677,0,13.538-5.324,13.634-12.383l.535-39.461a1.5,1.5,0,0,1,1.537-1.495,1.516,1.516,0,0,1,1.495,1.536l-.535,39.461c-.118,8.765-7.284,15.374-16.666,15.374" transform="translate(-410.189 243.898)" fill="#b40202"/>
    <path id="path232" d="M515.275-212.76h-.02a1.517,1.517,0,0,1-1.5-1.536l.058-4.363c0-.205,0-.4-.012-.6a1.515,1.515,0,0,1,1.447-1.582l.08,0a1.52,1.52,0,0,1,1.5,1.449q.018.371.016.744l-.058,4.4a1.516,1.516,0,0,1-1.516,1.5" transform="translate(-417.274 248.415)" fill="#b40202"/>
    <path id="path234" d="M404.522-208.917l-.176-.01a1.516,1.516,0,0,1-1.332-1.681l.58-5.02a1.515,1.515,0,0,1,1.68-1.331,1.516,1.516,0,0,1,1.332,1.68l-.58,5.02a1.517,1.517,0,0,1-1.5,1.342" transform="translate(-390.468 247.477)" fill="#fff"/>
    <path id="path236" d="M407.093-230.18a1.525,1.525,0,0,1-.451-.068,1.517,1.517,0,0,1-1-1.9,21.235,21.235,0,0,1,20.1-14.847c.573,0,1.152.024,1.72.073l42.177,3.528a1.516,1.516,0,0,1,1.385,1.636,1.5,1.5,0,0,1-1.637,1.385L427.207-243.9a18.128,18.128,0,0,0-18.666,12.653,1.517,1.517,0,0,1-1.447,1.066" transform="translate(-391.091 254.744)" fill="#fff"/>
    <path id="path238" d="M474.454-145.322c0,4.123-9.886,5.329-22.081,5.329s-22.082-1.206-22.082-5.329,9.886-9.6,22.082-9.6,22.081,5.48,22.081,9.6" transform="translate(-397.072 232.461)"/>
    <path id="path240" d="M411.648-208.157a8.716,8.716,0,0,0,2.113,5.5c1.956,2.394,4.954,4.3,8.7,5.863a56.786,56.786,0,0,0,13.3,3.491,2.022,2.022,0,0,0,2.3-1.7,2.022,2.022,0,0,0-1.7-2.3c-6.347-.933-11.748-2.635-15.4-4.7a14.153,14.153,0,0,1-4.059-3.2,4.687,4.687,0,0,1-1.211-2.958,2.022,2.022,0,0,0-2.021-2.021,2.021,2.021,0,0,0-2.021,2.021" transform="translate(-392.56 245.834)"/>
    <path id="path242" d="M474.639-193.3c6.714-1,12.508-2.768,16.791-5.174a18.058,18.058,0,0,0,5.215-4.179,8.722,8.722,0,0,0,2.113-5.5,2.022,2.022,0,0,0-2.021-2.021,2.021,2.021,0,0,0-2.021,2.021A4.694,4.694,0,0,1,493.5-205.2a18.177,18.177,0,0,1-7.112,4.674,52.806,52.806,0,0,1-12.344,3.225,2.022,2.022,0,0,0-1.7,2.3,2.022,2.022,0,0,0,2.3,1.7" transform="translate(-407.245 245.834)"/>
    <path id="path244" d="M436.314-179.426v-10.959a5.052,5.052,0,0,0-5.053-5.053,5.053,5.053,0,0,0-5.053,5.053v10.959a5.054,5.054,0,0,0,5.053,5.053,5.053,5.053,0,0,0,5.053-5.053" transform="translate(-396.084 242.266)"/>
    <path id="path246" d="M489.412-179.426v-10.959a5.052,5.052,0,0,0-5.053-5.053,5.053,5.053,0,0,0-5.053,5.053v10.959a5.054,5.054,0,0,0,5.053,5.053,5.053,5.053,0,0,0,5.053-5.053" transform="translate(-408.935 242.266)"/>
  </g>
</svg>
