<svg xmlns="http://www.w3.org/2000/svg" width="113.917" height="150.279" viewBox="0 0 113.917 150.279">
  <g id="Group_31535" data-name="Group 31535" transform="translate(0 0)">
    <path id="path26" d="M87.684-384H31.2a24.531,24.531,0,0,1-24.53-24.531V-465.02A24.531,24.531,0,0,1,31.2-489.551H87.684a24.531,24.531,0,0,1,24.53,24.531v56.486A24.531,24.531,0,0,1,87.684-384" transform="translate(-1.614 493.341)" fill="#009ce8"/>
    <path id="path28" d="M89.817-482.876l-51.61-4.292a23.572,23.572,0,0,0-25.113,20.583L6.877-414.9c-1.491,12.4,8.543,23.509,22.412,24.818l17.049,1.609,10.841,18.347,12.89-16.106,17.048,1.609c13.869,1.31,25.112-7.906,25.112-20.582v-52.856c0-12.676-10.034-23.788-22.412-24.818" transform="translate(-1.629 492.783)" fill="#009ce8"/>
    <path id="path30" d="M6.055-467.991l-.627,5.014a1.517,1.517,0,0,0,1.316,1.693A1.517,1.517,0,0,0,8.436-462.6l.627-5.014a1.517,1.517,0,0,0-1.316-1.693,1.517,1.517,0,0,0-1.692,1.317M4.3-453.951.171-420.918A22,22,0,0,0,0-418.189a22.518,22.518,0,0,0,6.243,15.4,27.116,27.116,0,0,0,15.7,8.117,1.515,1.515,0,0,0,1.731-1.264,1.516,1.516,0,0,0-1.264-1.731,24.1,24.1,0,0,1-13.949-7.193,19.483,19.483,0,0,1-5.425-13.334,18.93,18.93,0,0,1,.147-2.353l4.129-33.033a1.516,1.516,0,0,0-1.316-1.693A1.517,1.517,0,0,0,4.3-453.951m37.506,64.22,2.551,4.362a1.517,1.517,0,0,0,2.074.544,1.516,1.516,0,0,0,.543-2.074l-2.551-4.363a1.515,1.515,0,0,0-2.074-.543,1.516,1.516,0,0,0-.544,2.074m7.142,12.213,1.315,2.25a1.52,1.52,0,0,0,1.2.747,1.524,1.524,0,0,0,1.294-.563l12.408-15.463,16.165,1.52q1.377.129,2.723.128c10.073.007,18.641-5.37,22.242-13.577a1.518,1.518,0,0,0-.78-2,1.516,1.516,0,0,0-2,.779c-3.074,7.008-10.456,11.757-19.465,11.764q-1.2,0-2.439-.115l-16.978-1.6a1.513,1.513,0,0,0-1.325.561L51.769-378.7l-.2-.348a1.516,1.516,0,0,0-2.074-.544,1.516,1.516,0,0,0-.543,2.074m59.218-48.569.022-5.053a1.516,1.516,0,0,0-1.509-1.523,1.516,1.516,0,0,0-1.523,1.509l-.023,5.053a1.517,1.517,0,0,0,1.51,1.523,1.516,1.516,0,0,0,1.523-1.509m.064-14.149.106-23.689v-.115a26.565,26.565,0,0,0-6.885-17.7,25.414,25.414,0,0,0-16.712-8.48l-51.372-4.248q-1-.083-1.988-.082a24.751,24.751,0,0,0-15.131,5.236,1.515,1.515,0,0,0-.271,2.126,1.515,1.515,0,0,0,2.126.272,21.721,21.721,0,0,1,13.276-4.6q.865,0,1.738.072L84.49-487.2A22.386,22.386,0,0,1,99.2-479.713a23.534,23.534,0,0,1,6.107,15.673v.1L105.2-440.25a1.515,1.515,0,0,0,1.509,1.523,1.516,1.516,0,0,0,1.523-1.509" transform="translate(0 494.551)" fill="#009ce8"/>
    <path id="path32" d="M67.135-345.795c-.036,0-.073,0-.11,0a1.52,1.52,0,0,1-1.2-.747l-1.315-2.25a1.5,1.5,0,0,1-.208-.762,1.514,1.514,0,0,1,.751-1.312,1.51,1.51,0,0,1,.764-.207,1.515,1.515,0,0,1,1.31.751l.2.348,11.54-14.382a1.51,1.51,0,0,1,1.181-.567c.048,0,.1,0,.144.006l16.978,1.6q1.237.115,2.439.115c9.008-.007,16.391-4.756,19.465-11.764a1.517,1.517,0,0,1,1.39-.906,1.507,1.507,0,0,1,.607.127,1.514,1.514,0,0,1,.908,1.391,1.524,1.524,0,0,1-.127.607c-3.6,8.2-12.157,13.577-22.222,13.577h-.02q-1.345,0-2.723-.128l-16.165-1.52L68.841-347.014l-.523.652a1.523,1.523,0,0,1-1.184.567" transform="translate(-15.564 465.828)" fill="#001119"/>
    <path id="path34" d="M58.95-351.876a1.516,1.516,0,0,1-1.31-.751l-2.551-4.362a1.51,1.51,0,0,1-.207-.762,1.514,1.514,0,0,1,.751-1.312,1.5,1.5,0,0,1,.764-.208,1.515,1.515,0,0,1,1.31.751l2.551,4.363a1.505,1.505,0,0,1,.208.761c0,.028,0,.056,0,.084a1.528,1.528,0,0,1-.31.842,1.53,1.53,0,0,1-.439.387,1.511,1.511,0,0,1-.764.207" transform="translate(-13.283 461.808)" fill="#001119"/>
    <path id="path36" d="M22.175-382.108a1.438,1.438,0,0,1-.236-.019,27.116,27.116,0,0,1-15.7-8.117A22.518,22.518,0,0,1,0-405.649a22,22,0,0,1,.171-2.729L4.3-441.411a1.516,1.516,0,0,1,1.5-1.328,1.51,1.51,0,0,1,.19.011,1.517,1.517,0,0,1,1.328,1.5,1.451,1.451,0,0,1-.012.193L5.053-423,3.179-408a18.93,18.93,0,0,0-.147,2.353h0a19.483,19.483,0,0,0,5.425,13.334,24.1,24.1,0,0,0,13.949,7.193,1.516,1.516,0,0,1,1.282,1.5,1.472,1.472,0,0,1-.018.23,1.516,1.516,0,0,1-1.5,1.284" transform="translate(0 482.011)" fill="#001119"/>
    <path id="path38" d="M140.222-404.817h-.007a1.517,1.517,0,0,1-1.51-1.513v-.01l.023-5.053a1.516,1.516,0,0,1,1.516-1.509h.007a1.516,1.516,0,0,1,1.509,1.513v.01l-.022,5.053a1.516,1.516,0,0,1-1.516,1.509" transform="translate(-33.571 474.789)" fill="#001119"/>
    <path id="path40" d="M111.715-438.727h-.007a1.516,1.516,0,0,1-1.509-1.513v-.01l.106-23.688v-.1h0a23.534,23.534,0,0,0-6.107-15.673A22.386,22.386,0,0,0,89.491-487.2l-51.372-4.248q-.873-.073-1.738-.072h0a21.724,21.724,0,0,0-13.275,4.6,1.511,1.511,0,0,1-.927.317,1.511,1.511,0,0,1-1.2-.589,1.5,1.5,0,0,1-.317-.929,1.513,1.513,0,0,1,.588-1.2,24.751,24.751,0,0,1,15.131-5.236q.989,0,1.988.082l51.372,4.248a25.414,25.414,0,0,1,16.712,8.48,26.564,26.564,0,0,1,6.885,17.7v.115l-.106,23.689a1.516,1.516,0,0,1-1.516,1.509" transform="translate(-5.001 494.551)" fill="#001119"/>
    <path id="path42" d="M8.664-453.216a1.509,1.509,0,0,1-.19-.011,1.517,1.517,0,0,1-1.328-1.5,1.608,1.608,0,0,1,.012-.193l.627-5.014a1.516,1.516,0,0,1,1.5-1.328,1.724,1.724,0,0,1,.19.011,1.517,1.517,0,0,1,1.328,1.5,1.6,1.6,0,0,1-.012.193l-.627,5.014a1.516,1.516,0,0,1-1.5,1.328" transform="translate(-1.729 486.494)" fill="#001119"/>
    <path id="path44" d="M76.2-405.311q-.916,0-1.855-.077l-13.631-1.12L41.74-408.067l-13.631-1.12C17.02-410.1,9.183-418.716,10.6-428.435l5.925-40.524a19.386,19.386,0,0,1,18.827-16.405c.415,0,.834.014,1.252.044l40.31,2.849c9.668.683,17.505,9.3,17.505,19.248v41.474c0,9.387-8,16.438-18.223,16.438" transform="translate(-2.526 492.327)" fill="#00d9fd"/>
    <path id="path46" d="M105.916-383.142c-.6,0-1.215-.028-1.825-.085l-4.7-.438a1.516,1.516,0,0,1-1.368-1.65,1.507,1.507,0,0,1,1.5-1.375,1.475,1.475,0,0,1,.149.007l4.7.438c.517.049,1.036.072,1.543.072,7.678,0,13.539-5.323,13.635-12.382l.535-39.461a1.5,1.5,0,0,1,1.537-1.5,1.516,1.516,0,0,1,1.5,1.537l-.535,39.461c-.118,8.764-7.284,15.373-16.667,15.373" transform="translate(-23.724 481.23)" fill="#005fd3"/>
    <path id="path48" d="M128.809-450.093h-.021a1.517,1.517,0,0,1-1.5-1.536l.058-4.362c0-.206,0-.405-.012-.6a1.515,1.515,0,0,1,1.447-1.582c.026,0,.053,0,.08,0a1.521,1.521,0,0,1,1.5,1.45c.012.247.017.5.016.744l-.058,4.4a1.516,1.516,0,0,1-1.516,1.5" transform="translate(-30.809 485.747)" fill="#005fd3"/>
    <path id="path50" d="M18.057-446.25l-.176-.01a1.516,1.516,0,0,1-1.332-1.68l.58-5.02a1.515,1.515,0,0,1,1.68-1.332,1.517,1.517,0,0,1,1.332,1.681l-.58,5.019a1.517,1.517,0,0,1-1.5,1.342" transform="translate(-4.003 484.809)" fill="#fff"/>
    <path id="path52" d="M20.628-467.511a1.522,1.522,0,0,1-.45-.069,1.518,1.518,0,0,1-1-1.9,21.237,21.237,0,0,1,20.1-14.846c.573,0,1.153.024,1.72.072l42.178,3.528a1.517,1.517,0,0,1,1.385,1.637A1.5,1.5,0,0,1,82.92-477.7l-42.178-3.528a18.128,18.128,0,0,0-18.666,12.653,1.518,1.518,0,0,1-1.448,1.067" transform="translate(-4.626 492.076)" fill="#fff"/>
    <path id="path54" d="M34.277-411.414h3.971a2.4,2.4,0,0,0,2.4-2.4v-20.845a2.4,2.4,0,0,0-2.4-2.4H34.277a2.4,2.4,0,0,0-2.4,2.4v20.845A2.4,2.4,0,0,0,34.277-411.414ZM80-407.4H70.013a4.24,4.24,0,0,0-.458-.081c-1.293-.077-2.588-.129-3.88-.224a32.666,32.666,0,0,1-11.966-2.883,8.071,8.071,0,0,0-3.864-.814c-1.032.039-2.067.029-3.1,0a11.087,11.087,0,0,1-1.876-.184,2.446,2.446,0,0,1-2.088-2.136,11.8,11.8,0,0,1-.151-1.826q-.017-7.487,0-14.974c0-1.121,0-2.242.056-3.36a3.437,3.437,0,0,1,3.406-3.377,34.049,34.049,0,0,0,4.018-.341,4.461,4.461,0,0,0,3.414-2.484,11.758,11.758,0,0,1,2.958-3.916,40.5,40.5,0,0,1,3.429-2.5,8.73,8.73,0,0,0,3.288-3.1,54.188,54.188,0,0,0,2.379-5.358c.463-1.234.629-2.577.977-3.859a3.26,3.26,0,0,1,1.675-2.405h1.261c.167.04.332.09.5.12a4.75,4.75,0,0,1,4.128,3.329,9.014,9.014,0,0,1,.386,2.58,29.154,29.154,0,0,1-2.2,11.148c-.275.676-.61,1.327-.932,2.02.11.021.189.041.27.052q6.612.835,13.224,1.672a16.644,16.644,0,0,1,2.74.432,4.189,4.189,0,0,1,2.841,4.315,4.213,4.213,0,0,1-3.143,3.938c-.235.063-.474.112-.8.188a4.239,4.239,0,0,1,3.57,4.268,4.151,4.151,0,0,1-1.412,3.111,4.667,4.667,0,0,1-3.289,1.113,1.008,1.008,0,0,0,.329.167,3.989,3.989,0,0,1,2.814,3.613,4.259,4.259,0,0,1-2.4,4.144,5.882,5.882,0,0,1-3.029.417c-.5-.036-1.011-.047-1.588-.074a10.049,10.049,0,0,1,1,.764,3.982,3.982,0,0,1,.887,3.623,2.638,2.638,0,0,1-.986,1.677A6.87,6.87,0,0,1,80-407.4" transform="translate(-7.715 486.484)" fill="#fff"/>
    <path id="path56" d="M74.1-453.315q.329-.79.631-1.593c.54-1.463.7-2.854,1.02-3.994a3.975,3.975,0,0,1,.381-1.006.955.955,0,0,1,.455-.415l-.624-1.382v1.516h1.261V-461.7l-.357,1.474c.112.025.308.088.6.139h0a4.363,4.363,0,0,1,1.921.755,2.885,2.885,0,0,1,1.017,1.526,7.489,7.489,0,0,1,.319,2.139v.078a27.642,27.642,0,0,1-2.088,10.5c-.239.591-.563,1.223-.9,1.953a1.518,1.518,0,0,0,.024,1.328,1.517,1.517,0,0,0,1.06.8c.063.011.157.039.37.069q6.614.835,13.222,1.671a16.052,16.052,0,0,1,2.491.378,2.325,2.325,0,0,1,1.267.942,3.1,3.1,0,0,1,.5,1.744l0,.127a2.7,2.7,0,0,1-2.018,2.526h0c-.177.047-.409.1-.752.176a1.515,1.515,0,0,0-1.17,1.512,1.515,1.515,0,0,0,1.24,1.455,2.871,2.871,0,0,1,1.7.954A2.7,2.7,0,0,1,96.3-427.7v.039h0a2.68,2.68,0,0,1-.234,1.095,2.819,2.819,0,0,1-.684.915,2.474,2.474,0,0,1-.958.544,4.48,4.48,0,0,1-1.315.173,1.515,1.515,0,0,0-1.428,1.022,1.514,1.514,0,0,0,.5,1.685,2.547,2.547,0,0,0,.783.413h0a2.674,2.674,0,0,1,1.282.878,2.424,2.424,0,0,1,.5,1.38l0,.173a2.723,2.723,0,0,1-1.535,2.517,3.622,3.622,0,0,1-1.6.3c-.213,0-.439-.009-.677-.026h0c-.554-.039-1.071-.051-1.628-.076a1.516,1.516,0,0,0-1.494,1,1.516,1.516,0,0,0,.514,1.723c.477.351.773.544.844.628a1.592,1.592,0,0,1,.4.627,2.553,2.553,0,0,1,.121.847,6.68,6.68,0,0,1-.067.875.822.822,0,0,1-.119.335,1.7,1.7,0,0,1-.353.393,5.5,5.5,0,0,1-1.9.913l.482,1.437V-409.4H77.754v1.516l.27-1.492a4.371,4.371,0,0,0-.638-.1c-1.313-.078-2.6-.13-3.859-.223a36.4,36.4,0,0,1-7.717-1.316A1.516,1.516,0,0,0,63.925-410a1.516,1.516,0,0,0,1.021,1.885,39.357,39.357,0,0,0,8.359,1.433c1.325.1,2.627.15,3.9.226l.015-.241-.036.239.022,0,.015-.241-.036.239c.011,0,.112.024.3.061l.27.024H87.74a1.483,1.483,0,0,0,.483-.079,8.3,8.3,0,0,0,2.916-1.49,4.708,4.708,0,0,0,.961-1.109,3.861,3.861,0,0,0,.538-1.517,9.656,9.656,0,0,0,.094-1.274,5.569,5.569,0,0,0-.289-1.842,4.651,4.651,0,0,0-1.124-1.779,10.174,10.174,0,0,0-1.159-.9l-.912,1.211-.068,1.515c.6.026,1.093.038,1.547.071h0c.288.021.586.034.892.034a6.618,6.618,0,0,0,2.892-.593,5.763,5.763,0,0,0,3.271-5.258c0-.112,0-.225-.009-.339a5.465,5.465,0,0,0-1.139-3.078,5.71,5.71,0,0,0-2.705-1.888h0l-.018-.007-.2.527.347-.442-.144-.085-.2.527.347-.442-.938,1.192,0,1.516a7.506,7.506,0,0,0,2.206-.31,5.528,5.528,0,0,0,2.1-1.2,5.856,5.856,0,0,0,1.4-1.9,5.705,5.705,0,0,0,.507-2.315v-.076a5.739,5.739,0,0,0-1.345-3.723,5.9,5.9,0,0,0-3.466-1.979l-.275,1.491.346,1.475c.3-.071.547-.12.84-.2h0a5.734,5.734,0,0,0,4.268-5.352l0-.23a6.127,6.127,0,0,0-1.023-3.443,5.362,5.362,0,0,0-2.9-2.145,17.608,17.608,0,0,0-2.988-.484q-6.614-.844-13.226-1.672l-.041.325.058-.322-.017,0-.041.325.058-.322s-.072-.016-.187-.038l-.29,1.488,1.375.639c.3-.658.652-1.328.962-2.088a30.688,30.688,0,0,0,2.311-11.637v-.087a10.515,10.515,0,0,0-.453-3.02,5.945,5.945,0,0,0-2.077-3.048,7.346,7.346,0,0,0-3.241-1.33h0c-.048-.007-.183-.044-.4-.1a1.415,1.415,0,0,0-.357-.042H75.968a1.545,1.545,0,0,0-.625.134,4.014,4.014,0,0,0-1.8,1.6,6.842,6.842,0,0,0-.718,1.789c-.378,1.423-.548,2.72-.933,3.724q-.28.747-.591,1.49a1.516,1.516,0,0,0,.815,1.983,1.516,1.516,0,0,0,1.983-.816" transform="translate(-15.457 486.968)" fill="#1c1c1c"/>
    <path id="path58" d="M47.923-428.006a2.12,2.12,0,0,1,1.5-.651c1.032-.066,2.145-.088,3.311-.228a1.517,1.517,0,0,0,1.321-1.689,1.515,1.515,0,0,0-1.688-1.321c-.963.118-2.018.143-3.133.212a5.156,5.156,0,0,0-3.574,1.653,1.517,1.517,0,0,0,.118,2.142,1.517,1.517,0,0,0,2.14-.118" transform="translate(-10.959 479.389)" fill="#1c1c1c"/>
    <path id="path60" d="M29.877-415.778v2.7a1.516,1.516,0,0,0,1.516,1.516,1.515,1.515,0,0,0,1.516-1.516v-2.7a1.516,1.516,0,0,0-1.516-1.516A1.516,1.516,0,0,0,29.877-415.778Zm3.871,13.111h4.016a3.917,3.917,0,0,0,3.916-3.916v-20.845a3.917,3.917,0,0,0-3.916-3.916H35.621a1.516,1.516,0,0,0-1.516,1.516,1.516,1.516,0,0,0,1.516,1.516h2.142a.886.886,0,0,1,.884.884v20.845a.886.886,0,0,1-.884.884H33.783a1.516,1.516,0,0,0-1.533,1.5,1.516,1.516,0,0,0,1.5,1.533" transform="translate(-7.231 479.253)" fill="#1c1c1c"/>
    <path id="path62" d="M114.474-314.577c0,6.166-25.111,11.163-56.087,11.163S2.3-308.411,2.3-314.577s25.111-11.162,56.086-11.162,56.087,5,56.087,11.162" transform="translate(-0.557 453.693)" fill="#243163"/>
  </g>
</svg>
