<svg xmlns="http://www.w3.org/2000/svg" xmlns:xlink="http://www.w3.org/1999/xlink" width="1761" height="804.025" viewBox="0 0 1761 804.025">
  <defs>
    <filter id="Path_11314" x="0" y="0" width="1761" height="501.424" filterUnits="userSpaceOnUse">
      <feOffset dy="3" input="SourceAlpha"/>
      <feGaussianBlur stdDeviation="3" result="blur"/>
      <feFlood flood-opacity="0.161"/>
      <feComposite operator="in" in2="blur"/>
      <feComposite in="SourceGraphic"/>
    </filter>
  </defs>
  <g id="Group_30640" data-name="Group 30640" transform="translate(-79.5 -5194.576)">
    <g transform="matrix(1, 0, 0, 1, 79.5, 5194.58)" filter="url(#Path_11314)">
      <path id="Path_11314-2" data-name="Path 11314" d="M8,0H1735c4.418,0,8,19.027,8,42.5V440.925c0,23.471-3.582,42.5-8,42.5H8c-4.418,0-8-19.027-8-42.5V42.5C0,19.027,3.582,0,8,0Z" transform="translate(9 6)" fill="#303970"/>
    </g>
    <g id="Group_30583" data-name="Group 30583" transform="translate(74.5 952)" opacity="0.16">
      <g id="Group_30510" data-name="Group 30510" transform="translate(-6040.362 -6709.685)">
        <path id="Path_8754" data-name="Path 8754" d="M210.972,598.958c-4.9-.189-9.874-.276-14.79-.276h-1.059a3.732,3.732,0,0,1-.017-7.464h1.076c5.01,0,10.081.095,15.074.284a3.729,3.729,0,0,1-.146,7.455h-.138m-51.5-2.273a3.726,3.726,0,0,1,3.392-4.037c5.277-.465,10.7-.818,16.116-1.05a3.727,3.727,0,0,1,.327,7.447c-5.312.232-10.623.585-15.8,1.033-.112.009-.224.017-.327.017a3.727,3.727,0,0,1-3.71-3.409m83.048,4.786c-5.165-.628-10.46-1.171-15.745-1.584a3.731,3.731,0,1,1,.594-7.438c5.389.43,10.8.973,16.064,1.627a3.729,3.729,0,0,1-.448,7.429,2.825,2.825,0,0,1-.465-.034m-114.668-.06a3.734,3.734,0,0,1,2.961-4.365c5.1-.99,10.485-1.868,15.978-2.617a3.732,3.732,0,0,1,1.007,7.395c-5.363.723-10.6,1.584-15.573,2.54a3.359,3.359,0,0,1-.715.069,3.733,3.733,0,0,1-3.659-3.022m145.823,5.415c-5.019-1.128-10.236-2.152-15.5-3.056a3.729,3.729,0,0,1,1.257-7.352c5.389.921,10.726,1.971,15.874,3.134a3.73,3.73,0,0,1-.818,7.369,3.853,3.853,0,0,1-.818-.095M97.259,610.554a3.732,3.732,0,0,1,2.126-4.83,156.776,156.776,0,0,1,15.582-5.045,3.732,3.732,0,0,1,1.946,7.206,146.082,146.082,0,0,0-14.824,4.8,3.744,3.744,0,0,1-4.829-2.126m206.7,4.976c-4.8-1.722-9.84-3.349-14.988-4.821a3.729,3.729,0,0,1,2.049-7.171c5.312,1.524,10.511,3.194,15.461,4.967a3.732,3.732,0,0,1-2.522,7.025m28.5,12.913c-4.373-2.479-9.065-4.855-13.955-7.051a3.73,3.73,0,0,1,3.065-6.8c5.1,2.29,9.995,4.769,14.566,7.369a3.729,3.729,0,0,1-1.842,6.973,3.619,3.619,0,0,1-1.834-.491m502.37,1.627a90.5,90.5,0,0,0-15.246-1.515,3.732,3.732,0,1,1,.112-7.464,98.2,98.2,0,0,1,16.5,1.653,3.729,3.729,0,0,1-.68,7.395,3.807,3.807,0,0,1-.689-.069m-760.847.9a3.733,3.733,0,0,1-1.928-4.907c2.032-4.64,6.181-9,12.345-12.956a3.729,3.729,0,1,1,4.029,6.276c-4.9,3.151-8.109,6.4-9.53,9.667a3.76,3.76,0,0,1-3.426,2.238,3.683,3.683,0,0,1-1.489-.318m710.52-.827a3.723,3.723,0,0,1,2.583-4.6,124.831,124.831,0,0,1,16.107-3.4,3.73,3.73,0,1,1,1.042,7.386,115.691,115.691,0,0,0-15.143,3.194,3.672,3.672,0,0,1-1,.138,3.722,3.722,0,0,1-3.59-2.72m79.019,10.528a96.907,96.907,0,0,0-13.929-6.5,3.729,3.729,0,0,1,2.6-6.99,104.508,104.508,0,0,1,15,7,3.73,3.73,0,0,1-3.676,6.491m-108.4,2.006a3.728,3.728,0,0,1,1.618-5.019c4.984-2.557,9.969-4.838,14.833-6.8a3.727,3.727,0,1,1,2.789,6.913c-4.649,1.877-9.435,4.072-14.222,6.525a3.652,3.652,0,0,1-1.7.413,3.734,3.734,0,0,1-3.323-2.032m-397.706,4.055a115.259,115.259,0,0,0-11.871-9.891,3.725,3.725,0,1,1,4.382-6.026,121.273,121.273,0,0,1,12.655,10.537A3.728,3.728,0,0,1,360,647.778a3.705,3.705,0,0,1-2.583-1.042m370.631,12.956a3.727,3.727,0,0,1,.93-5.191c4.571-3.177,9.134-6.155,13.576-8.867a3.73,3.73,0,1,1,3.883,6.37c-4.313,2.626-8.755,5.527-13.2,8.617a3.722,3.722,0,0,1-5.191-.93M375.708,671.16c-.525-1.05-1.076-2.083-1.653-3.116-3.185-.215-6.319-.318-9.392-.284h-.034a3.728,3.728,0,0,1-.034-7.455c1.515-.017,3.056,0,4.606.043-.517-.723-1.033-1.437-1.567-2.143a3.731,3.731,0,1,1,5.957-4.494c1.756,2.342,3.409,4.752,4.933,7.214q1.24.116,2.479.258a10.709,10.709,0,0,1-.284,11.63,3.782,3.782,0,0,1-1.679.4,3.728,3.728,0,0,1-3.332-2.049m-45.85-.232a3.725,3.725,0,0,1,2.083-4.847,77.3,77.3,0,0,1,16.167-4.4,3.726,3.726,0,1,1,1.214,7.352,70.522,70.522,0,0,0-14.609,3.977,3.735,3.735,0,0,1-4.855-2.083m80.664,4.5a148.425,148.425,0,0,0-15.005-4.227,3.728,3.728,0,0,1,1.636-7.274,158.436,158.436,0,0,1,15.771,4.433,3.732,3.732,0,0,1-1.2,7.266,3.681,3.681,0,0,1-1.205-.2m292.378,4a3.727,3.727,0,0,1,.465-5.251c4.261-3.564,8.488-6.964,12.577-10.115a3.729,3.729,0,1,1,4.554,5.906c-4.012,3.091-8.161,6.431-12.345,9.926a3.728,3.728,0,0,1-5.251-.465M438.518,688.7a117.257,117.257,0,0,0-13.559-7.472,3.73,3.73,0,0,1,3.177-6.749,125.71,125.71,0,0,1,14.428,7.954,3.73,3.73,0,1,1-4.046,6.267m-130.284,4.743a3.728,3.728,0,0,1-1.748-4.976,41.6,41.6,0,0,1,10.709-13.722,3.729,3.729,0,1,1,4.812,5.7,34,34,0,0,0-8.8,11.26,3.726,3.726,0,0,1-4.976,1.739m370.872,7.369a3.728,3.728,0,0,1,.189-5.269c4.279-3.977,8.17-7.524,11.88-10.83a3.729,3.729,0,1,1,4.959,5.57c-3.667,3.271-7.515,6.775-11.759,10.726a3.719,3.719,0,0,1-5.269-.2m-294.952-.474a86.356,86.356,0,0,0-2.893-15,3.731,3.731,0,0,1,7.171-2.066,95.274,95.274,0,0,1,3.142,16.288,3.731,3.731,0,0,1-3.323,4.1c-.129.009-.258.017-.387.017a3.743,3.743,0,0,1-3.71-3.34m76.5,9.237q-.478-.633-.93-1.291a63,63,0,0,0-9.048-10.253,3.731,3.731,0,0,1,5.062-5.484,70.988,70.988,0,0,1,10.107,11.484c.258.362.517.723.783,1.085a3.726,3.726,0,0,1-.758,5.217,3.727,3.727,0,0,1-5.217-.758m194.738,12.681a3.721,3.721,0,0,1,.68-5.225c1.145-.887,2.238-1.808,3.246-2.738,2.617-2.41,5.535-5.157,8.3-7.774a3.73,3.73,0,1,1,5.122,5.423c-2.781,2.634-5.716,5.4-8.368,7.834-1.162,1.076-2.428,2.144-3.753,3.159a3.723,3.723,0,0,1-5.226-.68m-349.54.387a32.892,32.892,0,0,1-3.693-15.435c0-.637.017-1.283.052-1.928a3.728,3.728,0,1,1,7.447.379c-.026.516-.034,1.042-.034,1.55a25.516,25.516,0,0,0,2.832,11.975,3.732,3.732,0,0,1-1.575,5.036,3.635,3.635,0,0,1-1.722.422,3.718,3.718,0,0,1-3.306-2m181.274,7.343a89.133,89.133,0,0,1-14.308-8.531,3.729,3.729,0,1,1,4.442-5.992,81.4,81.4,0,0,0,13.111,7.8,3.733,3.733,0,0,1-3.245,6.723m-110.252,2.023a3.736,3.736,0,0,1,.095-5.277,25.126,25.126,0,0,0,6.964-11.854,3.728,3.728,0,1,1,7.214,1.885,32.42,32.42,0,0,1-9,15.332,3.732,3.732,0,0,1-5.277-.086m249.291,2.953a3.732,3.732,0,0,1,2.453-4.666,112.214,112.214,0,0,0,14.445-5.518,3.726,3.726,0,1,1,3.159,6.749,120.364,120.364,0,0,1-15.392,5.9,3.813,3.813,0,0,1-1.111.164,3.724,3.724,0,0,1-3.555-2.626M518.157,740.46c-5.51-1.248-10.812-2.712-15.754-4.347a3.731,3.731,0,0,1,2.342-7.085c4.718,1.567,9.788,2.961,15.057,4.158a3.731,3.731,0,0,1-.818,7.369,3.862,3.862,0,0,1-.826-.095m-184.605,2.023a49.89,49.89,0,0,1-15.771-6.835,3.732,3.732,0,0,1,4.158-6.2,42.341,42.341,0,0,0,13.421,5.8,3.727,3.727,0,0,1-.9,7.343,3.658,3.658,0,0,1-.9-.112m261.206-1.644A3.731,3.731,0,0,1,598,736.681c5.329-.663,10.537-1.507,15.487-2.522a3.73,3.73,0,0,1,1.5,7.309c-5.139,1.05-10.546,1.928-16.073,2.617a4.141,4.141,0,0,1-.456.026,3.734,3.734,0,0,1-3.7-3.271m-248.172-.2a3.731,3.731,0,0,1,3.59-3.865,48.471,48.471,0,0,0,14.54-2.695,3.729,3.729,0,1,1,2.505,7.025,55.771,55.771,0,0,1-16.77,3.125h-.138a3.736,3.736,0,0,1-3.728-3.59m203.725,4.537c-5.467-.413-10.9-1.007-16.15-1.765a3.728,3.728,0,1,1,1.076-7.378c5.071.732,10.331,1.308,15.625,1.7a3.728,3.728,0,0,1-.267,7.447c-.095,0-.189,0-.284-.009m16.21.689a3.732,3.732,0,0,1,.034-7.464h.043c5.251.06,10.546-.06,15.737-.344a3.733,3.733,0,0,1,.4,7.455c-4.494.241-9.082.362-13.619.362-.87,0-1.73,0-2.6-.009" transform="translate(6520.025 11010.411)" fill="#fff"/>
        <path id="Path_8764" data-name="Path 8764" d="M771.253,77.624c-5.131-.489-10.4-.784-15.668-.877a3.729,3.729,0,1,1,.129-7.458c5.458.1,10.924.4,16.245.91a3.73,3.73,0,0,1-.353,7.442c-.112,0-.232-.006-.353-.017Zm-51.2-2.417a3.737,3.737,0,0,1,3.245-4.16c5.389-.67,10.838-1.158,16.176-1.451a3.729,3.729,0,0,1,.4,7.447c-5.165.284-10.434.756-15.659,1.4a3.729,3.729,0,0,1-4.167-3.241Zm82,7.977c-4.959-1.351-10.089-2.508-15.272-3.437a3.73,3.73,0,0,1,1.326-7.342c5.389.968,10.744,2.174,15.909,3.582a3.729,3.729,0,1,1-1.963,7.2ZM688.756,81.656a3.733,3.733,0,0,1,2.686-4.54c5.243-1.347,10.571-2.54,15.823-3.544a3.73,3.73,0,0,1,1.4,7.327c-5.1.975-10.279,2.132-15.375,3.442a3.723,3.723,0,0,1-4.537-2.684ZM658.488,91.9a3.728,3.728,0,0,1,2.118-4.829c5.019-1.961,10.158-3.791,15.263-5.442a3.73,3.73,0,1,1,2.3,7.1c-4.967,1.606-9.969,3.386-14.85,5.293a3.724,3.724,0,0,1-4.829-2.118Zm172.88,2.291q-2.505-1.145-5-2.276c-3.073-1.4-6.259-2.714-9.452-3.921a3.728,3.728,0,1,1,2.626-6.978c3.349,1.264,6.68,2.645,9.909,4.107q2.492,1.132,5.019,2.282a3.73,3.73,0,1,1-3.1,6.786Zm268.282,6.729a74,74,0,0,0-15.177-.056,3.73,3.73,0,1,1-.714-7.425,81.686,81.686,0,0,1,16.727.069,3.73,3.73,0,0,1-.413,7.436,3.974,3.974,0,0,1-.422-.024Zm-470,4.745a3.727,3.727,0,0,1,1.532-5.046c4.743-2.533,9.625-4.959,14.514-7.21a3.729,3.729,0,0,1,3.116,6.775c-4.752,2.189-9.5,4.55-14.11,7.013a3.733,3.733,0,0,1-5.053-1.531Zm230.783,1.859q-5.023-2.3-9.978-4.584l-4.554-2.094a3.728,3.728,0,1,1,3.108-6.777l4.563,2.094c3.3,1.519,6.629,3.047,9.969,4.582a3.728,3.728,0,1,1-3.108,6.779Zm190.64,1.5a3.733,3.733,0,0,1,.7-5.228,36.969,36.969,0,0,1,10.253-5.592c1.773-.616,3.59-1.186,5.4-1.7a3.729,3.729,0,0,1,2.023,7.179c-1.67.47-3.34,1-4.967,1.562a29.409,29.409,0,0,0-8.17,4.472,3.736,3.736,0,0,1-5.234-.7Zm72.459,4.246c-1.463-3.434-4.795-6.425-9.616-8.651a3.728,3.728,0,0,1,3.116-6.774c6.534,3.014,11.157,7.336,13.361,12.5a3.729,3.729,0,1,1-6.861,2.924Zm-233.942,7.476c-4.571-2.038-9.349-4.188-14.6-6.577a3.729,3.729,0,1,1,3.082-6.791c5.243,2.381,10,4.526,14.557,6.556a3.73,3.73,0,1,1-3.039,6.812Zm-286.929,2.02a3.731,3.731,0,0,1,.913-5.194c4.391-3.079,8.953-6.073,13.55-8.9a3.729,3.729,0,1,1,3.9,6.357c-4.468,2.745-8.9,5.655-13.163,8.647a3.736,3.736,0,0,1-5.2-.912ZM919,133.5c-4.692-1.965-9.65-4.082-14.747-6.295a3.729,3.729,0,1,1,2.97-6.841c5.062,2.2,9.995,4.3,14.661,6.255A3.73,3.73,0,1,1,919,133.5Zm116.149,2.928a3.727,3.727,0,0,1-2.247-4.769,73.1,73.1,0,0,1,7.36-15.108,3.728,3.728,0,1,1,6.259,4.051,66.654,66.654,0,0,0-6.6,13.575,3.724,3.724,0,0,1-4.769,2.251Zm78.176,6.012a3.732,3.732,0,0,1,.043-5.274,45.254,45.254,0,0,0,8.962-11.627,3.729,3.729,0,1,1,6.672,3.332,52.815,52.815,0,0,1-10.4,13.616,3.733,3.733,0,0,1-5.277-.046Zm-535.316.653a3.729,3.729,0,0,1,.241-5.269c3.96-3.605,8.109-7.149,12.336-10.532a3.729,3.729,0,1,1,4.657,5.826c-4.106,3.283-8.135,6.722-11.966,10.219a3.731,3.731,0,0,1-5.269-.244Zm370.838,2.287c-4.812-1.8-9.857-3.756-14.988-5.8a3.729,3.729,0,1,1,2.763-6.927c5.088,2.027,10.072,3.961,14.841,5.746a3.729,3.729,0,1,1-2.617,6.984Zm30.432,10.479c-4.916-1.524-10.064-3.213-15.306-5.022a3.729,3.729,0,1,1,2.436-7.05c5.165,1.783,10.236,3.447,15.083,4.947a3.73,3.73,0,1,1-2.212,7.125Zm107.23,3.684a3.729,3.729,0,0,1,1.92-4.911,63.951,63.951,0,0,0,10.89-6.062c.749-.523,1.489-1.043,2.2-1.561a3.727,3.727,0,1,1,4.365,6.043c-.749.545-1.524,1.092-2.316,1.643a71.668,71.668,0,0,1-12.155,6.772,3.724,3.724,0,0,1-4.907-1.924Zm-76,4.563c-5.036-1.068-10.33-2.338-15.728-3.774a3.73,3.73,0,0,1,1.92-7.208c5.277,1.4,10.442,2.644,15.358,3.686a3.729,3.729,0,0,1-.766,7.378,3.786,3.786,0,0,1-.783-.082ZM556.3,166.527a3.728,3.728,0,0,1-.482-5.251c3.418-4.116,7.059-8.192,10.813-12.115a3.731,3.731,0,1,1,5.389,5.16c-3.641,3.8-7.162,7.74-10.468,11.722a3.727,3.727,0,0,1-5.251.485Zm486.4,2.115c-3.306-.189-6.732-.488-10.244-.891a3.722,3.722,0,0,1-3.581-.443c-.792-.105-1.584-.215-2.385-.331a3.729,3.729,0,0,1,.981-7.393,101.7,101.7,0,0,1,1.274-11.82A3.727,3.727,0,1,1,1036.1,149a96.523,96.523,0,0,0-1.205,11.519c2.815.3,5.57.528,8.239.68a3.73,3.73,0,0,1-.215,7.453l-.215-.007Zm12.466-3.463a3.729,3.729,0,0,1,3.512-3.937,100.7,100.7,0,0,0,15.263-2,3.729,3.729,0,1,1,1.558,7.292,108.067,108.067,0,0,1-16.4,2.156l-.215.006a3.727,3.727,0,0,1-3.719-3.516ZM538.241,192.867a3.735,3.735,0,0,1-1.274-5.122c2.763-4.588,5.768-9.168,8.927-13.595a3.728,3.728,0,1,1,6.069,4.332c-3.039,4.27-5.94,8.686-8.6,13.111a3.733,3.733,0,0,1-5.122,1.274Zm494.476,4.081a91.04,91.04,0,0,1-4.115-16.141,3.731,3.731,0,0,1,7.369-1.179,82.256,82.256,0,0,0,3.771,14.8,3.733,3.733,0,0,1-2.255,4.769,3.588,3.588,0,0,1-1.257.224,3.725,3.725,0,0,1-3.512-2.471Zm17.975,28.151A67.027,67.027,0,0,1,1040,212.039a3.733,3.733,0,1,1,6.319-3.977,59.562,59.562,0,0,0,9.487,11.613,3.727,3.727,0,1,1-5.114,5.424Zm29.5,15.806a68.713,68.713,0,0,1-15.754-5.957,3.728,3.728,0,0,1,3.5-6.586,61.073,61.073,0,0,0,14.041,5.3,3.729,3.729,0,0,1-.887,7.352,3.593,3.593,0,0,1-.9-.112Zm16.537,2.281a3.731,3.731,0,1,1,.3-7.455,95.177,95.177,0,0,0,10.236-.146c1.825-.129,3.659-.224,5.441-.284a3.73,3.73,0,0,1,.275,7.455c-1.713.06-3.461.146-5.217.267-2.393.164-4.778.241-7.1.241-1.317,0-2.643-.026-3.934-.077Zm47.081,1.928a112.321,112.321,0,0,0-15.281-2.126,3.729,3.729,0,1,1,.534-7.438,119.374,119.374,0,0,1,16.313,2.273,3.731,3.731,0,0,1-.783,7.378,3.52,3.52,0,0,1-.783-.086Zm27.9,11.656a70,70,0,0,0-13.3-7.188,3.727,3.727,0,0,1,2.832-6.9,77.059,77.059,0,0,1,14.721,7.954,3.73,3.73,0,0,1-4.253,6.129Zm19.817,22.383a64.407,64.407,0,0,0-8.574-12.4,3.729,3.729,0,1,1,5.587-4.941,72.639,72.639,0,0,1,9.573,13.826,3.732,3.732,0,0,1-6.586,3.512Zm8.307,29.011a69.408,69.408,0,0,0-2.634-14.928,3.73,3.73,0,1,1,7.171-2.057,77.224,77.224,0,0,1,2.91,16.6,3.727,3.727,0,0,1-3.53,3.917l-.2.009a3.725,3.725,0,0,1-3.719-3.538Z" transform="translate(6455.373 11083.027)" fill="#c0cce3"/>
        <g id="Group_30509" data-name="Group 30509" transform="translate(6900.468 11234.663)">
          <path id="Path_8765" data-name="Path 8765" d="M522.223,183.634,534.3,203.412,430.333,274.339l91.89-90.706Z" transform="translate(-430.333 -167.545)" fill="#c0cce3"/>
          <path id="Path_8766" data-name="Path 8766" d="M545.765,234.189l-6.293,22.684L435.7,278.11l110.062-43.922Z" transform="translate(-431.08 -174.578)" fill="#c0cce3"/>
          <path id="Path_8767" data-name="Path 8767" d="M430.333,275.9l175.325-59.753-60.64-21.324L430.333,275.9Z" transform="translate(-430.333 -169.101)" fill="#fff"/>
          <path id="Path_8768" data-name="Path 8768" d="M522.223,181.033l-91.89,90.706,53.779-106.795,38.111,16.089Z" transform="translate(-430.333 -164.945)" fill="#fff"/>
        </g>
        <path id="Path_8769" data-name="Path 8769" d="M-65.221-46.729a3.732,3.732,0,0,1,2.849-4.436,69.3,69.3,0,0,1,16.787-1.508,3.733,3.733,0,0,1,3.616,3.841,3.739,3.739,0,0,1-3.848,3.614,61.919,61.919,0,0,0-14.971,1.341,3.76,3.76,0,0,1-.792.086,3.734,3.734,0,0,1-3.641-2.938Zm48.975,8.5a91.149,91.149,0,0,0-14.532-4.9,3.728,3.728,0,0,1-2.746-4.5,3.728,3.728,0,0,1,4.5-2.744,98.9,98.9,0,0,1,15.728,5.3,3.734,3.734,0,0,1,1.954,4.9,3.74,3.74,0,0,1-3.426,2.255,3.739,3.739,0,0,1-1.481-.3Zm-76.867,6.777a3.725,3.725,0,0,1,.973-5.183c1.61-1.1,3.22-2.227,4.8-3.347a71.837,71.837,0,0,1,9.065-5.508,3.733,3.733,0,0,1,5.019,1.637A3.734,3.734,0,0,1-74.9-38.842a64.218,64.218,0,0,0-8.127,4.932c-1.61,1.147-3.263,2.3-4.907,3.428a3.714,3.714,0,0,1-2.1.652,3.729,3.729,0,0,1-3.082-1.624Zm103.3,9.228A125.12,125.12,0,0,0-2.524-31.114a3.721,3.721,0,0,1-1.248-5.125A3.725,3.725,0,0,1,1.35-37.484a131.259,131.259,0,0,1,13.473,9.421,3.74,3.74,0,0,1,.6,5.241A3.736,3.736,0,0,1,12.5-21.416a3.719,3.719,0,0,1-2.316-.811Zm-130.758,7.133a3.722,3.722,0,0,1,1.489-5.057c4.554-2.472,9.151-5.131,13.679-7.9a3.721,3.721,0,0,1,5.122,1.234,3.728,3.728,0,0,1-1.231,5.127c-4.632,2.837-9.34,5.56-14.006,8.094a3.736,3.736,0,0,1-1.782.454,3.717,3.717,0,0,1-3.271-1.95ZM-149.715-1.951a3.739,3.739,0,0,1,2.126-4.829c4.692-1.831,9.556-3.926,14.445-6.231a3.726,3.726,0,0,1,4.959,1.785,3.731,3.731,0,0,1-1.782,4.963c-5.045,2.377-10.064,4.54-14.919,6.432a3.656,3.656,0,0,1-1.352.256,3.738,3.738,0,0,1-3.478-2.375ZM31.627-.062A101.226,101.226,0,0,0,21.7-11.836a3.732,3.732,0,0,1,.06-5.274,3.733,3.733,0,0,1,5.277.065A108.847,108.847,0,0,1,37.7-4.391a3.736,3.736,0,0,1-.878,5.2,3.7,3.7,0,0,1-2.161.693A3.731,3.731,0,0,1,31.627-.062ZM-225.266,1.685A47.975,47.975,0,0,1-236.371-8.874a3.732,3.732,0,0,1,.7-5.228,3.738,3.738,0,0,1,5.234.7,40.4,40.4,0,0,0,9.366,8.92A3.733,3.733,0,0,1-220.083.7a3.728,3.728,0,0,1-3.091,1.633,3.712,3.712,0,0,1-2.092-.645Zm44.679,4.456a3.724,3.724,0,0,1,3.048-4.3A133.42,133.42,0,0,0-162.4-1.7,3.738,3.738,0,0,1-157.773.831,3.736,3.736,0,0,1-160.3,5.459,141.193,141.193,0,0,1-176.29,9.195a3.686,3.686,0,0,1-.628.053,3.723,3.723,0,0,1-3.667-3.106Zm-12.233,4.526a67.541,67.541,0,0,1-16.753-2,3.735,3.735,0,0,1-2.686-4.542,3.733,3.733,0,0,1,4.545-2.681,60.175,60.175,0,0,0,14.9,1.761,3.732,3.732,0,0,1,3.728,3.732,3.728,3.728,0,0,1-3.728,3.727Z" transform="translate(6562.999 11099.999)" fill="#ced0de"/>
        <g id="Group_30508" data-name="Group 30508" transform="translate(6544.722 11067.428)">
          <path id="Path_8770" data-name="Path 8770" d="M81.9-7.263,76.523,9.7l90.538,33.833L81.9-7.263Z" transform="translate(-25.361 26.249)" fill="#c0cce3"/>
          <path id="Path_8771" data-name="Path 8771" d="M72.293,35.293l8.858,15.762,81.275-3.19L72.293,35.293Z" transform="translate(-24.773 20.328)" fill="#c0cce3"/>
          <path id="Path_8772" data-name="Path 8772" d="M158.793,45.371,17.093,32.953,58.4,5.931l100.395,39.44Z" transform="translate(-17.093 24.413)" fill="#fff"/>
          <path id="Path_8773" data-name="Path 8773" d="M82.773-10.332l85.157,50.8L108.246-29.317,82.773-10.332Z" transform="translate(-26.231 29.317)" fill="#fff"/>
        </g>
        <path id="Path_8774" data-name="Path 8774" d="M188.955,274.676a9.381,9.381,0,0,1,9.2-9.2c5.966,0,9.986,4.5,9.986,9.2a9.733,9.733,0,0,1-9.986,9.986c-5.38,0-9.2-4.606-9.2-9.986Zm26.136-49.517a6.1,6.1,0,0,1-5.871,6.259,20.028,20.028,0,0,1-5.286-1.171,21.023,21.023,0,0,0-6.267-1.179c-3.814,0-6.457,2.152-6.457,6.069,0,3.134,1.567,5.673,6.551,10.279a4.034,4.034,0,0,1,.783.68c4.408,4.012,6.956,6.758,6.956,9.5a5.512,5.512,0,0,1-5.578,5.578c-3.332,0-8.617-3.814-15.952-11.544-5.776-5.974-8.617-11.94-8.617-17.82,0-10.176,7.051-17.415,20.36-17.415a25.5,25.5,0,0,1,15.849,4.993c2.35,1.756,3.53,3.719,3.53,5.776Z" transform="translate(6505.61 11062.839)" fill="#fff"/>
        <path id="Path_8775" data-name="Path 8775" d="M860.734-40.248a7.415,7.415,0,0,1,7.274-7.277,7.566,7.566,0,0,1,7.894,7.277,7.685,7.685,0,0,1-7.894,7.9c-4.261,0-7.274-3.638-7.274-7.9ZM881.4-79.421a4.83,4.83,0,0,1-4.649,4.955,15.826,15.826,0,0,1-4.175-.929,16.6,16.6,0,0,0-4.959-.93c-3.022,0-5.1,1.7-5.1,4.8,0,2.478,1.231,4.489,5.182,8.129a3.343,3.343,0,0,1,.62.541c3.487,3.173,5.492,5.342,5.492,7.509a4.356,4.356,0,0,1-4.408,4.412c-2.634,0-6.809-3.018-12.62-9.135-4.563-4.722-6.81-9.445-6.81-14.09,0-8.051,5.57-13.78,16.1-13.78a20.2,20.2,0,0,1,12.543,3.949c1.86,1.393,2.789,2.942,2.789,4.567Z" transform="translate(6411.751 11104.901)" fill="#fff"/>
        <path id="Path_8778" data-name="Path 8778" d="M345.772,59.345A21.027,21.027,0,1,0,366.8,38.322a21.051,21.051,0,0,0-21.031,21.022Zm-7.989,0A29.016,29.016,0,1,1,366.8,88.36a29.049,29.049,0,0,1-29.02-29.015Z" transform="translate(6483.012 11088.446)" fill="#fff"/>
        <path id="Path_8779" data-name="Path 8779" d="M-363.388,298.06a21.047,21.047,0,0,0,21.022,21.023,21.041,21.041,0,0,0,21.022-21.023,21.047,21.047,0,0,0-21.022-21.022,21.052,21.052,0,0,0-21.022,21.022Zm-7.989,0a29.047,29.047,0,0,1,29.011-29.011,29.041,29.041,0,0,1,29.011,29.011,29.036,29.036,0,0,1-29.011,29.011,29.041,29.041,0,0,1-29.011-29.011Z" transform="translate(6581.676 11055.233)" fill="#e6eaef"/>
        <path id="Path_8780" data-name="Path 8780" d="M295.933,7.722A16.563,16.563,0,1,0,312.5-8.843,16.562,16.562,0,0,0,295.933,7.722Z" transform="translate(6488.834 11093.896)" fill="#fff"/>
        <path id="Path_8781" data-name="Path 8781" d="M-358.447,224.292a16.572,16.572,0,0,0,16.563,16.572,16.573,16.573,0,0,0,16.572-16.572,16.572,16.572,0,0,0-16.572-16.563,16.57,16.57,0,0,0-16.563,16.563Z" transform="translate(6579.877 11063.766)" fill="#e6eaef"/>
      </g>
    </g>
  </g>
</svg>
