<svg xmlns="http://www.w3.org/2000/svg" width="50" height="50" viewBox="0 0 50 50">
  <g id="Group_31420" data-name="Group 31420" transform="translate(-11011.016 -8329)">
    <path id="Path" d="M0,25A25,25,0,1,1,25,50,25,25,0,0,1,0,25Z" transform="translate(11011.016 8329)" fill="#fff"/>
    <g id="Github" transform="translate(11019 8337)">
      <g id="Github-2" data-name="Github">
        <path id="Fill-4" d="M17,0A17.22,17.22,0,0,0,0,17.43,17.4,17.4,0,0,0,11.626,33.97c.85.161,1.162-.378,1.162-.838,0-.416-.016-1.789-.023-3.245C8.035,30.941,7.037,27.83,7.037,27.83a4.586,4.586,0,0,0-1.888-2.55c-1.542-1.082.116-1.06.116-1.06a3.584,3.584,0,0,1,2.606,1.8,3.569,3.569,0,0,0,4.947,1.449A3.748,3.748,0,0,1,13.9,25.134c-3.776-.441-7.745-1.935-7.745-8.614A6.841,6.841,0,0,1,7.9,11.841a6.41,6.41,0,0,1,.165-4.613S9.5,6.76,12.745,9.015a15.742,15.742,0,0,1,8.514,0c3.245-2.255,4.67-1.787,4.67-1.787a6.4,6.4,0,0,1,.167,4.613,6.828,6.828,0,0,1,1.75,4.679c0,6.695-3.977,8.169-7.762,8.6a4.223,4.223,0,0,1,1.153,3.228c0,2.332-.02,4.209-.02,4.783,0,.464.306,1.007,1.168.836A17.4,17.4,0,0,0,34,17.43,17.219,17.219,0,0,0,17,0" fill="#161514"/>
        <path id="Fill-5" d="M.454.293C.417.378.284.4.164.345S-.029.172.011.086.181-.027.3.032.5.207.454.293" transform="translate(6.035 24.614)" fill="#161514"/>
        <path id="Fill-6" d="M.446.479C.365.555.207.519.1.4A.267.267,0,0,1,.05.04C.133-.036.287,0,.4.12S.531.4.446.479" transform="translate(6.73 25.208)" fill="#161514"/>
        <path id="Fill-7" d="M.457.59C.353.664.183.595.078.441S-.026.1.08.03.353.023.459.175s.1.34,0,.415" transform="translate(7.389 26.09)" fill="#161514"/>
        <path id="Fill-8" d="M.582.57C.489.674.291.646.146.5A.335.335,0,0,1,.05.063c.094-.1.293-.075.439.066S.681.466.582.57" transform="translate(8.18 27.071)" fill="#161514"/>
        <path id="Fill-9" d="M.71.377C.669.512.478.574.286.516S-.032.3.007.162s.232-.2.425-.139S.75.239.71.377" transform="translate(9.317 27.821)" fill="#161514"/>
        <path id="Fill-10" d="M.729.252c0,.142-.158.26-.36.263S0,.4,0,.264.159,0,.362,0,.729.11.729.252" transform="translate(10.686 28.05)" fill="#161514"/>
        <path id="Fill-11" d="M.723.2C.748.336.607.479.407.517S.028.468,0,.33.121.045.318.008.7.056.723.2" transform="translate(11.984 27.88)" fill="#161514"/>
      </g>
    </g>
  </g>
</svg>
