<svg xmlns="http://www.w3.org/2000/svg" width="35.987" height="27.414" viewBox="0 0 35.987 27.414">
  <g id="gmail" transform="translate(0 0)">
    <g id="Group_11" data-name="Group 11" transform="translate(2.346 0)">
      <path id="Path_11" data-name="Path 11" d="M65.12,122.808l-2.3,23.069H35.23l-1.851-22.622,15.647,8.761Z" transform="translate(-33.379 -118.463)" fill="#f2f2f2"/>
      <path id="Path_12" data-name="Path 12" d="M68.743,60.983,53.429,75.369,38.114,60.983H68.743Z" transform="translate(-37.781 -60.983)" fill="#f2f2f2"/>
    </g>
    <path id="Path_13" data-name="Path 13" d="M4.2,115.026V135.8H1.7A1.7,1.7,0,0,1,0,134.1V111.967l2.741.075Z" transform="translate(0 -108.384)" fill="#f14336"/>
    <path id="Path_14" data-name="Path 14" d="M456.485,109.179v22.134a1.7,1.7,0,0,1-1.7,1.7h-2.5V112.238l1.384-3.27Z" transform="translate(-420.498 -105.595)" fill="#d32e2a"/>
    <path id="Path_15" data-name="Path 15" d="M35.987,62.68v1.887l-4.2,3.059-13.8,10.056L4.2,67.626,0,64.567V62.68a1.7,1.7,0,0,1,1.7-1.7h.982L17.993,72.145,33.308,60.983h.981A1.7,1.7,0,0,1,35.987,62.68Z" transform="translate(0 -60.983)" fill="#f14336"/>
    <path id="Path_16" data-name="Path 16" d="M4.2,115.026,0,114.376v-2.409Z" transform="translate(0 -108.384)" fill="#d32e2a"/>
  </g>
</svg>
