<svg id="Gmail" xmlns="http://www.w3.org/2000/svg" xmlns:xlink="http://www.w3.org/1999/xlink" width="73.3" height="73.3" viewBox="0 0 73.3 73.3">
  <defs>
    <linearGradient id="linear-gradient" y1="0.5" x2="1" y2="0.5" gradientUnits="objectBoundingBox">
      <stop offset="0" stop-opacity="0.102"/>
      <stop offset="1" stop-opacity="0.2"/>
    </linearGradient>
  </defs>
  <path id="Shape" d="M0,36.65A36.65,36.65,0,1,1,36.65,73.3,36.65,36.65,0,0,1,0,36.65Z" fill="#fff"/>
  <path id="Shape-2" data-name="Shape" d="M34.308,27.708H2.287A2.294,2.294,0,0,1,0,25.421V2.287A2.294,2.294,0,0,1,2.287,0H34.308A2.294,2.294,0,0,1,36.6,2.287V25.421A2.273,2.273,0,0,1,34.308,27.708Z" transform="translate(18.33 23.037)" fill="#e3e3e3"/>
  <path id="Shape-3" data-name="Shape" d="M4.574,26.957H2.287A2.263,2.263,0,0,1,0,24.669V1.5C0,.179,1.156,0,2.287,0,3.475,0,4.574.182,4.574,1.5V26.957ZM2.287.327C.655.327.327.777.327,1.5V24.669a1.963,1.963,0,0,0,1.96,1.961H4.248V1.5C4.248.893,4.011.327,2.287.327Z" transform="translate(18.33 23.788)" fill="#d72b27"/>
  <path id="Shape-4" data-name="Shape" d="M2.287,26.957H0V1.438C0,.163,1.013,0,2.287,0S4.574.163,4.574,1.438V24.7A2.266,2.266,0,0,1,2.287,26.957Z" transform="translate(50.351 23.788)" fill="#d54b3d"/>
  <path id="Shape-5" data-name="Shape" d="M2.287,26.989H0V1.438C0,.111,1.13,0,2.287,0S4.574.111,4.574,1.438V24.7A2.263,2.263,0,0,1,2.287,26.989Zm0-26.662C.8.327.327.6.327,1.438V26.663h1.96A1.963,1.963,0,0,0,4.248,24.7V1.438C4.248.618,3.735.327,2.287.327Z" transform="translate(50.351 23.788)" fill="#d72b27"/>
  <g id="Group_26744" data-name="Group 26744">
    <path id="Shape-6" data-name="Shape" d="M.359,21.761,14.05,10.75l.1-.588L.033,0,0,21.271Z" transform="translate(22.545 28.984)" fill="#231f20" opacity="0.1"/>
    <path id="Shape-7" data-name="Shape" d="M2.287,26.957A2.273,2.273,0,0,1,0,24.669V1.5C0,.229,1.013,0,2.287,0S4.575.261,4.575,1.5V26.957Z" transform="translate(18.33 23.789)" fill="#d54b3d"/>
    <path id="Shape-8" data-name="Shape" d="M24.315,25.141,0,.638l1.279.52L18.2,13.345,36.4,0V22.886a2.266,2.266,0,0,1-2.287,2.255Z" transform="translate(18.521 25.604)" fill="url(#linear-gradient)"/>
    <path id="Shape-9" data-name="Shape" d="M18.262,16.812.977,4.265a2.309,2.309,0,0,1-.555-3.2A2.37,2.37,0,0,1,3.689.572L18.295,11.192,33,.442a2.273,2.273,0,0,1,3.2.523,2.273,2.273,0,0,1-.523,3.2Z" transform="translate(18.333 22.922)" fill="#d54b3d"/>
  </g>
  <path id="Shape-10" data-name="Shape" d="M18.27,16.859h0L.986,4.28A2.339,2.339,0,0,1,.4,1.079a2.358,2.358,0,0,1,1.9-.948A2.259,2.259,0,0,1,3.665.555L18.27,11.175,32.975.425a2.283,2.283,0,0,1,3.2.555,2.329,2.329,0,0,1-.522,3.2L18.271,16.859ZM2.325.458a2.054,2.054,0,0,0-1.633.816,1.983,1.983,0,0,0,.489,2.745L18.27,16.435,35.49,3.888a2,2,0,0,0,.425-2.745,1.993,1.993,0,0,0-1.6-.816,2.178,2.178,0,0,0-1.176.359l-14.67,10.75-.2.131-.2-.131L3.5.849A1.88,1.88,0,0,0,2.325.458Z" transform="translate(18.324 22.906)" fill="#d72b27"/>
</svg>
