<svg xmlns="http://www.w3.org/2000/svg" xmlns:xlink="http://www.w3.org/1999/xlink" width="488.801" height="301.997" viewBox="0 0 488.801 301.997">
  <defs>
    <filter id="Path_1" x="0" y="6.078" width="419.406" height="295.918" filterUnits="userSpaceOnUse">
      <feOffset dy="3" input="SourceAlpha"/>
      <feGaussianBlur stdDeviation="3" result="blur"/>
      <feFlood flood-opacity="0.161"/>
      <feComposite operator="in" in2="blur"/>
      <feComposite in="SourceGraphic"/>
    </filter>
    <filter id="Path_2" x="124.493" y="0" width="364.307" height="257.77" filterUnits="userSpaceOnUse">
      <feOffset dy="3" input="SourceAlpha"/>
      <feGaussianBlur stdDeviation="3" result="blur-2"/>
      <feFlood flood-opacity="0.161"/>
      <feComposite operator="in" in2="blur-2"/>
      <feComposite in="SourceGraphic"/>
    </filter>
  </defs>
  <g id="Group_26906" data-name="Group 26906" transform="translate(-2959.5 -8558.37)">
    <g id="Group_26892" data-name="Group 26892" transform="translate(2968.5 8564.37)">
      <g transform="matrix(1, 0, 0, 1, -9, -6)" filter="url(#Path_1)">
        <path id="Path_1-2" data-name="Path 1" d="M259.861,134.03c102.953-42.56,117.859,63.512,171.983,53.425s73.069,1.611,96.729,47.909c34.808,68.112-9.2,159.774-76.839,149.343-122.557-18.9-145.192,30.813-234.186,13.326s-105.169-129.651-32.16-164.442C221.5,216.386,180.9,166.672,259.861,134.03Z" transform="translate(-130.37 -111.83)" fill="#dee8f0" opacity="0.5"/>
      </g>
      <g transform="matrix(1, 0, 0, 1, -9, -6)" filter="url(#Path_2)">
        <path id="Path_2-2" data-name="Path 2" d="M515.64,126.1C426.818,89.384,413.958,180.9,367.265,172.193s-63.039,1.39-83.452,41.334C253.783,272.29,291.752,351.37,350.1,342.37c105.734-16.307,125.262,26.583,202.04,11.5S642.879,242.012,579.89,212C548.738,197.152,583.761,154.263,515.64,126.1Z" transform="translate(-139.79 -111.37)" fill="#dee8f0" opacity="0.5"/>
      </g>
    </g>
    <g id="Group_26893" data-name="Group 26893" transform="translate(2974.663 8584.329)">
      <g id="Group_2" data-name="Group 2" transform="translate(0 0)">
        <path id="Path_3" data-name="Path 3" d="M374.193,258.967H300.749V142.559h-69.4V138.84h73.121V255.248h69.724Z" transform="translate(-152.003 -138.84)" fill="#fff"/>
        <rect id="Rectangle_3" data-name="Rectangle 3" width="150.606" height="3.719" transform="translate(0 116.408)" fill="#fff"/>
        <path id="Path_4" data-name="Path 4" d="M301.63,373.9H191v-3.719H297.912V266.055h3.719Z" transform="translate(-149.165 -147.788)" fill="#fff"/>
      </g>
      <g id="Group_3" data-name="Group 3" transform="translate(203.597 0)">
        <path id="Path_5" data-name="Path 5" d="M438.443,258.967H365v-3.719h69.724V138.84h73.121v3.719h-69.4Z" transform="translate(-365 -138.84)" fill="#fff"/>
        <rect id="Rectangle_4" data-name="Rectangle 4" width="150.606" height="3.719" transform="translate(71.584 116.408)" fill="#fff"/>
        <path id="Path_6" data-name="Path 6" d="M550.63,373.9H440V266.055h3.719V370.177H550.63Z" transform="translate(-370.275 -147.788)" fill="#fff"/>
      </g>
    </g>
  </g>
</svg>
