<svg id="Instagram" xmlns="http://www.w3.org/2000/svg" xmlns:xlink="http://www.w3.org/1999/xlink" width="73.297" height="73.297" viewBox="0 0 73.297 73.297">
  <defs>
    <clipPath id="clip-path">
      <path id="path-1" d="M0,36.649A36.649,36.649,0,1,1,36.649,73.3,36.649,36.649,0,0,1,0,36.649Z" fill="none"/>
    </clipPath>
    <linearGradient id="linear-gradient" x1="0.5" x2="0.5" y2="1" gradientUnits="objectBoundingBox">
      <stop offset="0" stop-color="#d54b3d"/>
      <stop offset="1" stop-color="#6b261f"/>
    </linearGradient>
  </defs>
  <g id="Instagram-2" data-name="Instagram">
    <g id="back">
      <path id="path-1-2" data-name="path-1" d="M0,36.649A36.649,36.649,0,1,1,36.649,73.3,36.649,36.649,0,0,1,0,36.649Z" fill="#fff"/>
    </g>
    <g id="Shape_Clipped" data-name="Shape Clipped">
      <path id="path-1-3" data-name="path-1" d="M0,36.649A36.649,36.649,0,1,1,36.649,73.3,36.649,36.649,0,0,1,0,36.649Z" fill="none"/>
      <g id="Shape_Clipped-2" data-name="Shape Clipped" clip-path="url(#clip-path)">
        <path id="Shape" d="M19.545,39.092c-5.257,0-5.954-.023-8.059-.118a14.459,14.459,0,0,1-4.745-.908A9.569,9.569,0,0,1,3.28,35.81a9.569,9.569,0,0,1-2.255-3.462A14.494,14.494,0,0,1,.118,27.6C.023,25.5,0,24.8,0,19.546c0-5.234.023-5.935.118-8.06a14.364,14.364,0,0,1,.908-4.744A9.582,9.582,0,0,1,3.281,3.28,9.575,9.575,0,0,1,6.745,1.026,14.447,14.447,0,0,1,11.488.118c2.1-.1,2.8-.118,8.056-.118S25.5.023,27.6.118a14.5,14.5,0,0,1,4.748.908A9.542,9.542,0,0,1,35.81,3.28a9.579,9.579,0,0,1,2.255,3.462,14.565,14.565,0,0,1,.908,4.744c.1,2.125.118,2.826.118,8.059s-.023,5.933-.118,8.058a14.566,14.566,0,0,1-.908,4.744,10.012,10.012,0,0,1-5.716,5.719,14.465,14.465,0,0,1-4.747.908C25.5,39.07,24.8,39.092,19.545,39.092ZM17.794,3.517c-3.643,0-4.329.028-6.144.11A10.827,10.827,0,0,0,8.02,4.3,6.064,6.064,0,0,0,5.773,5.764,6.052,6.052,0,0,0,4.309,8.012a10.845,10.845,0,0,0-.673,3.629c-.092,2.028-.112,2.641-.112,7.9s.02,5.871.112,7.9a10.83,10.83,0,0,0,.673,3.629,6.058,6.058,0,0,0,1.463,2.246A6.046,6.046,0,0,0,8.02,34.772a10.827,10.827,0,0,0,3.63.674c2.076.094,2.7.114,7.9.114s5.821-.02,7.9-.114a10.8,10.8,0,0,0,3.629-.673,6.485,6.485,0,0,0,3.709-3.707,10.83,10.83,0,0,0,.673-3.629c.094-2.076.114-2.7.114-7.9s-.02-5.819-.114-7.9a10.83,10.83,0,0,0-.673-3.629A6.073,6.073,0,0,0,33.322,5.77a6.045,6.045,0,0,0-2.246-1.462,10.792,10.792,0,0,0-3.629-.673c-2.044-.093-2.66-.113-7.9-.113H17.793V3.517Zm1.754,26.065A10.037,10.037,0,1,1,29.584,19.546,10.048,10.048,0,0,1,19.548,29.582Zm0-16.551a6.515,6.515,0,1,0,6.515,6.515A6.523,6.523,0,0,0,19.548,13.031Zm10.434-1.573a2.345,2.345,0,1,1,2.345-2.345A2.349,2.349,0,0,1,29.982,11.458Z" transform="translate(17.103 17.103)" fill="url(#linear-gradient)"/>
      </g>
    </g>
  </g>
</svg>
