<svg xmlns="http://www.w3.org/2000/svg" width="43" height="43.374" viewBox="0 0 43 43.374">
  <path id="Icon_ionic-ios-heart" data-name="Icon ionic-ios-heart" d="M32.606,3.938h-.1a10.847,10.847,0,0,0-9.135,5.2,10.847,10.847,0,0,0-9.135-5.2h-.1a11.1,11.1,0,0,0-10.769,11.3,24.97,24.97,0,0,0,4.6,13.27c5.788,8.23,15.4,15.43,15.4,15.43s9.615-7.2,15.4-15.43a24.97,24.97,0,0,0,4.6-13.27A11.1,11.1,0,0,0,32.606,3.938Z" transform="translate(-1.875 -2.438)" fill="#21c98b" stroke="#21c98b" stroke-width="3"/>
</svg>
