<svg id="LinkedIN" xmlns="http://www.w3.org/2000/svg" width="73.297" height="73.297" viewBox="0 0 73.297 73.297">
  <g id="LinkedIN-2" data-name="LinkedIN">
    <path id="back" d="M0,36.649A36.649,36.649,0,1,1,36.649,73.3,36.649,36.649,0,0,1,0,36.649Z" fill="#fff"/>
    <path id="Shape" d="M21.7,36.986h0l-8.3,0c0-.2.108-22.625,0-24.954H21.7v3.533a9.338,9.338,0,0,1,2.5-2.7,8.583,8.583,0,0,1,4.983-1.423,9,9,0,0,1,6.831,2.742c1.813,1.964,2.732,4.821,2.732,8.49V36.983l-8.305,0V23.633c0-2.574-.73-5.642-4.21-5.642a4.269,4.269,0,0,0-2.766.958,5.166,5.166,0,0,0-1.495,2.075,5.487,5.487,0,0,0-.273,2.023V36.986Zm-12.9,0H.491V12.029H8.8V36.984ZM4.644,8.624H4.59A4.312,4.312,0,0,1,0,4.31C0,1.772,1.932,0,4.7,0A4.309,4.309,0,0,1,9.344,4.31,4.178,4.178,0,0,1,8.08,7.366,4.844,4.844,0,0,1,4.644,8.624Z" transform="translate(17.103 18.324)" fill="#0077b5"/>
  </g>
</svg>
