<svg id="Group_31383" data-name="Group 31383" xmlns="http://www.w3.org/2000/svg" width="20" height="30.096" viewBox="0 0 20 30.096">
  <path id="Path_3502" data-name="Path 3502" d="M1793.02,1344c0,5.523-10,20.1-10,20.1s-10-14.573-10-20.1a10,10,0,0,1,20,0Z" transform="translate(-1773.02 -1334)" fill="#21c98b"/>
  <path id="Path_3503" data-name="Path 3503" d="M1896.878,1443.639a4.7,4.7,0,1,1-4.7-4.7,4.7,4.7,0,0,1,4.7,4.7Z" transform="translate(-1882.178 -1434.079)" fill="#fff"/>
  <path id="Path_3504" data-name="Path 3504" d="M1796.716,1370.121a8.687,8.687,0,0,1,15.573-5.3,8.688,8.688,0,1,0-14.419,9.625,8.646,8.646,0,0,1-1.154-4.33Z" transform="translate(-1795.003 -1359.242)" fill="#fff"/>
  <path id="Path_3505" data-name="Path 3505" d="M1938.066,1548.536c1.363,2.283,2.358,3.825,2.358,3.825s10-14.573,10-20.1c0-.29-.015-.576-.039-.86a24.281,24.281,0,0,1-1.637,4.454c-1.893,3.94-4.692,6.465-7.674,9.661-.961,1.03-1.961,2.049-3.008,3.015Z" transform="translate(-1930.424 -1522.265)" fill="#21c98b"/>
</svg>
