<svg xmlns="http://www.w3.org/2000/svg" xmlns:xlink="http://www.w3.org/1999/xlink" width="791.637" height="814.358" viewBox="0 0 791.637 814.358">
  <defs>
    <clipPath id="clip-path">
      <path id="Path_87" data-name="Path 87" d="M253.943,301.965c5.571-9.2,32.324-9.048,34.746-4.962,0,0-13.255,42.848-28.027,38.406S253.943,301.965,253.943,301.965Z" transform="translate(-251.752 -294.335)" fill="#757575" stroke="#263238" stroke-linecap="round" stroke-linejoin="round" stroke-width="1"/>
    </clipPath>
    <clipPath id="clip-path-2">
      <path id="Path_92" data-name="Path 92" d="M315.618,332.472a13.2,13.2,0,0,1,2.832,8.083c0,4-7.624,83.819-31.155,111.6-4.93,5.833-10.563,9.369-16.978,9.446-19.917.214-29.562-15.585-42.238-52.235q-2.365-6.843-4.914-14.7C210.841,356.844,195.7,277.94,195.7,277.94s26.868,6.231,42.8,22.03c6.966,6.9,14.222,26.5,18.861,40.891,2.281,7.073,3.935,12.875,4.623,15.325.214.811.337,1.255.337,1.255a36.082,36.082,0,0,1,2.817-7.149c.015-.031.015-.046.031-.061a.518.518,0,0,0,.092-.184,87.393,87.393,0,0,1,12.63-17.376l5.8-22s2.051,4.011,11.329,5.435c9.293,1.424,23.423-10.4,23.423-10.4Z" transform="translate(-195.7 -277.94)" fill="#757575" stroke="#263238" stroke-linecap="round" stroke-linejoin="round" stroke-width="1"/>
    </clipPath>
    <clipPath id="clip-path-3">
      <path id="Path_96" data-name="Path 96" d="M117.125,272.762s27.571,3.876,45.368-3.967,5.257,59.383-20.27,49.693S117.125,272.762,117.125,272.762Z" transform="translate(-117.125 -268.157)" fill="#999" stroke="#263238" stroke-linecap="round" stroke-linejoin="round" stroke-width="1"/>
    </clipPath>
    <clipPath id="clip-path-4">
      <path id="Path_100" data-name="Path 100" d="M306.753,570.48c-4.057-.413-8.083-.873-12.11-1.378q-4.822-.6-9.614-1.317-7.348-1.056-14.666-2.342c-.046-.015-.107-.015-.153-.031-35.227-6.277-68.448-17.146-98.332-33.558a253.947,253.947,0,0,1-32.226-20.928c-19.519-51.21-62.4-169.153-51.194-189.3,13.7-24.679,42.943-44.412,96.541-47.076,49.709-2.48,90.692,15.141,100.49,35.625,9.354,19.55,8.971,150.705,6.6,211.59-.107,2.893-.23,5.619-.352,8.175l1.684,5.006Z" transform="translate(-86.619 -274.317)" fill="#92e3a9" stroke="#263238" stroke-linecap="round" stroke-linejoin="round" stroke-width="1"/>
    </clipPath>
    <clipPath id="clip-path-5">
      <path id="Path_105" data-name="Path 105" d="M221.981,343.234s-6.506-25.766-14.682-42.116c-2.4-4.792-4.945-8.772-7.5-11.069C189.77,281.093,161.08,278.8,161.08,278.8a23.355,23.355,0,0,1,8.665-9.4c12.63-7.639,31.935-1.562,47.566,13.243C237.213,301.5,221.981,343.234,221.981,343.234Z" transform="translate(-161.08 -266.089)" fill="#999" stroke="#263238" stroke-linecap="round" stroke-linejoin="round" stroke-width="1"/>
    </clipPath>
    <clipPath id="clip-path-6">
      <path id="Path_120" data-name="Path 120" d="M180.1,468.267c-.735,7.394-1.47,14.682-2.189,21.709-1.255,12.018-2.679,26.745-4.011,40.509a249.738,249.738,0,0,1-62.508-48.255c.138-4.057.122-7.762-.092-10.916a190.3,190.3,0,0,0-2.985-19.657C104.67,432.55,98.408,405.743,93,381.708c-5.68-25.337-10.441-47.6-10.181-54.532.612-16.366,24.832-41.442,53.9-50.276,0,0,44.841,30.894,50.291,64.207C189.82,358.3,185.212,416.215,180.1,468.267Z" transform="translate(-82.813 -276.9)" fill="#757575" stroke="#263238" stroke-linecap="round" stroke-linejoin="round" stroke-width="1"/>
    </clipPath>
    <clipPath id="clip-path-7">
      <path id="Path_125" data-name="Path 125" d="M193.944,290.692c2.544-4.608,9.812-2.387,18.29,10.937s11.943,28.863,9.893,34.521-29.475,12.517-29.475,12.517L187,334.335Z" transform="translate(-187 -288.503)" fill="#757575" stroke="#263238" stroke-linecap="round" stroke-linejoin="round" stroke-width="1"/>
    </clipPath>
    <clipPath id="clip-path-8">
      <path id="Path_136" data-name="Path 136" d="M263.732,310.735l-17.779,5.9c-1.88.482-5.592-2.656-5.427-4.59l5.274-62.139a5.924,5.924,0,0,1,4.427-5.236l19.7-4.277c1.879-.482,6.611,1.767,6.447,3.7L268.159,305.5A5.927,5.927,0,0,1,263.732,310.735Z" transform="translate(-240.521 -240.326)" fill="#92e3a9" stroke="#263238" stroke-linecap="round" stroke-linejoin="round" stroke-width="1"/>
    </clipPath>
    <filter id="Rectangle_1533" x="93.054" y="534.633" width="122.866" height="121.78" filterUnits="userSpaceOnUse">
      <feOffset dx="6" dy="6" input="SourceAlpha"/>
      <feGaussianBlur stdDeviation="3" result="blur"/>
      <feFlood flood-color="#8e8e8e" flood-opacity="0.161"/>
      <feComposite operator="in" in2="blur"/>
      <feComposite in="SourceGraphic"/>
    </filter>
    <filter id="Rectangle_1534" x="76.684" y="518.263" width="122.606" height="121.52" filterUnits="userSpaceOnUse">
      <feOffset dx="-12" dy="-12" input="SourceAlpha"/>
      <feGaussianBlur stdDeviation="3" result="blur-2"/>
      <feFlood flood-color="#fff" flood-opacity="0.161"/>
      <feComposite operator="in" in2="blur-2"/>
      <feComposite in="SourceGraphic"/>
    </filter>
    <filter id="Rectangle_1533-2" x="101.204" y="543.327" width="104.393" height="101.133" filterUnits="userSpaceOnUse">
      <feOffset dx="6" dy="6" input="SourceAlpha"/>
      <feGaussianBlur stdDeviation="3" result="blur-3"/>
      <feFlood flood-color="#8e8e8e" flood-opacity="0.161"/>
      <feComposite operator="in" in2="blur-3"/>
      <feComposite in="SourceGraphic"/>
    </filter>
    <filter id="Rectangle_1534-2" x="84.834" y="526.957" width="104.132" height="100.872" filterUnits="userSpaceOnUse">
      <feOffset dx="-12" dy="-12" input="SourceAlpha"/>
      <feGaussianBlur stdDeviation="3" result="blur-4"/>
      <feFlood flood-color="#fff" flood-opacity="0.161"/>
      <feComposite operator="in" in2="blur-4"/>
      <feComposite in="SourceGraphic"/>
    </filter>
    <filter id="Rectangle_1533-3" x="86.917" y="322.431" width="122.866" height="121.78" filterUnits="userSpaceOnUse">
      <feOffset dx="6" dy="6" input="SourceAlpha"/>
      <feGaussianBlur stdDeviation="3" result="blur-5"/>
      <feFlood flood-color="#8e8e8e" flood-opacity="0.161"/>
      <feComposite operator="in" in2="blur-5"/>
      <feComposite in="SourceGraphic"/>
    </filter>
    <filter id="Rectangle_1534-3" x="70.547" y="306.061" width="122.606" height="121.52" filterUnits="userSpaceOnUse">
      <feOffset dx="-12" dy="-12" input="SourceAlpha"/>
      <feGaussianBlur stdDeviation="3" result="blur-6"/>
      <feFlood flood-color="#fff" flood-opacity="0.161"/>
      <feComposite operator="in" in2="blur-6"/>
      <feComposite in="SourceGraphic"/>
    </filter>
    <filter id="Rectangle_1533-4" x="95.067" y="331.125" width="104.393" height="101.133" filterUnits="userSpaceOnUse">
      <feOffset dx="6" dy="6" input="SourceAlpha"/>
      <feGaussianBlur stdDeviation="3" result="blur-7"/>
      <feFlood flood-color="#8e8e8e" flood-opacity="0.161"/>
      <feComposite operator="in" in2="blur-7"/>
      <feComposite in="SourceGraphic"/>
    </filter>
    <filter id="Rectangle_1534-4" x="78.697" y="314.755" width="104.132" height="100.872" filterUnits="userSpaceOnUse">
      <feOffset dx="-12" dy="-12" input="SourceAlpha"/>
      <feGaussianBlur stdDeviation="3" result="blur-8"/>
      <feFlood flood-color="#fff" flood-opacity="0.161"/>
      <feComposite operator="in" in2="blur-8"/>
      <feComposite in="SourceGraphic"/>
    </filter>
    <filter id="Rectangle_1533-5" x="359.753" y="72.351" width="122.866" height="121.78" filterUnits="userSpaceOnUse">
      <feOffset dx="6" dy="6" input="SourceAlpha"/>
      <feGaussianBlur stdDeviation="3" result="blur-9"/>
      <feFlood flood-color="#8e8e8e" flood-opacity="0.161"/>
      <feComposite operator="in" in2="blur-9"/>
      <feComposite in="SourceGraphic"/>
    </filter>
    <filter id="Rectangle_1534-5" x="343.383" y="55.981" width="122.606" height="121.52" filterUnits="userSpaceOnUse">
      <feOffset dx="-12" dy="-12" input="SourceAlpha"/>
      <feGaussianBlur stdDeviation="3" result="blur-10"/>
      <feFlood flood-color="#fff" flood-opacity="0.161"/>
      <feComposite operator="in" in2="blur-10"/>
      <feComposite in="SourceGraphic"/>
    </filter>
    <filter id="Rectangle_1533-6" x="367.904" y="81.045" width="104.393" height="101.132" filterUnits="userSpaceOnUse">
      <feOffset dx="6" dy="6" input="SourceAlpha"/>
      <feGaussianBlur stdDeviation="3" result="blur-11"/>
      <feFlood flood-color="#8e8e8e" flood-opacity="0.161"/>
      <feComposite operator="in" in2="blur-11"/>
      <feComposite in="SourceGraphic"/>
    </filter>
    <filter id="Rectangle_1534-6" x="351.534" y="64.675" width="104.133" height="100.872" filterUnits="userSpaceOnUse">
      <feOffset dx="-12" dy="-12" input="SourceAlpha"/>
      <feGaussianBlur stdDeviation="3" result="blur-12"/>
      <feFlood flood-color="#fff" flood-opacity="0.161"/>
      <feComposite operator="in" in2="blur-12"/>
      <feComposite in="SourceGraphic"/>
    </filter>
    <filter id="Path_3637" x="600.061" y="353.171" width="122.866" height="121.78" filterUnits="userSpaceOnUse">
      <feOffset dx="6" dy="6" input="SourceAlpha"/>
      <feGaussianBlur stdDeviation="3" result="blur-13"/>
      <feFlood flood-color="#8e8e8e" flood-opacity="0.161"/>
      <feComposite operator="in" in2="blur-13"/>
      <feComposite in="SourceGraphic"/>
    </filter>
    <filter id="Path_3636" x="583.691" y="336.801" width="122.606" height="121.52" filterUnits="userSpaceOnUse">
      <feOffset dx="-12" dy="-12" input="SourceAlpha"/>
      <feGaussianBlur stdDeviation="3" result="blur-14"/>
      <feFlood flood-color="#fff" flood-opacity="0.161"/>
      <feComposite operator="in" in2="blur-14"/>
      <feComposite in="SourceGraphic"/>
    </filter>
    <filter id="Rectangle_1533-7" x="608.211" y="361.865" width="104.393" height="101.133" filterUnits="userSpaceOnUse">
      <feOffset dx="6" dy="6" input="SourceAlpha"/>
      <feGaussianBlur stdDeviation="3" result="blur-15"/>
      <feFlood flood-color="#8e8e8e" flood-opacity="0.161"/>
      <feComposite operator="in" in2="blur-15"/>
      <feComposite in="SourceGraphic"/>
    </filter>
    <filter id="Rectangle_1534-7" x="591.841" y="345.495" width="104.133" height="100.872" filterUnits="userSpaceOnUse">
      <feOffset dx="-12" dy="-12" input="SourceAlpha"/>
      <feGaussianBlur stdDeviation="3" result="blur-16"/>
      <feFlood flood-color="#fff" flood-opacity="0.161"/>
      <feComposite operator="in" in2="blur-16"/>
      <feComposite in="SourceGraphic"/>
    </filter>
    <filter id="Rectangle_1533-8" x="591.154" y="575.09" width="122.866" height="121.78" filterUnits="userSpaceOnUse">
      <feOffset dx="6" dy="6" input="SourceAlpha"/>
      <feGaussianBlur stdDeviation="3" result="blur-17"/>
      <feFlood flood-color="#8e8e8e" flood-opacity="0.161"/>
      <feComposite operator="in" in2="blur-17"/>
      <feComposite in="SourceGraphic"/>
    </filter>
    <filter id="Rectangle_1534-8" x="574.784" y="558.72" width="122.606" height="121.52" filterUnits="userSpaceOnUse">
      <feOffset dx="-12" dy="-12" input="SourceAlpha"/>
      <feGaussianBlur stdDeviation="3" result="blur-18"/>
      <feFlood flood-color="#fff" flood-opacity="0.161"/>
      <feComposite operator="in" in2="blur-18"/>
      <feComposite in="SourceGraphic"/>
    </filter>
    <filter id="Rectangle_1533-9" x="599.305" y="583.783" width="104.393" height="101.133" filterUnits="userSpaceOnUse">
      <feOffset dx="6" dy="6" input="SourceAlpha"/>
      <feGaussianBlur stdDeviation="3" result="blur-19"/>
      <feFlood flood-color="#8e8e8e" flood-opacity="0.161"/>
      <feComposite operator="in" in2="blur-19"/>
      <feComposite in="SourceGraphic"/>
    </filter>
    <filter id="Rectangle_1534-9" x="582.935" y="567.414" width="104.133" height="100.872" filterUnits="userSpaceOnUse">
      <feOffset dx="-12" dy="-12" input="SourceAlpha"/>
      <feGaussianBlur stdDeviation="3" result="blur-20"/>
      <feFlood flood-color="#fff" flood-opacity="0.161"/>
      <feComposite operator="in" in2="blur-20"/>
      <feComposite in="SourceGraphic"/>
    </filter>
    <linearGradient id="linear-gradient" x1="0.5" x2="0.5" y2="1" gradientUnits="objectBoundingBox">
      <stop offset="0" stop-color="#d1493b"/>
      <stop offset="1" stop-color="#69251e"/>
    </linearGradient>
    <filter id="Shape" x="616.027" y="605.418" width="61.122" height="61.123" filterUnits="userSpaceOnUse">
      <feOffset dy="6" input="SourceAlpha"/>
      <feGaussianBlur stdDeviation="3" result="blur-21"/>
      <feFlood flood-opacity="0.161"/>
      <feComposite operator="in" in2="blur-21"/>
      <feComposite in="SourceGraphic"/>
    </filter>
    <filter id="Rectangle_1533-10" x="265.46" y="615.887" width="122.866" height="121.78" filterUnits="userSpaceOnUse">
      <feOffset dx="6" dy="6" input="SourceAlpha"/>
      <feGaussianBlur stdDeviation="3" result="blur-22"/>
      <feFlood flood-color="#8e8e8e" flood-opacity="0.161"/>
      <feComposite operator="in" in2="blur-22"/>
      <feComposite in="SourceGraphic"/>
    </filter>
    <filter id="Path_3634" x="249.09" y="599.517" width="122.606" height="121.52" filterUnits="userSpaceOnUse">
      <feOffset dx="-12" dy="-12" input="SourceAlpha"/>
      <feGaussianBlur stdDeviation="3" result="blur-23"/>
      <feFlood flood-color="#fff" flood-opacity="0.161"/>
      <feComposite operator="in" in2="blur-23"/>
      <feComposite in="SourceGraphic"/>
    </filter>
    <filter id="Rectangle_1533-11" x="273.61" y="624.58" width="104.393" height="101.133" filterUnits="userSpaceOnUse">
      <feOffset dx="6" dy="6" input="SourceAlpha"/>
      <feGaussianBlur stdDeviation="3" result="blur-24"/>
      <feFlood flood-color="#8e8e8e" flood-opacity="0.161"/>
      <feComposite operator="in" in2="blur-24"/>
      <feComposite in="SourceGraphic"/>
    </filter>
    <filter id="Rectangle_1534-10" x="257.24" y="608.21" width="104.132" height="100.872" filterUnits="userSpaceOnUse">
      <feOffset dx="-12" dy="-12" input="SourceAlpha"/>
      <feGaussianBlur stdDeviation="3" result="blur-25"/>
      <feFlood flood-color="#fff" flood-opacity="0.161"/>
      <feComposite operator="in" in2="blur-25"/>
      <feComposite in="SourceGraphic"/>
    </filter>
    <filter id="Shape-2" x="288.012" y="647.944" width="65.763" height="57.665" filterUnits="userSpaceOnUse">
      <feOffset dy="6" input="SourceAlpha"/>
      <feGaussianBlur stdDeviation="3" result="blur-26"/>
      <feFlood flood-opacity="0.161"/>
      <feComposite operator="in" in2="blur-26"/>
      <feComposite in="SourceGraphic"/>
    </filter>
    <filter id="Path_3635" x="154.491" y="72.351" width="122.866" height="121.78" filterUnits="userSpaceOnUse">
      <feOffset dx="6" dy="6" input="SourceAlpha"/>
      <feGaussianBlur stdDeviation="3" result="blur-27"/>
      <feFlood flood-color="#8e8e8e" flood-opacity="0.161"/>
      <feComposite operator="in" in2="blur-27"/>
      <feComposite in="SourceGraphic"/>
    </filter>
    <filter id="Rectangle_1534-11" x="138.121" y="55.981" width="122.606" height="121.52" filterUnits="userSpaceOnUse">
      <feOffset dx="-12" dy="-12" input="SourceAlpha"/>
      <feGaussianBlur stdDeviation="3" result="blur-28"/>
      <feFlood flood-color="#fff" flood-opacity="0.161"/>
      <feComposite operator="in" in2="blur-28"/>
      <feComposite in="SourceGraphic"/>
    </filter>
    <filter id="Rectangle_1533-12" x="162.641" y="81.045" width="104.393" height="101.132" filterUnits="userSpaceOnUse">
      <feOffset dx="6" dy="6" input="SourceAlpha"/>
      <feGaussianBlur stdDeviation="3" result="blur-29"/>
      <feFlood flood-color="#8e8e8e" flood-opacity="0.161"/>
      <feComposite operator="in" in2="blur-29"/>
      <feComposite in="SourceGraphic"/>
    </filter>
    <filter id="Rectangle_1534-12" x="146.271" y="64.675" width="104.132" height="100.872" filterUnits="userSpaceOnUse">
      <feOffset dx="-12" dy="-12" input="SourceAlpha"/>
      <feGaussianBlur stdDeviation="3" result="blur-30"/>
      <feFlood flood-color="#fff" flood-opacity="0.161"/>
      <feComposite operator="in" in2="blur-30"/>
      <feComposite in="SourceGraphic"/>
    </filter>
  </defs>
  <g id="Group_31253" data-name="Group 31253" transform="translate(78.57 -222.671)">
    <g id="Group_31252" data-name="Group 31252" transform="translate(-78.57 222.671)">
      <g id="Ellipse_190" data-name="Ellipse 190" transform="matrix(-0.755, -0.656, 0.656, -0.755, 343.908, 814.358)" fill="none" stroke="#171e49" stroke-width="5">
        <ellipse cx="227.841" cy="340.248" rx="227.841" ry="340.248" stroke="none"/>
        <ellipse cx="227.841" cy="340.248" rx="225.341" ry="337.748" fill="none"/>
      </g>
      <g id="Ellipse_191" data-name="Ellipse 191" transform="matrix(-0.766, 0.643, -0.643, -0.766, 791.637, 512.438)" fill="none" stroke="#171e49" stroke-width="5">
        <ellipse cx="223.972" cy="334.47" rx="223.972" ry="334.47" stroke="none"/>
        <ellipse cx="223.972" cy="334.47" rx="221.472" ry="331.97" fill="none"/>
      </g>
      <g id="Character" transform="translate(225.54 210.429)">
        <g id="Group_54" data-name="Group 54" transform="translate(0 0)">
          <g id="Group_35" data-name="Group 35" transform="translate(258.634 171.74)">
            <path id="Path_85" data-name="Path 85" d="M253.943,301.965c5.571-9.2,32.324-9.048,34.746-4.962,0,0-13.255,42.848-28.027,38.406S253.943,301.965,253.943,301.965Z" transform="translate(-251.752 -294.335)" fill="#757575"/>
            <g id="Group_34" data-name="Group 34" clip-path="url(#clip-path)">
              <path id="Path_86" data-name="Path 86" d="M253.943,301.965c5.571-9.2,32.324-9.048,34.746-4.962,0,0-13.255,42.848-28.027,38.406S253.943,301.965,253.943,301.965Z" transform="translate(-251.752 -294.335)" fill="rgba(0,0,0,0.7)" opacity="0.5"/>
            </g>
            <path id="Path_88" data-name="Path 88" d="M253.943,301.965c5.571-9.2,32.324-9.048,34.746-4.962,0,0-13.255,42.848-28.027,38.406S253.943,301.965,253.943,301.965Z" transform="translate(-251.752 -294.335)" fill="none" stroke="#263238" stroke-linecap="round" stroke-linejoin="round" stroke-width="1"/>
          </g>
          <path id="Path_89" data-name="Path 89" d="M268.4,263.253s4.571,0,12.428,18.031a42.745,42.745,0,0,1,2.422,24.882l-3.028,34.305-27.355-3.936,7.2-32.437S251.734,278.091,268.4,263.253Z" transform="translate(7.474 -139.097)" fill="#fff" stroke="#263238" stroke-linecap="round" stroke-linejoin="round" stroke-width="1"/>
          <g id="Group_37" data-name="Group 37" transform="translate(172.822 146.64)">
            <path id="Path_90" data-name="Path 90" d="M315.618,332.472a13.2,13.2,0,0,1,2.832,8.083c0,4-7.624,83.819-31.155,111.6-4.93,5.833-10.563,9.369-16.978,9.446-19.917.214-29.562-15.585-42.238-52.235q-2.365-6.843-4.914-14.7C210.841,356.844,195.7,277.94,195.7,277.94s26.868,6.231,42.8,22.03c6.966,6.9,14.222,26.5,18.861,40.891,2.281,7.073,3.935,12.875,4.623,15.325.214.811.337,1.255.337,1.255a36.082,36.082,0,0,1,2.817-7.149c.015-.031.015-.046.031-.061a.518.518,0,0,0,.092-.184,87.393,87.393,0,0,1,12.63-17.376l5.8-22s2.051,4.011,11.329,5.435c9.293,1.424,23.423-10.4,23.423-10.4Z" transform="translate(-195.7 -277.94)" fill="#757575"/>
            <g id="Group_36" data-name="Group 36" clip-path="url(#clip-path-2)">
              <path id="Path_91" data-name="Path 91" d="M276.066,436.121c-4.93,5.833-10.563,9.369-16.978,9.446-19.917.214-29.562-15.585-42.238-52.235l.276-85.181s14.973,2.909,29.011,16.672c2.281,7.073,3.935,12.875,4.623,15.325-5.6,11.666-15.371,38.488-4.164,67.07C253.868,425.756,265.763,433.288,276.066,436.121Z" transform="translate(-184.471 -261.9)" fill="rgba(0,0,0,0.7)" opacity="0.3"/>
            </g>
            <path id="Path_93" data-name="Path 93" d="M315.618,332.472a13.2,13.2,0,0,1,2.832,8.083c0,4-7.624,83.819-31.155,111.6-4.93,5.833-10.563,9.369-16.978,9.446-19.917.214-29.562-15.585-42.238-52.235q-2.365-6.843-4.914-14.7C210.841,356.844,195.7,277.94,195.7,277.94s26.868,6.231,42.8,22.03c6.966,6.9,14.222,26.5,18.861,40.891,2.281,7.073,3.935,12.875,4.623,15.325.214.811.337,1.255.337,1.255a36.082,36.082,0,0,1,2.817-7.149c.015-.031.015-.046.031-.061a.518.518,0,0,0,.092-.184,87.393,87.393,0,0,1,12.63-17.376l5.8-22s2.051,4.011,11.329,5.435c9.293,1.424,23.423-10.4,23.423-10.4Z" transform="translate(-195.7 -277.94)" fill="none" stroke="#263238" stroke-linecap="round" stroke-linejoin="round" stroke-width="1"/>
          </g>
          <g id="Group_39" data-name="Group 39" transform="translate(52.528 131.664)">
            <path id="Path_94" data-name="Path 94" d="M117.125,272.762s27.571,3.876,45.368-3.967,5.257,59.383-20.27,49.693S117.125,272.762,117.125,272.762Z" transform="translate(-117.125 -268.157)" fill="#999"/>
            <g id="Group_38" data-name="Group 38" clip-path="url(#clip-path-3)">
              <path id="Path_95" data-name="Path 95" d="M117.125,272.762s27.571,3.876,45.368-3.967,5.257,59.383-20.27,49.693S117.125,272.762,117.125,272.762Z" transform="translate(-117.125 -268.157)" fill="rgba(0,0,0,0.7)" opacity="0.5"/>
            </g>
            <path id="Path_97" data-name="Path 97" d="M117.125,272.762s27.571,3.876,45.368-3.967,5.257,59.383-20.27,49.693S117.125,272.762,117.125,272.762Z" transform="translate(-117.125 -268.157)" fill="none" stroke="#263238" stroke-linecap="round" stroke-linejoin="round" stroke-width="1"/>
          </g>
          <g id="Group_41" data-name="Group 41" transform="translate(5.826 141.094)">
            <path id="Path_98" data-name="Path 98" d="M306.753,570.48c-4.057-.413-8.083-.873-12.11-1.378q-4.822-.6-9.614-1.317c-4.9-.7,6,17.638,1.116,16.781-.046-.015-15.7,9.463-15.746,9.447a107.365,107.365,0,0,1-19.8-6.148c-2.026-.841-5.827-3.875-7.8-4.349-26.943-6.474-47.319-38.7-70.927-51.662a253.947,253.947,0,0,1-32.226-20.928c-19.519-51.21-62.4-169.153-51.194-189.3,13.7-24.679,42.943-44.412,96.541-47.076,49.709-2.48,90.692,15.141,100.49,35.625,9.354,19.55,8.971,150.705,6.6,211.59-.107,2.893-.23,5.619-.352,8.175l1.684,5.006Z" transform="translate(-86.619 -274.317)" fill="#171e49"/>
            <g id="Group_40" data-name="Group 40" clip-path="url(#clip-path-4)">
              <path id="Path_99" data-name="Path 99" d="M245.791,539.616c-4.057-.413-8.083-.873-12.11-1.378q-4.822-.6-9.614-1.317-7.348-1.056-14.666-2.342l-7.961-31.246s6.154-33.313,5.419-39.207c-.75-5.909-5.419-10.548-5.419-10.548,8.987-28.552,0-105.512,0-105.512l13.595-15.615L231.125,490.9l1.332,13.181Z" transform="translate(-25.657 -243.453)" fill="rgba(0,0,0,0.7)" opacity="0.3"/>
            </g>
            <path id="Path_101" data-name="Path 101" d="M306.753,570.48c-4.057-.413-8.083-.873-12.11-1.378q-4.822-.6-9.614-1.317-7.348-1.056-14.666-2.342c-.046-.015-.107-.015-.153-.031-11.907-2.122-23.584-4.768-35.178-8.031a299.7,299.7,0,0,1-63.154-25.527,253.947,253.947,0,0,1-32.226-20.928c-19.519-51.21-62.4-169.153-51.194-189.3,13.7-24.679,42.943-44.412,96.541-47.076,49.709-2.48,90.692,15.141,100.49,35.625,9.354,19.55,8.971,150.705,6.6,211.59-.107,2.893-.23,5.619-.352,8.175l1.684,5.006Z" transform="translate(-86.619 -274.317)" fill="none" stroke="#263238" stroke-linecap="round" stroke-linejoin="round" stroke-width="1"/>
          </g>
          <path id="Path_102" data-name="Path 102" d="M258,572.221c-5.159-.474-10.121,9.551-15.235,8.908-3.215-.4-5.741,4.929-8.941,4.454-3.123-26.546-8.053-82.619-12.125-120.831v-.015c-3.307-30.879-6.476-61.743-8.772-86.329-.337-3.674-.674-7.2-.98-10.564-.811-9.247-1.485-17.3-1.929-23.714-.046-.521-.077-1.01-.107-1.5-.214-3.123-.367-5.833-.459-8.037-.689-16.764-4.486-29.486-8.925-38.809C193.267,280.5,184.25,274.32,184.25,274.32a140.751,140.751,0,0,1,24.082,6.813c8.7,3.353,18.172,8.083,25.49,14.605a43.375,43.375,0,0,1,5.144,5.343,35.405,35.405,0,0,1,3.8,5.649c13.334,24.832,7.272,216.7,7.272,216.7Z" transform="translate(-28.957 -133.222)" fill="#757575" stroke="#263238" stroke-linecap="round" stroke-linejoin="round" stroke-width="1"/>
          <g id="Group_43" data-name="Group 43" transform="translate(119.821 128.498)">
            <path id="Path_103" data-name="Path 103" d="M221.981,343.234s-6.506-25.766-14.682-42.116c-2.4-4.792-4.945-8.772-7.5-11.069C189.77,281.093,161.08,278.8,161.08,278.8a23.355,23.355,0,0,1,8.665-9.4c12.63-7.639,31.935-1.562,47.566,13.243C237.213,301.5,221.981,343.234,221.981,343.234Z" transform="translate(-161.08 -266.089)" fill="#999"/>
            <g id="Group_42" data-name="Group 42" clip-path="url(#clip-path-5)">
              <path id="Path_104" data-name="Path 104" d="M207.3,299.971c-2.4-4.792-4.945-8.772-7.5-11.069-10.028-8.956-38.717-11.252-38.717-11.252a23.355,23.355,0,0,1,8.665-9.4c9.155.521,18.754,1.761,24.571,4.455C203.885,277.145,207.988,287.234,207.3,299.971Z" transform="translate(-161.08 -264.942)" fill="rgba(0,0,0,0.7)" opacity="0.5"/>
            </g>
            <path id="Path_106" data-name="Path 106" d="M221.981,343.234s-6.506-25.766-14.682-42.116c-2.4-4.792-4.945-8.772-7.5-11.069C189.77,281.093,161.08,278.8,161.08,278.8a23.355,23.355,0,0,1,8.665-9.4c12.63-7.639,31.935-1.562,47.566,13.243C237.213,301.5,221.981,343.234,221.981,343.234Z" transform="translate(-161.08 -266.089)" fill="none" stroke="#263238" stroke-linecap="round" stroke-linejoin="round" stroke-width="1"/>
          </g>
          <g id="Group_44" data-name="Group 44" transform="translate(58.181)">
            <path id="Path_107" data-name="Path 107" d="M133.519,251.54s12.174,16.072,2.673,46.058c0,0,24.232,10.392,50.472,1.782,0,0-9.965-16.488-5.544-34.144S145.341,231.114,133.519,251.54Z" transform="translate(-114.073 -150.335)" fill="#fff" stroke="#263238" stroke-linecap="round" stroke-linejoin="round" stroke-width="1"/>
            <path id="Path_108" data-name="Path 108" d="M129.817,256.1c-9.68-41.487,10.372-59.463,23.509-64.9,21.046-8.708,48.4,4.979,54.624,28.025s.614,28.293.9,37.722c.2,6.614,4.281,9.87-.214,26.464-2.964,10.948-7.9,28.517-26.62,25.369a62.447,62.447,0,0,1-16.545-5.383" transform="translate(-117.393 -178.758)" fill="#fff" stroke="#263238" stroke-linecap="round" stroke-linejoin="round" stroke-width="1"/>
            <path id="Path_109" data-name="Path 109" d="M168.752,219.547s-7.782-2.892-11.938,6.237" transform="translate(-101.705 -162.533)" fill="none" stroke="#263238" stroke-linecap="round" stroke-linejoin="round" stroke-width="1"/>
            <path id="Path_110" data-name="Path 110" d="M185.91,219.136s-5.787-5.285-11.588,2.191" transform="translate(-92.409 -163.483)" fill="none" stroke="#263238" stroke-linecap="round" stroke-linejoin="round" stroke-width="1"/>
            <path id="Path_111" data-name="Path 111" d="M164.939,232.081c0,1.929-.863,3.492-1.929,3.492s-1.931-1.563-1.931-3.492.865-3.491,1.931-3.491S164.939,230.153,164.939,232.081Z" transform="translate(-99.44 -157.501)" fill="#263238"/>
            <path id="Path_112" data-name="Path 112" d="M179.45,230.833c0,1.929-.865,3.492-1.93,3.492s-1.931-1.563-1.931-3.492.865-3.491,1.931-3.491S179.45,228.905,179.45,230.833Z" transform="translate(-91.737 -158.164)" fill="#263238"/>
            <path id="Path_113" data-name="Path 113" d="M145.7,230.87s12.388,29.989,14.919,31.579c5.675,3.562,18.435-18.619,30.936-13.944,0,0,5.6-2.682,7.108-1.269,8.209,7.7,4.235-3.14,4.235-3.14s12.417,28.135,4.847,38.379c-15.141,20.484-44.313,9.129-52.107.891s-8.016-31.857-8.016-31.857.885-7.413-5.989-16.45Z" transform="translate(-109.766 -156.291)" fill="#263238"/>
            <path id="Path_114" data-name="Path 114" d="M158.4,260.226s-1.208-8.073,8.44-17.166c0,0-1.686-14.438-8.487-19.783,0,0,28.948-15.868,52.046-3.7,0,0,21.254-10.548-7.664-29.7s-75.679-.906-81.913,35.175c0,0,3.562-4.891,7.57-6.673,0,0-18.117,29.412,16.326,75.051C144.713,293.429,144.761,266.891,158.4,260.226Z" transform="translate(-120.817 -182.155)" fill="#263238"/>
            <path id="Path_115" data-name="Path 115" d="M175.081,224.291s-.834,10.738,5.62,18.956c6.4,8.152,2.284,9.766-6.511,8.455-7.2-1.073-3.786-4.219-3.786-4.219" transform="translate(-94.918 -159.784)" fill="#fff" stroke="#263238" stroke-linecap="round" stroke-linejoin="round" stroke-width="1"/>
            <path id="Path_116" data-name="Path 116" d="M151.04,241.321s-7.606-14.175-15.557-10.718-2.419,20.4,4.495,25.929,11.063,0,11.063,0" transform="translate(-115.108 -156.72)" fill="#fff" stroke="#263238" stroke-linecap="round" stroke-linejoin="round" stroke-width="1"/>
            <path id="Path_117" data-name="Path 117" d="M175.561,247.339c-3.151.577-5,4.616-5.3,7.191s1.967,7.687,5,7.232,1.234-7.293,1.234-7.293S179.5,246.618,175.561,247.339Z" transform="translate(-94.579 -147.571)" fill="#fff"/>
          </g>
          <g id="Group_46" data-name="Group 46" transform="translate(0 145.048)">
            <path id="Path_118" data-name="Path 118" d="M180.1,468.267c-.735,7.394-1.47,14.682-2.189,21.709-1.255,12.018-2.679,26.745-4.011,40.509a249.738,249.738,0,0,1-62.508-48.255c.138-4.057.122-7.762-.092-10.916a190.3,190.3,0,0,0-2.985-19.657C104.67,432.55,98.408,405.743,93,381.708c-5.68-25.337-10.441-47.6-10.181-54.532.612-16.366,24.832-41.442,53.9-50.276,0,0,44.841,30.894,50.291,64.207C189.82,358.3,185.212,416.215,180.1,468.267Z" transform="translate(-82.813 -276.9)" fill="#757575"/>
            <g id="Group_45" data-name="Group 45" clip-path="url(#clip-path-6)">
              <path id="Path_119" data-name="Path 119" d="M176.565,431.919c-.735,7.394-1.47,14.682-2.189,21.709-.321.107-.643.184-.98.26-23.515,5.3-51.516-19.81-68.616-38.579C101.136,396.2,94.874,369.4,89.47,345.36l15.845,10.609S160.107,402.831,176.565,431.919Z" transform="translate(-79.279 -240.552)" fill="rgba(0,0,0,0.7)" opacity="0.3"/>
            </g>
            <path id="Path_121" data-name="Path 121" d="M180.1,468.267c-.735,7.394-1.47,14.682-2.189,21.709-1.255,12.018-2.679,26.745-4.011,40.509a249.738,249.738,0,0,1-62.508-48.255c.138-4.057.122-7.762-.092-10.916a190.3,190.3,0,0,0-2.985-19.657C104.67,432.55,98.408,405.743,93,381.708c-5.68-25.337-10.441-47.6-10.181-54.532.612-16.366,24.832-41.442,53.9-50.276,0,0,44.841,30.894,50.291,64.207C189.82,358.3,185.212,416.215,180.1,468.267Z" transform="translate(-82.813 -276.9)" fill="none" stroke="#263238" stroke-linecap="round" stroke-linejoin="round" stroke-width="1"/>
          </g>
          <path id="Path_122" data-name="Path 122" d="M216.739,282.415a7.2,7.2,0,0,0,8.576,4.882" transform="translate(-11.708 -128.924)" fill="none" stroke="#263238" stroke-linecap="round" stroke-linejoin="round" stroke-width="1"/>
          <g id="Group_48" data-name="Group 48" transform="translate(159.503 162.811)">
            <path id="Path_123" data-name="Path 123" d="M193.944,290.692c2.544-4.608,9.812-2.387,18.29,10.937s11.943,28.863,9.893,34.521-29.475,12.517-29.475,12.517L187,334.335Z" transform="translate(-187 -288.503)" fill="#757575"/>
            <g id="Group_47" data-name="Group 47" clip-path="url(#clip-path-7)">
              <path id="Path_124" data-name="Path 124" d="M193.944,290.692c2.544-4.608,9.812-2.387,18.29,10.937s11.943,28.863,9.893,34.521-29.475,12.517-29.475,12.517L187,334.335Z" transform="translate(-187 -288.503)" fill="rgba(0,0,0,0.7)" opacity="0.5"/>
            </g>
            <path id="Path_126" data-name="Path 126" d="M193.944,290.692c2.544-4.608,9.812-2.387,18.29,10.937s11.943,28.863,9.893,34.521-29.475,12.517-29.475,12.517L187,334.335Z" transform="translate(-187 -288.503)" fill="none" stroke="#263238" stroke-linecap="round" stroke-linejoin="round" stroke-width="1"/>
          </g>
          <g id="Group_49" data-name="Group 49" transform="translate(155.285 118.402)">
            <path id="Path_127" data-name="Path 127" d="M232.353,272.123s4.607,0,5.011,3.357-6.436,7.722-6.436,7.722" transform="translate(-159.459 -252.79)" fill="#fff" stroke="#263238" stroke-linecap="round" stroke-linejoin="round" stroke-width="1"/>
            <path id="Path_128" data-name="Path 128" d="M184.245,334.191l25.617-48.048s16.958-20.45,23.821-22.944,44.414-3.7,44.414-3.7,1.549,4.066-4.271,6.07-23.573,3.722-23.573,3.722,5.234,2.26,6.445,4.108,0,17.068-2.422,20.156-11.709,5.916-11.709,5.916-1.228,10.671-10.3,16.035-13.518,5.364-13.518,5.364l-12.517,41.992Z" transform="translate(-184.245 -259.495)" fill="#fff" stroke="#263238" stroke-linecap="round" stroke-linejoin="round" stroke-width="1"/>
            <path id="Path_129" data-name="Path 129" d="M217.033,271.165s13.172,1.514,14.838,2.725.871,10.6,0,13.9S229,291.917,229,291.917" transform="translate(-166.837 -253.299)" fill="none" stroke="#263238" stroke-linecap="round" stroke-linejoin="round" stroke-width="1"/>
            <path id="Path_130" data-name="Path 130" d="M220.533,266.084s12.962,3.236,13.719,4.9,1.666,8.832.606,13.954-1.366,6.721-3.345,7.694" transform="translate(-164.979 -255.997)" fill="none" stroke="#263238" stroke-linecap="round" stroke-linejoin="round" stroke-width="1"/>
            <path id="Path_131" data-name="Path 131" d="M229.327,266.557a44.379,44.379,0,0,0-5.668-1.92" transform="translate(-163.319 -256.765)" fill="none" stroke="#263238" stroke-linecap="round" stroke-linejoin="round" stroke-width="1"/>
            <path id="Path_132" data-name="Path 132" d="M226.04,277.942s-2.607,3.656-8.864,4.059c0,0,2.832,10.9-2.218,17.969" transform="translate(-167.938 -249.701)" fill="none" stroke="#263238" stroke-linecap="round" stroke-linejoin="round" stroke-width="1"/>
            <path id="Path_133" data-name="Path 133" d="M220.533,279.36s2.933,2.373,2.547,3.644" transform="translate(-164.979 -248.948)" fill="none" stroke="#263238" stroke-linecap="round" stroke-linejoin="round" stroke-width="1"/>
          </g>
          <g id="Group_52" data-name="Group 52" transform="translate(241.439 89.056)">
            <g id="Group_51" data-name="Group 51">
              <path id="Path_134" data-name="Path 134" d="M263.732,310.735l-17.779,5.9c-1.88.482-5.592-2.656-5.427-4.59l5.274-62.139a5.924,5.924,0,0,1,4.427-5.236l19.7-4.277c1.879-.482,6.611,1.767,6.447,3.7L268.159,305.5A5.927,5.927,0,0,1,263.732,310.735Z" transform="translate(-240.521 -240.326)" fill="#92e3a9"/>
              <g id="Group_50" data-name="Group 50" clip-path="url(#clip-path-8)">
                <path id="Path_135" data-name="Path 135" d="M263.732,310.735l-17.779,5.9c-1.88.482-5.592-2.656-5.427-4.59l5.274-62.139a5.924,5.924,0,0,1,4.427-5.236l19.7-4.277c1.879-.482,6.611,1.767,6.447,3.7L268.159,305.5A5.927,5.927,0,0,1,263.732,310.735Z" transform="translate(-240.521 -240.326)" fill="rgba(0,0,0,0.7)" opacity="0.3"/>
              </g>
              <path id="Path_137" data-name="Path 137" d="M263.732,310.735l-17.779,5.9c-1.88.482-5.592-2.656-5.427-4.59l5.274-62.139a5.924,5.924,0,0,1,4.427-5.236l19.7-4.277c1.879-.482,6.611,1.767,6.447,3.7L268.159,305.5A5.927,5.927,0,0,1,263.732,310.735Z" transform="translate(-240.521 -240.326)" fill="none" stroke="#263238" stroke-linecap="round" stroke-linejoin="round" stroke-width="1"/>
            </g>
            <path id="Path_138" data-name="Path 138" d="M265.646,311.744l-19.7,4.277a2.818,2.818,0,0,1-3.509-2.968l5.274-62.139a5.923,5.923,0,0,1,4.427-5.236l19.7-4.277a2.818,2.818,0,0,1,3.509,2.967l-5.274,62.141A5.925,5.925,0,0,1,265.646,311.744Z" transform="translate(-239.507 -239.803)" fill="#92e3a9" stroke="#263238" stroke-linecap="round" stroke-linejoin="round" stroke-width="1"/>
            <path id="Path_139" data-name="Path 139" d="M251.758,259.034l-3.177.689a.453.453,0,0,1-.565-.478l.85-10.022a.957.957,0,0,1,.715-.845l3.177-.689a.453.453,0,0,1,.565.478l-.85,10.021A.958.958,0,0,1,251.758,259.034Z" transform="translate(-236.541 -236.424)" fill="rgba(0,0,0,0.7)" opacity="0.3"/>
          </g>
          <g id="Group_53" data-name="Group 53" transform="translate(243.675 121.026)">
            <path id="Path_140" data-name="Path 140" d="M282.665,283c.766-8.713-7.166-21.788-12.439-21.788s-21.338,12.367-21.338,12.367c-6.216,4.506-3.137,8.794-3.137,8.794-3.657,2.417-4.656,5.686-2.987,7.2,1.868,1.7,6.987,0,6.987,0s-5.326,3.9-4,5.807c3.137,4.521,13.461-1.444,13.461-1.444s-5.992,3.951-5.648,4.7c2.258,4.934,12.042-.818,12.042-.818l6.878,3.523a5.883,5.883,0,0,0,6.266,5.911" transform="translate(-241.981 -261.209)" fill="#fff" stroke="#263238" stroke-linecap="round" stroke-linejoin="round" stroke-width="1"/>
            <path id="Path_141" data-name="Path 141" d="M244.444,279.107s15.037-9.715,16.932-9.979,8.861-1.774,8.861-1.774" transform="translate(-240.674 -257.946)" fill="#fff" stroke="#263238" stroke-linecap="round" stroke-linejoin="round" stroke-width="1"/>
            <path id="Path_142" data-name="Path 142" d="M247.057,282.519s12.215-6.307,14.45-6.307c2.348,0,9.979-1.721,9.979-1.721" transform="translate(-239.286 -254.157)" fill="#fff" stroke="#263238" stroke-linecap="round" stroke-linejoin="round" stroke-width="1"/>
            <path id="Path_143" data-name="Path 143" d="M253.237,283.572a30.239,30.239,0,0,1,4.518-2.664c1.272-.409,8.755,0,8.755,0" transform="translate(-236.005 -250.847)" fill="#fff" stroke="#263238" stroke-linecap="round" stroke-linejoin="round" stroke-width="1"/>
          </g>
          <path id="Path_144" data-name="Path 144" d="M180.63,352.788S151.669,303,105.882,293.072l-10.991,8.547S92.8,293.946,114,274.007s53.3,19.986,62.986,39.391S180.63,352.788,180.63,352.788Z" transform="translate(-76.431 -136.272)" fill="#999" stroke="#263238" stroke-linecap="round" stroke-linejoin="round" stroke-width="1"/>
          <path id="Path_145" data-name="Path 145" d="M129.375,302.657c19.115,12.6,30.662,43.032,30.662,43.032l29.841,55.5s25.093-61.779,32.2-62.571l26.778-48.688s-3.166,28.535,7.995,40.648,20.188,4.81,20.188,4.81l-8.334,23.015-2.074,10.935s-35.2,105.6-46.707,112.136-37.688,9.469-59.887-6.788-68.206-80.426-71.8-100.536-13.471-63.708,14.428-74.812" transform="translate(-82.41 -124.932)" fill="#757575" stroke="#263238" stroke-linecap="round" stroke-linejoin="round" stroke-width="1"/>
          <path id="Path_146" data-name="Path 146" d="M141.2,297.375a35.669,35.669,0,0,1,3.172,6.557" transform="translate(-51.817 -120.981)" fill="none" stroke="#263238" stroke-linecap="round" stroke-linejoin="round" stroke-width="1"/>
          <path id="Path_147" data-name="Path 147" d="M111.418,275.31c18.018,1.349,31.655,18.168,43.227,30.257" transform="translate(-67.626 -132.696)" fill="none" stroke="#263238" stroke-linecap="round" stroke-linejoin="round" stroke-width="1"/>
          <path id="Path_148" data-name="Path 148" d="M102.4,278.058a27.629,27.629,0,0,1,9.522-2.725" transform="translate(-72.412 -132.684)" fill="none" stroke="#263238" stroke-linecap="round" stroke-linejoin="round" stroke-width="1"/>
          <path id="Path_149" data-name="Path 149" d="M184.462,275.268a28.038,28.038,0,0,0-7.612-3.145" transform="translate(-32.886 -134.388)" fill="none" stroke="#263238" stroke-linecap="round" stroke-linejoin="round" stroke-width="1"/>
          <path id="Path_150" data-name="Path 150" d="M193.09,292.168a24.619,24.619,0,0,0-9.219-16.6" transform="translate(-29.159 -132.556)" fill="none" stroke="#263238" stroke-linecap="round" stroke-linejoin="round" stroke-width="1"/>
          <path id="Path_151" data-name="Path 151" d="M182.009,328.061c-.966-1.447-1.855-2.944-2.673-4.479" transform="translate(-31.566 -107.067)" fill="none" stroke="#263238" stroke-linecap="round" stroke-linejoin="round" stroke-width="1"/>
          <path id="Path_152" data-name="Path 152" d="M202.664,339.64a30.347,30.347,0,0,1-19.743-10.683" transform="translate(-29.663 -104.213)" fill="none" stroke="#263238" stroke-linecap="round" stroke-linejoin="round" stroke-width="1"/>
          <path id="Path_153" data-name="Path 153" d="M207.752,334.659a26.862,26.862,0,0,1-9.375,2.087" transform="translate(-21.457 -101.186)" fill="none" stroke="#263238" stroke-linecap="round" stroke-linejoin="round" stroke-width="1"/>
          <path id="Path_154" data-name="Path 154" d="M147.912,378.593a27.592,27.592,0,0,0,.611,7.572" transform="translate(-48.271 -77.86)" fill="none" stroke="#263238" stroke-linecap="round" stroke-linejoin="round" stroke-width="1"/>
          <path id="Path_155" data-name="Path 155" d="M155.549,362.607a61.233,61.233,0,0,0-7.318,19.9" transform="translate(-48.081 -86.347)" fill="none" stroke="#263238" stroke-linecap="round" stroke-linejoin="round" stroke-width="1"/>
          <path id="Path_156" data-name="Path 156" d="M142.231,372.546s5.426-6.8,11.612-9.939" transform="translate(-51.267 -86.347)" fill="none" stroke="#263238" stroke-linecap="round" stroke-linejoin="round" stroke-width="1"/>
          <path id="Path_157" data-name="Path 157" d="M111.418,316.52s16.79-2.246,30.113,13.112" transform="translate(-67.626 -110.877)" fill="none" stroke="#263238" stroke-linecap="round" stroke-linejoin="round" stroke-width="1"/>
          <path id="Path_158" data-name="Path 158" d="M99.82,347.68a15.767,15.767,0,0,0,9.411-1.526" transform="translate(-73.784 -95.083)" fill="none" stroke="#263238" stroke-linecap="round" stroke-linejoin="round" stroke-width="1"/>
          <path id="Path_159" data-name="Path 159" d="M86.618,338.835c4.282,4.959,9.807,9.427,16.006,11.673" transform="translate(-80.793 -98.968)" fill="none" stroke="#263238" stroke-linecap="round" stroke-linejoin="round" stroke-width="1"/>
          <path id="Path_160" data-name="Path 160" d="M232.974,346.856c-1.427,7.477-1.485,15.586,1.973,22.545" transform="translate(-3.575 -94.71)" fill="none" stroke="#263238" stroke-linecap="round" stroke-linejoin="round" stroke-width="1"/>
          <path id="Path_161" data-name="Path 161" d="M242.338,329.868a85.738,85.738,0,0,0-8.99,21.4" transform="translate(-2.89 -103.729)" fill="none" stroke="#263238" stroke-linecap="round" stroke-linejoin="round" stroke-width="1"/>
          <path id="Path_162" data-name="Path 162" d="M230.928,339.289s2.8-7.705,10.372-9.421" transform="translate(-4.174 -103.729)" fill="none" stroke="#263238" stroke-linecap="round" stroke-linejoin="round" stroke-width="1"/>
          <path id="Path_163" data-name="Path 163" d="M257.943,318.866a26.868,26.868,0,0,1-5.075-3.569" transform="translate(7.474 -111.466)" fill="none" stroke="#263238" stroke-linecap="round" stroke-linejoin="round" stroke-width="1"/>
          <path id="Path_164" data-name="Path 164" d="M282.287,313.56c-5.931,6.343-15.179,10.49-23.8,7.728" transform="translate(10.457 -112.388)" fill="none" stroke="#263238" stroke-linecap="round" stroke-linejoin="round" stroke-width="1"/>
          <path id="Path_165" data-name="Path 165" d="M144.288,286.49s27.872,6.477,43.4-3.905" transform="translate(-50.174 -128.833)" fill="none" stroke="#263238" stroke-linecap="round" stroke-linejoin="round" stroke-width="1"/>
          <path id="Path_166" data-name="Path 166" d="M225.7,398.71s-13.856,39.558-48.984,46.827" transform="translate(-32.958 -67.179)" fill="none" stroke="#263238" stroke-linecap="round" stroke-linejoin="round" stroke-width="1"/>
          <path id="Path_167" data-name="Path 167" d="M143.267,435.363s29.536,23.048,70.579,21" transform="translate(-50.717 -47.719)" fill="none" stroke="#263238" stroke-linecap="round" stroke-linejoin="round" stroke-width="1"/>
          <path id="Path_168" data-name="Path 168" d="M241.187,325.055a1.418,1.418,0,0,1-.107.168.518.518,0,0,0,.092-.184A.015.015,0,0,1,241.187,325.055Z" transform="translate(1.216 -106.293)" fill="rgba(0,0,0,0.7)" opacity="0.3"/>
        </g>
      </g>
    </g>
    <g id="Group_31249" data-name="Group 31249" transform="translate(17.484 760.305)" opacity="0.58">
      <g id="Group_26877" data-name="Group 26877" transform="translate(0 0)">
        <g id="Group_5" data-name="Group 5" transform="translate(0 0)">
          <g id="Group_26757" data-name="Group 26757">
            <g transform="matrix(1, 0, 0, 1, -96.05, -537.63)" filter="url(#Rectangle_1533)" style="mix-blend-mode: multiply;isolation: isolate">
              <rect id="Rectangle_1533-13" data-name="Rectangle 1533" width="104.866" height="103.78" rx="33" transform="translate(96.05 537.63)" fill="red" opacity="0.6"/>
            </g>
            <g transform="matrix(1, 0, 0, 1, -96.05, -537.63)" filter="url(#Rectangle_1534)" style="mix-blend-mode: color-dodge;isolation: isolate">
              <rect id="Rectangle_1534-13" data-name="Rectangle 1534" width="101.606" height="100.52" rx="33" transform="translate(97.68 539.26)" fill="#f2f3f7" opacity="0.8"/>
            </g>
          </g>
          <g id="Group_26758" data-name="Group 26758" transform="translate(8.15 8.694)">
            <g transform="matrix(1, 0, 0, 1, -104.2, -546.33)" filter="url(#Rectangle_1533-2)" style="mix-blend-mode: multiply;isolation: isolate">
              <rect id="Rectangle_1533-14" data-name="Rectangle 1533" width="86.393" height="83.132" rx="33" transform="translate(104.2 546.33)" fill="#e4e4e4" opacity="0.6"/>
            </g>
            <g transform="matrix(1, 0, 0, 1, -104.2, -546.33)" filter="url(#Rectangle_1534-2)" style="mix-blend-mode: color-dodge;isolation: isolate">
              <rect id="Rectangle_1534-14" data-name="Rectangle 1534" width="83.132" height="79.872" rx="33" transform="translate(105.83 547.96)" fill="#e4e4e4" opacity="0.8"/>
            </g>
          </g>
        </g>
      </g>
      <g id="Group_26879" data-name="Group 26879" transform="translate(31.786 37.977)">
        <path id="Fill-1" d="M40.432,4.345A5.078,5.078,0,0,0,36.781.831C33.561,0,20.647,0,20.647,0S7.734,0,4.514.831A5.078,5.078,0,0,0,.863,4.345C0,7.445,0,13.912,0,13.912S0,20.38.863,23.48a5.079,5.079,0,0,0,3.651,3.514c3.22.83,16.134.83,16.134.83s12.913,0,16.133-.83a5.079,5.079,0,0,0,3.651-3.514c.863-3.1.863-9.567.863-9.567s0-6.468-.863-9.567" transform="translate(0 0)" fill="red"/>
        <path id="Fill-2" d="M0,12.1V0L10.324,6.049Z" transform="translate(16.776 8.468)" fill="#fff"/>
      </g>
    </g>
    <g id="Group_26903" data-name="Group 26903" transform="translate(11.347 548.103)" opacity="0.58">
      <g id="Tik_Tok" data-name="Tik Tok" transform="translate(31.673 28.526)">
        <g id="Tik_Tok-2" data-name="Tik Tok" transform="translate(0 0)">
          <path id="Path" d="M16.165,1.972V.14A14.233,14.233,0,0,0,6.081,25.909,14.232,14.232,0,0,1,16.165,1.972" transform="translate(0 16.526)" fill="#00f2ea"/>
          <path id="Shape-3" data-name="Shape" d="M5.274,39.241A6.5,6.5,0,0,1,0,36.53a6.5,6.5,0,0,0,9.511-5.513L9.524,0h7.738a10.741,10.741,0,0,0,.182,1.963H11.779l-.012,31.015a6.508,6.508,0,0,1-6.493,6.262Zm22.755-26.75h0a10.842,10.842,0,0,1-5.862-3.466,10.676,10.676,0,0,0,5.854,1.743h.009V12.49Z" transform="translate(11.227)" fill="#00f2ea"/>
          <path id="Shape-4" data-name="Shape" d="M3.483,34.563A6.5,6.5,0,0,1,6.505,22.3a6.38,6.38,0,0,1,1.919.3V16.534l.121,0c.07,0,.143-.005.215-.005a14.049,14.049,0,0,1,1.919.14v7.9a6.491,6.491,0,0,0-7.2,10ZM25.648,7.055a10.725,10.725,0,0,1-3.079-3.041A10.73,10.73,0,0,1,20.932,0h2.074a10.719,10.719,0,0,0,2.643,7.053Z" transform="translate(7.739 1.965)" fill="#ff004f"/>
          <path id="Path-2" data-name="Path" d="M33.175,0V6.016A18.407,18.407,0,0,1,22.407,2.553V18.281A14.232,14.232,0,0,1,0,29.944a14.235,14.235,0,0,0,24.664-9.7V4.518A18.406,18.406,0,0,0,35.431,7.981V.24A10.753,10.753,0,0,1,33.175,0" transform="translate(6.082 12.49)" fill="#ff004f"/>
          <path id="Path-3" data-name="Path" d="M26.233,28.806V13.079A18.4,18.4,0,0,0,37,16.541V10.526a10.771,10.771,0,0,1-5.863-3.468,10.787,10.787,0,0,1-3.085-3.045A10.788,10.788,0,0,1,26.415,0H20.749l-.012,31.015a6.493,6.493,0,0,1-11.767,3.55A6.5,6.5,0,0,1,11.989,22.3a6.369,6.369,0,0,1,1.92.3V16.534A14.232,14.232,0,0,0,3.825,40.47,14.233,14.233,0,0,0,26.233,28.806" transform="translate(2.257 1.965)" fill="#fff"/>
        </g>
      </g>
      <g id="Group_26887" data-name="Group 26887" transform="translate(0 0)">
        <g id="Group_26775" data-name="Group 26775" transform="translate(0 0)">
          <g id="Group_5-2" data-name="Group 5">
            <g id="Group_26757-2" data-name="Group 26757">
              <g transform="matrix(1, 0, 0, 1, -89.92, -325.43)" filter="url(#Rectangle_1533-3)" style="mix-blend-mode: multiply;isolation: isolate">
                <rect id="Rectangle_1533-15" data-name="Rectangle 1533" width="104.866" height="103.78" rx="33" transform="translate(89.92 325.43)" fill="#fb00f5" opacity="0.6"/>
              </g>
              <g transform="matrix(1, 0, 0, 1, -89.92, -325.43)" filter="url(#Rectangle_1534-3)" style="mix-blend-mode: color-dodge;isolation: isolate">
                <rect id="Rectangle_1534-15" data-name="Rectangle 1534" width="101.606" height="100.52" rx="33" transform="translate(91.55 327.06)" fill="#f2f3f7" opacity="0.8"/>
              </g>
            </g>
            <g id="Group_26758-2" data-name="Group 26758" transform="translate(8.15 8.694)">
              <g transform="matrix(1, 0, 0, 1, -98.07, -334.12)" filter="url(#Rectangle_1533-4)" style="mix-blend-mode: multiply;isolation: isolate">
                <rect id="Rectangle_1533-16" data-name="Rectangle 1533" width="86.393" height="83.132" rx="33" transform="translate(98.07 334.12)" fill="#e4e4e4" opacity="0.6"/>
              </g>
              <g transform="matrix(1, 0, 0, 1, -98.07, -334.12)" filter="url(#Rectangle_1534-4)" style="mix-blend-mode: color-dodge;isolation: isolate">
                <rect id="Rectangle_1534-16" data-name="Rectangle 1534" width="83.132" height="79.872" rx="33" transform="translate(99.7 335.75)" fill="#e4e4e4" opacity="0.8"/>
              </g>
            </g>
          </g>
        </g>
      </g>
    </g>
    <g id="Group_26904" data-name="Group 26904" transform="translate(284.184 298.023)" opacity="0.58">
      <g id="Group_26891" data-name="Group 26891" transform="translate(0 0)">
        <g id="Group_26775-2" data-name="Group 26775" transform="translate(0 0)">
          <g id="Group_5-3" data-name="Group 5">
            <g id="Group_26757-3" data-name="Group 26757">
              <g transform="matrix(1, 0, 0, 1, -362.75, -75.35)" filter="url(#Rectangle_1533-5)" style="mix-blend-mode: multiply;isolation: isolate">
                <rect id="Rectangle_1533-17" data-name="Rectangle 1533" width="104.866" height="103.78" rx="33" transform="translate(362.75 75.35)" fill="#f26798" opacity="0.6"/>
              </g>
              <g transform="matrix(1, 0, 0, 1, -362.75, -75.35)" filter="url(#Rectangle_1534-5)" style="mix-blend-mode: color-dodge;isolation: isolate">
                <rect id="Rectangle_1534-17" data-name="Rectangle 1534" width="101.606" height="100.52" rx="33" transform="translate(364.38 76.98)" fill="#f2f3f7" opacity="0.8"/>
              </g>
            </g>
            <g id="Group_26758-3" data-name="Group 26758" transform="translate(8.15 8.694)">
              <g transform="matrix(1, 0, 0, 1, -370.9, -84.04)" filter="url(#Rectangle_1533-6)" style="mix-blend-mode: multiply;isolation: isolate">
                <rect id="Rectangle_1533-18" data-name="Rectangle 1533" width="86.393" height="83.132" rx="33" transform="translate(370.9 84.04)" fill="#e4e4e4" opacity="0.6"/>
              </g>
              <g transform="matrix(1, 0, 0, 1, -370.9, -84.04)" filter="url(#Rectangle_1534-6)" style="mix-blend-mode: color-dodge;isolation: isolate">
                <rect id="Rectangle_1534-18" data-name="Rectangle 1534" width="83.132" height="79.872" rx="33" transform="translate(372.53 85.68)" fill="#e4e4e4" opacity="0.8"/>
              </g>
            </g>
          </g>
        </g>
      </g>
      <path id="Path-4" data-name="Path" d="M18.063,36.076a18.038,18.038,0,0,1-10.1-3.082,18.414,18.414,0,0,1-2.67-2.2A18.054,18.054,0,0,1,.366,14.406,17.965,17.965,0,0,1,3.085,7.952a18.146,18.146,0,0,1,7.946-6.536A17.9,17.9,0,0,1,14.425.366a18.269,18.269,0,0,1,7.275,0,17.914,17.914,0,0,1,3.394,1.05,18.157,18.157,0,0,1,3.068,1.666,18.4,18.4,0,0,1,2.672,2.2,18.1,18.1,0,0,1,2.2,2.67,17.9,17.9,0,0,1,2.719,6.454A18.043,18.043,0,0,1,34.7,25.058a17.7,17.7,0,0,1-1.666,3.063,18.108,18.108,0,0,1-2.2,2.67,18.5,18.5,0,0,1-2.672,2.2,18.088,18.088,0,0,1-10.1,3.082ZM20.79,20.523h0l-.034.011-.069.023a23.808,23.808,0,0,0-9.454,5.973,15.314,15.314,0,0,0-2.651,3.65,15.433,15.433,0,0,0,15.5,2.04,63.777,63.777,0,0,0-3.295-11.7Zm6.1-.963h0a20.376,20.376,0,0,0-3.212.249,67.178,67.178,0,0,1,3,11A15.452,15.452,0,0,0,33.292,20.48a22.542,22.542,0,0,0-6.4-.918ZM2.649,17.547l0,.127c0,.118-.008.241-.008.365A15.353,15.353,0,0,0,6.589,28.331a22.913,22.913,0,0,1,3.159-4.1,22.969,22.969,0,0,1,9.381-6.079c.206-.068.413-.128.608-.184-.368-.832-.789-1.713-1.251-2.618a56.958,56.958,0,0,1-15.281,2.2C2.889,17.554,2.693,17.549,2.649,17.547ZM26.3,17.168a37.845,37.845,0,0,1,7.168.708l.02,0a15.413,15.413,0,0,0-3.508-9.627,20.606,20.606,0,0,1-8.593,6.1c.393.806.728,1.537,1.025,2.233.131.309.236.563.333.8A28.651,28.651,0,0,1,26.3,17.168ZM11.48,4.1A15.479,15.479,0,0,0,2.967,14.862h.259a57.677,57.677,0,0,0,13.982-1.882A91.828,91.828,0,0,0,11.48,4.1Zm6.583-1.469a15.532,15.532,0,0,0-3.635.432l.023.031a79.363,79.363,0,0,1,5.743,8.955c5.6-2.1,7.819-5.223,8.054-5.573A15.386,15.386,0,0,0,18.063,2.635Z" transform="translate(34.065 34.065)" fill="#f26798"/>
    </g>
    <g id="Group_31250" data-name="Group 31250" transform="translate(524.491 578.842)" opacity="0.58">
      <g id="Group_26888" data-name="Group 26888" transform="translate(0 0)">
        <g id="Group_26775-3" data-name="Group 26775" transform="translate(0 0)">
          <g id="Group_5-4" data-name="Group 5">
            <g id="Group_26757-4" data-name="Group 26757">
              <g transform="matrix(1, 0, 0, 1, -603.06, -356.17)" filter="url(#Path_3637)" style="mix-blend-mode: multiply;isolation: isolate">
                <path id="Path_3637-2" data-name="Path 3637" d="M17.931,0H86.936a17.931,17.931,0,0,1,17.931,17.931V85.849A17.931,17.931,0,0,1,86.936,103.78H17.931A17.931,17.931,0,0,1,0,85.849V17.931A17.931,17.931,0,0,1,17.931,0Z" transform="translate(603.06 356.17)" fill="#1769ff" opacity="0.6"/>
              </g>
              <g transform="matrix(1, 0, 0, 1, -603.06, -356.17)" filter="url(#Path_3636)" style="mix-blend-mode: color-dodge;isolation: isolate">
                <path id="Path_3636-2" data-name="Path 3636" d="M17.931,0H83.676a17.931,17.931,0,0,1,17.931,17.931V82.589A17.931,17.931,0,0,1,83.676,100.52H17.931A17.931,17.931,0,0,1,0,82.589V17.931A17.931,17.931,0,0,1,17.931,0Z" transform="translate(604.69 357.8)" fill="#f6f8fb" opacity="0.8"/>
              </g>
            </g>
            <g id="Group_26758-4" data-name="Group 26758" transform="translate(8.15 8.694)">
              <g transform="matrix(1, 0, 0, 1, -611.21, -364.86)" filter="url(#Rectangle_1533-7)" style="mix-blend-mode: multiply;isolation: isolate">
                <rect id="Rectangle_1533-19" data-name="Rectangle 1533" width="86.393" height="83.132" rx="33" transform="translate(611.21 364.86)" fill="#e4e4e4" opacity="0.6"/>
              </g>
              <g transform="matrix(1, 0, 0, 1, -611.21, -364.86)" filter="url(#Rectangle_1534-7)" style="mix-blend-mode: color-dodge;isolation: isolate">
                <rect id="Rectangle_1534-19" data-name="Rectangle 1534" width="83.132" height="79.872" rx="33" transform="translate(612.84 366.49)" fill="#e4e4e4" opacity="0.8"/>
              </g>
            </g>
          </g>
        </g>
      </g>
      <g id="Group_26897" data-name="Group 26897" transform="translate(25.64 35.145)">
        <g id="Group_26895" data-name="Group 26895" transform="translate(29.295 1.523)">
          <path id="Path-5" data-name="Path" d="M17.886,1.135a9.855,9.855,0,0,1,4.228,3.574A11.672,11.672,0,0,1,24.071,9.7a30.67,30.67,0,0,1,.214,4.8H6.443c.107,2.421.951,4.122,2.565,5.094a6.563,6.563,0,0,0,3.532.911A5.477,5.477,0,0,0,16.09,19.4a5.262,5.262,0,0,0,1.32-1.663h6.538A7.908,7.908,0,0,1,21.576,22.1q-3.289,3.52-9.212,3.522A13.433,13.433,0,0,1,3.74,22.653Q-.008,19.683,0,12.983,0,6.7,3.371,3.351A11.915,11.915,0,0,1,12.127,0a14.089,14.089,0,0,1,5.759,1.135Z" transform="translate(0 6.343)" fill="#1769ff"/>
          <path id="Path-6" data-name="Path" d="M0,4.066H14.19V0H0V4.066Z" transform="translate(4.947)" fill="#1769ff"/>
          <path id="Path-7" data-name="Path" d="M1.708,1.38A6.534,6.534,0,0,0,0,5.119H11.037a5.275,5.275,0,0,0-1.7-3.82A5.685,5.685,0,0,0,5.529,0,5.124,5.124,0,0,0,1.708,1.38Z" transform="translate(6.601 11.556)" fill="#fff"/>
        </g>
        <g id="Group_26896" data-name="Group 26896">
          <path id="Path-8" data-name="Path" d="M24.584,3.481A8.238,8.238,0,0,1,26.1,8.467a7.21,7.21,0,0,1-1.531,4.812,7.934,7.934,0,0,1-2.527,1.859,7.425,7.425,0,0,1,3.828,2.884,8.568,8.568,0,0,1,1.289,4.787,9.433,9.433,0,0,1-1.478,5.209,9.078,9.078,0,0,1-2.344,2.571,9.182,9.182,0,0,1-3.74,1.641,23.28,23.28,0,0,1-4.679.438H0V0H16q6.059.089,8.582,3.481Z" fill="#1769ff"/>
          <path id="Path-9" data-name="Path" d="M0,0V8.712H8.04A7.938,7.938,0,0,0,11.4,8.137c1.452-.715,2.177-2.07,2.177-4.078A3.5,3.5,0,0,0,11.465.553,8.467,8.467,0,0,0,8.154,0Z" transform="translate(6.601 18.203)" fill="#fff"/>
          <path id="Path-10" data-name="Path" d="M0,0V7.208H8.053a6.74,6.74,0,0,0,3.5-.811A3.076,3.076,0,0,0,12.9,3.531,2.931,2.931,0,0,0,11.125.51,12.7,12.7,0,0,0,7.209,0Z" transform="translate(6.601 5.589)" fill="#fff"/>
        </g>
      </g>
    </g>
    <g id="Group_26885" data-name="Group 26885" transform="translate(515.585 800.761)" opacity="0.58">
      <g id="Group_26883" data-name="Group 26883" transform="translate(0 0)">
        <g id="Group_5-5" data-name="Group 5" transform="translate(0)">
          <g id="Group_26757-5" data-name="Group 26757">
            <g transform="matrix(1, 0, 0, 1, -594.15, -578.09)" filter="url(#Rectangle_1533-8)" style="mix-blend-mode: multiply;isolation: isolate">
              <rect id="Rectangle_1533-20" data-name="Rectangle 1533" width="104.866" height="103.78" rx="33" transform="translate(594.15 578.09)" fill="#b23e32" opacity="0.6"/>
            </g>
            <g transform="matrix(1, 0, 0, 1, -594.15, -578.09)" filter="url(#Rectangle_1534-8)" style="mix-blend-mode: color-dodge;isolation: isolate">
              <rect id="Rectangle_1534-20" data-name="Rectangle 1534" width="101.606" height="100.52" rx="33" transform="translate(595.78 579.72)" fill="#f2f3f7" opacity="0.8"/>
            </g>
          </g>
          <g id="Group_26758-5" data-name="Group 26758" transform="translate(8.15 8.694)">
            <g transform="matrix(1, 0, 0, 1, -602.3, -586.78)" filter="url(#Rectangle_1533-9)" style="mix-blend-mode: multiply;isolation: isolate">
              <rect id="Rectangle_1533-21" data-name="Rectangle 1533" width="86.393" height="83.132" rx="33" transform="translate(602.3 586.78)" fill="#e4e4e4" opacity="0.6"/>
            </g>
            <g transform="matrix(1, 0, 0, 1, -602.3, -586.78)" filter="url(#Rectangle_1534-9)" style="mix-blend-mode: color-dodge;isolation: isolate">
              <rect id="Rectangle_1534-21" data-name="Rectangle 1534" width="83.132" height="79.872" rx="33" transform="translate(603.93 588.41)" fill="#e4e4e4" opacity="0.8"/>
            </g>
          </g>
        </g>
      </g>
      <g transform="matrix(1, 0, 0, 1, -594.15, -578.09)" filter="url(#Shape)">
        <path id="Shape-5" data-name="Shape" d="M21.56,43.123c-5.8,0-6.568-.025-8.889-.131a15.947,15.947,0,0,1-5.234-1A10.553,10.553,0,0,1,3.619,39.5a10.56,10.56,0,0,1-2.487-3.82,15.944,15.944,0,0,1-1-5.233C.025,28.126,0,27.357,0,21.561c0-5.769.025-6.543.13-8.891a15.862,15.862,0,0,1,1-5.233A10.583,10.583,0,0,1,3.62,3.618,10.546,10.546,0,0,1,7.439,1.132a15.926,15.926,0,0,1,5.233-1C14.985.025,15.752,0,21.56,0s6.574.025,8.886.13a15.976,15.976,0,0,1,5.237,1A10.538,10.538,0,0,1,39.5,3.618a10.586,10.586,0,0,1,2.489,3.82,16.075,16.075,0,0,1,1,5.233c.106,2.354.131,3.13.131,8.89S43.1,28.1,42.992,30.45a16.081,16.081,0,0,1-1,5.233,11.048,11.048,0,0,1-6.305,6.308,15.954,15.954,0,0,1-5.236,1C28.127,43.1,27.359,43.123,21.56,43.123ZM19.629,3.88h0c-4.02,0-4.776.031-6.779.121a11.9,11.9,0,0,0-4,.743A6.692,6.692,0,0,0,6.367,6.358a6.682,6.682,0,0,0-1.614,2.48,11.945,11.945,0,0,0-.742,4c-.1,2.258-.124,2.937-.124,8.71s.022,6.456.124,8.713a11.92,11.92,0,0,0,.742,4,6.693,6.693,0,0,0,1.614,2.478,6.677,6.677,0,0,0,2.479,1.612,11.962,11.962,0,0,0,4,.744c2.285.1,2.969.126,8.713.126s6.428-.022,8.712-.126a11.87,11.87,0,0,0,4-.743,7.147,7.147,0,0,0,4.091-4.089,11.917,11.917,0,0,0,.742-4c.1-2.283.126-2.966.126-8.71s-.022-6.427-.126-8.71a11.9,11.9,0,0,0-.742-4,6.69,6.69,0,0,0-1.613-2.48,6.674,6.674,0,0,0-2.478-1.612,11.936,11.936,0,0,0-4-.743c-2.249-.1-2.927-.124-8.712-.124H19.629V3.88Zm1.934,28.752a11.07,11.07,0,1,1,7.828-3.242A11,11,0,0,1,21.563,32.631Zm0-18.257a7.187,7.187,0,1,0,7.187,7.187A7.2,7.2,0,0,0,21.563,14.374ZM33.072,12.64a2.587,2.587,0,1,1,2.587-2.587A2.59,2.59,0,0,1,33.072,12.64Z" transform="translate(625.03 608.42)" fill="url(#linear-gradient)"/>
      </g>
    </g>
    <g id="Group_26884" data-name="Group 26884" transform="translate(189.89 841.558)" opacity="0.58">
      <g id="Group_26881" data-name="Group 26881" transform="translate(0 0)">
        <g id="Group_5-6" data-name="Group 5" transform="translate(0 0)">
          <g id="Group_26757-6" data-name="Group 26757">
            <g transform="matrix(1, 0, 0, 1, -268.46, -618.89)" filter="url(#Rectangle_1533-10)" style="mix-blend-mode: multiply;isolation: isolate">
              <rect id="Rectangle_1533-22" data-name="Rectangle 1533" width="104.866" height="103.78" rx="33" transform="translate(268.46 618.89)" fill="#55acee" opacity="0.8"/>
            </g>
            <g transform="matrix(1, 0, 0, 1, -268.46, -618.89)" filter="url(#Path_3634)" style="mix-blend-mode: color-dodge;isolation: isolate">
              <path id="Path_3634-2" data-name="Path 3634" d="M17.931,0H83.676a17.931,17.931,0,0,1,17.931,17.931V82.589A17.931,17.931,0,0,1,83.676,100.52H17.931A17.931,17.931,0,0,1,0,82.589V17.931A17.931,17.931,0,0,1,17.931,0Z" transform="translate(270.09 620.52)" fill="#fff" opacity="0.8"/>
            </g>
          </g>
          <g id="Group_26758-6" data-name="Group 26758" transform="translate(8.15 8.694)">
            <g transform="matrix(1, 0, 0, 1, -276.61, -627.58)" filter="url(#Rectangle_1533-11)" style="mix-blend-mode: multiply;isolation: isolate">
              <rect id="Rectangle_1533-23" data-name="Rectangle 1533" width="86.393" height="83.132" rx="33" transform="translate(276.61 627.58)" fill="#e4e4e4" opacity="0.6"/>
            </g>
            <g transform="matrix(1, 0, 0, 1, -276.61, -627.58)" filter="url(#Rectangle_1534-10)" style="mix-blend-mode: color-dodge;isolation: isolate">
              <rect id="Rectangle_1534-22" data-name="Rectangle 1534" width="83.132" height="79.872" rx="33" transform="translate(278.24 629.21)" fill="#e4e4e4" opacity="0.8"/>
            </g>
          </g>
        </g>
      </g>
      <g transform="matrix(1, 0, 0, 1, -268.46, -618.89)" filter="url(#Shape-2)">
        <path id="Shape-6" data-name="Shape" d="M23.192,10.551l.1,1.716-1.726-.21A28.016,28.016,0,0,1,5.142,3.934L2.864,1.658,2.278,3.339A10.141,10.141,0,0,0,4.417,13.7c1.38,1.471,1.07,1.681-1.311.805a4.053,4.053,0,0,0-1.622-.385c-.242.245.587,3.431,1.242,4.692A11.168,11.168,0,0,0,7.454,23.3l1.691.805-2,.035c-1.933,0-2,.035-1.795.77.69,2.276,3.417,4.692,6.454,5.742l2.14.735L12.079,32.5A19.359,19.359,0,0,1,2.83,35.1a10.172,10.172,0,0,0-2.83.28c0,.35,4.21,2.311,6.661,3.081A29.026,29.026,0,0,0,29.3,35.865,30.407,30.407,0,0,0,40.792,22.28a36.264,36.264,0,0,0,2.347-10.5c0-1.611.1-1.821,2.036-3.746a22.827,22.827,0,0,0,2.416-2.7c.345-.665.311-.665-1.449-.07-2.933,1.05-3.348.91-1.9-.665,1.07-1.12,2.347-3.151,2.347-3.746,0-.105-.518.07-1.1.385a19.2,19.2,0,0,1-3.037,1.19l-1.864.6L38.894,1.868A14.022,14.022,0,0,0,35.961.328a11.735,11.735,0,0,0-6.039.14A10.024,10.024,0,0,0,23.192,10.551Z" transform="translate(297.01 650.94)" fill="#71b4e5"/>
      </g>
    </g>
    <g id="Group_31251" data-name="Group 31251" transform="translate(78.921 298.023)" opacity="0.58">
      <g id="Group_26882" data-name="Group 26882" transform="translate(0 0)">
        <g id="Group_5-7" data-name="Group 5" transform="translate(0 0)">
          <g id="Group_26757-7" data-name="Group 26757">
            <g transform="matrix(1, 0, 0, 1, -157.49, -75.35)" filter="url(#Path_3635)" style="mix-blend-mode: multiply;isolation: isolate">
              <path id="Path_3635-2" data-name="Path 3635" d="M17.931,0H86.936a17.931,17.931,0,0,1,17.931,17.931V85.849A17.931,17.931,0,0,1,86.936,103.78H17.931A17.931,17.931,0,0,1,0,85.849V17.931A17.931,17.931,0,0,1,17.931,0Z" transform="translate(157.49 75.35)" fill="#1877f2" opacity="0.6"/>
            </g>
            <g transform="matrix(1, 0, 0, 1, -157.49, -75.35)" filter="url(#Rectangle_1534-11)" style="mix-blend-mode: color-dodge;isolation: isolate">
              <rect id="Rectangle_1534-23" data-name="Rectangle 1534" width="101.606" height="100.52" rx="33" transform="translate(159.12 76.98)" fill="#f2f3f7" opacity="0.8"/>
            </g>
          </g>
          <g id="Group_26758-7" data-name="Group 26758" transform="translate(8.15 8.694)">
            <g transform="matrix(1, 0, 0, 1, -165.64, -84.04)" filter="url(#Rectangle_1533-12)" style="mix-blend-mode: multiply;isolation: isolate">
              <rect id="Rectangle_1533-24" data-name="Rectangle 1533" width="86.393" height="83.132" rx="33" transform="translate(165.64 84.04)" fill="#e4e4e4" opacity="0.6"/>
            </g>
            <g transform="matrix(1, 0, 0, 1, -165.64, -84.04)" filter="url(#Rectangle_1534-12)" style="mix-blend-mode: color-dodge;isolation: isolate">
              <rect id="Rectangle_1534-24" data-name="Rectangle 1534" width="83.132" height="79.872" rx="33" transform="translate(167.27 85.67)" fill="#e4e4e4" opacity="0.8"/>
            </g>
          </g>
        </g>
      </g>
      <path id="Path-11" data-name="Path" d="M19.328,23.339l.9-7.547-6.5.355-.085-4.877a5.775,5.775,0,0,1,.162-1.513,3.812,3.812,0,0,1,.61-1.332,3.176,3.176,0,0,1,1.163-.972A4.546,4.546,0,0,1,17.4,7.02l2.948-.143L20.239.506s-.167-.024-.458-.059-.706-.08-1.2-.121S17.508.246,16.9.225s-1.262-.024-1.9,0a9.866,9.866,0,0,0-3.649.825A7.907,7.907,0,0,0,8.559,3.136,9.125,9.125,0,0,0,6.8,6.406a14.024,14.024,0,0,0-.563,4.384l.1,5.76-6.062.331L.412,24.47l6.062-.362.319,18.271q.456.046.916.072t.924.032q.464.006.932-.008t.939-.048q.471-.034.937-.088t.926-.127q.46-.073.915-.165t.9-.2l-.317-18.178Z" transform="translate(40.265 31.263)" fill="#1877f2"/>
    </g>
  </g>
</svg>
