<svg xmlns="http://www.w3.org/2000/svg" width="63.391" height="47.366" viewBox="0 0 63.391 47.366">
  <g id="Group_26851" data-name="Group 26851" transform="translate(-25.008 -4052.192)">
    <g id="credit-card" transform="translate(42.193 4058.91)">
      <g id="Group_26850" data-name="Group 26850" transform="translate(0 0)">
        <path id="Path_3608" data-name="Path 3608" d="M62.269,147.569v3.593H98.785v-3.593a1.484,1.484,0,0,0-1.482-1.482H63.751A1.484,1.484,0,0,0,62.269,147.569Z" transform="translate(-55.274 -132.456)" fill="none"/>
        <path id="Path_3609" data-name="Path 3609" d="M61.347,56.982,59.693,49.92l0-.015a1.484,1.484,0,0,0-1.768-1.126L25.167,56.05a1.484,1.484,0,0,0-1.126,1.768l1.567,7.124V61.16a4.183,4.183,0,0,1,4.178-4.178H61.347Z" transform="translate(-21.31 -46.047)" fill="none"/>
        <path id="Path_3610" data-name="Path 3610" d="M62.269,270.487v5.192a1.484,1.484,0,0,0,1.482,1.482H97.3a1.484,1.484,0,0,0,1.482-1.482v-9.331H62.269Z" transform="translate(-55.274 -239.208)" fill="none"/>
        <path id="Path_3613" data-name="Path 3613" d="M0,0H36.516V3.042H0Z" transform="translate(6.995 21.401)" fill="#21c98b"/>
      </g>
    </g>
    <g id="Group_30634" data-name="Group 30634">
      <path id="Path_3612" data-name="Path 3612" d="M20.679,0C32.1,0,24.063,10.309,24.063,20.854c0,7.392,3.949,12.938,2.359,15.623-.653,1.1-2.328,1.71-5.743,1.71C9.258,38.187,0,29.639,0,19.094S9.258,0,20.679,0Z" transform="translate(45.545 4098.678) rotate(-140)" fill="#21c98b"/>
      <path id="Path_3611" data-name="Path 3611" d="M42.825,35.751,41.01,28a4.183,4.183,0,0,0-4.982-3.164L3.274,32.11A4.182,4.182,0,0,0,.1,37.092L4.3,56.185V61.21a4.183,4.183,0,0,0,4.178,4.178H42.028a4.183,4.183,0,0,0,4.178-4.178V39.852A4.185,4.185,0,0,0,42.825,35.751Zm-.8,2.619a1.484,1.484,0,0,1,1.482,1.482v3.593H6.995V39.852A1.484,1.484,0,0,1,8.477,38.37Zm1.482,10.813H6.995V46.141H43.511ZM4.3,39.852v3.782L2.732,36.51a1.484,1.484,0,0,1,1.126-1.768l32.754-7.271A1.484,1.484,0,0,1,38.38,28.6l0,.015,1.654,7.062H8.477A4.183,4.183,0,0,0,4.3,39.852ZM43.511,61.21a1.484,1.484,0,0,1-1.482,1.482H8.477A1.484,1.484,0,0,1,6.995,61.21V51.879H43.511Z" transform="translate(42.193 4034.17)" fill="#303970"/>
    </g>
  </g>
</svg>
