<svg id="Group_26747" data-name="Group 26747" xmlns="http://www.w3.org/2000/svg" width="20" height="20" viewBox="0 0 20 20">
  <path id="Shape" d="M0,10A10,10,0,1,1,10,20,10,10,0,0,1,0,10Z" transform="translate(0 0)" fill="#fff"/>
  <g id="Group_26701" data-name="Group 26701" transform="translate(3.129 3.129)">
    <path id="Path_3516" data-name="Path 3516" d="M3144.469,2207.426a6.871,6.871,0,1,1-6.87-6.871,6.871,6.871,0,0,1,6.87,6.871" transform="translate(-3130.728 -2200.555)" fill="#30214f"/>
    <path id="Path_3517" data-name="Path 3517" d="M3152.251,2218.467a5.871,5.871,0,0,0,0-3.862.348.348,0,0,0-.018-.053,5.87,5.87,0,0,0-11.049,0,.453.453,0,0,0-.018.053,5.871,5.871,0,0,0,0,3.862.427.427,0,0,0,.018.053,5.87,5.87,0,0,0,11.049,0,.333.333,0,0,0,.018-.053m-5.542,3.1c-.224,0-.584-.4-.885-1.309a9.258,9.258,0,0,1-.347-1.483h2.464a9.22,9.22,0,0,1-.346,1.483c-.3.9-.662,1.309-.885,1.309m0-10.057c.224,0,.583.4.885,1.309a9.217,9.217,0,0,1,.346,1.483h-2.464a9.255,9.255,0,0,1,.347-1.483c.3-.9.662-1.309.885-1.309m4.5,2.792h-2.421a8.086,8.086,0,0,0-.767-2.617,5.052,5.052,0,0,1,3.188,2.617m-5.817-2.617a8.086,8.086,0,0,0-.767,2.617h-2.421a5.052,5.052,0,0,1,3.188-2.617m-3.188,7.091h2.421a8.079,8.079,0,0,0,.767,2.616,5.052,5.052,0,0,1-3.188-2.616m5.817,2.616a8.079,8.079,0,0,0,.767-2.616h2.421a5.052,5.052,0,0,1-3.188,2.616" transform="translate(-3139.974 -2209.665)" fill="#fff"/>
    <g id="Group_26700" data-name="Group 26700" transform="translate(1.5 5.223)">
      <path id="Path_3518" data-name="Path 3518" d="M3156.849,2256.756h-7.069a1.614,1.614,0,0,1-1.609-1.609v-.039a1.614,1.614,0,0,1,1.609-1.609h7.069a1.614,1.614,0,0,1,1.609,1.609v.039a1.614,1.614,0,0,1-1.609,1.609" transform="translate(-3148.17 -2253.499)" fill="#30214f"/>
      <text id="www" transform="translate(2.585 2.173)" fill="#fff" font-size="2" font-family="Montserrat-SemiBold, Montserrat" font-weight="600"><tspan x="0" y="0" letter-spacing="-0.009em">ww</tspan><tspan y="0">w</tspan></text>
    </g>
  </g>
</svg>
