<svg xmlns="http://www.w3.org/2000/svg" width="20" height="20" viewBox="0 0 20 20">
  <g id="Group_31432" data-name="Group 31432" transform="translate(-14877 -17026)">
    <circle id="Ellipse_20" data-name="Ellipse 20" cx="10" cy="10" r="10" transform="translate(14877 17026)" fill="#fff"/>
    <path id="Icon_ionic-ios-call" data-name="Icon ionic-ios-call" d="M8.093,6.667a6.991,6.991,0,0,0-1.462-1c-.438-.215-.6-.211-.909.018-.258.191-.425.368-.722.3a4.313,4.313,0,0,1-1.451-1.1A4.371,4.371,0,0,1,2.474,3.406c-.063-.306.111-.474.3-.738.223-.317.23-.481.017-.929A7.023,7.023,0,0,0,1.808.245c-.319-.326-.39-.255-.566-.191A3.2,3.2,0,0,0,.723.336,1.585,1.585,0,0,0,.1,1.008c-.124.273-.267.78.462,2.106A11.733,11.733,0,0,0,2.585,5.869h0l0,0,0,0h0a11.569,11.569,0,0,0,2.7,2.066c1.3.745,1.794.6,2.061.472A1.551,1.551,0,0,0,8,7.775a3.319,3.319,0,0,0,.276-.53C8.342,7.066,8.414,6.993,8.093,6.667Z" transform="matrix(0.999, 0.035, -0.035, 0.999, 14882.896, 17031.6)" fill="#30214f"/>
  </g>
</svg>
