<svg xmlns="http://www.w3.org/2000/svg" xmlns:xlink="http://www.w3.org/1999/xlink" width="1338.673" height="620" viewBox="0 0 1338.673 620">
  <defs>
    <filter id="page_not_found" x="733.817" y="248.873" width="423" height="79" filterUnits="userSpaceOnUse">
      <feOffset dy="3" input="SourceAlpha"/>
      <feGaussianBlur stdDeviation="3" result="blur"/>
      <feFlood flood-opacity="0.161"/>
      <feComposite operator="in" in2="blur"/>
      <feComposite in="SourceGraphic"/>
    </filter>
  </defs>
  <g id="Group_31346" data-name="Group 31346" transform="translate(-296 -204)">
    <g id="Group_31323" data-name="Group 31323" transform="translate(296 204)">
      <g id="undraw_Floating_re_xtcj" transform="translate(0 52.116)">
        <path id="Path_12458" data-name="Path 12458" d="M414.152,257.872a1.139,1.139,0,0,1-1.135-1.06A40.267,40.267,0,0,0,372.966,219.5c-1.215,0-2.491.062-3.793.184a1.139,1.139,0,0,1-1.1-.568,47.847,47.847,0,0,0-87.5,10.406,1.134,1.134,0,0,1-1.12.822l-.3-.009c-.158-.005-.315-.011-.474-.011A33.745,33.745,0,0,0,245.8,256.968a1.139,1.139,0,0,1-1.115.9H168.353a1.139,1.139,0,1,1,0-2.279h75.42a36.044,36.044,0,0,1,34.871-27.548,50.125,50.125,0,0,1,91.045-10.693c1.121-.087,2.22-.131,3.277-.131a42.554,42.554,0,0,1,42.324,39.432,1.139,1.139,0,0,1-1.057,1.216C414.206,257.872,414.179,257.872,414.152,257.872Z" transform="translate(-167.213 -134.983)" fill="#cbcbcb"/>
        <path id="Path_12459" data-name="Path 12459" d="M411.8,291.613H224.947a1.139,1.139,0,1,1,0-2.279H411.8a1.139,1.139,0,1,1,0,2.279Z" transform="translate(-178.421 -154.116)" fill="#cbcbcb"/>
        <path id="Path_12460" data-name="Path 12460" d="M266.3,312.214H203.636a1.139,1.139,0,0,1,0-2.279H266.3a1.139,1.139,0,0,1,0,2.279Z" transform="translate(-174.201 -158.195)" fill="#cbcbcb"/>
        <line id="Line_50" data-name="Line 50" y1="9.134" x2="9.134" transform="translate(86.811 470.748)" fill="#fff"/>
        <line id="Line_51" data-name="Line 51" y1="14.277" x2="13.579" transform="translate(86.811 470.593)" fill="#fff"/>
        <g id="Group_31325" data-name="Group 31325" transform="translate(52.059 326.399)">
          <path id="Path_12461" data-name="Path 12461" d="M330.759,577.035c0,46.321-48.562,68.486-48.562,68.486s-49.061-22.164-50.057-68.486c-.586-27.227,22.077-49.31,49.31-49.31a49.31,49.31,0,0,1,49.31,49.31Z" transform="translate(-232.128 -527.725)" fill="#e5e5e5"/>
          <path id="Path_12462" data-name="Path 12462" d="M138.74,553.363H105.867l-3.985-15.938h40.842Z" transform="translate(-72.236 -432.828)" fill="#cbcbcb"/>
          <rect id="Rectangle_1696" data-name="Rectangle 1696" width="30.632" height="15.963" transform="translate(34.752 147.793)" fill="#fff"/>
          <path id="Path_12463" data-name="Path 12463" d="M306.281,728.163h-31.13V711.7h31.13Zm-30.632-.5h30.134V712.2H275.649Z" transform="translate(-240.648 -564.16)" fill="#cbcbcb"/>
          <path id="Path_12464" data-name="Path 12464" d="M131.719,559.084H119.161l-1.441-2.265h15.44Z" transform="translate(-75.372 -436.669)" fill="#cbcbcb"/>
          <rect id="Rectangle_1697" data-name="Rectangle 1697" width="0.498" height="24.406" transform="translate(33.88 120.534)" fill="#cbcbcb"/>
          <rect id="Rectangle_1698" data-name="Rectangle 1698" width="0.498" height="24.406" transform="translate(65.757 120.534)" fill="#cbcbcb"/>
          <path id="Path_12465" data-name="Path 12465" d="M300.71,632.2l-.3-.395c14.389-11.1,31.541-30.106,31.541-57.653a48.993,48.993,0,0,0-29.964-45.205l.194-.459a49.491,49.491,0,0,1,30.268,45.664C332.445,601.905,315.188,621.039,300.71,632.2Z" transform="translate(-245.65 -527.877)" fill="#cbcbcb"/>
          <path id="Path_12466" data-name="Path 12466" d="M280.836,632.24l-.3-.394c14.389-11.1,31.542-30.106,31.542-57.653a49.051,49.051,0,0,0-29.623-45.06l.2-.457a49.549,49.549,0,0,1,29.924,45.517C312.571,601.942,295.313,621.076,280.836,632.24Z" transform="translate(-241.714 -527.913)" fill="#cbcbcb"/>
          <path id="Path_12467" data-name="Path 12467" d="M298.508,632.24c-14.477-11.164-31.735-30.3-31.735-58.048A49.549,49.549,0,0,1,296.7,528.676l.2.457a49.051,49.051,0,0,0-29.623,45.06c0,27.547,17.152,46.557,31.541,57.653Z" transform="translate(-238.989 -527.913)" fill="#cbcbcb"/>
          <path id="Path_12468" data-name="Path 12468" d="M278.634,632.183c-14.478-11.164-31.735-30.3-31.735-58.048a49.456,49.456,0,0,1,30.47-45.749l.192.46A48.959,48.959,0,0,0,247.4,574.135c0,27.548,17.152,46.557,31.541,57.653Z" transform="translate(-235.053 -527.856)" fill="#cbcbcb"/>
          <rect id="Rectangle_1699" data-name="Rectangle 1699" width="0.498" height="104.596" transform="translate(49.072)" fill="#cbcbcb"/>
          <rect id="Rectangle_1700" data-name="Rectangle 1700" width="12.916" height="0.498" transform="translate(34.578 153.308) rotate(-45)" fill="#cbcbcb"/>
          <rect id="Rectangle_1701" data-name="Rectangle 1701" width="19.703" height="0.498" transform="translate(34.575 158.301) rotate(-46.444)" fill="#cbcbcb"/>
          <rect id="Rectangle_1702" data-name="Rectangle 1702" width="37.356" height="4.483" transform="translate(30.892 144.195)" fill="#fff"/>
          <path id="Path_12469" data-name="Path 12469" d="M308.192,712.2H270.338v-4.981h37.854Zm-37.356-.5h36.858v-3.985H270.836Z" transform="translate(-239.695 -563.27)" fill="#cbcbcb"/>
        </g>
        <line id="Line_52" data-name="Line 52" y1="6.028" x2="6.028" transform="translate(202.51 321.047)" fill="#fff"/>
        <line id="Line_53" data-name="Line 53" y1="9.424" x2="8.962" transform="translate(202.51 320.945)" fill="#fff"/>
        <g id="Group_31320" data-name="Group 31320" transform="translate(179.571 225.77)">
          <path id="Path_12470" data-name="Path 12470" d="M456.228,434.794c0,30.574-32.053,45.2-32.053,45.2s-32.382-14.629-33.04-45.2c-.386-17.971,14.572-32.546,32.547-32.546A32.546,32.546,0,0,1,456.228,434.794Z" transform="translate(-391.128 -402.248)" fill="#e5e5e5"/>
          <path id="Path_12471" data-name="Path 12471" d="M272.643,378.128h-21.7l-2.63-10.52h26.958Z" transform="translate(-228.747 -298.57)" fill="#cbcbcb"/>
          <rect id="Rectangle_1703" data-name="Rectangle 1703" width="20.218" height="10.536" transform="translate(22.938 97.55)" fill="#fff"/>
          <path id="Path_12472" data-name="Path 12472" d="M440.072,534.545H419.525V523.68h20.547Zm-20.218-.329h19.89V524.009h-19.89Z" transform="translate(-396.752 -426.296)" fill="#cbcbcb"/>
          <path id="Path_12473" data-name="Path 12473" d="M268.008,381.9h-8.289l-.951-1.495h10.191Z" transform="translate(-230.817 -301.106)" fill="#cbcbcb"/>
          <rect id="Rectangle_1704" data-name="Rectangle 1704" width="0.329" height="16.109" transform="translate(22.363 79.558)" fill="#cbcbcb"/>
          <rect id="Rectangle_1705" data-name="Rectangle 1705" width="0.329" height="16.109" transform="translate(43.403 79.558)" fill="#cbcbcb"/>
          <path id="Path_12474" data-name="Path 12474" d="M436.4,471.207l-.2-.26c9.5-7.324,20.819-19.871,20.819-38.054a32.338,32.338,0,0,0-19.778-29.837l.128-.3a32.666,32.666,0,0,1,19.978,30.14C457.342,451.209,445.951,463.839,436.4,471.207Z" transform="translate(-400.053 -402.346)" fill="#cbcbcb"/>
          <path id="Path_12475" data-name="Path 12475" d="M423.277,471.232l-.2-.26c9.5-7.324,20.819-19.871,20.819-38.054a32.376,32.376,0,0,0-19.552-29.741l.13-.3a32.7,32.7,0,0,1,19.751,30.043C444.224,451.233,432.833,463.863,423.277,471.232Z" transform="translate(-397.455 -402.371)" fill="#cbcbcb"/>
          <path id="Path_12476" data-name="Path 12476" d="M434.943,471.231c-9.556-7.369-20.947-20-20.947-38.314a32.7,32.7,0,0,1,19.751-30.043l.13.3a32.376,32.376,0,0,0-19.553,29.741c0,18.183,11.321,30.73,20.819,38.054Z" transform="translate(-395.656 -402.371)" fill="#cbcbcb"/>
          <path id="Path_12477" data-name="Path 12477" d="M421.825,471.193c-9.556-7.369-20.947-20-20.947-38.314a32.643,32.643,0,0,1,20.112-30.2l.127.3a32.315,32.315,0,0,0-19.91,29.893c0,18.183,11.321,30.73,20.819,38.054Z" transform="translate(-393.059 -402.333)" fill="#cbcbcb"/>
          <rect id="Rectangle_1706" data-name="Rectangle 1706" width="0.329" height="69.038" transform="translate(32.389 0)" fill="#cbcbcb"/>
          <rect id="Rectangle_1707" data-name="Rectangle 1707" width="8.525" height="0.329" transform="translate(22.825 101.189) rotate(-45)" fill="#cbcbcb"/>
          <rect id="Rectangle_1708" data-name="Rectangle 1708" width="13.005" height="0.329" transform="translate(22.822 104.485) rotate(-46.444)" fill="#cbcbcb"/>
          <rect id="Rectangle_1709" data-name="Rectangle 1709" width="24.656" height="2.959" transform="translate(20.391 95.174)" fill="#fff"/>
          <path id="Path_12478" data-name="Path 12478" d="M441.333,524.006H416.348v-3.287h24.985Zm-24.656-.329H441v-2.63H416.677Z" transform="translate(-396.122 -425.709)" fill="#cbcbcb"/>
        </g>
        <g id="Group_31315" data-name="Group 31315" transform="translate(516.339 253.42)">
          <path id="Path_12479" data-name="Path 12479" d="M811.873,483.422a.817.817,0,0,0,.814-.759A28.863,28.863,0,0,1,841.4,455.917c.871,0,1.785.044,2.719.132a.816.816,0,0,0,.785-.407,34.3,34.3,0,0,1,62.718,7.459.813.813,0,0,0,.8.589l.217-.007c.113,0,.226-.008.34-.008a24.188,24.188,0,0,1,23.571,19.1.817.817,0,0,0,.8.648h54.713a.817.817,0,0,0,0-1.633H934a25.836,25.836,0,0,0-25-19.746,35.929,35.929,0,0,0-65.26-7.664c-.8-.063-1.591-.094-2.349-.094a30.5,30.5,0,0,0-30.337,28.264.817.817,0,0,0,.758.872Z" transform="translate(-811.056 -436.724)" fill="#cbcbcb"/>
          <path id="Path_12480" data-name="Path 12480" d="M823.99,507.607H957.927a.817.817,0,0,0,0-1.633H823.99a.817.817,0,0,0,0,1.633Z" transform="translate(-813.456 -450.438)" fill="#cbcbcb"/>
          <path id="Path_12481" data-name="Path 12481" d="M950.266,522.374h44.918a.817.817,0,1,0,0-1.633H950.266a.817.817,0,1,0,0,1.633Z" transform="translate(-838.463 -453.362)" fill="#cbcbcb"/>
        </g>
        <path id="Path_12482" data-name="Path 12482" d="M522.012,645.208h-2.689l-1.279-10.369h3.968Z" transform="translate(-102.591 -125.721)" fill="#9f616a"/>
        <path id="Path_12483" data-name="Path 12483" d="M688.92,770.883h-8.668v-.11a3.378,3.378,0,0,1,3.374-3.374h5.294Z" transform="translate(-268.814 -248.79)" fill="#2f2e41"/>
        <path id="Path_12484" data-name="Path 12484" d="M564.061,639.221l-2.3,1.385-6.437-8.23,3.4-2.043Z" transform="translate(-109.973 -124.828)" fill="#9f616a"/>
        <path id="Path_12485" data-name="Path 12485" d="M726.441,768.213l-.057-.094a3.378,3.378,0,0,1,1.154-4.63l4.538-2.727,1.794,2.986Z" transform="translate(-277.854 -247.475)" fill="#2f2e41"/>
        <path id="Path_12486" data-name="Path 12486" d="M689.585,754.824h-.046a36.1,36.1,0,0,1-3.914-.225c-.5-.049-1.033-.1-1.68-.155l-.022,0c-.442-.131-.454-4.274-.267-18.454.1-7.263.2-15.495.075-20.737V715.2l.039-.034a19.708,19.708,0,0,1,17.341-4.4l.047.01.025.042c2.642,4.47,6.631,10.91,10.489,17.137,8.856,14.3,11.389,18.5,11.111,18.817l-.033.026c-.6.3-1.059.535-1.445.733a47.618,47.618,0,0,1-4.7,2.121l-.071.029-.052-.057c-8.986-9.846-16.464-20.845-21.089-31.013-.541,3.471-1.2,8-1.89,12.793-1.993,13.772-3.34,22.841-3.883,23.393Z" transform="translate(-269.465 -237.477)" fill="#2f2e41"/>
        <path id="Path_12487" data-name="Path 12487" d="M691.42,706.929a47.069,47.069,0,0,1,15.739,2.635,35.826,35.826,0,0,0-8.031-23.358l-.039-.047.02-.058c1.412-4.079,2.87-8.294,4.174-12.489l-.02-.07a25.993,25.993,0,0,0-6-10.042,1.922,1.922,0,0,0-2.623-.133,24.44,24.44,0,0,0-7.876,19.9l0,.021-.006.021c-2.445,8.284-3.333,12.539-4.116,16.293-.571,2.739-1.066,5.11-2.059,8.5a51.023,51.023,0,0,1,10.836-1.167Z" transform="translate(-268.879 -228.098)" fill="#cbcbcb"/>
        <path id="Path_12488" data-name="Path 12488" d="M533.632,564.419l-7.955,17.318-4.545-4.6Z" transform="translate(-103.203 -111.775)" opacity="0.1"/>
        <circle id="Ellipse_194" data-name="Ellipse 194" cx="5.659" cy="5.659" r="5.659" transform="translate(421.369 422.397)" fill="#9f616a"/>
        <path id="Path_12489" data-name="Path 12489" d="M691.135,649.32h8.986V645.4c-1.972-.784-3.9-1.45-5.069,0a3.917,3.917,0,0,0-3.917,3.917Z" transform="translate(-270.969 -224.461)" fill="#2f2e41"/>
        <path id="Path_12490" data-name="Path 12490" d="M701.263,644.752c5.372,0,6.876,6.734,6.876,10.533,0,2.119-.958,2.876-2.464,3.133l-.532-2.836L703.9,658.54c-.423,0-.867-.006-1.328-.015l-.422-.869-.942.854c-3.771.006-6.819.555-6.819-3.225C694.387,651.486,695.706,644.752,701.263,644.752Z" transform="translate(-271.613 -224.501)" fill="#2f2e41"/>
        <path id="Path_12491" data-name="Path 12491" d="M826.873,279.514c0,149.165-156.383,220.54-156.383,220.54S512.5,428.679,509.3,279.514c-1.886-87.676,71.092-158.789,158.789-158.789A158.789,158.789,0,0,1,826.873,279.514Z" transform="translate(-234.951 -120.725)" fill="#21c98b"/>
        <path id="Path_12492" data-name="Path 12492" d="M546.073,643.167h-3.3l-1.568-12.714h4.865Z" transform="translate(-107.178 -124.852)" fill="#ffb7b7"/>
        <path id="Path_12493" data-name="Path 12493" d="M539.239,645.132H545.6v4h-10.36A4,4,0,0,1,539.239,645.132Z" transform="translate(-105.996 -127.759)" fill="#2f2e41"/>
        <path id="Path_12494" data-name="Path 12494" d="M561.495,643.167h-3.3l-1.569-12.714H561.5Z" transform="translate(-110.232 -124.852)" fill="#ffb7b7"/>
        <path id="Path_12495" data-name="Path 12495" d="M554.662,645.132h6.357v4h-10.36A4,4,0,0,1,554.662,645.132Z" transform="translate(-109.05 -127.759)" fill="#2f2e41"/>
        <path id="Path_12496" data-name="Path 12496" d="M728.734,711.123a2.888,2.888,0,0,1-.555-4.394l-2.17-30.8,6.252.606.172,30.164a2.9,2.9,0,0,1-3.7,4.425Z" transform="translate(-277.875 -230.675)" fill="#ffb7b7"/>
        <path id="Path_12497" data-name="Path 12497" d="M713.05,749.339l-3.629-.173a1.21,1.21,0,0,1-1.152-1.2l-.253-36.716a1.21,1.21,0,0,1,1.384-1.206l14.517,2.107a1.2,1.2,0,0,1,1.036,1.188l1.867,34.021a1.21,1.21,0,0,1-1.21,1.219H721.7a1.2,1.2,0,0,1-1.2-1.022s-2.955-25.519-3.361-25.5-2.833,26.22-2.833,26.22a1.215,1.215,0,0,1-1.2,1.066Z" transform="translate(-274.312 -237.429)" fill="#2f2e41"/>
        <path id="Path_12498" data-name="Path 12498" d="M727.536,685.689a1.205,1.205,0,0,1-.5-.914l-.458-8.3a3.334,3.334,0,0,1,6.546-1.056l2.012,7.422a1.211,1.211,0,0,1-.851,1.484l-5.724,1.552A1.205,1.205,0,0,1,727.536,685.689Z" transform="translate(-277.987 -230.086)" fill="#3f3d56"/>
        <circle id="Ellipse_195" data-name="Ellipse 195" cx="6.604" cy="6.604" r="6.604" transform="translate(437.599 422.665)" fill="#ffb7b7"/>
        <path id="Path_12499" data-name="Path 12499" d="M723.9,658.871a2.133,2.133,0,0,1-3.68-1.185,2.163,2.163,0,0,1,0-.418,9.7,9.7,0,0,0,.432-2.354,1.235,1.235,0,0,0-.226-.578c-.982-1.315-3.286.588-4.213-.6-.568-.73.1-1.879-.336-2.694-.575-1.076-2.28-.545-3.349-1.135-1.189-.656-1.118-2.48-.335-3.59a5.648,5.648,0,0,1,4.281-2.18,11.482,11.482,0,0,1,4.837.944,9.667,9.667,0,0,1,4.571,3.169,7.737,7.737,0,0,1,.782,6.588A12.426,12.426,0,0,1,723.9,658.871Z" transform="translate(-275.026 -224.378)" fill="#2f2e41"/>
        <path id="Path_12500" data-name="Path 12500" d="M725.008,669q-.172-.124-.351-.243a8.7,8.7,0,0,0-2.042-1v-1.735h-5.109v1.61a8.959,8.959,0,0,0-6.5,7.444l-3.479,25.825a1.2,1.2,0,0,0,.25.915,1.188,1.188,0,0,0,.821.45,18.265,18.265,0,0,1,6.9,2.365,10.252,10.252,0,0,0,5.029,1.284,12.122,12.122,0,0,0,4.094-.729,1.2,1.2,0,0,0,.784-1.077c.125-2.779.858-17.085,2.991-25.811a8.921,8.921,0,0,0-3.4-9.3Z" transform="translate(-274.213 -228.712)" fill="#3f3d56"/>
        <path id="Path_12501" data-name="Path 12501" d="M579.782,471.326H473.923L461.091,420H592.613Z" transform="translate(-91.312 -83.175)" fill="#3f3d56"/>
        <rect id="Rectangle_1710" data-name="Rectangle 1710" width="98.642" height="51.405" transform="translate(386.219 475.927)" fill="#fff"/>
        <path id="Path_12502" data-name="Path 12502" d="M748.049,766.185H647.8V713.176H748.049Zm-98.642-1.6h97.038v-49.8H649.408Z" transform="translate(-262.387 -238.052)" fill="#3f3d56"/>
        <path id="Path_12503" data-name="Path 12503" d="M557.172,489.746h-40.44l-4.641-7.293h49.722Z" transform="translate(-101.412 -95.543)" fill="#3f3d56"/>
        <rect id="Rectangle_1711" data-name="Rectangle 1711" width="1.604" height="78.592" transform="translate(383.412 388.151)" fill="#3f3d56"/>
        <rect id="Rectangle_1712" data-name="Rectangle 1712" width="1.604" height="78.592" transform="translate(486.063 388.151)" fill="#3f3d56"/>
        <path id="Path_12504" data-name="Path 12504" d="M730.11,457.169l-.979-1.27C775.467,420.167,830.7,358.951,830.7,270.242A157.77,157.77,0,0,0,734.21,124.67l.625-1.477a159.371,159.371,0,0,1,97.47,147.049C832.305,359.6,776.731,421.217,730.11,457.169Z" transform="translate(-278.493 -121.214)" fill="#3f3d56"/>
        <path id="Path_12505" data-name="Path 12505" d="M666.109,457.287l-.979-1.27C711.466,420.285,766.7,359.069,766.7,270.359a157.956,157.956,0,0,0-95.393-145.1l.636-1.472a159.56,159.56,0,0,1,96.361,146.575C768.305,359.72,712.731,421.335,666.109,457.287Z" transform="translate(-265.819 -121.331)" fill="#3f3d56"/>
        <path id="Path_12506" data-name="Path 12506" d="M723.021,457.286c-46.62-35.952-102.2-97.566-102.2-186.927a159.558,159.558,0,0,1,96.362-146.575l.636,1.472a157.957,157.957,0,0,0-95.395,145.1c0,88.709,55.235,149.925,101.571,185.657Z" transform="translate(-257.045 -121.331)" fill="#3f3d56"/>
        <path id="Path_12507" data-name="Path 12507" d="M659.021,457.1c-46.621-35.952-102.2-97.565-102.2-186.927a159.261,159.261,0,0,1,98.122-147.322l.618,1.48A157.66,157.66,0,0,0,558.43,270.174c0,88.71,55.235,149.926,101.571,185.657Z" transform="translate(-244.371 -121.146)" fill="#3f3d56"/>
        <rect id="Rectangle_1713" data-name="Rectangle 1713" width="1.604" height="336.825" transform="translate(432.332 0)" fill="#3f3d56"/>
        <line id="Line_54" data-name="Line 54" y1="29.411" x2="29.411" transform="translate(386.219 464.839)" fill="#fff"/>
        <rect id="Rectangle_1714" data-name="Rectangle 1714" width="41.594" height="1.604" transform="translate(385.656 493.684) rotate(-45)" fill="#3f3d56"/>
        <line id="Line_55" data-name="Line 55" y1="45.977" x2="43.726" transform="translate(386.219 464.338)" fill="#fff"/>
        <rect id="Rectangle_1715" data-name="Rectangle 1715" width="63.45" height="1.604" transform="translate(385.644 509.765) rotate(-46.444)" fill="#3f3d56"/>
        <rect id="Rectangle_1716" data-name="Rectangle 1716" width="120.295" height="14.435" transform="translate(373.789 464.338)" fill="#fff"/>
        <path id="Path_12508" data-name="Path 12508" d="M754.2,714.764H632.3V698.725H754.2Zm-120.295-1.6H752.6V700.329H633.908Z" transform="translate(-259.318 -235.19)" fill="#3f3d56"/>
        <path id="Path_12509" data-name="Path 12509" d="M681.23,705.962a2.2,2.2,0,0,0,1.985-2.737l6.554-4.294-3.738-1.615-5.651,4.326a2.217,2.217,0,0,0,.849,4.32Z" transform="translate(-268.535 -234.911)" fill="#9f616a"/>
        <path id="Path_12510" data-name="Path 12510" d="M688.411,696.2l-.083-.058c-1.56-1.148-3.292-2.335-4.966-3.484l-.1-.069.079-.093c3.574-4.182,7.153-8.55,10.614-12.776l-.007-.015.033-.017.014-.017.007.006.021-.011-.094.007-1.067-8.366a5.363,5.363,0,0,1,.115-5.746,4.551,4.551,0,0,1,5.922-1.352,3.886,3.886,0,0,1,1.706,2.9,3.5,3.5,0,0,1-.929,2.87,120.706,120.706,0,0,1,.488,12.213v.038l-.024.031c-3.69,4.688-7.743,9.35-11.662,13.86Z" transform="translate(-269.41 -228.241)" fill="#cbcbcb"/>
        <path id="Path_12511" data-name="Path 12511" d="M689.892,671.637a2.842,2.842,0,0,1,.064.441l11.55,6.664,2.807-1.616,2.993,3.918-6.006,4.281-13.177-10.4a2.822,2.822,0,1,1,1.768-3.291Z" transform="translate(-269.62 -229.394)" fill="#ffb7b7"/>
        <path id="Path_12512" data-name="Path 12512" d="M706.262,678.391a1.2,1.2,0,0,1,.348-.982l5.878-5.88a3.334,3.334,0,0,1,5.154,4.172l-4.186,6.451a1.211,1.211,0,0,1-1.674.356l-4.975-3.229a1.205,1.205,0,0,1-.545-.888Z" transform="translate(-273.963 -229.61)" fill="#3f3d56"/>
        <path id="Path_12513" data-name="Path 12513" d="M562.825,597.422a.817.817,0,0,1-.814-.759A28.863,28.863,0,0,0,533.3,569.917c-.871,0-1.785.044-2.719.132a.816.816,0,0,1-.785-.407,34.3,34.3,0,0,0-62.718,7.459.813.813,0,0,1-.8.589l-.217-.007c-.113,0-.226-.008-.34-.008a24.188,24.188,0,0,0-23.571,19.1.817.817,0,0,1-.8.648H386.639a.817.817,0,1,1,0-1.633H440.7a25.836,25.836,0,0,1,25-19.746,35.929,35.929,0,0,1,65.26-7.664c.8-.063,1.591-.094,2.349-.094a30.5,30.5,0,0,1,30.337,28.264.817.817,0,0,1-.758.872Z" transform="translate(-210.506 -205.88)" fill="#cbcbcb"/>
        <path id="Path_12514" data-name="Path 12514" d="M561.141,621.607H427.205a.817.817,0,1,1,0-1.633H561.141a.817.817,0,1,1,0,1.633Z" transform="translate(-218.539 -219.594)" fill="#cbcbcb"/>
        <path id="Path_12515" data-name="Path 12515" d="M456.847,636.374H411.929a.817.817,0,1,1,0-1.633h44.918a.817.817,0,0,1,0,1.633Z" transform="translate(-215.514 -222.518)" fill="#cbcbcb"/>
      </g>
      <g id="Group_31314" data-name="Group 31314" transform="translate(742.817 254.873)">
        <g transform="matrix(1, 0, 0, 1, -742.82, -254.87)" filter="url(#page_not_found)">
          <text id="page_not_found-2" data-name="page not found" transform="translate(742.82 302.87)" fill="#3f3d56" font-size="50" font-family="Montserrat-Bold, Montserrat" font-weight="700"><tspan x="0" y="0">page not found</tspan></text>
        </g>
      </g>
      <g id="Group_31316" data-name="Group 31316" transform="translate(1062.223 173.791)">
        <path id="Path_12479-2" data-name="Path 12479" d="M811.873,483.422a.817.817,0,0,0,.814-.759A28.863,28.863,0,0,1,841.4,455.917c.871,0,1.785.044,2.719.132a.816.816,0,0,0,.785-.407,34.3,34.3,0,0,1,62.718,7.459.813.813,0,0,0,.8.589l.217-.007c.113,0,.226-.008.34-.008a24.188,24.188,0,0,1,23.571,19.1.817.817,0,0,0,.8.648h54.713a.817.817,0,0,0,0-1.633H934a25.836,25.836,0,0,0-25-19.746,35.929,35.929,0,0,0-65.26-7.664c-.8-.063-1.591-.094-2.349-.094a30.5,30.5,0,0,0-30.337,28.264.817.817,0,0,0,.758.872Z" transform="translate(-811.056 -436.724)" fill="#cbcbcb"/>
        <path id="Path_12480-2" data-name="Path 12480" d="M823.99,507.607H957.927a.817.817,0,0,0,0-1.633H823.99a.817.817,0,0,0,0,1.633Z" transform="translate(-813.456 -450.438)" fill="#cbcbcb"/>
        <path id="Path_12481-2" data-name="Path 12481" d="M950.266,522.374h44.918a.817.817,0,1,0,0-1.633H950.266a.817.817,0,1,0,0,1.633Z" transform="translate(-838.463 -453.362)" fill="#cbcbcb"/>
      </g>
      <g id="Group_31317" data-name="Group 31317" transform="translate(1062.223 173.791)">
        <path id="Path_12479-3" data-name="Path 12479" d="M811.873,483.422a.817.817,0,0,0,.814-.759A28.863,28.863,0,0,1,841.4,455.917c.871,0,1.785.044,2.719.132a.816.816,0,0,0,.785-.407,34.3,34.3,0,0,1,62.718,7.459.813.813,0,0,0,.8.589l.217-.007c.113,0,.226-.008.34-.008a24.188,24.188,0,0,1,23.571,19.1.817.817,0,0,0,.8.648h54.713a.817.817,0,0,0,0-1.633H934a25.836,25.836,0,0,0-25-19.746,35.929,35.929,0,0,0-65.26-7.664c-.8-.063-1.591-.094-2.349-.094a30.5,30.5,0,0,0-30.337,28.264.817.817,0,0,0,.758.872Z" transform="translate(-811.056 -436.724)" fill="#cbcbcb"/>
        <path id="Path_12480-3" data-name="Path 12480" d="M823.99,507.607H957.927a.817.817,0,0,0,0-1.633H823.99a.817.817,0,0,0,0,1.633Z" transform="translate(-813.456 -450.438)" fill="#cbcbcb"/>
        <path id="Path_12481-3" data-name="Path 12481" d="M950.266,522.374h44.918a.817.817,0,1,0,0-1.633H950.266a.817.817,0,1,0,0,1.633Z" transform="translate(-838.463 -453.362)" fill="#cbcbcb"/>
      </g>
      <g id="Group_31318" data-name="Group 31318" transform="translate(653.907 0)">
        <path id="Path_12479-4" data-name="Path 12479" d="M811.873,483.422a.817.817,0,0,0,.814-.759A28.863,28.863,0,0,1,841.4,455.917c.871,0,1.785.044,2.719.132a.816.816,0,0,0,.785-.407,34.3,34.3,0,0,1,62.718,7.459.813.813,0,0,0,.8.589l.217-.007c.113,0,.226-.008.34-.008a24.188,24.188,0,0,1,23.571,19.1.817.817,0,0,0,.8.648h54.713a.817.817,0,0,0,0-1.633H934a25.836,25.836,0,0,0-25-19.746,35.929,35.929,0,0,0-65.26-7.664c-.8-.063-1.591-.094-2.349-.094a30.5,30.5,0,0,0-30.337,28.264.817.817,0,0,0,.758.872Z" transform="translate(-811.056 -436.724)" fill="#cbcbcb"/>
        <path id="Path_12480-4" data-name="Path 12480" d="M823.99,507.607H957.927a.817.817,0,0,0,0-1.633H823.99a.817.817,0,0,0,0,1.633Z" transform="translate(-813.456 -450.438)" fill="#cbcbcb"/>
        <path id="Path_12481-4" data-name="Path 12481" d="M950.266,522.374h44.918a.817.817,0,1,0,0-1.633H950.266a.817.817,0,1,0,0,1.633Z" transform="translate(-838.463 -453.362)" fill="#cbcbcb"/>
      </g>
      <g id="Group_31319" data-name="Group 31319" transform="translate(729.591 469.049)">
        <path id="Path_12479-5" data-name="Path 12479" d="M811.873,483.422a.817.817,0,0,0,.814-.759A28.863,28.863,0,0,1,841.4,455.917c.871,0,1.785.044,2.719.132a.816.816,0,0,0,.785-.407,34.3,34.3,0,0,1,62.718,7.459.813.813,0,0,0,.8.589l.217-.007c.113,0,.226-.008.34-.008a24.188,24.188,0,0,1,23.571,19.1.817.817,0,0,0,.8.648h54.713a.817.817,0,0,0,0-1.633H934a25.836,25.836,0,0,0-25-19.746,35.929,35.929,0,0,0-65.26-7.664c-.8-.063-1.591-.094-2.349-.094a30.5,30.5,0,0,0-30.337,28.264.817.817,0,0,0,.758.872Z" transform="translate(-811.056 -436.724)" fill="#cbcbcb"/>
        <path id="Path_12480-5" data-name="Path 12480" d="M823.99,507.607H957.927a.817.817,0,0,0,0-1.633H823.99a.817.817,0,0,0,0,1.633Z" transform="translate(-813.456 -450.438)" fill="#cbcbcb"/>
        <path id="Path_12481-5" data-name="Path 12481" d="M950.266,522.374h44.918a.817.817,0,1,0,0-1.633H950.266a.817.817,0,1,0,0,1.633Z" transform="translate(-838.463 -453.362)" fill="#cbcbcb"/>
      </g>
      <g id="Group_31321" data-name="Group 31321" transform="translate(891.555 54.848)">
        <path id="Path_12470-2" data-name="Path 12470" d="M456.228,434.794c0,30.574-32.053,45.2-32.053,45.2s-32.382-14.629-33.04-45.2c-.386-17.971,14.572-32.546,32.547-32.546A32.546,32.546,0,0,1,456.228,434.794Z" transform="translate(-391.128 -402.248)" fill="#e5e5e5"/>
        <path id="Path_12471-2" data-name="Path 12471" d="M272.643,378.128h-21.7l-2.63-10.52h26.958Z" transform="translate(-228.747 -298.57)" fill="#cbcbcb"/>
        <rect id="Rectangle_1703-2" data-name="Rectangle 1703" width="20.218" height="10.536" transform="translate(22.938 97.55)" fill="#fff"/>
        <path id="Path_12472-2" data-name="Path 12472" d="M440.072,534.545H419.525V523.68h20.547Zm-20.218-.329h19.89V524.009h-19.89Z" transform="translate(-396.752 -426.296)" fill="#cbcbcb"/>
        <path id="Path_12473-2" data-name="Path 12473" d="M268.008,381.9h-8.289l-.951-1.495h10.191Z" transform="translate(-230.817 -301.106)" fill="#cbcbcb"/>
        <rect id="Rectangle_1704-2" data-name="Rectangle 1704" width="0.329" height="16.109" transform="translate(22.363 79.558)" fill="#cbcbcb"/>
        <rect id="Rectangle_1705-2" data-name="Rectangle 1705" width="0.329" height="16.109" transform="translate(43.403 79.558)" fill="#cbcbcb"/>
        <path id="Path_12474-2" data-name="Path 12474" d="M436.4,471.207l-.2-.26c9.5-7.324,20.819-19.871,20.819-38.054a32.338,32.338,0,0,0-19.778-29.837l.128-.3a32.666,32.666,0,0,1,19.978,30.14C457.342,451.209,445.951,463.839,436.4,471.207Z" transform="translate(-400.053 -402.346)" fill="#cbcbcb"/>
        <path id="Path_12475-2" data-name="Path 12475" d="M423.277,471.232l-.2-.26c9.5-7.324,20.819-19.871,20.819-38.054a32.376,32.376,0,0,0-19.552-29.741l.13-.3a32.7,32.7,0,0,1,19.751,30.043C444.224,451.233,432.833,463.863,423.277,471.232Z" transform="translate(-397.455 -402.371)" fill="#cbcbcb"/>
        <path id="Path_12476-2" data-name="Path 12476" d="M434.943,471.231c-9.556-7.369-20.947-20-20.947-38.314a32.7,32.7,0,0,1,19.751-30.043l.13.3a32.376,32.376,0,0,0-19.553,29.741c0,18.183,11.321,30.73,20.819,38.054Z" transform="translate(-395.656 -402.371)" fill="#cbcbcb"/>
        <path id="Path_12477-2" data-name="Path 12477" d="M421.825,471.193c-9.556-7.369-20.947-20-20.947-38.314a32.643,32.643,0,0,1,20.112-30.2l.127.3a32.315,32.315,0,0,0-19.91,29.893c0,18.183,11.321,30.73,20.819,38.054Z" transform="translate(-393.059 -402.333)" fill="#cbcbcb"/>
        <rect id="Rectangle_1706-2" data-name="Rectangle 1706" width="0.329" height="69.038" transform="translate(32.389 0)" fill="#cbcbcb"/>
        <rect id="Rectangle_1707-2" data-name="Rectangle 1707" width="8.525" height="0.329" transform="translate(22.825 101.189) rotate(-45)" fill="#cbcbcb"/>
        <rect id="Rectangle_1708-2" data-name="Rectangle 1708" width="13.005" height="0.329" transform="translate(22.822 104.485) rotate(-46.444)" fill="#cbcbcb"/>
        <rect id="Rectangle_1709-2" data-name="Rectangle 1709" width="24.656" height="2.959" transform="translate(20.391 95.174)" fill="#fff"/>
        <path id="Path_12478-2" data-name="Path 12478" d="M441.333,524.006H416.348v-3.287h24.985Zm-24.656-.329H441v-2.63H416.677Z" transform="translate(-396.122 -425.709)" fill="#cbcbcb"/>
      </g>
      <g id="Group_31322" data-name="Group 31322" transform="translate(1062.223 511.751)">
        <path id="Path_12470-3" data-name="Path 12470" d="M456.228,434.794c0,30.574-32.053,45.2-32.053,45.2s-32.382-14.629-33.04-45.2c-.386-17.971,14.572-32.546,32.547-32.546A32.546,32.546,0,0,1,456.228,434.794Z" transform="translate(-391.128 -402.248)" fill="#e5e5e5"/>
        <path id="Path_12471-3" data-name="Path 12471" d="M272.643,378.128h-21.7l-2.63-10.52h26.958Z" transform="translate(-228.747 -298.57)" fill="#cbcbcb"/>
        <rect id="Rectangle_1703-3" data-name="Rectangle 1703" width="20.218" height="10.536" transform="translate(22.938 97.55)" fill="#fff"/>
        <path id="Path_12472-3" data-name="Path 12472" d="M440.072,534.545H419.525V523.68h20.547Zm-20.218-.329h19.89V524.009h-19.89Z" transform="translate(-396.752 -426.296)" fill="#cbcbcb"/>
        <path id="Path_12473-3" data-name="Path 12473" d="M268.008,381.9h-8.289l-.951-1.495h10.191Z" transform="translate(-230.817 -301.106)" fill="#cbcbcb"/>
        <rect id="Rectangle_1704-3" data-name="Rectangle 1704" width="0.329" height="16.109" transform="translate(22.363 79.558)" fill="#cbcbcb"/>
        <rect id="Rectangle_1705-3" data-name="Rectangle 1705" width="0.329" height="16.109" transform="translate(43.403 79.558)" fill="#cbcbcb"/>
        <path id="Path_12474-3" data-name="Path 12474" d="M436.4,471.207l-.2-.26c9.5-7.324,20.819-19.871,20.819-38.054a32.338,32.338,0,0,0-19.778-29.837l.128-.3a32.666,32.666,0,0,1,19.978,30.14C457.342,451.209,445.951,463.839,436.4,471.207Z" transform="translate(-400.053 -402.346)" fill="#cbcbcb"/>
        <path id="Path_12475-3" data-name="Path 12475" d="M423.277,471.232l-.2-.26c9.5-7.324,20.819-19.871,20.819-38.054a32.376,32.376,0,0,0-19.552-29.741l.13-.3a32.7,32.7,0,0,1,19.751,30.043C444.224,451.233,432.833,463.863,423.277,471.232Z" transform="translate(-397.455 -402.371)" fill="#cbcbcb"/>
        <path id="Path_12476-3" data-name="Path 12476" d="M434.943,471.231c-9.556-7.369-20.947-20-20.947-38.314a32.7,32.7,0,0,1,19.751-30.043l.13.3a32.376,32.376,0,0,0-19.553,29.741c0,18.183,11.321,30.73,20.819,38.054Z" transform="translate(-395.656 -402.371)" fill="#cbcbcb"/>
        <path id="Path_12477-3" data-name="Path 12477" d="M421.825,471.193c-9.556-7.369-20.947-20-20.947-38.314a32.643,32.643,0,0,1,20.112-30.2l.127.3a32.315,32.315,0,0,0-19.91,29.893c0,18.183,11.321,30.73,20.819,38.054Z" transform="translate(-393.059 -402.333)" fill="#cbcbcb"/>
        <rect id="Rectangle_1706-3" data-name="Rectangle 1706" width="0.329" height="69.038" transform="translate(32.389 0)" fill="#cbcbcb"/>
        <rect id="Rectangle_1707-3" data-name="Rectangle 1707" width="8.525" height="0.329" transform="translate(22.825 101.189) rotate(-45)" fill="#cbcbcb"/>
        <rect id="Rectangle_1708-3" data-name="Rectangle 1708" width="13.005" height="0.329" transform="translate(22.822 104.485) rotate(-46.444)" fill="#cbcbcb"/>
        <rect id="Rectangle_1709-3" data-name="Rectangle 1709" width="24.656" height="2.959" transform="translate(20.391 95.174)" fill="#fff"/>
        <path id="Path_12478-3" data-name="Path 12478" d="M441.333,524.006H416.348v-3.287h24.985Zm-24.656-.329H441v-2.63H416.677Z" transform="translate(-396.122 -425.709)" fill="#cbcbcb"/>
      </g>
    </g>
    <g id="Group_31326" data-name="Group 31326" transform="translate(1536.043 514.208)">
      <path id="Path_12461-2" data-name="Path 12461" d="M330.759,577.035c0,46.321-48.562,68.486-48.562,68.486s-49.061-22.164-50.057-68.486c-.586-27.227,22.077-49.31,49.31-49.31a49.31,49.31,0,0,1,49.31,49.31Z" transform="translate(-232.128 -527.725)" fill="#e5e5e5"/>
      <path id="Path_12462-2" data-name="Path 12462" d="M138.74,553.363H105.867l-3.985-15.938h40.842Z" transform="translate(-72.236 -432.828)" fill="#cbcbcb"/>
      <rect id="Rectangle_1696-2" data-name="Rectangle 1696" width="30.632" height="15.963" transform="translate(34.752 147.793)" fill="#fff"/>
      <path id="Path_12463-2" data-name="Path 12463" d="M306.281,728.163h-31.13V711.7h31.13Zm-30.632-.5h30.134V712.2H275.649Z" transform="translate(-240.648 -564.16)" fill="#cbcbcb"/>
      <path id="Path_12464-2" data-name="Path 12464" d="M131.719,559.084H119.161l-1.441-2.265h15.44Z" transform="translate(-75.372 -436.669)" fill="#cbcbcb"/>
      <rect id="Rectangle_1697-2" data-name="Rectangle 1697" width="0.498" height="24.406" transform="translate(33.88 120.534)" fill="#cbcbcb"/>
      <rect id="Rectangle_1698-2" data-name="Rectangle 1698" width="0.498" height="24.406" transform="translate(65.757 120.534)" fill="#cbcbcb"/>
      <path id="Path_12465-2" data-name="Path 12465" d="M300.71,632.2l-.3-.395c14.389-11.1,31.541-30.106,31.541-57.653a48.993,48.993,0,0,0-29.964-45.205l.194-.459a49.491,49.491,0,0,1,30.268,45.664C332.445,601.905,315.188,621.039,300.71,632.2Z" transform="translate(-245.65 -527.877)" fill="#cbcbcb"/>
      <path id="Path_12466-2" data-name="Path 12466" d="M280.836,632.24l-.3-.394c14.389-11.1,31.542-30.106,31.542-57.653a49.051,49.051,0,0,0-29.623-45.06l.2-.457a49.549,49.549,0,0,1,29.924,45.517C312.571,601.942,295.313,621.076,280.836,632.24Z" transform="translate(-241.714 -527.913)" fill="#cbcbcb"/>
      <path id="Path_12467-2" data-name="Path 12467" d="M298.508,632.24c-14.477-11.164-31.735-30.3-31.735-58.048A49.549,49.549,0,0,1,296.7,528.676l.2.457a49.051,49.051,0,0,0-29.623,45.06c0,27.547,17.152,46.557,31.541,57.653Z" transform="translate(-238.989 -527.913)" fill="#cbcbcb"/>
      <path id="Path_12468-2" data-name="Path 12468" d="M278.634,632.183c-14.478-11.164-31.735-30.3-31.735-58.048a49.456,49.456,0,0,1,30.47-45.749l.192.46A48.959,48.959,0,0,0,247.4,574.135c0,27.548,17.152,46.557,31.541,57.653Z" transform="translate(-235.053 -527.856)" fill="#cbcbcb"/>
      <rect id="Rectangle_1699-2" data-name="Rectangle 1699" width="0.498" height="104.596" transform="translate(49.072 0)" fill="#cbcbcb"/>
      <rect id="Rectangle_1700-2" data-name="Rectangle 1700" width="12.916" height="0.498" transform="translate(34.578 153.308) rotate(-45)" fill="#cbcbcb"/>
      <rect id="Rectangle_1701-2" data-name="Rectangle 1701" width="19.703" height="0.498" transform="translate(34.575 158.301) rotate(-46.444)" fill="#cbcbcb"/>
      <rect id="Rectangle_1702-2" data-name="Rectangle 1702" width="37.356" height="4.483" transform="translate(30.892 144.195)" fill="#fff"/>
      <path id="Path_12469-2" data-name="Path 12469" d="M308.192,712.2H270.338v-4.981h37.854Zm-37.356-.5h36.858v-3.985H270.836Z" transform="translate(-239.695 -563.27)" fill="#cbcbcb"/>
    </g>
  </g>
</svg>
