<svg xmlns="http://www.w3.org/2000/svg" xmlns:xlink="http://www.w3.org/1999/xlink" width="68" height="68" viewBox="0 0 68 68">
  <defs>
    <filter id="Ellipse_189" x="0" y="0" width="68" height="68" filterUnits="userSpaceOnUse">
      <feOffset dy="3" input="SourceAlpha"/>
      <feGaussianBlur stdDeviation="3" result="blur"/>
      <feFlood flood-opacity="0.161"/>
      <feComposite operator="in" in2="blur"/>
      <feComposite in="SourceGraphic"/>
    </filter>
  </defs>
  <g id="Group_31222" data-name="Group 31222" transform="translate(-17129 -13897)">
    <g transform="matrix(1, 0, 0, 1, 17129, 13897)" filter="url(#Ellipse_189)">
      <circle id="Ellipse_189-2" data-name="Ellipse 189" cx="25" cy="25" r="25" transform="translate(9 6)" fill="#fff"/>
    </g>
    <g id="Group_31221" data-name="Group 31221" transform="translate(-3.001 0)">
      <g id="Group_31220" data-name="Group 31220" transform="translate(-3 -23)">
        <g id="pubg" transform="translate(17154 13930)">
          <g id="Group_31188" data-name="Group 31188" transform="translate(2.705 1.082)">
            <path id="Path_12412" data-name="Path 12412" d="M10.935,6.041H8.771a.271.271,0,0,1,0-.541h2.164a.271.271,0,0,1,0,.541Z" transform="translate(-8.5 -5.5)" fill="#263238"/>
          </g>
          <g id="Group_31189" data-name="Group 31189" transform="translate(3.787 0)">
            <path id="Path_12413" data-name="Path 12413" d="M10.771,6.205a.271.271,0,0,1-.271-.271V3.771a.271.271,0,0,1,.541,0V5.935A.27.27,0,0,1,10.771,6.205Z" transform="translate(-10.5 -3.5)" fill="#263238"/>
          </g>
          <g id="Group_31190" data-name="Group 31190" transform="translate(0 3.787)">
            <path id="Path_12414" data-name="Path 12414" d="M5.935,11.041H3.771a.271.271,0,0,1,0-.541H5.935a.271.271,0,0,1,0,.541Z" transform="translate(-3.5 -10.5)" fill="#263238"/>
          </g>
          <g id="Group_31191" data-name="Group 31191" transform="translate(1.082 2.705)">
            <path id="Path_12415" data-name="Path 12415" d="M5.771,11.205a.271.271,0,0,1-.271-.271V8.771a.271.271,0,0,1,.541,0v2.164A.27.27,0,0,1,5.771,11.205Z" transform="translate(-5.5 -8.5)" fill="#263238"/>
          </g>
          <g id="Group_31192" data-name="Group 31192" transform="translate(8.656 20.559)">
            <path id="Path_12416" data-name="Path 12416" d="M21.123,51.779a.271.271,0,0,1-.206-.1l-1.353-1.59a.272.272,0,0,1-.063-.2l.812-8.149a.27.27,0,0,1,.269-.243h1.082a.271.271,0,0,1,.269.243l.812,8.149a.269.269,0,0,1-.063.2l-1.353,1.59A.27.27,0,0,1,21.123,51.779Zm-1.072-1.948,1.072,1.259,1.072-1.259-.776-7.791h-.592Z" transform="translate(-19.5 -41.5)" fill="#263238"/>
          </g>
          <g id="Group_31193" data-name="Group 31193" transform="translate(0.271 17.887)">
            <path id="Path_12417" data-name="Path 12417" d="M4.271,49.513A.271.271,0,0,1,4,49.243V42.18A4.324,4.324,0,0,1,6.623,38.2L10.4,36.584a.271.271,0,0,1,.213.5L6.836,38.7A3.784,3.784,0,0,0,4.541,42.18v7.063A.27.27,0,0,1,4.271,49.513Z" transform="translate(-4 -36.562)" fill="#263238"/>
          </g>
          <g id="Group_31194" data-name="Group 31194" transform="translate(13.515 17.887)">
            <path id="Path_12418" data-name="Path 12418" d="M34.983,49.513a.271.271,0,0,1-.271-.271V42.18a3.783,3.783,0,0,0-2.3-3.481l-3.773-1.617a.271.271,0,0,1,.213-.5L32.63,38.2a4.323,4.323,0,0,1,2.624,3.979v7.063A.27.27,0,0,1,34.983,49.513Z" transform="translate(-28.48 -36.563)" fill="#263238"/>
          </g>
          <g id="Group_31195" data-name="Group 31195" transform="translate(6.502 17.313)">
            <path id="Path_12419" data-name="Path 12419" d="M15.79,39.287a.271.271,0,0,1-.271-.271V36.346a.271.271,0,0,1,.164-.249l1.343-.575a.272.272,0,0,1,.332.1l1.082,1.623a.27.27,0,0,1-.075.374L15.94,39.241A.267.267,0,0,1,15.79,39.287Zm.271-2.762V38.51l1.779-1.191-.808-1.211Z" transform="translate(-15.519 -35.5)" fill="#263238"/>
          </g>
          <g id="Group_31196" data-name="Group 31196" transform="translate(11.091 17.313)">
            <path id="Path_12420" data-name="Path 12420" d="M26.695,39.287a.267.267,0,0,1-.15-.046L24.12,37.618a.27.27,0,0,1-.075-.374l1.082-1.623a.273.273,0,0,1,.332-.1L26.8,36.1a.271.271,0,0,1,.164.249v2.671a.271.271,0,0,1-.271.271Zm-2.049-1.968,1.779,1.191V36.524l-.972-.417Z" transform="translate(-24 -35.501)" fill="#263238"/>
          </g>
          <g id="Group_31197" data-name="Group 31197" transform="translate(8.927 18.936)">
            <path id="Path_12421" data-name="Path 12421" d="M21.894,40.664H20.812A.813.813,0,0,1,20,39.853v-.541a.813.813,0,0,1,.812-.812h1.082a.813.813,0,0,1,.812.812v.541A.812.812,0,0,1,21.894,40.664Zm-1.082-1.623a.271.271,0,0,0-.271.271v.541a.271.271,0,0,0,.271.271h1.082a.271.271,0,0,0,.271-.271v-.541a.271.271,0,0,0-.271-.271Z" transform="translate(-20 -38.5)" fill="#263238"/>
          </g>
          <g id="Group_31198" data-name="Group 31198" transform="translate(7.845 16.364)">
            <path id="Path_12422" data-name="Path 12422" d="M19.485,37.057h-.015a.271.271,0,0,1-.21-.12l-1.214-1.821a.273.273,0,0,1-.045-.15v-.948a.271.271,0,0,1,.541,0v.867l1.01,1.514a.786.786,0,0,1,.343-.08h1.082a.79.79,0,0,1,.343.08l1.01-1.514v-.867a.271.271,0,1,1,.541,0v.948a.268.268,0,0,1-.045.15L21.61,36.936a.27.27,0,0,1-.21.12.267.267,0,0,1-.222-.1.268.268,0,0,0-.2-.1H19.894a.267.267,0,0,0-.2.1A.27.27,0,0,1,19.485,37.057Z" transform="translate(-18 -33.747)" fill="#263238"/>
          </g>
          <g id="Group_31199" data-name="Group 31199" transform="translate(4.329 9.467)">
            <path id="Path_12423" data-name="Path 12423" d="M22.821,26.367H12.542A.541.541,0,0,1,12,25.826V21.5H23.362v4.328A.541.541,0,0,1,22.821,26.367Z" transform="translate(-11.73 -21.227)" fill="#4db6ac"/>
            <path id="Path_12424" data-name="Path 12424" d="M22.592,26.408H12.313A.813.813,0,0,1,11.5,25.6V21.269A.271.271,0,0,1,11.772,21H23.133a.271.271,0,0,1,.271.271V25.6A.813.813,0,0,1,22.592,26.408Zm-10.55-4.869V25.6a.271.271,0,0,0,.271.271H22.592a.271.271,0,0,0,.271-.271V21.539Z" transform="translate(-11.501 -20.998)" fill="#263238"/>
          </g>
          <g id="Group_31200" data-name="Group 31200" transform="translate(4.329 9.467)">
            <path id="Path_12425" data-name="Path 12425" d="M22.821,26.367H12.542A.541.541,0,0,1,12,25.826V21.5H23.362v4.328A.541.541,0,0,1,22.821,26.367Z" transform="translate(-11.73 -21.227)" fill="#4db6ac"/>
            <path id="Path_12426" data-name="Path 12426" d="M22.592,26.408H12.313A.813.813,0,0,1,11.5,25.6V21.269A.271.271,0,0,1,11.772,21H23.133a.271.271,0,0,1,.271.271V25.6A.813.813,0,0,1,22.592,26.408Zm-10.55-4.869V25.6a.271.271,0,0,0,.271.271H22.592a.271.271,0,0,0,.271-.271V21.539Z" transform="translate(-11.501 -20.998)" fill="#263238"/>
          </g>
          <g id="Group_31201" data-name="Group 31201" transform="translate(6.236 15.418)">
            <path id="Path_12427" data-name="Path 12427" d="M19.07,33.893a6.222,6.222,0,0,1-3.945-1.415.27.27,0,1,1,.344-.417,5.663,5.663,0,0,0,7.2,0,.27.27,0,1,1,.344.417A6.221,6.221,0,0,1,19.07,33.893Z" transform="translate(-15.027 -31.998)" fill="#263238"/>
          </g>
          <g id="Group_31202" data-name="Group 31202" transform="translate(3.517 7.844)">
            <path id="Path_12428" data-name="Path 12428" d="M22.943,20.121h-11.9a.541.541,0,0,1-.541-.541v-.541a.541.541,0,0,1,.541-.541h11.9a.541.541,0,0,1,.541.541v.541A.541.541,0,0,1,22.943,20.121Z" transform="translate(-10.229 -18.227)" fill="#4db6ac"/>
            <path id="Path_12429" data-name="Path 12429" d="M22.714,20.162h-11.9A.813.813,0,0,1,10,19.351V18.81A.813.813,0,0,1,10.812,18h11.9a.813.813,0,0,1,.812.812v.541A.812.812,0,0,1,22.714,20.162Zm-11.9-1.623a.271.271,0,0,0-.271.271v.541a.271.271,0,0,0,.271.271h11.9a.271.271,0,0,0,.271-.271V18.81a.271.271,0,0,0-.271-.271Z" transform="translate(-10 -17.998)" fill="#263238"/>
          </g>
          <g id="Group_31203" data-name="Group 31203" transform="translate(4.167 3.517)">
            <path id="Path_12430" data-name="Path 12430" d="M23.386,14.827a5.412,5.412,0,0,0-5.3-4.327H17a5.412,5.412,0,0,0-5.3,4.327H23.386Z" transform="translate(-11.431 -10.229)" fill="#4db6ac"/>
            <path id="Path_12431" data-name="Path 12431" d="M23.157,14.868H11.472a.271.271,0,0,1-.265-.325A5.7,5.7,0,0,1,16.773,10h1.082a5.7,5.7,0,0,1,5.567,4.543.271.271,0,0,1-.265.325Zm-11.342-.541h11a5.156,5.156,0,0,0-4.959-3.786H16.773A5.156,5.156,0,0,0,11.814,14.327Z" transform="translate(-11.202 -10)" fill="#263238"/>
          </g>
          <g id="Group_31204" data-name="Group 31204" transform="translate(5.951 9.468)">
            <path id="Path_12432" data-name="Path 12432" d="M23.115,24.746H20.14l-1.083-1.082-1.081,1.082H15V21.5h8.115Z" transform="translate(-14.729 -21.229)" fill="#ffd740"/>
            <path id="Path_12433" data-name="Path 12433" d="M22.886,24.787H19.91a.272.272,0,0,1-.192-.079l-.891-.891-.891.891a.268.268,0,0,1-.191.08H14.771a.271.271,0,0,1-.271-.271V21.271A.271.271,0,0,1,14.771,21h8.115a.271.271,0,0,1,.271.271v3.246A.27.27,0,0,1,22.886,24.787Zm-2.863-.541h2.593V21.541H15.041v2.705h2.593l1-1a.278.278,0,0,1,.382,0Z" transform="translate(-14.5 -21)" fill="#263238"/>
          </g>
          <g id="Group_31205" data-name="Group 31205" transform="translate(2.705 9.468)">
            <path id="Path_12434" data-name="Path 12434" d="M10.394,24.647a.272.272,0,0,1-.259-.191c-.022-.07-.042-.141-.062-.211A1.623,1.623,0,0,1,10.123,21h.271a.271.271,0,0,1,.271.271v3.106a.27.27,0,0,1-.23.267A.245.245,0,0,1,10.394,24.647Zm-.271-3.106a1.082,1.082,0,1,0,0,2.164h0Z" transform="translate(-8.5 -21)" fill="#263238"/>
          </g>
          <g id="Group_31206" data-name="Group 31206" transform="translate(15.69 9.468)">
            <path id="Path_12435" data-name="Path 12435" d="M32.772,24.644a.256.256,0,0,1-.041,0,.27.27,0,0,1-.23-.267v-3.1A.271.271,0,0,1,32.772,21h.271a1.623,1.623,0,0,1,.05,3.246q-.029.1-.062.208A.271.271,0,0,1,32.772,24.644Zm.271-3.1v2.164a1.082,1.082,0,0,0,0-2.164Z" transform="translate(-32.501 -21)" fill="#263238"/>
          </g>
          <g id="Group_31207" data-name="Group 31207" transform="translate(3.787 18.742)">
            <path id="Path_12436" data-name="Path 12436" d="M10.5,49.968h1.623V38.143l-1.623.7Z" transform="translate(-10.5 -38.143)" fill="#ffd740"/>
          </g>
          <g id="Group_31208" data-name="Group 31208" transform="translate(15.148 18.742)">
            <path id="Path_12437" data-name="Path 12437" d="M31.5,49.968h1.623V38.839l-1.623-.7Z" transform="translate(-31.5 -38.143)" fill="#ffd740"/>
          </g>
          <g id="Group_31209" data-name="Group 31209" transform="translate(3.517 18.472)">
            <path id="Path_12438" data-name="Path 12438" d="M11.894,50.009a.271.271,0,0,1-.271-.271V38.324l-1.082.464V49.739a.271.271,0,1,1-.541,0V38.61a.271.271,0,0,1,.164-.249l1.623-.7a.275.275,0,0,1,.255.023.268.268,0,0,1,.122.226V49.739A.27.27,0,0,1,11.894,50.009Z" transform="translate(-10 -37.644)" fill="#263238"/>
          </g>
          <g id="Group_31210" data-name="Group 31210" transform="translate(14.878 18.472)">
            <path id="Path_12439" data-name="Path 12439" d="M32.894,50.009a.271.271,0,0,1-.271-.271V38.788l-1.082-.464V49.739a.271.271,0,0,1-.541,0V37.914a.271.271,0,0,1,.377-.249l1.623.7a.271.271,0,0,1,.164.249V49.739A.27.27,0,0,1,32.894,50.009Z" transform="translate(-31 -37.643)" fill="#263238"/>
          </g>
          <g id="Group_31211" data-name="Group 31211" transform="translate(21.911 4.328)">
            <path id="Path_12440" data-name="Path 12440" d="M45.894,13.123a.271.271,0,0,1-.271-.271v-.812H44.541v.812a.271.271,0,0,1-.541,0V11.771a.271.271,0,0,1,.271-.271h1.623a.271.271,0,0,1,.271.271v1.082A.27.27,0,0,1,45.894,13.123Z" transform="translate(-44 -11.5)" fill="#263238"/>
          </g>
          <g id="Group_31212" data-name="Group 31212" transform="translate(21.37 14.337)">
            <path id="Path_12441" data-name="Path 12441" d="M43.5,31.041V41.214a1.355,1.355,0,0,0,.193.7l.426.709a1.349,1.349,0,0,1,.193.7v1.521h1.894v-1.9l.571-.38a.54.54,0,0,0,.241-.45V31.041a.541.541,0,0,0-.541-.541H44.041A.541.541,0,0,0,43.5,31.041Z" transform="translate(-43.229 -30.229)" fill="#4db6ac"/>
            <path id="Path_12442" data-name="Path 12442" d="M45.976,44.878H44.082a.271.271,0,0,1-.271-.271V43.086a1.082,1.082,0,0,0-.154-.556l-.426-.71A1.622,1.622,0,0,1,43,40.985V30.812A.813.813,0,0,1,43.812,30h2.435a.813.813,0,0,1,.812.812v11.07a.81.81,0,0,1-.361.675l-.45.3v1.751A.27.27,0,0,1,45.976,44.878Zm-1.623-.541h1.353V42.712a.27.27,0,0,1,.121-.225l.571-.38a.269.269,0,0,0,.121-.225V30.812a.271.271,0,0,0-.271-.271H43.812a.271.271,0,0,0-.271.271V40.984a1.083,1.083,0,0,0,.154.557l.426.71a1.62,1.62,0,0,1,.232.835v1.251Z" transform="translate(-43 -30)" fill="#263238"/>
          </g>
          <g id="Group_31213" data-name="Group 31213" transform="translate(25.969 18.678)">
            <path id="Path_12443" data-name="Path 12443" d="M53.664,41.136a.271.271,0,0,1-.271-.271v-1.28l-1.762-1.058a.271.271,0,0,1,.279-.464L53.8,39.2a.271.271,0,0,1,.131.232v1.433A.27.27,0,0,1,53.664,41.136Z" transform="translate(-51.501 -38.025)" fill="#263238"/>
          </g>
          <g id="Group_31214" data-name="Group 31214" transform="translate(25.969 21.383)">
            <path id="Path_12444" data-name="Path 12444" d="M55.017,47.894a.269.269,0,0,1-.121-.029L51.65,46.242a.271.271,0,0,1,.242-.484l3,1.5.84-1.68L51.65,43.537a.271.271,0,0,1,.242-.484l4.328,2.164a.271.271,0,0,1,.121.363l-1.082,2.164A.27.27,0,0,1,55.017,47.894Z" transform="translate(-51.5 -43.024)" fill="#263238"/>
          </g>
          <g id="Group_31215" data-name="Group 31215" transform="translate(25.969 14.337)">
            <path id="Path_12445" data-name="Path 12445" d="M51.771,34.869a.27.27,0,0,1-.121-.512l4.086-2.043-.84-1.68-3,1.5a.271.271,0,0,1-.242-.484L54.9,30.029a.271.271,0,0,1,.363.121l1.082,2.164a.271.271,0,0,1-.121.363l-4.328,2.164A.275.275,0,0,1,51.771,34.869Z" transform="translate(-51.5 -30)" fill="#263238"/>
          </g>
          <g id="Group_31216" data-name="Group 31216" transform="translate(21.37 6.492)">
            <path id="Path_12446" data-name="Path 12446" d="M45.976,17.664H43.271A.271.271,0,0,1,43,17.394V15.771a.271.271,0,0,1,.271-.271h2.705a.271.271,0,0,1,.271.271v1.623A.27.27,0,0,1,45.976,17.664Zm-2.435-.541h2.164V16.041H43.541Z" transform="translate(-43 -15.5)" fill="#263238"/>
          </g>
          <g id="Group_31217" data-name="Group 31217" transform="translate(21.911 9.197)">
            <path id="Path_12447" data-name="Path 12447" d="M44.271,25.1A.271.271,0,0,1,44,24.828V20.771a.271.271,0,0,1,.541,0v4.058A.27.27,0,0,1,44.271,25.1Z" transform="translate(-44 -20.5)" fill="#263238"/>
          </g>
          <g id="Group_31218" data-name="Group 31218" transform="translate(23.534 9.197)">
            <path id="Path_12448" data-name="Path 12448" d="M47.271,25.1A.271.271,0,0,1,47,24.828V20.771a.271.271,0,0,1,.541,0v4.058A.27.27,0,0,1,47.271,25.1Z" transform="translate(-47 -20.5)" fill="#263238"/>
          </g>
          <g id="Group_31219" data-name="Group 31219" transform="translate(22.182 28.674)">
            <path id="Path_12449" data-name="Path 12449" d="M44.771,58.664a.271.271,0,0,1-.271-.271V56.771a.271.271,0,0,1,.271-.271h1.894a.271.271,0,0,1,.271.271v1.621a.271.271,0,1,1-.541,0v-1.35H45.041v1.353A.27.27,0,0,1,44.771,58.664Z" transform="translate(-44.5 -56.5)" fill="#263238"/>
          </g>
        </g>
      </g>
      <g id="pubg-1" transform="translate(17150.84 13936.781)">
        <path id="Path_12450" data-name="Path 12450" d="M1.547.1A.667.667,0,0,0,1.2.31C1.082.453,1.077.475,1.087.9c0,.246,0,.68,0,.973,0,.525,0,.525-.1.494a1.167,1.167,0,0,0-.742.05c-.067.072-.067.072.01.045.057-.017.076-.01.062.026a.066.066,0,0,1-.072.045c-.031,0-.05.076-.05.222a3.408,3.408,0,0,1-.026.391.274.274,0,0,0,.093.277c.107.114.143.124.463.124.3,0,.35.014.37.076.026.1,0,5.176-.031,5.248-.014.041-.114.057-.308.057a.891.891,0,0,0-.422.076c-.134.081-.138.088-.143.436-.01.708.01.734.57.734h.374l-.014.854c-.017,1.2.017,1.254.88,1.3,1.28.067,5.029.093,5.644.041a5.9,5.9,0,0,1,.613-.017c.289,0,.36,0,.412-.05s.062-.036.062,0a.05.05,0,0,0,.045.05c.026,0,.045-.041.045-.093s-.017-.076-.045-.062-.045,0-.045-.021c0-.081.107-.026.155.081s.057.1,1.044.1c.551,0,1.307.014,1.681.026a12.879,12.879,0,0,0,2.589-.1.055.055,0,0,1,.05-.062c.026,0,.041.031.021.067-.017.057.031.067.32.067.186,0,1.214.01,2.287.014s1.929,0,1.917-.026.014-.031.052-.031.057.021.041.052a3.418,3.418,0,0,0,1.307-.083c.324-.16.343-.227.346-1.192a8.273,8.273,0,0,1,.036-.935c.017-.052.052-.062.124-.041a1.766,1.766,0,0,0,.7-.026c.057-.036.052-.041-.014-.045-.05,0-.076-.021-.062-.057s.041-.05.062-.045a1.827,1.827,0,0,0,.052-.787c-.107-.191-.124-.2-.529-.222L20.5,8.913,20.5,6.231l-.014-2.678h.4c.365,0,.4-.01.5-.124a.268.268,0,0,0,.093-.277,2.922,2.922,0,0,1-.026-.386c0-.15-.017-.231-.05-.222a.07.07,0,0,1-.072-.05c-.014-.036,0-.045.062-.026s.072.021.014-.041a1.21,1.21,0,0,0-.711-.057c-.2.052-.217,0-.246-.8C20.4.337,20.3.16,19.694.177A1.829,1.829,0,0,1,19.32.16a6.5,6.5,0,0,0-1.185-.1c-.148,0-.405,0-.577,0S16.509.079,15.6.084,13.786.1,13.576.105,13.108.122,13,.12C11.272.093,9.842.084,9.766.1c-.057.014-.1.041-.088.057S9.668.2,9.642.2,9.6.186,9.6.155,9.382.1,8.685.1s-.906.014-.9.052-.017.057-.057.057S7.667.2,7.679.172C7.732.091,7.443.079,5.417.079,4.291.079,3.011.069,2.57.062A4.489,4.489,0,0,0,1.547.1Zm9.039,1.2c6.087.01,8.1,0,8.1-.041s.014-.036.036,0a.422.422,0,0,0,.253.067l.222.014,0,.222c.01.355.067,3.948.062,4.025-.014.379,0,3.238.021,4.235a4.721,4.721,0,0,1-.026,1.307,1.439,1.439,0,0,1-.37.021c-.329-.014-1.531-.014-6.137-.01-2.389,0-2.7.014-2.678.072s0,.067-.062.067-.081-.021-.062-.067-.258-.062-2.237-.062c-1.24,0-2.623.017-3.073.031a4.438,4.438,0,0,1-.808,0c0-.052-.155-.036-.215.021-.041.041-.067.045-.088.01a1.491,1.491,0,0,0-.582-.057,4.057,4.057,0,0,1-.587-.031,1.054,1.054,0,0,1-.041-.381c0-.3-.01-.351-.067-.329s-.067,0-.067-.062.021-.081.067-.062.067-.174.072-1.588c.017-5.319.017-5.257-.045-5.279-.036-.014-.045-.031-.014-.05A1.513,1.513,0,0,0,2.281,2.6a.31.31,0,0,1-.017-.217,3.407,3.407,0,0,0,.045-.546c0-.272.01-.515.01-.551s.031-.05.083-.021,3.724.038,8.183.043Z" fill="#21c98b"/>
        <path id="Path_12451" data-name="Path 12451" d="M154.209,99.191l-.947.01-.174.169a.513.513,0,0,0-.2.41,13.186,13.186,0,0,0-.01,1.958c.021.5.036.992.026,1.09s-.017.916-.017,1.824l0,1.645.107.174a.687.687,0,0,0,.248.231,10.905,10.905,0,0,0,2.2.021.637.637,0,0,0,.417-.534c.045-.432.026-3.717-.021-3.841l-.05-.119h-.61a1.873,1.873,0,0,0-.663.052,1.125,1.125,0,0,0-.052.479v.427l.134.076.134.081,0,.5c0,.277,0,.72,0,1a1.827,1.827,0,0,0,.045.577.2.2,0,0,1,0,.2c-.045.119-.05.119-.381.1-.379-.017-.448-.045-.379-.134.05-.062.072-3.171.031-4.633l-.021-.715.32-.017c.477-.021.472-.026.472.293a.7.7,0,0,0,.052.329c.041.041.041.052,0,.052-.1,0-.057.124.05.148a2.816,2.816,0,0,0,.832-.041,5.143,5.143,0,0,0,.057-.765l.017-.73-.124-.124c-.107-.107-.2-.143-.5-.191C155.175,99.184,154.724,99.184,154.209,99.191Zm-12.709.086a2.781,2.781,0,0,0-.041.911c.014,1,.01.92.062.837.036-.052.045-.041.045.052,0,.062-.021.124-.052.134s-.052.205-.052.663c0,.556-.014.658-.081.725s-.081.16-.081.57a1.653,1.653,0,0,0,.031.467c.041-.041.191.1.191.179,0,.031-.014.057-.031.057a12.942,12.942,0,0,0-.05,1.357c0,.746.01,1.357.026,1.357s.062.05.088.112c.05.107.067.112.494.112.658,0,.622.081.61-1.538-.01-.708-.017-1.307-.026-1.33-.05-.191-.026-.2.606-.2.684,0,.942-.05,1.094-.21l.1-.112.014-1.929a17.145,17.145,0,0,0-.036-2.02c-.112-.205-.231-.222-1.588-.236a5.651,5.651,0,0,0-1.326.043Zm1.755,1.066c0,.045,0,.52.01,1.059s.014.942.021.9c.036-.134.1-.081.1.083,0,.129-.014.155-.072.134s-.062,0-.045.052,0,.076-.272.062a.847.847,0,0,1-.355-.076c-.072-.072-.076-.2-.01-.2a3.911,3.911,0,0,0,.021-1.018c-.01-.56-.01-1.032,0-1.044a1.125,1.125,0,0,1,.312-.026c.238,0,.281.014.281.076Zm2.051-1.08a2.35,2.35,0,0,0,.031,1.059c.026,0,.052.021.052.057s-.026.062-.052.052-.062.067-.072.227c-.01.186,0,.231.045.205s.045-.021.01.031c-.072.093-.119,5.131-.052,5.429a.486.486,0,0,0,.2.324l.148.114,1.166-.017c1.3-.017,1.392-.041,1.533-.312a27.357,27.357,0,0,0,.114-4.3c-.01-1.063-.017-2.122-.017-2.344a.982.982,0,0,0-.05-.446.05.05,0,0,0-.072.021c-.021.076-.1.067-.1-.014,0-.052-.072-.067-.379-.067-.61,0-.565-.148-.56,1.9,0,.947.017,1.989.031,2.308.021.422.014.591-.021.591-.081,0-.057.169.031.217.052.036.062.057.021.081a1.929,1.929,0,0,0-.067.644c-.014.515-.026.622-.093.689s-.083.076-.138,0a.341.341,0,0,0-.386-.026c-.134.067-.272-.062-.236-.222.031-.134.052-3.824.031-5.162l-.017-.916-.191-.1c-.129-.072-.222-.1-.277-.072a1.153,1.153,0,0,1-.51,0A.177.177,0,0,0,145.306,99.263Zm3.963,0a11.815,11.815,0,0,0-.017,1.9,2.031,2.031,0,0,1,.01.467.928.928,0,0,0,.01.365c.057.072,0,.236-.081.236-.036,0-.052.021-.041.045s0,.076-.041.114a1.234,1.234,0,0,0-.026.751.141.141,0,0,1,.045.112.1.1,0,0,0,.05.1,6.621,6.621,0,0,1,.052,1.459,11.967,11.967,0,0,0,.041,1.5c.021.026.021.062,0,.072a.337.337,0,0,0-.021.205l.017.181,1.187-.014c1.769-.014,1.667.112,1.671-2.077,0-1.471,0-1.538-.088-1.629-.267-.289-.3-.343-.227-.382.179-.1.222-.3.231-.97,0-.355.014-1,.021-1.435.014-.746.01-.8-.081-.88-.138-.138-.346-.165-1.552-.169a4.237,4.237,0,0,0-1.166.052Zm1.664,1.016a12.418,12.418,0,0,1,0,1.686c0,.324-.026.343-.36.289l-.191-.026-.026-.386c-.014-.215-.026-.417-.031-.453s.014-.312.031-.613l.031-.544h.258A.527.527,0,0,1,150.933,100.274Zm-.019,3.126a4.991,4.991,0,0,1,.036.761c0,.391,0,.894,0,1.121a1.934,1.934,0,0,1-.021.448.927.927,0,0,1-.575-.031c-.05-.041-.057-.093-.031-.215a10.25,10.25,0,0,0,.041-1.121c0-.827.01-.966.072-1.009a.563.563,0,0,1,.475.045Z" transform="translate(-137.774 -96.766)" fill="#21c98b"/>
      </g>
    </g>
  </g>
</svg>
