<svg xmlns="http://www.w3.org/2000/svg" width="78.894" height="70.528" viewBox="0 0 78.894 70.528">
  <g id="Group_26870" data-name="Group 26870" transform="translate(-1373.177 -3780)">
    <g id="Group_30637" data-name="Group 30637">
      <path id="Path_3631" data-name="Path 3631" d="M34.788,0c12.356,0-8.754,14.051-8.754,25.459,0,8,4.273,14,2.553,16.9-.706,1.194-2.519,1.85-6.213,1.85C10.017,44.212,0,34.963,0,23.555S22.432,0,34.788,0Z" transform="translate(1402.798 3838.723) rotate(-140)" fill="#21c98b"/>
      <g id="XMLID_194_" transform="translate(1402.197 3800.556)">
        <path id="XMLID_195_" d="M3.431,2.93h7.032V0H.5V9.962h2.93Z" transform="translate(-0.501)" fill="#303970"/>
        <path id="XMLID_1037_" d="M107.238,108.47V78.708H99.125v2.93h5.182v3.977h-3.669v2.93h3.669v4.172h-8.38V88.243H93v4.474H87.012V80.749h3.433v-2.93H87.012V72.4H71.259V88.156H84.082V98.917H79.377v6.623h-6.6v2.93h14.24v-2.93H82.306v-3.693h4.705v-6.2h4.473V108.47h15.753Zm-2.93-2.93H94.415V95.647h9.893ZM74.189,75.333h9.893v9.893H74.189Z" transform="translate(-64.348 -65.332)" fill="#303970"/>
        <path id="XMLID_1051_" d="M357.077,72.4h8.064v2.93h-8.064Z" transform="translate(-322.252 -65.332)" fill="#303970"/>
        <path id="XMLID_1052_" d="M136.413,135.563h3.026v2.93h-3.026Z" transform="translate(-123.139 -122.323)" fill="#303970"/>
        <path id="XMLID_1061_" d="M341.092,346.049h3.026v2.93h-3.026Z" transform="translate(-307.828 -312.252)" fill="#303970"/>
        <path id="XMLID_1062_" d="M287.523,72.4h3.026v2.93h-3.026Z" transform="translate(-259.491 -65.332)" fill="#303970"/>
        <path id="XMLID_1063_" d="M293.352,174.775h3.026v2.93h-3.026Z" transform="translate(-264.751 -157.706)" fill="#303970"/>
        <path id="XMLID_1064_" d="M86.259,343.882h3.026v2.93H86.259Z" transform="translate(-77.883 -310.297)" fill="#303970"/>
        <path id="XMLID_1065_" d="M79.8,280.4h8.507v2.93H79.8Z" transform="translate(-72.055 -253.017)" fill="#303970"/>
        <path id="XMLID_1066_" d="M3.431,409.668H.5v9.962h9.962V416.7H3.431Z" transform="translate(-0.501 -369.658)" fill="#303970"/>
        <path id="XMLID_1067_" d="M409.167,0V2.93H416.2V9.962h2.93V0Z" transform="translate(-369.255)" fill="#303970"/>
        <path id="XMLID_1068_" d="M416.2,416.7h-7.032v2.93h9.962v-9.962H416.2Z" transform="translate(-369.255 -369.658)" fill="#303970"/>
      </g>
    </g>
  </g>
</svg>
