<svg xmlns="http://www.w3.org/2000/svg" width="53.846" height="59.033" viewBox="0 0 53.846 59.033">
  <g id="Group_26864" data-name="Group 26864" transform="translate(-139.437 -3780.26)">
    <g id="Group_30635" data-name="Group 30635">
      <path id="Path_3618" data-name="Path 3618" d="M32.155-2.678c11.421,0-8.092,12.987-8.092,23.532,0,7.392,3.949,12.938,2.359,15.623-.653,1.1-2.328,1.71-5.743,1.71C9.258,38.187,0,29.639,0,19.094S20.734-2.678,32.155-2.678Z" transform="translate(168.538 3832.486) rotate(-140)" fill="#21c98b"/>
      <path id="Icon_feather-bookmark" data-name="Icon feather-bookmark" d="M33.783,38.293,20.642,28.906,7.5,38.293V8.255A3.755,3.755,0,0,1,11.255,4.5H30.028a3.755,3.755,0,0,1,3.755,3.755Z" transform="translate(158 3799.5)" fill="none" stroke="#303970" stroke-linecap="round" stroke-linejoin="round" stroke-width="3"/>
    </g>
  </g>
</svg>
