<svg xmlns="http://www.w3.org/2000/svg" width="1000" height="508.779" viewBox="0 0 1000 508.779">
  <g id="Group_30633" data-name="Group 30633" transform="translate(5275.756 -9870.855)">
    <g id="undraw_connected_world_wuay" transform="translate(-5275.756 9870.855)">
      <path id="Path_11317" data-name="Path 11317" d="M312.306,261.314a33.088,33.088,0,0,0-2.163-8.28,3.748,3.748,0,0,0-1.905-2.347,3.926,3.926,0,0,0-1.891-.021l-9.706,1.485a3.721,3.721,0,0,0-2.215.861c-1.264,1.33-.019,3.47-.058,5.3-.044,2.063-1.876,3.737-3.863,4.291a14.6,14.6,0,0,1-6.139-.076l-13.572-2.109a22.378,22.378,0,0,0,10.268-6.852c1.786-2.116,2.736-6.066.155-7.068a6.337,6.337,0,0,0-2.357-.189c-6.149.048-10.988-5.086-16.745-7.249a18.515,18.515,0,0,0-20.837,6.212l7.23.349a3.209,3.209,0,0,1,1.926.514c1.585,1.3-.385,3.8-.162,5.841.29,2.649,3.807,3.214,6.458,3.482s6.014,2.422,4.739,4.761c-13.324,4.589-26.882-8.971-40.875-7.3-3.542.422-6.886,1.814-10.343,2.689-21.122,5.344-42.958-8.915-64.536-5.895a81.951,81.951,0,0,0-14.088,3.715c-2.937.964-6,2.006-8.134,4.243s-2.946,6.061-.924,8.4A47.271,47.271,0,0,1,106,264.5a9.281,9.281,0,0,1,4.771,8.179,98.288,98.288,0,0,0-25.179,7.678A42.408,42.408,0,0,0,90.8,287.3l-11.013,7.075c3.721.937,5.645,6.011,3.481,9.18,3.858-1.716,6.249-6.156,10.375-7.057,2.7-.59,5.453.516,8.017,1.555s5.382,2.046,8.036,1.266,4.612-4.221,2.925-6.414a137.333,137.333,0,0,1,34.884-5.45,4.375,4.375,0,0,1,2.642.5c1.538,1.067,1.133,3.372,1.05,5.242s1.375,4.328,3.046,3.485c-1.966,1.705-.285,4.915,1.6,6.708s4.16,4.267,3.005,6.6c-.3.609-.813,1.1-1.1,1.71-.856,1.813.5,3.927,2.106,5.131s3.567,2.045,4.681,3.713.608,4.586-1.383,4.818l-5.66-7.187a14.735,14.735,0,0,0-3.824,7.246c6,4.907,6.905,14.894,1.88,20.8-2.568,3.017-6.22,4.85-9.407,7.2s-6.136,5.7-6.128,9.666c.014,6.845-.545,13.2,2.019,19.549a301.148,301.148,0,0,0,16.349,34.109c1.617,2.893,3.708,6.063,6.984,6.561q-6.211-15.121-11.183-30.712c2.159.008,4.653.18,5.919,1.929,1.048,1.448.823,3.417,1.148,5.175A16.03,16.03,0,0,0,163.3,404.5l19.774,35.223c1.639,2.92,3.519,6.054,6.652,7.237,2,.756,4.32.614,6.164,1.7,1.445.853,2.418,2.368,3.892,3.171,4.165,2.272,9.958-2.086,13.851.627,1.113.776,1.821,2.008,2.847,2.9,3.6,3.113,9.493,1.031,13.643,3.353,2.675,1.5,4.061,4.49,5.488,7.2,3.574,6.8,9.356,13.453,17.015,13.994,2.406.17,4.863-.286,7.215.249s4.667,2.587,4.289,4.969c-.647,4.084,1.371,8.555.829,12.655-.987,7.467-11.578,10.748-12.488,18.224-.2,1.637.113,3.327-.277,4.929-.478,1.964-1.953,3.563-2.477,5.515-.993,3.7,1.657,7.38,4.568,9.869s6.384,4.635,7.976,8.118c1.682,3.682.856,7.976,1.4,11.987,1.194,8.757,8.758,15.248,16.542,19.434,2.372,1.275,4.918,2.51,6.453,4.722,2,2.888,1.8,6.694,2.473,10.145,1.638,8.45,8.752,15.412,8.954,24.017.144,6.116-3.256,11.665-5.287,17.436a40.661,40.661,0,0,0,3.32,33.722c1.519,2.565,3.336,4.984,4.411,7.765,1.918,4.963,1.3,10.6,3.064,15.622,2.338,6.634,8.762,12.114,8.147,19.121,2.916,6.057,9.357,9.032,15.832,10.835l11.606,3.231c2.222.619,4.544,1.242,6.807.794s4.422-2.327,4.364-4.633c-5.691-1.284-11.566-2.648-16.257-6.117s-7.906-9.644-6.126-15.2c.825-2.576,2.581-5.552.912-7.68-.956-1.219-2.7-1.537-3.782-2.649-1.682-1.735-1.1-4.649.105-6.74s2.957-3.961,3.444-6.327a6.6,6.6,0,0,0-3.094-6.868,16.411,16.411,0,0,0,5.745-3.686c1.511-1.725,2.208-4.385,1.02-6.346,3.529.448,7.7.667,10.012-2.033,1.85-2.156,1.723-5.379.992-8.124s-1.966-5.411-2-8.252a150.375,150.375,0,0,0,24.4-.827,15.819,15.819,0,0,0-7.417-9.289c3.667-.62,7.007-5.01,8.166-8.544s.863-7.383.147-11.032a5.92,5.92,0,0,1-.11-2.89c.413-1.316,1.706-2.119,2.9-2.806l18.2-10.453a10.6,10.6,0,0,0,2.91-2.149c1.907-2.24,1.624-5.621.648-8.4s-2.54-5.384-2.916-8.3c-1.125-8.725,8.215-14.986,11.367-23.2a34.955,34.955,0,0,0,1.729-10.171c.257-3.7.276-8-2.564-10.38-2.723-2.285-6.977-1.775-9.826-3.9-2.612-1.949-3.513-5.733-6.367-7.307-2.591-1.429-5.84-.52-8.723-1.193-5.075-1.184-8.268-7.032-13.45-7.574-2.924-.305-6.233,1.124-8.63-.579-2.112-1.5-2.2-4.517-2.6-7.076a19.76,19.76,0,0,0-15.949-16c-3.015-.484-6.3-.3-8.861-1.957-2.6-1.678-3.788-4.819-5.828-7.142-3.288-3.745-8.466-5.075-13.317-6.215l-19.731-4.639c-3.5-.823-8.018-1.26-9.9,1.808a14.178,14.178,0,0,0-1.171,3.682,11.4,11.4,0,0,1-10.724,8.072,12.682,12.682,0,0,0-7.478-5.786c-2-.558-4.142-.62-6.051-1.44a8.5,8.5,0,0,1-3.688-11.79,10.58,10.58,0,0,0-1.808-12.726c-3.356-3.013-8.209-3.74-12.709-3.439-1.178-2.571.792-5.472,2.915-7.341s4.7-3.706,5.164-6.5c.727-4.389-4.873-7.723-9.125-6.414s-6.966,5.439-8.76,9.51c-1.029,2.336-1.9,4.8-3.528,6.766s-4.239,3.38-6.712,2.748c-3.5-.895-4.854-5.055-5.629-8.585-1.04-4.736-2.085-9.538-1.868-14.381s1.851-9.817,5.423-13.1c5.82-5.343,14.749-4.82,22.6-3.967-1.856-2.091-1.4-5.615.588-7.583a8.621,8.621,0,0,1,7.814-1.92,10.768,10.768,0,0,1,6.054,3.619c2.232,2.722,2.867,6.4,4.554,9.485s5.481,5.724,8.586,4.067c2.682-1.432,3.108-5.151,2.44-8.117s-2.085-5.85-1.844-8.881c.461-5.783,6.456-9.264,11.746-11.645s11.347-5.585,12.185-11.325a10.325,10.325,0,0,1,.628-3.291,6.456,6.456,0,0,1,2.368-2.227c15.438-10.2,31.133-20.53,48.778-26.1.918-.29,1.026.032,1.961-.195,1.309-.757.442-2.85-.814-3.694s-2.933-1.49-3.252-2.968c-.234-1.087.406-2.154.573-3.253a4.061,4.061,0,0,0-5.332-4.115c-1.417-1.877,1.387-4.058,3.655-4.683a99.254,99.254,0,0,1,20.852-3.406,3.757,3.757,0,0,1,2.373.4c1.184.82,1.033,2.7.194,3.873a22.794,22.794,0,0,1-3.191,2.9,8.711,8.711,0,0,0-2.259,8.761c3.682,1.873,7.684,3.8,11.762,3.141s7.7-5.241,5.78-8.9c-1.785-3.407-7.146-4.176-8.068-7.91-1.079-4.372,5.11-8.261,3.716-12.543-.611-1.876-2.48-2.98-3.915-4.334a11.76,11.76,0,0,1-2.573-13.04,14.836,14.836,0,0,1-13.012-4.072c-3.112-3.141-5.6-8.1-10.015-7.955-4.056.129-7.549,4.861-11.341,3.417-.933-.355-1.917-1.078-2.821-.654a2.331,2.331,0,0,0-1.052,1.747c-.964,4.608.694,9.857-1.817,13.839-2.733,4.333-9.054,4.933-12.367,8.84-1.8,2.121-2.5,4.979-4.148,7.215s-5.161,3.658-7.145,1.709a9.848,9.848,0,0,0-2.675-11.975,26.278,26.278,0,0,0-5.909-2.874,35.045,35.045,0,0,1-6.6-3.679,6.5,6.5,0,0,1-2.424-2.593,5.909,5.909,0,0,1,.166-4.1,16.768,16.768,0,0,1,13.344-11.06c2.641-.359,5.715-.233,7.463-2.245.925-1.065,1.41-2.675,2.753-3.107a4.06,4.06,0,0,1,2.541.313l9.858,3.47a6.92,6.92,0,0,0,3.512.581,2.381,2.381,0,0,0,2.059-2.5c-.315-1.637-2.834-2.423-2.6-4.074a2.72,2.72,0,0,1,.825-1.387,35.246,35.246,0,0,1,27.954-11.039c1.244,2.044-.724,4.464-2.361,6.208s-2.953,4.862-.973,6.2a5.43,5.43,0,0,0,2.625.591,22.918,22.918,0,0,1,6.987,2.119q5.11,2.224,10.024,4.866c-.289-2.16-.566-4.435.253-6.455s3.145-3.6,5.178-2.817c1.959.758,2.963,3.352,5.05,3.589,2.784.317,3.882-3.8,2.719-6.344s-3.465-4.683-3.657-7.478c-.13-1.886.588-4.224-.918-5.366a4.1,4.1,0,0,0-1.777-.623l-37.608-6.921c-2.233-.411-5.46-.1-5.559,2.173-.055,1.266,1.076,2.519.575,3.683-.535,1.243-2.291,1.129-3.571,1.569-1.985.682-2.981,3.039-2.791,5.13a14.273,14.273,0,0,0,2.356,5.781C318.456,262.525,314.752,262.337,312.306,261.314Z" transform="translate(-79.792 -214.639)" fill="#3f3d56" opacity="0.52"/>
      <path id="Path_11318" data-name="Path 11318" d="M289.686,229.027a12.178,12.178,0,0,0-13.378,4.006c-.619.815-1.139,1.939-.621,2.822.743,1.266,2.637.766,4.033.313a10.151,10.151,0,0,1,6.371-.152c1.311.45,2.484,1.246,3.8,1.679a3.828,3.828,0,0,0,3.9-.57c.9-.922.96-2.355.962-3.645a2.932,2.932,0,0,0-.747-2.41,3.83,3.83,0,0,0-1.728-.511,5.951,5.951,0,0,1-3.483-2.035" transform="translate(-87.18 -214.276)" fill="#3f3d56"/>
      <path id="Path_11319" data-name="Path 11319" d="M304.209,225.127a3.1,3.1,0,0,0-2.994,4.363,12.557,12.557,0,0,0,5.007.326,4.279,4.279,0,0,0,3.5-3.208,8.056,8.056,0,0,1-5.7-1.089" transform="translate(-88.141 -214.152)" fill="#3f3d56"/>
      <path id="Path_11320" data-name="Path 11320" d="M351.116,218.413a57.59,57.59,0,0,0-12.838,4.361,9.646,9.646,0,0,1,6.161,9.688,5.045,5.045,0,0,0,.059,2.4c.471,1.143,1.838,1.572,3.039,1.865a20.036,20.036,0,0,0,6.666.851,6.79,6.79,0,0,0,5.517-3.372,24.03,24.03,0,0,1,1.147-2.712c2.879-4.385,11.433.917,14.524-3.321,1.089-1.493.989-3.74,2.409-4.923a5.412,5.412,0,0,1,2.476-.945,173.9,173.9,0,0,1,18.81-2.679c2.992-.26,6.891-1.335,6.916-4.338a52.1,52.1,0,0,0-33.237,4.471c-3.705,1.856-8.605,5.759-12.174,3.3-1.336-.921-1.27-3.4-3.109-4.437C355.6,217.558,353.112,217.989,351.116,218.413Z" transform="translate(-89.551 -213.744)" fill="#3f3d56" opacity="0.52"/>
      <path id="Path_11321" data-name="Path 11321" d="M389.846,225.282l5.29,1.016A6.855,6.855,0,0,0,388,233.727c4.954,1.655,10.354.044,15.573.264s11.29,3.947,10.4,9.094c-.269,1.556-1.168,3.111-.7,4.62.328,1.057,1.26,1.807,1.786,2.781,1.1,2.029.22,4.6-1.165,6.44s-3.246,3.316-4.462,5.276c-3.023,4.875-1.306,11.178.5,16.625a14.656,14.656,0,0,0,2.818,5.628c2.668,2.837,7.016,3.084,10.91,3.14,2.834.041,6.081-.1,7.873-2.295,2.34-2.867.7-7.34,2.244-10.7,1.4-3.056,4.964-4.367,8.194-5.3,5.917-1.7,11.947-3.152,17.541-5.725,6.946-3.195,13.438-8.174,21.072-8.585,2.142-.115,4.337.137,6.4-.449s4.023-2.371,3.867-4.51c-.133-1.828-1.68-3.17-2.888-4.548s-2.157-3.5-1.047-4.955l20.011-3.738c-1.418-3.866-2.524-8.957.736-11.473,1.176-.908,2.751-1.271,3.752-2.368,1.707-1.871.848-5.093-1.122-6.684s-4.634-1.96-7.157-2.17c-8.775-.729-17.6-.247-26.391.235l-51.557,2.826c-3.46.19-7.454-.1-10.627,1.08-2.686,1-4.6,2.833-7.668,3.478C401.219,222.9,394.977,222.1,389.846,225.282Z" transform="translate(-91.427 -213.722)" fill="#3f3d56" opacity="0.52"/>
      <path id="Path_11322" data-name="Path 11322" d="M488.318,269.037a2.129,2.129,0,0,0-1.54.349,1.944,1.944,0,0,0-.5,1.187,7.841,7.841,0,0,0,1.139,5.612,5.5,5.5,0,0,0,5.031,2.412c2.382-.3,4.137-2.336,6.327-3.327,3.375-1.527,17.708-3.907,7.793-9.264-3.417-1.846-5.625-.216-8.318,1a18.926,18.926,0,0,1-9.931,2.031Z" transform="translate(-95.134 -215.664)" fill="#3f3d56"/>
      <path id="Path_11323" data-name="Path 11323" d="M578.534,222.46a5.662,5.662,0,0,0-2.754,2.4,2.419,2.419,0,0,0,.907,3.209,3.611,3.611,0,0,0,1.351.214l4.707.141c2,.06,4.5.486,5.035,2.413.4,1.431-.494,3.27.584,4.292a3.035,3.035,0,0,0,1.6.625,10.912,10.912,0,0,0,4.743.153c3.425-.919,1.625-3.009,2.7-4.871,1.651-2.848,1.365-1.124,4.273-2.756,2.148-1.206,4.923-3.392,3.131-6.465C601.7,216.47,583.135,220.165,578.534,222.46Z" transform="translate(-98.507 -213.923)" fill="#3f3d56"/>
      <path id="Path_11324" data-name="Path 11324" d="M674.387,219.782l-2.734.365c-6.164.823-12.363,1.653-18.3,3.5a30.457,30.457,0,0,0,8.014,1.967,24.62,24.62,0,0,1,4.489.638c2.622.781,5.264,2.8,7.8,1.764,1.571-.64,2.083-2.276,3.384-3.143.9-.6,4.306-1.567,4.687-2.171C684.806,217.821,676.754,219.466,674.387,219.782Z" transform="translate(-101.447 -213.931)" fill="#3f3d56"/>
      <path id="Path_11325" data-name="Path 11325" d="M687.193,232.614A51.263,51.263,0,0,0,677.105,240c-1.284,1.207-2.6,2.709-2.48,4.468.155,2.338,2.645,3.694,4.8,4.607l8.738,3.7c1.06-1.494.09-3.557-1.006-5.025s-2.4-3.167-1.914-4.934c.552-2.016,3.011-2.7,5.073-3.051,3.359-.566,12.42-.521,11.331-5.934C700.368,227.453,690.564,230.728,687.193,232.614Z" transform="translate(-102.25 -214.339)" fill="#3f3d56"/>
      <path id="Path_11326" data-name="Path 11326" d="M685.837,606.406c-.832,2.408-.911,5.245.528,7.348,1.615,2.359,4.846,3.239,7.642,2.641a13.767,13.767,0,0,0,7.1-4.562,24.435,24.435,0,0,0,4.081-6.258,48.854,48.854,0,0,0,3.025-11.068l2.713-14.245c.606-3.184.583-12.944-5.269-9.764-1.6.869-5.3,7.728-6.975,9.673-3.019,3.506-3.419,6.907-5.008,11.154C691.678,596.644,687.677,601.078,685.837,606.406Z" transform="translate(-102.651 -227.168)" fill="#3f3d56"/>
      <path id="Path_11327" data-name="Path 11327" d="M1006.711,683.493a42.667,42.667,0,0,1-5.56-2.647,46.868,46.868,0,0,0-2.819,15.362l13.1-7.414c1.971-1.115,4.2-2.665,4.162-4.929a1.559,1.559,0,0,0-.724-1.418,1.765,1.765,0,0,0-.918-.108c-1.943.162-3.714,1.118-5.547,1.782s-3.976,1.016-5.657.03" transform="translate(-114.471 -231.358)" fill="#3f3d56" opacity="0.52"/>
      <path id="Path_11328" data-name="Path 11328" d="M1078.037,687.992a28.349,28.349,0,0,0-4.2,1.508c-3.007,1.53-5.052,4.435-7.758,6.45a30.779,30.779,0,0,1-8.766,4.016c-.9.8-.487,2.4.49,3.1a6.076,6.076,0,0,0,3.46.778c3.179.07,6.527.1,9.312-1.435a29.378,29.378,0,0,0,4.384-3.48c3.255-2.716,7.165-4.508,11.035-6.24a12.663,12.663,0,0,0,3.846-2.3c2.432-2.4,2.6-6.092-.9-6.907C1086.1,682.821,1080.732,687.12,1078.037,687.992Z" transform="translate(-116.679 -231.455)" fill="#3f3d56" opacity="0.52"/>
      <path id="Path_11329" data-name="Path 11329" d="M1110.145,667.09a10.929,10.929,0,0,0-3.344-8.955c-.036,3.3-.136,6.812-1.991,9.539-1.322,1.943-3.394,3.256-4.842,5.107s-2.091,4.785-.392,6.409a6.365,6.365,0,0,0,3.772,1.3c3.381.4,7.295.62,9.666-1.823,1.294-1.333,1.924-3.308,3.5-4.288a4.261,4.261,0,0,0,1.537-1.1c.652-1.036-.384-2.4-1.55-2.775s-2.451-.2-3.622-.552-2.247-1.672-1.645-2.738" transform="translate(-118.255 -230.501)" fill="#3f3d56" opacity="0.52"/>
      <path id="Path_11330" data-name="Path 11330" d="M1052.12,541.324a15.2,15.2,0,0,1-5.423.32c-3.01-.554-5.353-2.822-7.783-4.682a34.33,34.33,0,0,0-20.059-7.008c-6.6-.125-13.269,1.665-19.754.416.424,2.357,2.44,4.124,4.592,5.175s4.527,1.579,6.689,2.609a15.97,15.97,0,0,1,7.736,8.048,22.718,22.718,0,0,0,2.189,4.814c2.156,2.9,6.243,3.538,9.849,3.3,4.7-.309,9.614-1.662,13.988.09,3.347,1.34,5.742,4.269,8.536,6.547s6.73,3.968,9.939,2.325a16.43,16.43,0,0,1-11.368-15.81c3.147.289,12.211.177,11.723-5.17C1062.56,537.765,1054.823,540.835,1052.12,541.324Z" transform="translate(-114.5 -225.661)" fill="#3f3d56" opacity="0.52"/>
      <path id="Path_11331" data-name="Path 11331" d="M1007.732,579.479c.559-3.065,3.615-5.771,2.663-8.737-.658-2.051-3.037-3.064-5.19-3.115s-4.27.591-6.423.651a31.332,31.332,0,0,0-4.206.06c-4.275.7-6.91,5.183-10.938,6.776-2.449.969-5.2.784-7.749,1.453-5.783,1.52-9.442,6.985-13.485,11.391A48.123,48.123,0,0,1,937.979,602.2c-3.288.762-6.823,1.249-9.436,3.384-3.461,2.828-4.313,7.676-5.083,12.079a199.5,199.5,0,0,1-9.712,35.652l13.732,1.753c2.611.333,5.316.659,7.832-.114a22.74,22.74,0,0,0,5.151-2.744,51.425,51.425,0,0,1,20.091-7.252c3.6-.494,7.366-.584,10.74.753s6.27,4.368,6.552,7.986a8.436,8.436,0,0,1,8.431,2.051,14.655,14.655,0,0,1,4.025,8.036c.362,1.879.724,4.13,2.467,4.918,1.422.643,3.054-.049,4.609-.174,5.279-.422,9.66,5.733,14.849,4.673,5.565-1.137,6.931-9.472,12.361-11.141,3.118-.959,7.492.207,8.985-2.693,1.316-2.557-1.31-5.507-1.039-8.369.333-3.525,4.491-5.021,7.7-6.525,11.05-5.185,16.294-20.058,10.939-31.027-3.173-6.5-9.415-11.615-10.568-18.755-.887-5.493,1.279-11.9-2.224-16.223-1.782-2.2-4.8-3.414-5.858-6.038-.667-1.652-.4-3.527-.758-5.272s-1.882-3.571-3.605-3.118c-5,1.313-6.6,16.767-9.277,20.522C1014.8,590.27,1006.443,586.511,1007.732,579.479Z" transform="translate(-111.278 -226.946)" fill="#3f3d56" opacity="0.52"/>
      <path id="Path_11332" data-name="Path 11332" d="M915.043,547.814c-1.709-.479-3.576-.952-5.214-.267s-2.595,3.09-1.28,4.283c10.285-.4,20.633-.8,30.83.6,11.749,1.609,23.377,5.6,35.178,4.423a179.052,179.052,0,0,0-20.521-4.762l-11.553-2.207a89.332,89.332,0,0,0-9.381-1.449C926.512,547.889,921.524,549.631,915.043,547.814Z" transform="translate(-111.058 -226.312)" fill="#3f3d56"/>
      <path id="Path_11333" data-name="Path 11333" d="M925.636,510.126c-.854-.071-1.911-.133-2.353.6-.422.7.061,1.628-.166,2.415-.31,1.075-1.717,1.349-2.826,1.2s-2.308-.5-3.29.038a2.789,2.789,0,0,0-1.078,3.168,8.156,8.156,0,0,0,1.9,3.031,30.972,30.972,0,0,0,4.934,4.949c3.535,2.609,8.324,3.867,10.55,7.654a5.079,5.079,0,0,0,1.409,1.9c1.069.677,2.463.162,3.613-.364l4.034-1.843a4.583,4.583,0,0,0,1.886-1.282c.922-1.25.356-3.028-.418-4.375s-1.764-2.741-1.6-4.285c.3-2.754,3.837-3.807,5.292-6.163,1.467-2.375.512-5.435.681-8.221.2-3.259,2.246-7.5-1.049-9.933-2.8-2.069-5.476-.157-7.487,2.127C935.434,505.559,933.43,510.777,925.636,510.126Z" transform="translate(-111.355 -224.444)" fill="#3f3d56" opacity="0.52"/>
      <path id="Path_11334" data-name="Path 11334" d="M951.439,459.637c1.377,2.637,4.248,4.21,5.75,6.778,1.628,2.783,1.442,6.38,3.208,9.077,1.812,2.768,5.458,4.237,6.474,7.386,1.109,3.437-1.408,7.615.6,10.618a4.457,4.457,0,0,0,6.538.6,4.8,4.8,0,0,0-.2-6.691c-1.188-1.083-2.894-1.551-3.885-2.816a5.909,5.909,0,0,1-1.006-2.45,16.041,16.041,0,0,1,.252-7.688,3.421,3.421,0,0,0,.193-2.011c-.447-1.3-2.2-1.39-3.437-1.992-2.8-1.367-2.733-5.321-2.244-8.4-.326,2.05-7.627-1.436-8.391-2.6-1.519-2.306-.692-6.755-.993-9.3C951.019,451.729,949.755,456.413,951.439,459.637Z" transform="translate(-112.673 -222.648)" fill="#3f3d56" opacity="0.52"/>
      <path id="Path_11335" data-name="Path 11335" d="M874.771,502.075c-1.348-1.508-3.377-3.087-5.184-2.177a3.282,3.282,0,0,0-1.217,4.047,8.907,8.907,0,0,0,2.94,3.5c3.765,3.1,7.819,5.907,11.1,9.517,5.878,6.459,8.991,15.175,15.383,21.125a8.629,8.629,0,0,0,4.844,2.622c1.862.173,3.954-1.019,4.168-2.877.176-1.531-.891-2.9-1.933-4.035-2.483-2.7-5.2-5.187-7.546-8.009a6.73,6.73,0,0,1-1.929-4.028c-.012-1.52,1.374-3.11,2.846-2.734-1.791-.458-3.118-3.441-5.747-4-2.2-.469-2.728.891-5.341-.23C882.173,512.661,878.261,505.984,874.771,502.075Z" transform="translate(-109.556 -224.516)" fill="#3f3d56" opacity="0.52"/>
      <path id="Path_11336" data-name="Path 11336" d="M995.728,349.456a41.261,41.261,0,0,1-4.211-1.5c-3.7-1.111-8.6,1.61-8.105,5.442.328,2.547,2.7,4.264,4.007,6.473,1.941,3.276,1.424,7.431.4,11.1a8.676,8.676,0,0,1-1.4,3.158,10.7,10.7,0,0,1-3.318,2.385,44.363,44.363,0,0,0-12.981,11.028,3.178,3.178,0,0,0-.784,1.478c-.177,1.294,1.124,2.237,1.86,3.316,1.634,2.4.453,5.624.614,8.521a2.409,2.409,0,0,0,1.015,2.114c.985.5,2.151-.349,2.685-1.316,1.771-3.209.437-8.359,3.759-9.907.629-.293,1.391-.416,1.81-.968.665-.876.023-2.173.361-3.22.506-1.572,2.656-1.642,4.306-1.573a24.439,24.439,0,0,0,8.395-1.118,5.588,5.588,0,0,0,2.779-1.609c.993-1.24.905-3,.707-4.578a62.057,62.057,0,0,0-7.332-22.372c2.919.373,6.094.7,8.612-.825,1.41-.852,3.1-3.4,2.4-5.132C1000.208,347.607,998.208,349.914,995.728,349.456Z" transform="translate(-113.376 -218.78)" fill="#3f3d56" opacity="0.52"/>
      <path id="Path_11337" data-name="Path 11337" d="M603.209,393.625a11.239,11.239,0,0,1,.079,5.65c-.614,1.8-2.545,3.311-4.369,2.759-1.415-.429-2.233-1.852-3.238-2.937-5.589-6.034-18.2-2.54-21.651-10-1.409-3.046-.451-6.7-1.413-9.912a8.823,8.823,0,0,0-8.935-6.07,18.358,18.358,0,0,0-5.142,1.535,129.641,129.641,0,0,1-34.065,8.52,27.992,27.992,0,0,0-6.545,1.191c-4.8,1.74-8.079,6.19-10.412,10.73s-4.057,9.456-7.186,13.49c-3.288,4.24-7.9,7.208-12.195,10.419a12.442,12.442,0,0,0-4.023,4.216c-.932,1.913-.879,4.138-.807,6.265l.879,25.83c.113,3.322.255,6.764,1.742,9.737,1.857,3.713,5.525,6.144,8.07,9.424a18.459,18.459,0,0,1,3.829,11.788c-.054,1.71-.224,3.733,1.108,4.806a4.871,4.871,0,0,0,2.724.783l34.941,2.86c6.146.5,12.958,1.33,16.971,6.013,1.894,2.21,3.415,5.388,6.316,5.625a23.464,23.464,0,0,0,3.7-.508c3.14-.249,5.9,2.134,7.639,4.759a21.115,21.115,0,0,1,3.391,13.549c-.285,2.994-1.214,5.905-1.414,8.906-.762,11.42,8.919,21.341,9.107,32.785.11,6.731-3.085,13.02-6.2,18.988,5.028,7.617.911,17.76,2.913,26.665,1.9,8.448,8.943,15.062,10.7,23.541.8,3.882.85,8.659,4.273,10.658a9.74,9.74,0,0,0,4.835.968,63.742,63.742,0,0,0,29.026-6.608c4.232-2.1,8.619-5.236,9.358-9.9.6-3.764-1.312-7.973.63-11.251,2.289-3.864,8.154-3.557,11.522-6.528,5.464-4.819,1.2-14.01,3.417-20.951,1.99-6.239,8.841-9.554,12.236-15.154a26.924,26.924,0,0,0,2.844-7.706,109.937,109.937,0,0,0,2.893-19.655,117.8,117.8,0,0,1,.889-12.039c3.661-22.745,26.147-37.976,33.448-59.827.7-2.087,1.025-4.866-.832-6.047a5.317,5.317,0,0,0-3.536-.37l-16.107,2.031c-2,.252-4.121.488-5.958-.343s-3.154-3.155-2.18-4.92c2.736-4.955-2.892-11.217-5.392-16.3a240.454,240.454,0,0,0-23.945-38.833,3.947,3.947,0,0,1-1.05-2.279l4.571.152c-1.543-5.537-4.09-11.6-9.469-13.622-3.031-1.141-6.388-.747-9.622-.57C622.309,396.442,612.377,395.043,603.209,393.625Z" transform="translate(-95.025 -219.739)" fill="#3f3d56" opacity="0.52"/>
      <path id="Path_11338" data-name="Path 11338" d="M632.744,263.283c2.424,2.574,5.14,5.3,8.648,5.752,6.195.793,10.649-5.614,13.485-11.178a5.462,5.462,0,0,0,5.7,5.053,11.251,11.251,0,0,0,4.287-1.676,84.452,84.452,0,0,1,40.009-10.343,4.321,4.321,0,0,1,3.3-4.75c2.844-.564,5.406,1.895,6.777,4.449s2.227,5.514,4.407,7.426,6.4,1.828,7.26-.94c.826-2.658-1.942-4.924-4.243-6.491s-4.725-4.467-3.176-6.78c11.752-2.6,23.577-5.213,35.6-5.73a14.909,14.909,0,0,0,5.993-1.032c1.834-.9,3.292-2.943,2.8-4.925a13.571,13.571,0,0,1-14.162-5.342c16.686-1.377,34.434-2.551,49.222,5.3,1.775,3.81-7.27,6.979-4.85,10.415.772,1.1,2.318,1.224,3.658,1.249,10.276.191,20.612.378,30.772-1.174,3.713-.567,7.463-1.367,11.191-.908,6.209.766,11.52,4.909,17.628,6.259,2.486.55,5.274.568,7.37-.878s3-4.739,1.279-6.619c5.751-5.637,15.3-4.24,22.885-1.541s14.776,7.051,22.806,7.652c5.759.431,11.6-1.118,17.288-.133,3.576.619,6.9,2.21,10.4,3.187,6.61,1.848,13.6,1.458,20.465,1.547a143.4,143.4,0,0,1,51.1,10.154,15.194,15.194,0,0,1,5.681,3.356c1.514,1.621,2.286,4.141,1.268,6.112l-16.813-2.457c1.584,3.118,5.682,3.65,9.01,4.726s6.779,4.751,4.779,7.621c-3.606-1.148-6.874,2.457-8.7,5.774s-4.042,7.29-7.82,7.492c-3.384.181-7.477-2.7-9.682-.128a66.038,66.038,0,0,1,7.78,12.439c2.179,4.54,3.731,10.26.786,14.345a3.719,3.719,0,0,1-1.988,1.541c-2.406.609-3.969-2.334-5.694-4.117-2.174-2.248-5.461-2.884-8.405-3.938s-6.045-3.128-6.275-6.246c-.143-1.94.881-3.744,1.636-5.537a21.333,21.333,0,0,0,1.621-9.568c-.165-2.632-.9-5.37-2.794-7.209s-5.154-2.422-7.183-.738c-.947.786-1.706,2.043-2.935,2.09-2.173.083-3.841-3.7-5.589-2.412a5.939,5.939,0,0,1-.807,3.972c-5.216,4.536-13.229,2.617-19.953,4.22a37.451,37.451,0,0,0-9.1,3.976,5.858,5.858,0,0,0-2.6,2.184c-.839,1.631.086,3.72,1.566,4.8a12.429,12.429,0,0,0,5.162,1.762c8.2,1.553,16.515,3.956,22.987,9.222s10.716,13.97,8.668,22.058l-16.167-15.447q.921,9.729,1.045,19.512a8.772,8.772,0,0,1-.513,3.753c-1.152,2.546-4.276,3.4-7.013,3.964a5.494,5.494,0,0,0-4.217,7.039c.973,3.17,3.4,5.641,5.618,8.1s4.405,5.261,4.7,8.564-2.2,7.026-5.509,6.8c-2.508-.174-4.368-2.419-5.437-4.694s-1.706-4.809-3.313-6.741c-4.864-5.85-15.789-3.344-20.147-9.58a9.854,9.854,0,0,0-2.038,9.378c2.027-1.269,4.8-.09,6.325,1.754s2.242,4.208,3.438,6.279c1.614,2.795,4.183,5.272,4.408,8.492a27.761,27.761,0,0,0,.061,3.652c.4,1.951,2.049,3.351,3.192,4.982,2.66,3.794,2.529,9.006.814,13.31s-4.795,7.9-7.845,11.389c-5.329,6.091-10.766,12.146-17.083,17.2-1.8,1.443-3.726,2.863-4.849,4.881s-1.18,4.85.545,6.385c-1.234.062-3.448.669-4.683.731a108.873,108.873,0,0,1-.282-14.893c-4.871-2.339-10.117,3.925-9.488,9.293s4.511,9.674,7.275,14.318c2.021,3.4,3.523,7.355,2.849,11.249s-4.151,7.486-8.087,7.142c-6.262-.546-8.881-9.536-15.082-10.565a2.534,2.534,0,0,0-1.632.162c-.92.505-1.08,1.737-1.132,2.786-.254,5.147-.473,10.5,1.536,15.245,2.94,6.943,10.533,12.773,8.94,20.142-8.581-3.989-13.043-13.612-15.068-22.856s-2.363-18.948-5.995-27.686c-2.757,3.534-8.553.613-11.072-3.1-2.388-3.515-3.859-7.581-6.176-11.143s-5.867-6.752-10.112-6.948c-4.451-.205-8.311,2.849-11.705,5.735-2.792,2.373-5.657,4.84-7.289,8.12-2.374,4.774-1.753,10.4-1.868,15.731-.124,5.763-1.345,11.842-5.272,16.061s-11.177,5.688-15.509,1.886c-2.262-1.985-3.357-4.951-4.332-7.8a381.7,381.7,0,0,1-11.728-41.868c-.728,3.234-3.567,7.4-6.28,5.5a5.623,5.623,0,0,1-1.447-1.864c-5.06-8.576-14.43-13.72-23.9-16.8s-19.428-4.523-28.791-7.912A72.927,72.927,0,0,1,700,398.837a11.746,11.746,0,0,0-.718,12.015c2.077,3.677,6.776,5.8,10.8,4.52,2.079-.664,3.834-2.107,5.9-2.82s4.831-.363,5.733,1.625c.863,1.9-.442,4.2.206,6.189.986,3.025,5.548,3.258,7.144,6.011,1.187,2.048.21,4.768-1.484,6.421s-3.956,2.559-6.025,3.71c-6.713,3.733-11.486,10.105-17.353,15.063s-14.144,8.577-21.135,5.4c1.667-8.439-8.386-14.635-10.235-23.036-.609-2.765-.293-5.7-1.162-8.4-1.258-3.9-4.719-6.584-7.559-9.54a37.443,37.443,0,0,1-10.27-27.241c.154-3.472.791-7,0-10.385s-3.593-6.66-7.065-6.506c-7.93.35-17.92.94-22.08-5.82-1.485-2.413-2.131-5.946.016-7.795,1.515-1.3,3.75-1.181,5.739-.985l17.867,1.758c4.179.411,8.7.75,12.282-1.434s5.14-7.984,1.819-10.554c-2.426-1.878-6.773-1.776-7.478-4.762-.587-2.487,2.165-5.308.679-7.387-1.066-1.49-3.463-1.077-4.915.04s-2.506,2.751-4.131,3.6c-2.851,1.484-6.258.072-9.325-.888s-7.18-1.041-8.667,1.808c-1.664,3.186,1.476,7.361-.175,10.554-2.183,4.221-9.577,1.818-12.643,5.449-3.518,4.166,2.394,10.379,1.208,15.7a9.774,9.774,0,0,1-9.63-.541,9.354,9.354,0,0,1-4.042-8.709c.294-2.394,1.542-4.839.706-7.1-.676-1.829-2.513-2.918-4.22-3.862l-17.363-9.595c-1.612,2.99.426,6.7,2.975,8.944s5.741,3.938,7.416,6.894a9.049,9.049,0,0,1-3.4,11.93,2.089,2.089,0,0,1-1.721.3,2.4,2.4,0,0,1-1.116-1.5c-3.063-7.84-7.663-15.57-15.017-19.665s-17.92-3.253-22.742,3.645c-1.145,1.639-1.914,3.506-2.912,5.239-5.3,9.2-16.666,13.563-27.283,13.278a5.418,5.418,0,0,1-2.976-.7c-1.716-1.185-1.639-3.7-1.376-5.769l1.115-8.78c.224-1.763.548-3.712,1.944-4.812,1.967-1.551,4.8-.572,7.309-.608a9.263,9.263,0,0,0,8.408-6.489,10.44,10.44,0,0,0-2.906-10.382c-1.148-1.078-2.689-2.433-2.083-3.887a3.213,3.213,0,0,1,2.253-1.517c4.5-1.307,9.254-1.649,13.678-3.191s8.715-4.7,9.763-9.263c.321-1.4.467-3.095,1.724-3.789a5.171,5.171,0,0,1,1.993-.407,9.7,9.7,0,0,0,8.318-10.109c2.12-1.482,5.091-.392,7.143,1.184s3.862,3.658,6.359,4.337c4.652,1.266,9.147-2.853,13.968-2.872,2.027-.008,4.126.709,6.033.021,1.933-.7,3.088-2.621,4.572-4.043s4.088-2.289,5.458-.757l-1.167-8.643a16.991,16.991,0,0,0,13.828-2.5l-15.08-5.1a3.279,3.279,0,0,1-1.41-.754c-1.1-1.181-.007-3.02.884-4.362,2.133-3.21,2.491-8.5-1.016-10.1-2.394-1.091-5.142.219-7.44,1.5L586.9,274.752c-.35,2.092,2.209,3.278,3.794,4.687a6.361,6.361,0,0,1-4.148,11.116,7.927,7.927,0,0,1,1.416,6.72l-7.406.533a3.208,3.208,0,0,1-2.4-.469c-.792-.7-.685-1.936-.868-2.979-.443-2.518-2.909-4.283-5.425-4.736s-5.091.128-7.583.7a4.526,4.526,0,0,1-3.259-.075,3.255,3.255,0,0,1-1.289-1.628c-1.092-2.649-.071-5.762,1.683-8.028s4.156-3.921,6.314-5.807a36.8,36.8,0,0,0,10.942-16.972c4.077-1.708,8.3-4.029,12.374-5.737a37.865,37.865,0,0,1,20.353-3.943l13.806.264c4.088.078,8.286.178,12.065,1.736s7.1,4.929,7.362,9.009a2.765,2.765,0,0,1-.885,2.528,3.262,3.262,0,0,1-1.746.393C638.182,262.2,636.557,263.15,632.744,263.283Z" transform="translate(-96.19 -214.177)" fill="#3f3d56" opacity="0.52"/>
      <path id="Path_11339" data-name="Path 11339" d="M522.584,309.544a4.04,4.04,0,0,0,1.1-4.063,7.557,7.557,0,0,0-7.825,1.478,13.193,13.193,0,0,0-2.1,2.771c-1.814,2.96-3.419,6.5-2.367,9.8a2.785,2.785,0,0,0,1.275,1.743,3.35,3.35,0,0,0,1.486.233,49.805,49.805,0,0,0,5.979-.368c1.218-.149,2.633-.493,3.1-1.626.619-1.49-.879-3.176-.442-4.729a5.167,5.167,0,0,1,1.276-1.827,2.415,2.415,0,0,0,.752-2.028c-.176-.729-1.292-1.142-1.694-.509" transform="translate(-96.074 -217.167)" fill="#3f3d56" opacity="0.52"/>
      <path id="Path_11340" data-name="Path 11340" d="M533.511,295.742a16.729,16.729,0,0,0-5.418-.34,2.363,2.363,0,0,0-1.155.262,1.927,1.927,0,0,0-.711,1.03,5.118,5.118,0,0,0,2.98,6.272,6.4,6.4,0,0,1,1.848.743c1.532,1.189.556,3.619.846,5.537.326,2.153,2.41,3.961,2.028,6.105-.3,1.689-2.105,3.027-1.815,4.718.3,1.771,2.552,2.3,4.343,2.445a5.463,5.463,0,0,0,3.077-.353,4.765,4.765,0,0,0,1.941-2.812,18.02,18.02,0,0,0,.908-6.786,6.435,6.435,0,0,0-.765-3,16.716,16.716,0,0,0-1.788-2.048C536.4,303.53,540.012,297.574,533.511,295.742Z" transform="translate(-96.638 -216.802)" fill="#3f3d56" opacity="0.52"/>
      <path id="Path_11341" data-name="Path 11341" d="M973.53,609.576s-262.889-150.9-376.065-122.31c0,0-239.854,25.812-267.652,82.6,0,0-76.245-238.266-104.043-246.208" transform="translate(-85.303 -217.872)" fill="none" stroke="#21c98b" stroke-miterlimit="10" stroke-width="2" opacity="0.8"/>
      <path id="Path_11342" data-name="Path 11342" d="M329.813,569.8C373.892,452.258,771,322.007,771,322.007c-56.389,14.3-173.537,165.2-173.537,165.2s-247.8-180.288-371.695-163.61c0,0,545.628,17.87,747.757,285.918" transform="translate(-85.303 -217.81)" fill="none" stroke="#21c98b" stroke-miterlimit="10" stroke-width="2" opacity="0.8"/>
      <circle id="Ellipse_107" data-name="Ellipse 107" cx="11.516" cy="11.516" r="11.516" transform="translate(128.952 94.269)" fill="#21c98b" stroke="#21c98b" stroke-width="1"/>
      <circle id="Ellipse_108" data-name="Ellipse 108" cx="11.516" cy="11.516" r="11.516" transform="translate(232.994 340.477)" fill="#21c98b" stroke="#21c98b" stroke-width="1"/>
      <circle id="Ellipse_109" data-name="Ellipse 109" cx="11.516" cy="11.516" r="11.516" transform="translate(674.183 92.681)" fill="#21c98b" stroke="#21c98b" stroke-width="1"/>
      <circle id="Ellipse_110" data-name="Ellipse 110" cx="11.516" cy="11.516" r="11.516" transform="translate(876.709 380.188)" fill="#21c98b" stroke="#21c98b" stroke-width="1"/>
      <circle id="Ellipse_111" data-name="Ellipse 111" cx="11.516" cy="11.516" r="11.516" transform="translate(500.646 257.878)" fill="#21c98b" stroke="#21c98b" stroke-width="1"/>
    </g>
    <circle id="Ellipse_112" data-name="Ellipse 112" cx="11.516" cy="11.516" r="11.516" transform="translate(-4585.688 10079.351)" fill="#21c98b" stroke="#21c98b" stroke-width="1"/>
    <path id="Path_11343" data-name="Path 11343" d="M0,47.358S42.206,13.422,89.009,1.26s98.2-2.547,98.2-2.547" transform="translate(-4764.053 10092.996)" fill="none" stroke="#21c98b" stroke-width="2"/>
  </g>
</svg>
