<svg xmlns="http://www.w3.org/2000/svg" width="1157.803" height="713.704" viewBox="0 0 1157.803 713.704">
  <g id="Group_31345" data-name="Group 31345" transform="translate(148.246 -151.658)">
    <g id="Group_45" data-name="Group 45" transform="translate(-1269.213 96.436)">
      <path id="Path_274" data-name="Path 274" d="M-987.4,876.956a1.284,1.284,0,0,1,1.29-1.277,1.284,1.284,0,0,1,1.294,1.277v5.8a1.287,1.287,0,0,1-1.294,1.292,1.287,1.287,0,0,1-1.29-1.292Zm-8.772,4.705a1.291,1.291,0,0,1,0-1.824,1.3,1.3,0,0,1,1.822,0l4.1,4.1a1.3,1.3,0,0,1,0,1.822,1.3,1.3,0,0,1-1.822,0Zm-2.885,9.535a1.289,1.289,0,0,1-1.294-1.294,1.285,1.285,0,0,1,1.294-1.276h5.8a1.284,1.284,0,0,1,1.279,1.276,1.288,1.288,0,0,1-1.279,1.294Zm4.707,8.772a1.27,1.27,0,0,1-1.822,0,1.272,1.272,0,0,1,0-1.807l4.1-4.1a1.27,1.27,0,0,1,1.822,0,1.3,1.3,0,0,1,0,1.824Zm9.534,2.883a1.289,1.289,0,0,1-1.294,1.294,1.289,1.289,0,0,1-1.29-1.294v-5.779a1.289,1.289,0,0,1,1.29-1.294,1.289,1.289,0,0,1,1.294,1.294Zm8.772-4.691a1.278,1.278,0,0,1,0,1.807,1.27,1.27,0,0,1-1.822,0l-4.1-4.081a1.3,1.3,0,0,1,0-1.824,1.27,1.27,0,0,1,1.822,0Zm2.885-9.534a1.284,1.284,0,0,1,1.29,1.276,1.288,1.288,0,0,1-1.29,1.294h-5.8a1.287,1.287,0,0,1-1.276-1.294,1.283,1.283,0,0,1,1.276-1.276Zm-4.707-8.79a1.3,1.3,0,0,1,1.822,0,1.3,1.3,0,0,1,0,1.824l-4.1,4.1a1.3,1.3,0,0,1-1.822,0,1.3,1.3,0,0,1,0-1.822Z" transform="translate(3145.917 -605.227)" fill="#8a75b6"/>
      <path id="Path_275" data-name="Path 275" d="M-1386.411,757.066c-79,0-143.615,64.633-143.615,143.631s64.616,143.616,143.615,143.616a28.912,28.912,0,0,1,28.828,28.824,28.9,28.9,0,0,1-28.828,28.824h-75.15a70.276,70.276,0,0,0-70.071,70.074,70.27,70.27,0,0,0,70.071,70.051,60.778,60.778,0,0,1,60.6,60.6c0,60.813,49.751,110.566,110.552,110.566h649.035c78.982,0,143.618-64.633,143.618-143.633,0-78.982-64.636-143.615-143.618-143.615H-742.659a28.921,28.921,0,0,1-28.823-28.826,28.911,28.911,0,0,1,28.823-28.826h25.73a70.27,70.27,0,0,0,70.065-70.071,70.261,70.261,0,0,0-69.944-70.054h-7.429a60.774,60.774,0,0,1-60.6-60.6c0-60.817-49.751-110.568-110.566-110.568Z" transform="translate(2713.163 -701.844)" fill="#d2d2e7" fill-rule="evenodd"/>
      <path id="Path_276" data-name="Path 276" d="M-961.345,991.943a69.415,69.415,0,0,0,69.417-69.414,69.425,69.425,0,0,0-69.417-69.418,69.424,69.424,0,0,0-69.414,69.418,69.414,69.414,0,0,0,69.414,69.414" transform="translate(3121.15 -623.61)" fill="#d2d2e7" fill-rule="evenodd"/>
      <g id="Group_31328" data-name="Group 31328">
        <rect id="Rectangle_55" data-name="Rectangle 55" width="67.249" height="20.379" transform="translate(1353.507 133.506)" fill="#bbbada"/>
        <rect id="Rectangle_56" data-name="Rectangle 56" width="67.266" height="20.381" transform="translate(1253.627 157.967)" fill="#bbbada"/>
        <rect id="Rectangle_57" data-name="Rectangle 57" width="67.251" height="20.381" transform="translate(1324.088 157.967)" fill="#bbbada"/>
        <rect id="Rectangle_58" data-name="Rectangle 58" width="67.251" height="20.381" transform="translate(1283.046 182.414)" fill="#bbbada"/>
        <rect id="Rectangle_59" data-name="Rectangle 59" width="67.266" height="20.381" transform="translate(1253.627 206.877)" fill="#bbbada"/>
        <rect id="Rectangle_60" data-name="Rectangle 60" width="67.251" height="20.381" transform="translate(1324.088 206.877)" fill="#bbbada"/>
      </g>
      <rect id="Rectangle_61" data-name="Rectangle 61" width="67.266" height="20.368" transform="translate(1397.118 580.787)" fill="#bbbada"/>
      <rect id="Rectangle_62" data-name="Rectangle 62" width="67.264" height="20.368" transform="translate(1467.579 580.787)" fill="#bbbada"/>
      <rect id="Rectangle_63" data-name="Rectangle 63" width="67.251" height="20.377" transform="translate(1367.717 605.238)" fill="#bbbada"/>
      <rect id="Rectangle_64" data-name="Rectangle 64" width="67.251" height="20.377" transform="translate(1438.176 605.238)" fill="#bbbada"/>
      <rect id="Rectangle_65" data-name="Rectangle 65" width="67.264" height="20.381" transform="translate(1467.579 629.698)" fill="#bbbada"/>
      <rect id="Rectangle_66" data-name="Rectangle 66" width="67.251" height="20.381" transform="translate(1367.717 654.146)" fill="#bbbada"/>
      <rect id="Rectangle_67" data-name="Rectangle 67" width="67.251" height="20.381" transform="translate(1438.176 654.146)" fill="#bbbada"/>
      <path id="Path_277" data-name="Path 277" d="M-1334.819,791.165h296.048a13.769,13.769,0,0,1,13.727,13.727V1227.17h10.533a9.255,9.255,0,0,1,9.213,9.225V1274.1a9.242,9.242,0,0,1-9.213,9.211h-344.571a9.236,9.236,0,0,1-9.207-9.211v-37.707a9.249,9.249,0,0,1,9.207-9.225h10.531V804.892a13.779,13.779,0,0,1,13.731-13.727" transform="translate(2846.214 -674.068)" fill="#bbbada" fill-rule="evenodd"/>
      <path id="Path_278" data-name="Path 278" d="M-1347.838,789.412h296.052a13.755,13.755,0,0,1,13.725,13.713v428.821a13.754,13.754,0,0,1-13.725,13.712h-296.052a13.756,13.756,0,0,1-13.727-13.712V803.125a13.757,13.757,0,0,1,13.727-13.713" transform="translate(2851.691 -675.496)" fill="#f5f5f5" fill-rule="evenodd"/>
      <rect id="Rectangle_68" data-name="Rectangle 68" width="273.332" height="178.939" transform="translate(1515.213 352.52)" fill="#645193"/>
      <rect id="Rectangle_69" data-name="Rectangle 69" width="273.332" height="218.171" transform="translate(1515.213 138.99)" fill="#e7e6ec"/>
      <path id="Path_279" data-name="Path 279" d="M-1332.884,886.738h96.231V818.084h-96.231Zm0,95.609h96.231V913.695h-96.231Zm123.187,0h96.233V913.695H-1209.7Zm96.235-164.263H-1209.7v68.654h96.233Z" transform="translate(2875.053 -652.141)" fill="#70609f" fill-rule="evenodd"/>
      <path id="Path_280" data-name="Path 280" d="M-1135.563,864.7l-16.906,16.906h-44.75L-1140,824.388h4.44Zm-42.2-40.31h19.387L-1215.59,881.6h-5.3V867.518Zm-70.085,141.388h-33.548l33.548-33.548Zm-51.918,0h-19.383l57.215-57.217h14.086v5.3Zm120.338-57.217-41.464,41.463V908.56Z" transform="translate(2886.244 -647.006)" fill="#bbbada" fill-rule="evenodd"/>
      <path id="Path_281" data-name="Path 281" d="M-1363.236,1029.695h344.575a9.233,9.233,0,0,1,9.2,9.207v37.708a9.249,9.249,0,0,1-9.2,9.225h-344.575a9.251,9.251,0,0,1-9.209-9.225V1038.9a9.235,9.235,0,0,1,9.209-9.207" transform="translate(2842.829 -479.773)" fill="#dfdfea" fill-rule="evenodd"/>
      <path id="Path_315" data-name="Path 315" d="M-1405.338,946.593a1.13,1.13,0,0,1,1.123-1.136,1.133,1.133,0,0,1,1.136,1.136v5.1a1.132,1.132,0,0,1-1.136,1.134,1.13,1.13,0,0,1-1.123-1.134Zm-7.726,4.145a1.147,1.147,0,0,1,0-1.606,1.122,1.122,0,0,1,1.6,0l3.6,3.6a1.121,1.121,0,0,1,0,1.606,1.148,1.148,0,0,1-1.6,0Zm-2.54,8.381a1.129,1.129,0,0,1-1.123-1.134,1.132,1.132,0,0,1,1.123-1.14h5.094a1.135,1.135,0,0,1,1.137,1.14,1.132,1.132,0,0,1-1.137,1.134Zm4.145,7.715a1.122,1.122,0,0,1-1.6,0,1.129,1.129,0,0,1,0-1.591l3.6-3.615a1.148,1.148,0,0,1,1.6,0,1.12,1.12,0,0,1,0,1.606Zm8.381,2.539a1.136,1.136,0,0,1-1.136,1.141,1.134,1.134,0,0,1-1.123-1.141v-5.094a1.132,1.132,0,0,1,1.123-1.141,1.134,1.134,0,0,1,1.136,1.141Zm7.73-4.13a1.133,1.133,0,0,1,0,1.591,1.124,1.124,0,0,1-1.606,0l-3.6-3.6a1.12,1.12,0,0,1,0-1.606,1.13,1.13,0,0,1,1.59,0Zm2.524-8.4a1.137,1.137,0,0,1,1.138,1.14,1.133,1.133,0,0,1-1.138,1.134h-5.1a1.13,1.13,0,0,1-1.123-1.134,1.134,1.134,0,0,1,1.123-1.14Zm-4.13-7.714a1.124,1.124,0,0,1,1.606,0,1.151,1.151,0,0,1,0,1.606l-3.615,3.6a1.13,1.13,0,0,1-1.59,0,1.121,1.121,0,0,1,0-1.606Z" transform="translate(2806.758 -548.389)" fill="#8a75b6"/>
      <path id="Path_316" data-name="Path 316" d="M-1531.523,1054.271h6.4a2.146,2.146,0,0,1,2.136,2.134v6.422a2.15,2.15,0,0,1-2.136,2.134h-6.4a2.14,2.14,0,0,1-2.134-2.134v-6.422a2.136,2.136,0,0,1,2.134-2.134" transform="translate(2711.512 -459.754)" fill="#ded8e6" fill-rule="evenodd"/>
      <path id="Path_317" data-name="Path 317" d="M-1519.458,1054.271h6.42a2.146,2.146,0,0,1,2.134,2.134v6.422a2.149,2.149,0,0,1-2.134,2.134h-6.42a2.149,2.149,0,0,1-2.134-2.134v-6.422a2.146,2.146,0,0,1,2.134-2.134" transform="translate(2721.34 -459.754)" fill="#ded8e6" fill-rule="evenodd"/>
      <path id="Path_318" data-name="Path 318" d="M-1507.392,1054.271h6.418a2.146,2.146,0,0,1,2.136,2.134v6.422a2.15,2.15,0,0,1-2.136,2.134h-6.418a2.151,2.151,0,0,1-2.136-2.134v-6.422a2.147,2.147,0,0,1,2.136-2.134" transform="translate(2731.167 -459.754)" fill="#ded8e6" fill-rule="evenodd"/>
      <path id="Path_319" data-name="Path 319" d="M-1495.32,1054.271h6.4a2.137,2.137,0,0,1,2.136,2.134v6.422a2.14,2.14,0,0,1-2.136,2.134h-6.4a2.14,2.14,0,0,1-2.134-2.134v-6.422a2.136,2.136,0,0,1,2.134-2.134" transform="translate(2741.002 -459.754)" fill="#ded8e6" fill-rule="evenodd"/>
      <path id="Path_320" data-name="Path 320" d="M-1450.282,781.517a1.119,1.119,0,0,1,1.138-1.121,1.115,1.115,0,0,1,1.119,1.121v5.1a1.13,1.13,0,0,1-1.119,1.14,1.134,1.134,0,0,1-1.138-1.14Zm-7.728,4.146a1.145,1.145,0,0,1,0-1.6,1.145,1.145,0,0,1,1.6,0l3.6,3.6a1.121,1.121,0,0,1,0,1.606,1.127,1.127,0,0,1-1.59,0Zm-2.526,8.381a1.132,1.132,0,0,1-1.136-1.138,1.118,1.118,0,0,1,1.136-1.12h5.1a1.116,1.116,0,0,1,1.121,1.12,1.13,1.13,0,0,1-1.121,1.138Zm4.13,7.73a1.152,1.152,0,0,1-1.6,0,1.147,1.147,0,0,1,0-1.606l3.615-3.615a1.13,1.13,0,0,1,1.59,0,1.119,1.119,0,0,1,0,1.6Zm8.381,2.524a1.128,1.128,0,0,1-1.119,1.136,1.132,1.132,0,0,1-1.138-1.136v-5.1a1.119,1.119,0,0,1,1.138-1.12,1.114,1.114,0,0,1,1.119,1.12Zm7.73-4.13a1.15,1.15,0,0,1,0,1.606,1.154,1.154,0,0,1-1.606,0l-3.6-3.616a1.118,1.118,0,0,1,0-1.6,1.15,1.15,0,0,1,1.606,0Zm2.541-8.381a1.116,1.116,0,0,1,1.121,1.12,1.13,1.13,0,0,1-1.121,1.138h-5.1a1.134,1.134,0,0,1-1.138-1.138,1.12,1.12,0,0,1,1.138-1.12Zm-4.146-7.728a1.147,1.147,0,0,1,1.606,0,1.148,1.148,0,0,1,0,1.6l-3.6,3.6a1.147,1.147,0,0,1-1.606,0,1.12,1.12,0,0,1,0-1.606Z" transform="translate(2770.148 -682.84)" fill="#8a75b6"/>
      <path id="Path_321" data-name="Path 321" d="M-1425.343,901.714h6.42a2.147,2.147,0,0,1,2.134,2.136v6.418a2.15,2.15,0,0,1-2.134,2.138h-6.42a2.152,2.152,0,0,1-2.136-2.138V903.85a2.149,2.149,0,0,1,2.136-2.136" transform="translate(2798 -584.02)" fill="#f1eff2" fill-rule="evenodd"/>
      <path id="Path_322" data-name="Path 322" d="M-1413.271,901.714h6.4a2.138,2.138,0,0,1,2.136,2.136v6.418a2.141,2.141,0,0,1-2.136,2.138h-6.4a2.14,2.14,0,0,1-2.134-2.138V903.85a2.137,2.137,0,0,1,2.134-2.136" transform="translate(2807.835 -584.02)" fill="#f1eff2" fill-rule="evenodd"/>
      <path id="Path_323" data-name="Path 323" d="M-1401.205,901.714h6.42a2.147,2.147,0,0,1,2.134,2.136v6.418a2.15,2.15,0,0,1-2.134,2.138h-6.42a2.15,2.15,0,0,1-2.136-2.138V903.85a2.148,2.148,0,0,1,2.136-2.136" transform="translate(2817.662 -584.02)" fill="#f1eff2" fill-rule="evenodd"/>
      <path id="Path_324" data-name="Path 324" d="M-1389.132,901.714h6.4a2.147,2.147,0,0,1,2.134,2.136v6.418a2.15,2.15,0,0,1-2.134,2.138h-6.4a2.141,2.141,0,0,1-2.136-2.138V903.85a2.138,2.138,0,0,1,2.136-2.136" transform="translate(2827.496 -584.02)" fill="#f1eff2" fill-rule="evenodd"/>
      <path id="Path_325" data-name="Path 325" d="M-1027.625,923.284v140.125H-1049.8a28.911,28.911,0,0,0-28.823,28.826,28.921,28.921,0,0,0,28.823,28.826h22.176v287.248h-126.941V763.137a110.906,110.906,0,0,1,62.588,99.55,60.774,60.774,0,0,0,60.6,60.6Z" transform="translate(3020.304 -696.898)" fill="#bbbada" fill-rule="evenodd"/>
      <path id="Path_326" data-name="Path 326" d="M-1138.516,771.424v638.97h-22.157V760.577a110.156,110.156,0,0,1,22.157,10.847" transform="translate(3015.328 -698.984)" fill="#dfdfea" fill-rule="evenodd"/>
      <path id="Path_327" data-name="Path 327" d="M-1123.421,789.577v614.368h-22.172V768.494a112.516,112.516,0,0,1,22.172,21.083" transform="translate(3027.612 -692.535)" fill="#dfdfea" fill-rule="evenodd"/>
      <path id="Path_328" data-name="Path 328" d="M-1108.333,865.191v526.116h-22.172v-607.3a109.763,109.763,0,0,1,18.929,61.673,60.009,60.009,0,0,0,3.243,19.506" transform="translate(3039.902 -679.895)" fill="#dfdfea" fill-rule="evenodd"/>
      <path id="Path_329" data-name="Path 329" d="M-1093.247,856.794V1007.36a28.9,28.9,0,0,0-17.264,26.38,28.905,28.905,0,0,0,17.264,26.378v289.7h-22.172V834.95a61.353,61.353,0,0,0,22.172,21.844" transform="translate(3052.19 -638.403)" fill="#dfdfea" fill-rule="evenodd"/>
      <path id="Path_330" data-name="Path 330" d="M-1078.159,853.725V993.912h-15.817a28.341,28.341,0,0,0-6.355.717V848.456a60.3,60.3,0,0,0,22.172,5.269m0,197.837v287.249h-22.172V1050.846a28.448,28.448,0,0,0,6.355.717Z" transform="translate(3064.48 -627.401)" fill="#dfdfea" fill-rule="evenodd"/>
      <path id="Path_331" data-name="Path 331" d="M-1250.9,1090.422h6.42a2.136,2.136,0,0,1,2.134,2.134v6.4a2.14,2.14,0,0,1-2.134,2.138h-6.42a2.141,2.141,0,0,1-2.136-2.138v-6.4a2.137,2.137,0,0,1,2.136-2.134" transform="translate(2940.095 -430.307)" fill="#f1eff2" fill-rule="evenodd"/>
      <path id="Path_332" data-name="Path 332" d="M-1238.826,1090.422h6.4a2.126,2.126,0,0,1,2.134,2.134v6.4a2.13,2.13,0,0,1-2.134,2.138h-6.4a2.131,2.131,0,0,1-2.134-2.138v-6.4a2.127,2.127,0,0,1,2.134-2.134" transform="translate(2949.93 -430.307)" fill="#f1eff2" fill-rule="evenodd"/>
      <path id="Path_333" data-name="Path 333" d="M-1226.76,1090.422h6.422a2.137,2.137,0,0,1,2.134,2.134v6.4a2.142,2.142,0,0,1-2.134,2.138h-6.422a2.142,2.142,0,0,1-2.137-2.138v-6.4a2.138,2.138,0,0,1,2.137-2.134" transform="translate(2959.756 -430.307)" fill="#f1eff2" fill-rule="evenodd"/>
      <path id="Path_334" data-name="Path 334" d="M-1214.689,1090.422h6.407a2.126,2.126,0,0,1,2.134,2.134v6.4a2.13,2.13,0,0,1-2.134,2.138h-6.407a2.133,2.133,0,0,1-2.134-2.138v-6.4a2.129,2.129,0,0,1,2.134-2.134" transform="translate(2969.591 -430.307)" fill="#f1eff2" fill-rule="evenodd"/>
      <path id="Path_335" data-name="Path 335" d="M-1230.652,770.007h6.422a2.137,2.137,0,0,1,2.134,2.134v6.4a2.138,2.138,0,0,1-2.134,2.134h-6.422a2.138,2.138,0,0,1-2.134-2.134v-6.4a2.137,2.137,0,0,1,2.134-2.134" transform="translate(2956.588 -691.302)" fill="#f1eff2" fill-rule="evenodd"/>
      <path id="Path_336" data-name="Path 336" d="M-1218.578,770.007h6.4a2.136,2.136,0,0,1,2.137,2.134v6.4a2.137,2.137,0,0,1-2.137,2.134h-6.4a2.128,2.128,0,0,1-2.134-2.134v-6.4a2.127,2.127,0,0,1,2.134-2.134" transform="translate(2966.423 -691.302)" fill="#f1eff2" fill-rule="evenodd"/>
      <path id="Path_337" data-name="Path 337" d="M-1206.51,770.007h6.4a2.141,2.141,0,0,1,2.152,2.134v6.4a2.142,2.142,0,0,1-2.152,2.134h-6.4a2.139,2.139,0,0,1-2.138-2.134v-6.4a2.138,2.138,0,0,1,2.138-2.134" transform="translate(2976.251 -691.302)" fill="#f1eff2" fill-rule="evenodd"/>
      <path id="Path_338" data-name="Path 338" d="M-1194.449,770.007h6.421a2.137,2.137,0,0,1,2.134,2.134v6.4a2.138,2.138,0,0,1-2.134,2.134h-6.421a2.138,2.138,0,0,1-2.134-2.134v-6.4a2.137,2.137,0,0,1,2.134-2.134" transform="translate(2986.077 -691.302)" fill="#f1eff2" fill-rule="evenodd"/>
      <path id="Path_339" data-name="Path 339" d="M-1061.22,987.73h6.4a2.135,2.135,0,0,1,2.134,2.134v6.4a2.147,2.147,0,0,1-2.134,2.137h-6.4a2.139,2.139,0,0,1-2.134-2.137v-6.4a2.127,2.127,0,0,1,2.134-2.134" transform="translate(3094.6 -513.955)" fill="#f1eff2" fill-rule="evenodd"/>
      <path id="Path_340" data-name="Path 340" d="M-1049.156,987.73h6.418a2.138,2.138,0,0,1,2.137,2.134v6.4a2.15,2.15,0,0,1-2.137,2.137h-6.418a2.148,2.148,0,0,1-2.134-2.137v-6.4a2.135,2.135,0,0,1,2.134-2.134" transform="translate(3104.426 -513.955)" fill="#f1eff2" fill-rule="evenodd"/>
      <path id="Path_341" data-name="Path 341" d="M-1037.089,987.73h6.418a2.138,2.138,0,0,1,2.134,2.134v6.4a2.15,2.15,0,0,1-2.134,2.137h-6.418a2.149,2.149,0,0,1-2.137-2.137v-6.4a2.137,2.137,0,0,1,2.137-2.134" transform="translate(3114.253 -513.955)" fill="#f1eff2" fill-rule="evenodd"/>
      <path id="Path_342" data-name="Path 342" d="M-1025.016,987.73h6.4a2.128,2.128,0,0,1,2.134,2.134v6.4a2.14,2.14,0,0,1-2.134,2.137h-6.4a2.15,2.15,0,0,1-2.137-2.137v-6.4a2.138,2.138,0,0,1,2.137-2.134" transform="translate(3124.087 -513.955)" fill="#f1eff2" fill-rule="evenodd"/>
      <path id="Path_343" data-name="Path 343" d="M-1473.729,1225.111a212.723,212.723,0,0,1,4.987-44.691c.031-.12.062-.261.092-.386.173-.687.7-1.994,2.073-1.618,1.84.5,16.892,8.955,30.962,23.277s13.836-7.216,1.62-15.694-24.682-12.042-28.421-15.286-3.083-6.946-3.083-6.946c2.912-16.409,5.093-33.221,6.619-49.782l.016-.018s.7-3.611,4.13.624c3.442,4.253,16.75,19,27.111,19.96,10.361.982.873-15.442-13.758-23.5s-16.424-9.768-16.284-11.731v-.018c.936-13.043,1.48-25.8,1.682-37.957,0,0,.592-2.183,2.526-.606,1.918,1.588,16.485,18.231,24.244,16.469s.22-15.959-12.154-20.924-14.522-6.469-14.536-8.307c-.125-35.979-3.3-64.959-8.087-77.286-4.972-12.84,26.614,16.2,55.812,63.606,2.51,4.317,2.339,6.794.719,12.029-1.746,5.609-3.664,18.258.918,15.317s5.206-14.055,5.578-14.257a.416.416,0,0,1,.563.091c4.783,8.478,9.379,17.405,13.649,26.677,4.393,10.408-1.481,17.514-9.661,27.672-8.476,10.532-6.95,21.72,2.056,17.015,9.008-4.689,13.2-26.582,13.947-27.173.686-.532,1.183.261,1.263.421a255.339,255.339,0,0,1,13.585,47.646c.608,8.105-6,14.818-12.932,25.772-6.981,11.047-1.62,17.7,3.894,16.189s9.225-14.974,10.425-15.845c1.107-.813,1.45-.129,1.5,0a153.4,153.4,0,0,1-5.112,47.008,312.721,312.721,0,0,1-11.7,34.983h-71.5Z" transform="translate(2760.327 -530.311)" fill="#21c98b" fill-rule="evenodd"/>
      <path id="Path_344" data-name="Path 344" d="M-1406.731,1228.1c-9.38-125.186-41.542-233.617-41.7-234.177a2.835,2.835,0,0,0-3.506-1.916,2.824,2.824,0,0,0-1.916,3.5c.154.546,32.145,108.338,41.524,232.59Z" transform="translate(2776.427 -510.565)" fill="#31275b" fill-rule="evenodd"/>
      <path id="Path_345" data-name="Path 345" d="M-1361.846,1031.02c54.224-32.112,69.2,34.718,58.215,64.994-8.149,22.406-37.039,71.5-57.387,107.155h-75.649c9.815-74.917,34.918-148.51,74.822-172.149" transform="translate(2790.516 -485.634)" fill="#a7a7cf" fill-rule="evenodd"/>
      <path id="Path_346" data-name="Path 346" d="M-1418.514,1194.686c27.6-87.585,69.851-160.042,70.071-160.428a3.078,3.078,0,0,1,3.49-1.2,1.846,1.846,0,0,1,1.23,2.729c-.218.372-42.1,72.174-69.57,158.9Z" transform="translate(2805.303 -477.151)" fill="#dcdbe9" fill-rule="evenodd"/>
      <path id="Path_347" data-name="Path 347" d="M-1523.1,1021.333c16.719-63.2,75.647-28.59,100.953,25.429,14.288,30.492,39.033,110.942,66.877,185.034h-70.709L-1447,1220c-48.912-91.461-82.786-173.424-76.1-198.664" transform="translate(2719.423 -514.261)" fill="#f1eff2" fill-rule="evenodd"/>
      <path id="Path_348" data-name="Path 348" d="M-1423.646,1205.642c-53.756-101.965-81.787-200.973-81.927-201.468a2.628,2.628,0,0,1,1.791-3.257,2.62,2.62,0,0,1,3.257,1.789c.156.546,30.96,109.293,89.719,215.758Z" transform="translate(2734.303 -503.3)" fill="#fff" fill-rule="evenodd"/>
      <rect id="Rectangle_70" data-name="Rectangle 70" width="67.249" height="20.377" transform="translate(2129.518 517.746)" fill="#bbbada"/>
      <rect id="Rectangle_71" data-name="Rectangle 71" width="67.269" height="20.377" transform="translate(2100.095 542.211)" fill="#bbbada"/>
      <path id="Path_349" data-name="Path 349" d="M-986.579,1025.445h42.553a143.213,143.213,0,0,1,2.2,20.377h-44.75Z" transform="translate(3157.137 -483.234)" fill="#bbbada" fill-rule="evenodd"/>
      <rect id="Rectangle_72" data-name="Rectangle 72" width="67.249" height="20.385" transform="translate(2129.518 566.654)" fill="#bbbada"/>
      <path id="Path_350" data-name="Path 350" d="M-970.366,1038.916h15.409c.018.376.018.751.018,1.123a142.608,142.608,0,0,1-1.3,19.261h-14.13Z" transform="translate(3170.343 -472.261)" fill="#bbbada" fill-rule="evenodd"/>
      <path id="Path_351" data-name="Path 351" d="M-986.579,1052.4h42.925a143.106,143.106,0,0,1-4.923,20.381h-38Z" transform="translate(3157.137 -461.28)" fill="#bbbada" fill-rule="evenodd"/>
      <path id="Path_352" data-name="Path 352" d="M-1043.618,1064.829a1.144,1.144,0,0,1,1.138-1.138,1.146,1.146,0,0,1,1.138,1.138v5.094a1.145,1.145,0,0,1-1.138,1.138,1.143,1.143,0,0,1-1.138-1.138Zm-7.716,4.13a1.124,1.124,0,0,1,0-1.606,1.15,1.15,0,0,1,1.606,0l3.6,3.615a1.15,1.15,0,0,1,0,1.606,1.15,1.15,0,0,1-1.606,0Zm-2.537,8.4a1.146,1.146,0,0,1-1.138-1.138,1.143,1.143,0,0,1,1.138-1.138h5.092a1.143,1.143,0,0,1,1.138,1.138,1.145,1.145,0,0,1-1.138,1.138Zm4.143,7.712a1.124,1.124,0,0,1-1.606,0,1.124,1.124,0,0,1,0-1.606l3.6-3.6a1.147,1.147,0,0,1,1.606,0,1.148,1.148,0,0,1,0,1.6Zm8.385,2.54a1.145,1.145,0,0,1-1.138,1.134,1.142,1.142,0,0,1-1.138-1.134v-5.1a1.142,1.142,0,0,1,1.138-1.134,1.145,1.145,0,0,1,1.138,1.134Zm7.712-4.146a1.124,1.124,0,0,1,0,1.606,1.107,1.107,0,0,1-1.591,0l-3.611-3.6a1.141,1.141,0,0,1,0-1.6,1.142,1.142,0,0,1,1.6,0Zm2.54-8.381a1.14,1.14,0,0,1,1.134,1.138,1.142,1.142,0,0,1-1.134,1.138h-5.1a1.145,1.145,0,0,1-1.134-1.138,1.142,1.142,0,0,1,1.134-1.138Zm-4.132-7.73a1.132,1.132,0,0,1,1.591,0,1.124,1.124,0,0,1,0,1.606l-3.6,3.615a1.146,1.146,0,0,1-1.6,0,1.143,1.143,0,0,1,0-1.606Z" transform="translate(3101.398 -452.081)" fill="#8a75b6"/>
      <path id="Path_353" data-name="Path 353" d="M-980.046,1045c15.64,50.779,21.484,78.376,29.884,101.2a142.367,142.367,0,0,0,6.422-42.382V1030.96c0-132.459-55.6-48.536-36.306,14.037" transform="translate(3159.145 -536.041)" fill="#31275b" fill-rule="evenodd"/>
      <path id="Path_354" data-name="Path 354" d="M-1073.423,1150.3a196.123,196.123,0,0,1-32.081-64.059c-12.949-45.747,40.2,4.941,82.13,64.059Z" transform="translate(3058.651 -448.129)" fill="#443572" fill-rule="evenodd"/>
      <path id="Path_355" data-name="Path 355" d="M-1027.537,1194.469c-13.089-22.128-26.081-51.25-28.126-81.9-4.3-64.491-5.533-84.763-17.823-95.2-10.534-8.958,116.518-7.041,169.791,134.362a144.684,144.684,0,0,1-59.848,42.742Z" transform="translate(3085.845 -492.298)" fill="#443572" fill-rule="evenodd"/>
      <path id="Path_356" data-name="Path 356" d="M-1060.249,1015.1c48.1,43.754,85.932,108.449,113.669,168.828-1.323.78-2.666,1.542-4,2.272-28.421-62-67.514-128.561-117.409-171.846,2.294.107,4.9.356,7.745.746" transform="translate(3090.821 -492.272)" fill="#645193" fill-rule="evenodd"/>
      <path id="Path_357" data-name="Path 357" d="M-938.391,1006.384c10.615,26.13,26.255,84.731,44.751,147.808a144.271,144.271,0,0,1-52.306,81.539c-44.81-63.979-83.831-136.667-98.414-194.3-29.338-115.99,61.938-143.631,105.97-35.044" transform="translate(3105.427 -554.409)" fill="#bbbada" fill-rule="evenodd"/>
      <path id="Path_358" data-name="Path 358" d="M-937.545,1195.245c-62.045-108.494-90.947-235.792-91.074-236.338a2.3,2.3,0,0,1,1.733-2.774,2.318,2.318,0,0,1,2.785,1.729c.127.546,28.624,126.041,89.546,233.4-.982,1.339-1.98,2.682-2.99,3.987" transform="translate(3122.842 -539.744)" fill="#9289bc" fill-rule="evenodd"/>
      <path id="Path_359" data-name="Path 359" d="M-956.263,1152.644a153.915,153.915,0,0,0-11.316-33.379c-20.677-43.406-72.374-60.3-87.082-53.691-12.018,5.407-36.213,38.877-18.151,88.271h113.493c1.029-.39,2.041-.78,3.056-1.2" transform="translate(3081.62 -451.675)" fill="#9289bc" fill-rule="evenodd"/>
      <path id="Path_360" data-name="Path 360" d="M-993.426,1151.244c2.633-7.091,8.073-22.671,8.786-32.085a1.3,1.3,0,0,0-1.212-1.417,1.317,1.317,0,0,0-1.417,1.216c-.653,8.771-5.643,23.262-8.322,30.572a293.992,293.992,0,0,0-22.373-36.961c4.716-18.215,4.174-31.695,4.174-31.742a1.335,1.335,0,0,0-1.372-1.276,1.333,1.333,0,0,0-1.276,1.372c.015.045.5,12.139-3.537,28.855a297.357,297.357,0,0,0-36.823-41.68,2.64,2.64,0,0,0-3.738.127,2.636,2.636,0,0,0,.124,3.721c7.073,6.638,13.556,13.386,19.524,20.18a80.291,80.291,0,0,0-21.658-1.2,1.337,1.337,0,0,0-1.187,1.446,1.317,1.317,0,0,0,1.45,1.169c9.769-.967,19.666.826,24.215,1.84a287.184,287.184,0,0,1,23.823,32.13c-9.441-.907-32.626-2.431-55.128,1.7a1.338,1.338,0,0,0-1.06,1.542,1.341,1.341,0,0,0,1.546,1.06c24.039-4.426,48.94-2.275,56.436-1.45,4.422,7.092,8.349,14.088,11.822,20.882Z" transform="translate(3088.818 -449.073)" fill="#aca5ce" fill-rule="evenodd"/>
      <path id="Path_361" data-name="Path 361" d="M-1078.068,808.836h7.291a2.434,2.434,0,0,1,2.43,2.432v7.278a2.433,2.433,0,0,1-2.43,2.43h-7.291a2.432,2.432,0,0,1-2.431-2.43v-7.278a2.433,2.433,0,0,1,2.431-2.432" transform="translate(3080.634 -659.674)" fill="#ded8e6" fill-rule="evenodd"/>
      <path id="Path_362" data-name="Path 362" d="M-1064.346,808.836h7.276a2.435,2.435,0,0,1,2.431,2.432v7.278a2.435,2.435,0,0,1-2.431,2.43h-7.276a2.433,2.433,0,0,1-2.432-2.43v-7.278a2.433,2.433,0,0,1,2.432-2.432" transform="translate(3091.811 -659.674)" fill="#ded8e6" fill-rule="evenodd"/>
      <path id="Path_363" data-name="Path 363" d="M-1050.642,808.836h7.295a2.43,2.43,0,0,1,2.426,2.432v7.278a2.43,2.43,0,0,1-2.426,2.43h-7.295a2.429,2.429,0,0,1-2.413-2.43v-7.278a2.429,2.429,0,0,1,2.413-2.432" transform="translate(3102.989 -659.674)" fill="#ded8e6" fill-rule="evenodd"/>
      <path id="Path_364" data-name="Path 364" d="M-1036.912,808.836h7.295a2.429,2.429,0,0,1,2.413,2.432v7.278a2.429,2.429,0,0,1-2.413,2.43h-7.295a2.435,2.435,0,0,1-2.431-2.43v-7.278a2.435,2.435,0,0,1,2.431-2.432" transform="translate(3114.158 -659.674)" fill="#ded8e6" fill-rule="evenodd"/>
      <path id="Path_365" data-name="Path 365" d="M-970.672,802.858a1.289,1.289,0,0,1,1.29-1.294,1.294,1.294,0,0,1,1.3,1.294v5.8a1.292,1.292,0,0,1-1.3,1.279,1.287,1.287,0,0,1-1.29-1.279Zm-8.771,4.705a1.3,1.3,0,0,1,0-1.824,1.267,1.267,0,0,1,1.822,0l4.1,4.1a1.3,1.3,0,0,1,0,1.822,1.3,1.3,0,0,1-1.822,0Zm-2.885,9.519a1.288,1.288,0,0,1-1.294-1.278,1.289,1.289,0,0,1,1.294-1.292h5.8a1.283,1.283,0,0,1,1.276,1.292,1.281,1.281,0,0,1-1.276,1.278Zm4.707,8.79a1.3,1.3,0,0,1-1.822,0,1.3,1.3,0,0,1,0-1.822l4.1-4.1a1.3,1.3,0,0,1,1.822,0,1.3,1.3,0,0,1,0,1.824Zm9.537,2.883a1.292,1.292,0,0,1-1.3,1.277,1.287,1.287,0,0,1-1.29-1.277v-5.8a1.289,1.289,0,0,1,1.29-1.292,1.294,1.294,0,0,1,1.3,1.292Zm8.772-4.705a1.3,1.3,0,0,1,0,1.822,1.3,1.3,0,0,1-1.822,0l-4.1-4.1a1.3,1.3,0,0,1,0-1.824,1.3,1.3,0,0,1,1.822,0Zm2.881-9.537a1.287,1.287,0,0,1,1.294,1.292,1.285,1.285,0,0,1-1.294,1.278h-5.8a1.285,1.285,0,0,1-1.279-1.278,1.286,1.286,0,0,1,1.279-1.292Zm-4.7-8.773a1.267,1.267,0,0,1,1.822,0,1.3,1.3,0,0,1,0,1.824l-4.1,4.1a1.3,1.3,0,0,1-1.822,0,1.3,1.3,0,0,1,0-1.822Z" transform="translate(3159.546 -665.598)" fill="#c9c0dd"/>
      <path id="Path_366" data-name="Path 366" d="M-1522.64,929a1.291,1.291,0,0,1,1.294-1.294,1.286,1.286,0,0,1,1.276,1.294v5.8a1.281,1.281,0,0,1-1.276,1.277,1.286,1.286,0,0,1-1.294-1.277Zm-8.773,4.705a1.269,1.269,0,0,1,0-1.824,1.3,1.3,0,0,1,1.824,0l4.083,4.1a1.27,1.27,0,0,1,0,1.822,1.28,1.28,0,0,1-1.809,0Zm-2.883,9.537a1.291,1.291,0,0,1-1.292-1.294,1.289,1.289,0,0,1,1.292-1.294h5.8a1.286,1.286,0,0,1,1.277,1.294,1.288,1.288,0,0,1-1.277,1.294Zm4.707,8.772a1.3,1.3,0,0,1-1.824,0,1.269,1.269,0,0,1,0-1.824l4.1-4.1a1.28,1.28,0,0,1,1.809,0,1.27,1.27,0,0,1,0,1.822Zm9.519,2.881a1.286,1.286,0,0,1-1.276,1.294,1.291,1.291,0,0,1-1.294-1.294v-5.8a1.3,1.3,0,0,1,1.294-1.294,1.3,1.3,0,0,1,1.276,1.294Zm8.788-4.705a1.3,1.3,0,0,1,0,1.824,1.292,1.292,0,0,1-1.822,0l-4.1-4.1a1.3,1.3,0,0,1,0-1.822,1.3,1.3,0,0,1,1.824,0Zm2.883-9.536a1.288,1.288,0,0,1,1.277,1.294,1.289,1.289,0,0,1-1.277,1.294h-5.8a1.292,1.292,0,0,1-1.294-1.294,1.291,1.291,0,0,1,1.294-1.294Zm-4.705-8.773a1.3,1.3,0,0,1,1.822,0,1.3,1.3,0,0,1,0,1.824l-4.1,4.1a1.3,1.3,0,0,1-1.824,0,1.3,1.3,0,0,1,0-1.822Z" transform="translate(2709.939 -562.847)" fill="#c9c0dd"/>
      <path id="Path_367" data-name="Path 367" d="M-1550.471,1114.327h1128.71a14.581,14.581,0,0,1,14.557,14.536,14.6,14.6,0,0,1-14.557,14.553h-49.058a8.093,8.093,0,0,0-8.077,8.076,8.1,8.1,0,0,0,8.077,8.078h17.944a10.129,10.129,0,0,1,10.1,10.1,10.123,10.123,0,0,1-10.1,10.089h-1064.86a10.121,10.121,0,0,1-10.105-10.089,10.127,10.127,0,0,1,10.105-10.1h14.125a8.106,8.106,0,0,0,8.08-8.078,8.1,8.1,0,0,0-8.08-8.076h-46.861a14.584,14.584,0,0,1-14.537-14.553,14.58,14.58,0,0,1,14.537-14.536m7.574,65.434h0a9.723,9.723,0,0,1-9.7-9.7v-.8a9.723,9.723,0,0,1,9.7-9.7,9.713,9.713,0,0,1,9.7,9.7v.8a9.713,9.713,0,0,1-9.7,9.7" transform="translate(2685.975 -410.835)" fill="#31275b" fill-rule="evenodd"/>
    </g>
    <g id="undraw_People_search_re_5rre" transform="translate(398.999 206)">
      <path id="Path_461" data-name="Path 461" d="M867.573,741.807a22.728,22.728,0,0,1-21.947-3.866c-7.687-6.452-10.1-17.081-12.058-26.924l-5.8-29.112,12.143,8.362c8.733,6.013,17.662,12.219,23.709,20.929s8.686,20.6,3.828,30.024" transform="translate(-304.638 -120.319)" fill="#21c98b"/>
      <path id="Path_462" data-name="Path 462" d="M866.535,777.053c1.229-8.953,2.493-18.02,1.631-27.069-.766-8.036-3.217-15.885-8.209-22.321a37.131,37.131,0,0,0-9.527-8.633c-.953-.6-1.829.909-.881,1.507a35.3,35.3,0,0,1,13.963,16.847c3.04,7.732,3.528,16.161,3,24.374-.317,4.967-.988,9.9-1.665,14.83a.9.9,0,0,0,.61,1.074.878.878,0,0,0,1.074-.61Z" transform="translate(-304.638 -120.319)" fill="#f2f2f2"/>
      <path id="Path_12538" data-name="Path 12538" d="M822.523,628.353H314.489V120.319H822.523Z" transform="translate(-304.638 -120.319)" fill="#fff"/>
      <path id="Path_12539" data-name="Path 12539" d="M822.523,628.353H314.489V120.319H822.523Zm-500.528-7.506H815.017V127.825H321.995Z" transform="translate(-304.638 -120.319)" fill="#e5e5e5"/>
      <rect id="Rectangle_1723" data-name="Rectangle 1723" width="220" height="6.853" transform="translate(207.885 79.482)" fill="#e5e5e5"/>
      <rect id="Rectangle_1724" data-name="Rectangle 1724" width="220" height="6.853" transform="translate(207.885 97.3)" fill="#e5e5e5"/>
      <rect id="Rectangle_1725" data-name="Rectangle 1725" width="220" height="6.853" transform="translate(207.885 115.118)" fill="#e5e5e5"/>
      <rect id="Rectangle_1726" data-name="Rectangle 1726" width="220" height="6.853" transform="translate(207.885 232.483)" fill="#e5e5e5"/>
      <rect id="Rectangle_1727" data-name="Rectangle 1727" width="220" height="6.853" transform="translate(207.885 250.301)" fill="#e5e5e5"/>
      <rect id="Rectangle_1728" data-name="Rectangle 1728" width="220" height="6.853" transform="translate(207.885 268.119)" fill="#e5e5e5"/>
      <rect id="Rectangle_1729" data-name="Rectangle 1729" width="220" height="6.853" transform="translate(207.885 385.483)" fill="#e5e5e5"/>
      <rect id="Rectangle_1730" data-name="Rectangle 1730" width="220" height="6.853" transform="translate(207.885 403.301)" fill="#e5e5e5"/>
      <rect id="Rectangle_1731" data-name="Rectangle 1731" width="220" height="6.853" transform="translate(207.885 421.119)" fill="#e5e5e5"/>
      <path id="Path_12540" data-name="Path 12540" d="M424.452,254.4a73.483,73.483,0,0,0-11.725-4.934l-.516-5.7L391.3,241.512l-2.658,7.29-7.5,2.816a3.653,3.653,0,0,0-.762.4h-.008a3.718,3.718,0,0,0-1.587,2.475,3.8,3.8,0,0,0,.056,1.491l.4,1.626c.571.341,1.158.666,1.745.976l.373.19c.857.444,1.729.865,2.626,1.253.182.079.381.159.563.238.016.008.024.008.04.016.421.175.841.341,1.269.5a41.685,41.685,0,0,0,4.3,1.38,44.215,44.215,0,0,0,11.4,1.491c1.4,0,2.792-.063,4.165-.2a44.039,44.039,0,0,0,9.234-1.864c.008,0,.016-.008.024-.008a43.346,43.346,0,0,0,5.545-2.2c.008-.008.024-.008.032-.016.4-.19.793-.4,1.19-.6l.19-.1c.317-.167.635-.333.952-.508.793-.436,1.571-.9,2.34-1.388.214-.127.421-.262.635-.4.3-.2.6-.4.9-.619C426.015,255.284,425.245,254.832,424.452,254.4Z" transform="translate(-304.638 -120.319)" fill="#3f3d56"/>
      <path id="Path_12541" data-name="Path 12541" d="M385.208,257.917l-1.309-5.91H380.48a.823.823,0,0,0-.1.008h-.008a7.409,7.409,0,0,0-3.443,1.19,7.624,7.624,0,0,0-1.84,1.65c1.015.769,2.07,1.483,3.157,2.166l.048.024c.309.19.627.381.944.563.571.341,1.158.666,1.745.976l.373.19c.857.444,1.729.865,2.626,1.253.182.079.381.159.563.238.016.008.024.008.04.016.421.175.841.341,1.269.5Z" transform="translate(-304.638 -120.319)" fill="#3f3d56"/>
      <circle id="Ellipse_201" data-name="Ellipse 201" cx="15.06" cy="15.06" r="15.06" transform="translate(81.237 87.467)" fill="#ffb8b8"/>
      <path id="Path_12542" data-name="Path 12542" d="M390.824,215.511c1.559,1.845,4.2,2.366,6.631,2.579a62.454,62.454,0,0,0,16.96-1.385c.345,3.341-.6,6.944,1.373,9.693a45,45,0,0,0,1.6-10.2,9.764,9.764,0,0,0-.565-4.369A4.018,4.018,0,0,0,413.4,209.3a8.579,8.579,0,0,1,3.827-1.636l-4.782-2.4L413.672,204l-8.657-.53,2.508-1.593a54.375,54.375,0,0,0-11.391-.36,9.778,9.778,0,0,0-5.038,1.4c-1.429,1.022-2.255,3.054-1.368,4.555a6.613,6.613,0,0,0-5.04,4,10.676,10.676,0,0,0-.383,5.132,36.377,36.377,0,0,0,1.907,8.069Z" transform="translate(-304.638 -120.319)" fill="#2f2e41"/>
      <path id="Path_12543" data-name="Path 12543" d="M443.284,206.521a44.193,44.193,0,1,0-76.369,41.98c.4.5.809,1,1.23,1.483.032.032.055.063.087.1a42.879,42.879,0,0,0,3.292,3.4c.3.278.619.563.936.833.6.539,1.222,1.055,1.864,1.547.254.2.5.4.762.587,1.015.769,2.07,1.483,3.157,2.166l.048.024c.309.19.627.381.944.563.571.341,1.158.666,1.745.976l.373.19c.857.444,1.729.865,2.626,1.253.182.079.381.159.563.238.016.008.024.008.04.016.421.175.841.341,1.269.5a41.694,41.694,0,0,0,4.3,1.38,44.215,44.215,0,0,0,11.4,1.491c1.4,0,2.792-.063,4.165-.2a44.037,44.037,0,0,0,9.234-1.864c.008,0,.016-.008.024-.008a43.339,43.339,0,0,0,5.545-2.2c.008-.008.024-.008.032-.016.4-.19.793-.4,1.19-.6l.19-.1c.317-.167.635-.333.952-.508.793-.436,1.571-.9,2.34-1.388.214-.127.421-.262.635-.4.3-.2.6-.4.9-.619.388-.27.777-.547,1.158-.833.119-.087.246-.174.365-.27a44.177,44.177,0,0,0,15.009-49.723Zm-16.468,47.795c-.262.206-.531.4-.8.587-.262.2-.523.389-.793.563-.23.167-.46.325-.7.476l-.071.048c-.175.119-.349.23-.524.341q-.988.619-2,1.19l-.214.119c-.3.167-.6.325-.9.484-.04.024-.088.04-.127.063l-.048.024c-.381.2-.77.389-1.158.571a38.91,38.91,0,0,1-4.625,1.872c-.206.071-.413.143-.619.206a41.611,41.611,0,0,1-8.742,1.777c-1.3.119-2.618.182-3.943.182a41.211,41.211,0,0,1-10.781-1.412,39.17,39.17,0,0,1-5.291-1.793c-.088-.04-.183-.071-.27-.111s-.182-.071-.27-.111-.182-.079-.278-.127c-.746-.325-1.484-.682-2.205-1.055l-.349-.182c-.881-.46-1.745-.952-2.586-1.476-.246-.151-.5-.309-.738-.476-.063-.04-.119-.079-.182-.119-.563-.373-1.126-.762-1.674-1.166-.373-.278-.746-.555-1.111-.841-.611-.46-1.2-.952-1.769-1.46-.3-.254-.6-.531-.88-.793a40.315,40.315,0,0,1-3.189-3.3c-.333-.381-.659-.762-.968-1.158a3.023,3.023,0,0,1-.2-.246,41.773,41.773,0,1,1,58,7.322Z" transform="translate(-304.638 -120.319)" fill="#21c98b"/>
      <path id="Path_12544" data-name="Path 12544" d="M443.285,359.521a44.193,44.193,0,1,0-76.369,41.98c.4.5.809,1,1.229,1.483.032.032.055.063.087.1a42.954,42.954,0,0,0,3.292,3.4c.3.278.619.563.936.833.6.539,1.222,1.055,1.864,1.547a43.453,43.453,0,0,0,3.919,2.753l.048.024c.88.547,1.777,1.055,2.689,1.539l.373.19c.857.444,1.729.865,2.626,1.253.182.079.381.159.563.238.016.008.024.008.04.016a42.927,42.927,0,0,0,5.569,1.88,44.214,44.214,0,0,0,11.4,1.491c1.4,0,2.792-.063,4.165-.2a44.036,44.036,0,0,0,9.234-1.864c.008,0,.016-.008.024-.008a43.316,43.316,0,0,0,5.545-2.2c.008-.008.024-.008.032-.016.4-.19.793-.4,1.19-.6l.191-.1c.317-.167.634-.333.952-.508.793-.436,1.571-.9,2.34-1.388.214-.127.42-.262.634-.4.7-.46,1.388-.952,2.054-1.452.119-.087.246-.174.365-.27a44.18,44.18,0,0,0,15.009-49.723Z" transform="translate(-304.638 -120.319)" fill="#fff"/>
      <circle id="Ellipse_188" data-name="Ellipse 188" cx="6.623" cy="6.623" r="6.623" transform="translate(104.872 258.698)" fill="#2f2e41"/>
      <path id="Path_969" data-name="Path 969" d="M417.979,379.2a6.624,6.624,0,0,1,5.831,9.767,6.621,6.621,0,1,0-11-7.276,6.607,6.607,0,0,1,5.171-2.491Z" transform="translate(-304.638 -120.319)" fill="#2f2e41"/>
      <circle id="Ellipse_189" data-name="Ellipse 189" cx="19.456" cy="19.456" r="19.456" transform="translate(79.663 226.395)" fill="#2f2e41"/>
      <path id="Path_970" data-name="Path 970" d="M388.487,354.1a19.453,19.453,0,0,1,26.964-2.04c-.159-.151-.317-.3-.482-.451A19.456,19.456,0,0,0,389,380.591l.111.1c.165.147.335.286.5.426a19.453,19.453,0,0,1-1.132-27.017Z" transform="translate(-304.638 -120.319)" fill="#2f2e41"/>
      <circle id="Ellipse_190" data-name="Ellipse 190" cx="12.531" cy="12.531" r="12.531" transform="translate(86.423 240.08)" fill="#a0616a"/>
      <path id="Path_12545" data-name="Path 12545" d="M426.015,405.579v4.2c-.77.492-1.547.952-2.34,1.388-.317.174-.634.341-.952.508l-.191.1c-.4.2-.786.4-1.19.6-.008.008-.024.008-.032.016a43.312,43.312,0,0,1-5.545,2.2c-.008,0-.016.008-.024.008a44.035,44.035,0,0,1-9.234,1.864c-1.372.135-2.761.2-4.165.2a44.211,44.211,0,0,1-11.4-1.491,42.928,42.928,0,0,1-5.569-1.88c-.016-.008-.024-.008-.04-.016-.182-.079-.381-.159-.563-.238-.9-.389-1.769-.809-2.626-1.253l-.373-.19c-.913-.484-1.809-.992-2.689-1.539l-.048-.024a43.446,43.446,0,0,1-3.919-2.753c-.643-.492-1.261-1.008-1.864-1.547-.317-.27-.634-.555-.936-.833a42.949,42.949,0,0,1-3.292-3.4,16.045,16.045,0,0,1,.6-2.435l.008-.008a3.552,3.552,0,0,1,.167-.4,3.164,3.164,0,0,1,.151-.333c1.42-2.657,3.99-3.316,7.179-3.459,1.8-.079,3.792.008,5.894-.016,1.111-.008,2.261-.048,3.411-.151,7.258-.658,5.942-4.942,6.267-7.251.325-2.237,2.34-.3,2.475-.174l.008.008a25.6,25.6,0,0,0,13.168,2.308c.777-.1,1.555-.151,2.332-.174,2.047-.024,1.6.563.9,1.047a8.868,8.868,0,0,1-1.071.6s-.325,1.983-.659,4.95c-.317,2.84,5.125,4.173,5.577,4.276a.048.048,0,0,0,.032.008,10.927,10.927,0,0,1,6.037.159h.008a7.154,7.154,0,0,1,4.506,5.124Z" transform="translate(-304.638 -120.319)" fill="#6c63ff"/>
      <path id="Path_12546" data-name="Path 12546" d="M385.454,410.68c0,.587-.016,1.15-.04,1.682-.008.317-.024.627-.04.92-.016-.008-.024-.008-.04-.016-.182-.079-.381-.159-.563-.238-.9-.389-1.769-.809-2.626-1.253l-.373-.19c-.913-.484-1.809-.992-2.689-1.539.024-.278.064-.555.1-.833.087-.611.159-1.23.206-1.84a25.531,25.531,0,0,0-2.261-12.5v-.008c-.159-.317-.254-.492-.254-.492s2.308-1.983,5.6,0a1.982,1.982,0,0,1,.548.476C385.01,397.186,385.549,405.055,385.454,410.68Z" transform="translate(-304.638 -120.319)" fill="#2f2e41"/>
      <path id="Path_12547" data-name="Path 12547" d="M421.477,409.6c-.032.888-.079,1.817-.135,2.761v.008c-.008.008-.024.008-.032.016a43.31,43.31,0,0,1-5.545,2.2c-.008,0-.016.008-.024.008l-.087-2.229-.008-.294-.42-10.852a1.821,1.821,0,0,1,1.817-1.9h4.022c.2,0,.341.4.437,1.134v.008A68.747,68.747,0,0,1,421.477,409.6Z" transform="translate(-304.638 -120.319)" fill="#2f2e41"/>
      <path id="Path_975" data-name="Path 975" d="M392.874,357.267V369.8h2.9l3.693-3.957-.494,3.957H411.8l-.793-3.957,1.587,3.957h2.045V357.267Z" transform="translate(-304.638 -120.319)" fill="#2f2e41"/>
      <ellipse id="Ellipse_191" data-name="Ellipse 191" cx="0.989" cy="1.813" rx="0.989" ry="1.813" transform="translate(85.269 248.161)" fill="#a0616a"/>
      <ellipse id="Ellipse_192" data-name="Ellipse 192" cx="0.989" cy="1.813" rx="0.989" ry="1.813" transform="translate(110.661 248.161)" fill="#a0616a"/>
      <path id="Path_12548" data-name="Path 12548" d="M428.7,407.927c-.666.5-1.356.992-2.054,1.452-.214.143-.42.278-.634.4-.77.492-1.547.952-2.34,1.388-.317.174-.634.341-.952.508v-8.742s1.269,1.015,3.292,2.705c.254.214.516.436.793.674C427.395,406.809,428.03,407.348,428.7,407.927Z" transform="translate(-304.638 -120.319)" fill="#6c63ff"/>
      <path id="Path_12549" data-name="Path 12549" d="M443.285,359.521a44.193,44.193,0,1,0-76.369,41.98c.4.5.809,1,1.229,1.483.032.032.055.063.087.1a42.954,42.954,0,0,0,3.292,3.4c.3.278.619.563.936.833.6.539,1.222,1.055,1.864,1.547a43.453,43.453,0,0,0,3.919,2.753l.048.024c.88.547,1.777,1.055,2.689,1.539l.373.19c.857.444,1.729.865,2.626,1.253.182.079.381.159.563.238.016.008.024.008.04.016a42.927,42.927,0,0,0,5.569,1.88,44.214,44.214,0,0,0,11.4,1.491c1.4,0,2.792-.063,4.165-.2a44.036,44.036,0,0,0,9.234-1.864c.008,0,.016-.008.024-.008a43.316,43.316,0,0,0,5.545-2.2c.008-.008.024-.008.032-.016.4-.19.793-.4,1.19-.6l.191-.1c.317-.167.634-.333.952-.508.793-.436,1.571-.9,2.34-1.388.214-.127.42-.262.634-.4.7-.46,1.388-.952,2.054-1.452.119-.087.246-.174.365-.27a44.18,44.18,0,0,0,15.009-49.723Zm-16.469,47.8c-.262.206-.531.4-.8.587-.262.2-.524.389-.793.563-.23.167-.46.325-.7.476-.2.135-.4.262-.6.389q-.987.619-2,1.19l-.215.119c-.3.167-.6.325-.9.484-.04.024-.088.04-.127.063l-.048.024c-.381.2-.769.389-1.158.571a38.889,38.889,0,0,1-4.625,1.872c-.206.071-.413.143-.619.206a41.613,41.613,0,0,1-8.742,1.777c-1.3.119-2.618.182-3.943.182a41.213,41.213,0,0,1-10.781-1.412,39.184,39.184,0,0,1-5.291-1.793c-.182-.071-.365-.151-.54-.222-.095-.04-.182-.079-.278-.127-.746-.325-1.483-.682-2.205-1.055l-.349-.182c-.88-.46-1.745-.952-2.586-1.475-.309-.19-.619-.389-.92-.6-.952-.627-1.88-1.3-2.785-2.007-.611-.46-1.2-.952-1.769-1.46-.3-.254-.6-.531-.88-.793a40.367,40.367,0,0,1-3.189-3.3c-.333-.381-.658-.762-.968-1.158a3.009,3.009,0,0,1-.2-.246,41.773,41.773,0,1,1,58,7.322Z" transform="translate(-304.638 -120.319)" fill="#21c98b"/>
      <circle id="Ellipse_202" data-name="Ellipse 202" cx="17.315" cy="17.315" r="17.315" transform="translate(79.847 391.961)" fill="#2f2e41"/>
      <ellipse id="Ellipse_203" data-name="Ellipse 203" cx="7.165" cy="5.373" rx="7.165" ry="5.373" transform="translate(70.984 397.408) rotate(-45)" fill="#2f2e41"/>
      <ellipse id="Ellipse_204" data-name="Ellipse 204" cx="5.373" cy="7.165" rx="5.373" ry="7.165" transform="translate(99.92 393.758) rotate(-66.869)" fill="#2f2e41"/>
      <path id="Path_12550" data-name="Path 12550" d="M422.51,563.181l-2.04-3.21a8.007,8.007,0,1,0-14.64,6.49l.58,2.08.66,2.36a45.208,45.208,0,0,0,7.88-1.72.034.034,0,0,0,.02-.01,42.141,42.141,0,0,0,5.55-2.2c.01-.01.02-.01.03-.02.4-.19.79-.39,1.19-.59a1.73,1.73,0,0,0,.19-.1c.32-.16.64-.33.95-.5s.63-.35.93-.54Z" transform="translate(-304.638 -120.319)" fill="#cacaca"/>
      <circle id="Ellipse_205" data-name="Ellipse 205" cx="14.695" cy="14.695" r="14.695" transform="translate(83.016 398.715)" fill="#ffb6b6"/>
      <path id="Path_12551" data-name="Path 12551" d="M423.57,562.551a31.785,31.785,0,0,0-5.97-7.24,8.729,8.729,0,0,0-5.82-2.22h-20.7a8.724,8.724,0,0,0-8.71,9.28,8.938,8.938,0,0,0,.36,1.98,9.4,9.4,0,0,0,.55,1.36l1.02,2.04c.08.03.16.07.24.1.02.01.03.01.04.02.42.17.84.34,1.27.5a41.337,41.337,0,0,0,4.3,1.38,43.333,43.333,0,0,0,7.16,1.29c1.41.13,2.82.2,4.24.2s2.79-.07,4.17-.2c.45-.04.9-.09,1.35-.14a45.208,45.208,0,0,0,7.88-1.72.034.034,0,0,0,.02-.01,42.15,42.15,0,0,0,5.55-2.2c.01-.01.02-.01.03-.02.4-.19.79-.39,1.19-.59a1.727,1.727,0,0,0,.19-.1c.32-.16.64-.33.95-.5s.63-.35.93-.54c.32-.17.62-.36.93-.55C424.36,563.921,423.97,563.221,423.57,562.551Z" transform="translate(-304.638 -120.319)" fill="#cacaca"/>
      <path id="Path_12552" data-name="Path 12552" d="M394.83,555.771a8,8,0,0,0-10.62,3.82l-1.84,2.78-.88,1.33-1.34,2.02c.28.15.55.3.83.45l.37.19c.86.44,1.73.86,2.63,1.25.1.05.21.09.32.14.08.03.16.07.24.1.02.01.03.01.04.02.42.17.84.34,1.27.5a41.349,41.349,0,0,0,4.3,1.38,43.334,43.334,0,0,0,7.16,1.29l.7-2.37.68-2.26a8.013,8.013,0,0,0-3.86-10.64Z" transform="translate(-304.638 -120.319)" fill="#cacaca"/>
      <path id="Path_12553" data-name="Path 12553" d="M386.908,524.486a19.986,19.986,0,0,0,11.422,3.53,12.246,12.246,0,0,1-4.854,2,40.3,40.3,0,0,0,16.461.092,10.654,10.654,0,0,0,3.446-1.184,4.361,4.361,0,0,0,2.127-2.845c.361-2.063-1.247-3.938-2.917-5.2a21.519,21.519,0,0,0-18.083-3.614,9.9,9.9,0,0,0-5.356,3.026,4.878,4.878,0,0,0-.451,5.794Z" transform="translate(-304.638 -120.319)" fill="#2f2e41"/>
      <path id="Path_12554" data-name="Path 12554" d="M443.29,512.521a44.194,44.194,0,1,0-76.37,41.98c.39.5.81,1,1.23,1.48a.822.822,0,0,0,.08.1,42.148,42.148,0,0,0,3.3,3.39c.3.28.61.57.93.84.6.54,1.22,1.05,1.87,1.54.25.2.5.4.76.59,1.01.77,2.07,1.48,3.15,2.17a.075.075,0,0,1,.05.02c.31.19.63.38.95.56.3.18.61.36.91.53.28.15.55.3.83.45l.37.19c.86.44,1.73.86,2.63,1.25.1.05.21.09.32.14.08.03.16.07.24.1.02.01.03.01.04.02.42.17.84.34,1.27.5a41.349,41.349,0,0,0,4.3,1.38,43.333,43.333,0,0,0,7.16,1.29c1.41.13,2.82.2,4.24.2s2.79-.07,4.17-.2c.45-.04.9-.09,1.35-.14a45.208,45.208,0,0,0,7.88-1.72.034.034,0,0,0,.02-.01,42.155,42.155,0,0,0,5.55-2.2c.01-.01.02-.01.03-.02.4-.19.79-.39,1.19-.59a1.727,1.727,0,0,0,.19-.1c.32-.16.64-.33.95-.5s.63-.35.93-.54c.32-.17.62-.36.93-.55l.48-.3c.22-.13.42-.26.64-.41.3-.19.6-.4.89-.61.39-.27.78-.55,1.16-.84a4.349,4.349,0,0,0,.37-.27,44.221,44.221,0,0,0,15.01-49.72Zm-16.47,47.79c-.26.21-.53.41-.8.59-.271.2-.53.39-.8.57-.23.16-.46.32-.7.47a.439.439,0,0,1-.07.05c-.17.12-.35.23-.52.34-.12.07-.24.15-.36.22-.35.22-.7.43-1.06.63-.19.12-.39.23-.58.34l-.21.12c-.31.17-.61.32-.91.48-.04.03-.09.04-.12.07a.077.077,0,0,0-.05.02c-.38.2-.77.39-1.16.57a38.611,38.611,0,0,1-4.63,1.87c-.2.07-.41.15-.61.21a41.849,41.849,0,0,1-7.83,1.68c-.3.04-.61.07-.92.1-1.3.12-2.61.18-3.94.18-1.18,0-2.37-.05-3.54-.15a41.225,41.225,0,0,1-7.24-1.26,38.3,38.3,0,0,1-5.29-1.8c-.09-.04-.18-.07-.27-.11s-.18-.07-.27-.11-.18-.08-.28-.13c-.65-.28-1.3-.59-1.93-.91-.09-.05-.18-.09-.27-.14l-.35-.18c-.21-.11-.42-.22-.62-.33-.67-.36-1.33-.75-1.97-1.15-.24-.15-.5-.31-.74-.47l-.18-.12c-.56-.38-1.12-.76-1.67-1.17-.37-.28-.75-.55-1.11-.84-.61-.46-1.2-.95-1.77-1.46-.3-.25-.6-.53-.88-.79a39.676,39.676,0,0,1-3.19-3.3c-.33-.38-.66-.76-.97-1.16-.07-.08-.13-.16-.2-.25a41.778,41.778,0,1,1,58.01,7.32Z" transform="translate(-304.638 -120.319)" fill="#21c98b"/>
      <path id="Path_12555" data-name="Path 12555" d="M475.484,296.608A103.863,103.863,0,1,0,481.373,450l127.4,107.5a9.571,9.571,0,0,0,12.358-14.618l-.014-.012-127.4-107.5a103.869,103.869,0,0,0-18.233-138.759Zm-8.213,128.408a77.815,77.815,0,1,1-9.29-109.654h0a77.815,77.815,0,0,1,9.29,109.654Z" transform="translate(-304.638 -120.319)" fill="#3f3d56"/>
      <path id="Path_12556" data-name="Path 12556" d="M357.617,434.306a77.819,77.819,0,0,1-13.2-104.609q-2.232,2.248-4.315,4.708A77.815,77.815,0,1,0,459.041,434.769q2.078-2.463,3.915-5.045a77.819,77.819,0,0,1-105.339,4.582Z" transform="translate(-304.638 -120.319)" opacity="0.3"/>
      <path id="Path_12557" data-name="Path 12557" d="M732.323,561.516a10.743,10.743,0,0,0-3.069-16.184l-23.222-95.049-16.94,5.408,25.076,94.4a10.8,10.8,0,0,0,18.155,11.425Z" transform="translate(-304.638 -120.319)" fill="#ffb6b6"/>
      <path id="Path_12558" data-name="Path 12558" d="M415.682,380.4l-12.38,10.68-17.32,14.931-7.65-39.14-.8-4.07-.63-3.23L394.452,329l14.63.839,1,.06.02.221.23,2.05,3,26.979.07.651Z" fill="#3f3d56"/>
      <path id="Path_12559" data-name="Path 12559" d="M334.763,646.074H322.5l-5.833-47.288h18.1Z" fill="#ffb6b6"/>
      <path id="Path_12560" data-name="Path 12560" d="M642.528,778.277H603v-.5a15.387,15.387,0,0,1,15.385-15.386h24.146Z" transform="translate(-304.638 -120.319)" fill="#c5c5c5"/>
      <path id="Path_12561" data-name="Path 12561" d="M462.763,647.074H450.5l-5.833-47.288h18.1Z" fill="#ffb6b6"/>
      <path id="Path_12562" data-name="Path 12562" d="M770.528,779.277H731v-.5a15.387,15.387,0,0,1,15.385-15.386h24.146Z" transform="translate(-304.638 -120.319)" fill="#c5c5c5"/>
      <path id="Path_12563" data-name="Path 12563" d="M777.2,748.569l-33,5-48.01-162.48L645.2,754.569l-37-5,48-190v-15l6.5-22.5-.68-6.09-4.73-42.59-2.05-18.47-.133-1.193a4.055,4.055,0,0,1,3.193-4.417h0l15.4-3.24h25.17l14.85,4.09,1.02.28.46.13-.23,1.92-3.48,29.18-.19,1.6-3.36,28.13-.74,6.17c29,21,30,42,30,42Z" transform="translate(-304.638 -120.319)" fill="#645193"/>
      <circle id="Ellipse_206" data-name="Ellipse 206" cx="24.561" cy="24.561" r="24.561" transform="translate(354.044 263.976)" fill="#ffb6b6"/>
      <rect id="Rectangle_1732" data-name="Rectangle 1732" width="49" height="7" transform="translate(355.816 397.96) rotate(-7.451)" fill="#3f3d56"/>
      <path id="Path_12564" data-name="Path 12564" d="M595.282,520.371a10.522,10.522,0,0,1,1.316,1.007l48.056-12.251,3.278-11.593,18.143,2.661-3.809,21.088a8,8,0,0,1-7.035,6.534l-56.111,5.909a10.5,10.5,0,1,1-3.839-13.355Z" transform="translate(-304.638 -120.319)" fill="#ffb6b6"/>
      <path id="Path_12565" data-name="Path 12565" d="M669.2,455.569l-8.5-6.5c-2.3-.872-5.447,1.605-6,4l-12,49,25,18,3.5-5.5Z" transform="translate(-304.638 -120.319)" fill="#3f3d56"/>
      <g id="Group_31313" data-name="Group 31313" opacity="0.2">
        <path id="Path_12566" data-name="Path 12566" d="M717.97,479.468a67.693,67.693,0,0,1-6.48,2.2c-.7.21-1.42.41-2.13.6a66.018,66.018,0,0,1-14.34,2.32,45.147,45.147,0,0,1-6.26-.17,35.242,35.242,0,0,1-6.59-1.3l-.22-.06a28.906,28.906,0,0,1-11.95-6.79,23.561,23.561,0,0,1-2.11-2.35,21.239,21.239,0,0,1-4.56-16.53,14.155,14.155,0,0,1,.34-1.57,25.106,25.106,0,0,1,1.49-4.1c.27-.62.57-1.23.89-1.83l11.3-3.82h21.52l14.85,4.09,1,.06.02.22.46.13-.23,1.92Z" transform="translate(-304.638 -120.319)"/>
      </g>
      <path id="Path_12567" data-name="Path 12567" d="M664.423,388.522c-4.593-.563-9.634-.165-13.214,2.767s-4.736,9.028-1.346,12.178c3,2.789,7.693,2.133,11.713,2.926a15.854,15.854,0,0,1,12.384,15.157c-.06,10.174-9.824,17.879-11.578,27.9-1.2,6.84,1.688,14.038,6.675,18.87s11.843,7.443,18.751,8.15,13.893-.373,20.606-2.148c6.741-1.782,13.378-4.311,19.034-8.388s10.293-9.826,12.109-16.558.512-14.451-4.168-19.62c-5.359-5.919-14.274-7.954-18.91-14.456-5.2-7.288-3.274-17.666-7.479-25.567-2.808-5.275-8.125-8.873-13.792-10.769s-11.719-2.27-17.692-2.453c-3.14-.1-6.375-.129-9.3,1.016s-5.5,3.753-5.648,6.891S664.423,388.522,664.423,388.522Z" transform="translate(-304.638 -120.319)" fill="#2f2e41"/>
      <path id="Path_12568" data-name="Path 12568" d="M894.362,779.681h-381a1,1,0,0,1,0-2h381a1,1,0,0,1,0,2Z" transform="translate(-304.638 -120.319)" fill="#cacaca"/>
    </g>
  </g>
</svg>
