<svg id="Snapchat" xmlns="http://www.w3.org/2000/svg" width="50" height="50" viewBox="0 0 50 50">
  <g id="Snapchat-2" data-name="Snapchat" transform="translate(0 0)">
    <path id="Path" d="M0,25A25,25,0,1,1,25,50,25,25,0,0,1,0,25Z" transform="translate(0 0)" fill="#fff"/>
    <path id="Path-2" data-name="Path" d="M27.2,21.039c-4.839-2.343-5.611-5.959-5.645-6.228a.854.854,0,0,1,.27-.911c.346-.319,1.879-1.269,2.305-1.566.7-.492,1.013-.983.785-1.586a.946.946,0,0,0-.958-.575,1.784,1.784,0,0,0-.384.043c-.773.168-1.523.555-1.958.66a.682.682,0,0,1-.16.021c-.232,0-.319-.1-.3-.382A27.561,27.561,0,0,0,21.2,6.483a6.4,6.4,0,0,0-1.677-4.1A7.457,7.457,0,0,0,13.8,0,7.461,7.461,0,0,0,8.076,2.379,6.378,6.378,0,0,0,6.4,6.477a28.259,28.259,0,0,0,.036,4.034c.016.265-.065.382-.3.382a.694.694,0,0,1-.16-.022c-.434-.1-1.184-.492-1.957-.659a1.777,1.777,0,0,0-.384-.043.948.948,0,0,0-.958.575c-.228.6.08,1.095.786,1.587.426.3,1.959,1.246,2.3,1.566a.855.855,0,0,1,.27.911c-.034.272-.806,3.889-5.645,6.228-.283.137-.766.428.085.9,1.335.738,2.224.659,2.914,1.1.586.378.239,1.192.666,1.486.524.362,2.072-.026,4.072.635,1.677.553,2.7,2.113,5.669,2.113s4.022-1.568,5.669-2.113c2-.66,3.547-.273,4.072-.635.426-.294.08-1.108.666-1.486.691-.445,1.579-.366,2.914-1.1C27.97,21.467,27.488,21.177,27.2,21.039Z" transform="translate(11.203 11.122)" fill="#ffe400"/>
    <path id="Shape" d="M15.624,30.778a8.757,8.757,0,0,1-5.012-1.566,6.1,6.1,0,0,0-1.207-.638,8.121,8.121,0,0,0-2.378-.353,3.8,3.8,0,0,1-2.138-.5,2.2,2.2,0,0,1-.578-.588,2.33,2.33,0,0,1-.277-.555.9.9,0,0,0-.228-.4A1.3,1.3,0,0,0,3.411,26a8.639,8.639,0,0,1-1.954-.782,3.154,3.154,0,0,1-.8-.6,1.976,1.976,0,0,1-.547-2.1,2.61,2.61,0,0,1,1.533-1.394c.109-.055.222-.111.333-.17A9.316,9.316,0,0,0,5.29,18.079a6.588,6.588,0,0,0,.576-1.016.513.513,0,0,0,.023-.425.719.719,0,0,0-.213-.214c-.19-.126-.413-.271-.662-.432l-.171-.112c-.237-.155-.424-.277-.553-.368A3.965,3.965,0,0,1,3,14.142a2.73,2.73,0,0,1-.132-2.268,2.68,2.68,0,0,1,2.595-1.7,3.644,3.644,0,0,1,.755.08c.067.015.132.03.2.047-.012-.806.012-1.554.069-2.224a8.112,8.112,0,0,1,2.1-5.1,8.34,8.34,0,0,1,2.143-1.725A9.745,9.745,0,0,1,15.625,0a9.755,9.755,0,0,1,4.9,1.252,8.381,8.381,0,0,1,2.139,1.722,8.111,8.111,0,0,1,2.1,5.1c.058.678.081,1.426.068,2.223l.068-.017.129-.029a3.6,3.6,0,0,1,.755-.08,2.682,2.682,0,0,1,2.594,1.7,2.764,2.764,0,0,1,.18,1.148,2.713,2.713,0,0,1-.315,1.118,3.95,3.95,0,0,1-1.287,1.371c-.161.114-.412.277-.725.479l-.051.033c-.175.114-.41.266-.639.417a.664.664,0,0,0-.187.2.5.5,0,0,0,.016.4,6.707,6.707,0,0,0,.585,1.038A9.34,9.34,0,0,0,29.371,21c.087.046.174.09.261.134l.165.084a2.668,2.668,0,0,1,.24.126,2.169,2.169,0,0,1,1.1,1.169,1.953,1.953,0,0,1-.5,2.046l-.007.009a3.107,3.107,0,0,1-.839.656,8.669,8.669,0,0,1-1.98.788,1.228,1.228,0,0,0-.37.17.906.906,0,0,0-.228.4,2.567,2.567,0,0,1-.2.426,2.247,2.247,0,0,1-.658.718,3.783,3.783,0,0,1-2.138.5,8.121,8.121,0,0,0-2.378.353,6.2,6.2,0,0,0-1.191.629A8.847,8.847,0,0,1,15.624,30.778ZM5.463,11.924A.958.958,0,0,0,4.5,12.5c-.215.567.027,1.056.786,1.586.137.1.387.258.677.445A19.209,19.209,0,0,1,7.6,15.652a.835.835,0,0,1,.273.882l0,.029A6.61,6.61,0,0,1,6.844,18.9,11.189,11.189,0,0,1,2.22,22.791c-.167.081-.39.209-.4.391,0,.158.157.328.479.506a7.379,7.379,0,0,0,1.829.693,3.708,3.708,0,0,1,1.086.407,1.041,1.041,0,0,1,.4.844.852.852,0,0,0,.263.642,2.619,2.619,0,0,0,1.212.194,9.835,9.835,0,0,1,2.861.441,7.544,7.544,0,0,1,1.58.809,7.07,7.07,0,0,0,8.2-.007,7.518,7.518,0,0,1,1.557-.8,9.866,9.866,0,0,1,2.86-.44,2.608,2.608,0,0,0,1.212-.195.85.85,0,0,0,.264-.642,1.041,1.041,0,0,1,.4-.844,3.7,3.7,0,0,1,1.081-.406,7.371,7.371,0,0,0,1.833-.7c.322-.179.483-.35.48-.508,0-.18-.214-.308-.4-.4a11.167,11.167,0,0,1-4.624-3.888,6.586,6.586,0,0,1-1.02-2.339l0-.031a.831.831,0,0,1,.273-.88,19.019,19.019,0,0,1,1.63-1.121c.29-.188.539-.349.676-.444.758-.529,1-1.019.785-1.587a.96.96,0,0,0-.958-.575,1.819,1.819,0,0,0-.383.043,8.529,8.529,0,0,0-1.284.423,5.907,5.907,0,0,1-.674.237.7.7,0,0,1-.159.022.3.3,0,0,1-.231-.074.4.4,0,0,1-.066-.308L23,12.165a27.069,27.069,0,0,0,.031-3.941,6.4,6.4,0,0,0-1.677-4.1,7.545,7.545,0,0,0-5.726-2.371A7.54,7.54,0,0,0,9.9,4.136a6.4,6.4,0,0,0-1.676,4.1,26.582,26.582,0,0,0,.023,3.816l.013.218a.4.4,0,0,1-.069.306.3.3,0,0,1-.228.075.71.71,0,0,1-.159-.022,5.906,5.906,0,0,1-.672-.237,8.525,8.525,0,0,0-1.285-.423A1.819,1.819,0,0,0,5.463,11.924Z" transform="translate(9.374 9.375)"/>
  </g>
</svg>
