<svg id="Snapchat" xmlns="http://www.w3.org/2000/svg" width="73.297" height="73.297" viewBox="0 0 73.297 73.297">
  <g id="Snapchat-2" data-name="Snapchat">
    <path id="Path" d="M0,36.649A36.649,36.649,0,1,1,36.649,73.3,36.649,36.649,0,0,1,0,36.649Z" fill="#fff"/>
    <path id="Path-2" data-name="Path" d="M39.88,30.843c-7.094-3.434-8.225-8.736-8.275-9.129a1.252,1.252,0,0,1,.4-1.336c.507-.468,2.755-1.86,3.379-2.3,1.031-.721,1.485-1.441,1.15-2.326a1.387,1.387,0,0,0-1.4-.843,2.614,2.614,0,0,0-.563.063c-1.133.246-2.233.813-2.87.967a1,1,0,0,1-.234.031c-.339,0-.468-.151-.435-.559A40.4,40.4,0,0,0,31.076,9.5,9.381,9.381,0,0,0,28.618,3.5,10.932,10.932,0,0,0,20.225,0a10.938,10.938,0,0,0-8.386,3.488A9.35,9.35,0,0,0,9.381,9.495a41.425,41.425,0,0,0,.053,5.913c.023.389-.1.56-.435.56a1.017,1.017,0,0,1-.234-.032c-.636-.153-1.736-.721-2.869-.967a2.6,2.6,0,0,0-.563-.063,1.39,1.39,0,0,0-1.4.843c-.335.885.117,1.6,1.152,2.326.624.435,2.872,1.826,3.379,2.3a1.254,1.254,0,0,1,.4,1.336c-.05.4-1.182,5.7-8.275,9.129-.416.2-1.122.627.124,1.316,1.957,1.081,3.26.966,4.272,1.618.859.554.351,1.747.976,2.178.768.53,3.037-.037,5.969.931,2.458.81,3.951,3.1,8.31,3.1s5.9-2.3,8.31-3.1c2.926-.968,5.2-.4,5.969-.931.624-.431.117-1.625.976-2.178,1.012-.652,2.314-.536,4.272-1.618C41,31.47,40.3,31.044,39.88,30.843Z" transform="translate(16.423 16.304)" fill="#ffe400"/>
    <path id="Shape" d="M22.9,45.119a12.837,12.837,0,0,1-7.347-2.3,8.937,8.937,0,0,0-1.769-.936,11.905,11.905,0,0,0-3.487-.517,5.574,5.574,0,0,1-3.135-.738,3.226,3.226,0,0,1-.847-.862,3.416,3.416,0,0,1-.406-.814,1.315,1.315,0,0,0-.335-.581A1.9,1.9,0,0,0,5,38.118a12.664,12.664,0,0,1-2.864-1.146,4.623,4.623,0,0,1-1.171-.886,2.9,2.9,0,0,1-.8-3.077,3.826,3.826,0,0,1,2.247-2.043c.16-.08.325-.163.488-.249A13.656,13.656,0,0,0,7.755,26.5a9.658,9.658,0,0,0,.844-1.49.751.751,0,0,0,.034-.623,1.053,1.053,0,0,0-.312-.313c-.279-.185-.606-.4-.97-.634L7.1,23.28c-.347-.227-.621-.406-.811-.539A5.813,5.813,0,0,1,4.4,20.732a4,4,0,0,1-.194-3.324,3.929,3.929,0,0,1,3.8-2.5,5.342,5.342,0,0,1,1.106.117c.1.022.194.044.289.069-.017-1.181.018-2.278.1-3.26a11.891,11.891,0,0,1,3.084-7.472,12.226,12.226,0,0,1,3.142-2.529A14.286,14.286,0,0,1,22.905,0a14.3,14.3,0,0,1,7.184,1.835,12.286,12.286,0,0,1,3.136,2.525,11.89,11.89,0,0,1,3.084,7.472c.085.994.119,2.09.1,3.259l.1-.025.189-.043a5.271,5.271,0,0,1,1.106-.117,3.931,3.931,0,0,1,3.8,2.5,4.051,4.051,0,0,1,.264,1.684,3.977,3.977,0,0,1-.462,1.638,5.791,5.791,0,0,1-1.887,2.009c-.236.167-.6.407-1.062.7l-.074.048c-.257.167-.6.39-.936.612a.974.974,0,0,0-.275.287.726.726,0,0,0,.023.594,9.833,9.833,0,0,0,.858,1.521,13.692,13.692,0,0,0,5,4.287c.128.067.256.132.383.2l.242.123a3.911,3.911,0,0,1,.352.184A3.179,3.179,0,0,1,45.648,33a2.863,2.863,0,0,1-.733,3l-.011.014a4.554,4.554,0,0,1-1.23.962,12.708,12.708,0,0,1-2.9,1.156,1.8,1.8,0,0,0-.543.249,1.328,1.328,0,0,0-.334.581,3.763,3.763,0,0,1-.286.625,3.294,3.294,0,0,1-.965,1.053,5.546,5.546,0,0,1-3.135.738,11.905,11.905,0,0,0-3.487.517,9.094,9.094,0,0,0-1.745.922A12.969,12.969,0,0,1,22.9,45.119ZM8.008,17.48a1.4,1.4,0,0,0-1.4.844c-.315.831.04,1.548,1.152,2.325.2.14.567.378.992.653a28.16,28.16,0,0,1,2.387,1.642,1.224,1.224,0,0,1,.4,1.293l-.006.043a9.69,9.69,0,0,1-1.5,3.424A16.4,16.4,0,0,1,3.254,33.41c-.245.118-.572.307-.579.574-.006.231.23.48.7.741a10.817,10.817,0,0,0,2.681,1.016,5.436,5.436,0,0,1,1.592.6,1.525,1.525,0,0,1,.59,1.237,1.249,1.249,0,0,0,.386.941A3.839,3.839,0,0,0,10.4,38.8a14.417,14.417,0,0,1,4.193.646,11.058,11.058,0,0,1,2.316,1.186,10.365,10.365,0,0,0,12.026-.01,11.022,11.022,0,0,1,2.282-1.17,14.463,14.463,0,0,1,4.192-.645,3.823,3.823,0,0,0,1.777-.285,1.247,1.247,0,0,0,.387-.941,1.526,1.526,0,0,1,.591-1.237,5.429,5.429,0,0,1,1.585-.6,10.805,10.805,0,0,0,2.687-1.023c.471-.263.708-.513.7-.745-.006-.263-.314-.451-.582-.586a16.37,16.37,0,0,1-6.779-5.7,9.654,9.654,0,0,1-1.5-3.428l-.006-.046a1.218,1.218,0,0,1,.4-1.29,27.882,27.882,0,0,1,2.389-1.644c.425-.275.791-.512.99-.652,1.111-.776,1.466-1.493,1.15-2.327a1.407,1.407,0,0,0-1.4-.842,2.667,2.667,0,0,0-.562.063,12.5,12.5,0,0,0-1.882.62,8.66,8.66,0,0,1-.989.348,1.02,1.02,0,0,1-.234.032.439.439,0,0,1-.339-.108.591.591,0,0,1-.1-.451l.009-.136a39.683,39.683,0,0,0,.045-5.778A9.383,9.383,0,0,0,31.3,6.048,11.061,11.061,0,0,0,22.9,2.573a11.054,11.054,0,0,0-8.388,3.491,9.387,9.387,0,0,0-2.457,6.006,38.968,38.968,0,0,0,.033,5.594l.019.32a.585.585,0,0,1-.1.449.437.437,0,0,1-.334.11,1.041,1.041,0,0,1-.234-.032,8.658,8.658,0,0,1-.985-.347,12.5,12.5,0,0,0-1.884-.621A2.667,2.667,0,0,0,8.008,17.48Z" transform="translate(13.742 13.743)"/>
  </g>
</svg>
