<svg id="Twitter" xmlns="http://www.w3.org/2000/svg" width="73.297" height="73.297" viewBox="0 0 73.297 73.297">
  <g id="Twitter-2" data-name="Twitter">
    <path id="back" d="M0,36.649A36.649,36.649,0,1,1,36.649,73.3,36.649,36.649,0,0,1,0,36.649Z" fill="#fff"/>
    <path id="Shape" d="M17.227,7.8,17.3,9.067l-1.282-.155a20.849,20.849,0,0,1-12.2-6L2.128,1.226,1.692,2.468a7.469,7.469,0,0,0,1.589,7.661c1.025,1.087.795,1.242-.974.6a3.023,3.023,0,0,0-1.2-.285,9.273,9.273,0,0,0,.923,3.468A8.278,8.278,0,0,0,5.537,17.22l1.256.6-1.487.026c-1.436,0-1.487.026-1.333.569.513,1.682,2.538,3.468,4.794,4.244l1.589.543-1.384.828A14.433,14.433,0,0,1,2.1,25.941a7.591,7.591,0,0,0-2.1.207c0,.259,3.127,1.708,4.948,2.277a21.654,21.654,0,0,0,16.817-1.915A22.505,22.505,0,0,0,30.3,16.469a26.694,26.694,0,0,0,1.743-7.764c0-1.19.077-1.346,1.512-2.769a16.9,16.9,0,0,0,1.794-1.993c.256-.492.231-.492-1.077-.052-2.179.776-2.487.673-1.41-.492A7.528,7.528,0,0,0,34.607.63c0-.078-.385.052-.82.285a14.3,14.3,0,0,1-2.256.88l-1.384.44-1.256-.854A10.434,10.434,0,0,0,26.712.242a8.758,8.758,0,0,0-4.486.1A7.409,7.409,0,0,0,17.227,7.8Z" transform="translate(18.324 21.989)" fill="#55acee"/>
  </g>
</svg>
