<svg xmlns="http://www.w3.org/2000/svg" width="50" height="50" viewBox="0 0 50 50">
  <g id="Group_31419" data-name="Group 31419" transform="translate(-10943 -8329)">
    <path id="Path" d="M0,25A25,25,0,1,1,25,50,25,25,0,0,1,0,25Z" transform="translate(10943 8329)" fill="#fff"/>
    <g id="world-wide-web" transform="translate(10950.944 8337.001)">
      <path id="Path_12409" data-name="Path 12409" d="M10.6,11.323l-2.186,4.94a.363.363,0,0,1-.34.2H6.954a.362.362,0,0,1-.336-.2L5.583,13.906c-.1-.233-.193-.455-.279-.676-.1.243-.194.469-.293.687L3.916,16.269a.364.364,0,0,1-.335.2H2.462a.362.362,0,0,1-.34-.2L.077,11.317a.284.284,0,0,1,.045-.289.377.377,0,0,1,.3-.136H1.677a.36.36,0,0,1,.345.221l.9,2.511c.075.212.144.412.209.6q.118-.286.255-.605L4.49,11.095a.364.364,0,0,1,.336-.2h1.04a.365.365,0,0,1,.34.2l1.047,2.475c.095.222.179.43.256.626.065-.186.136-.387.224-.608L8.7,11.106a.361.361,0,0,1,.34-.214h1.216a.381.381,0,0,1,.3.136.286.286,0,0,1,.044.3Zm11.718,0-2.186,4.94a.362.362,0,0,1-.336.2H18.673a.363.363,0,0,1-.336-.2L17.3,13.906c-.1-.233-.194-.455-.281-.676-.1.243-.194.469-.293.687l-1.094,2.352a.363.363,0,0,1-.335.2h-1.12a.363.363,0,0,1-.34-.2l-2.045-4.942a.284.284,0,0,1,.045-.289.383.383,0,0,1,.3-.136h1.259a.36.36,0,0,1,.345.221l.9,2.511c.075.212.144.412.211.6q.116-.286.252-.605L16.2,11.1a.361.361,0,0,1,.336-.2h1.04a.364.364,0,0,1,.34.2l1.051,2.474c.093.222.177.43.254.626.068-.186.136-.387.226-.608l.969-2.482a.363.363,0,0,1,.34-.214h1.216a.375.375,0,0,1,.3.136.284.284,0,0,1,.045.3Zm11.717,0-2.184,4.94a.364.364,0,0,1-.34.2H30.391a.362.362,0,0,1-.336-.2l-1.036-2.358c-.1-.233-.194-.455-.281-.676-.1.243-.2.469-.294.687L27.35,16.269a.364.364,0,0,1-.335.2H25.9a.364.364,0,0,1-.34-.2l-2.045-4.942a.286.286,0,0,1,.044-.289.379.379,0,0,1,.3-.136H25.11a.358.358,0,0,1,.344.221l.9,2.511c.075.212.144.412.21.6q.116-.286.252-.605L27.922,11.1a.364.364,0,0,1,.34-.2H29.3a.364.364,0,0,1,.34.2l1.045,2.473c.095.222.18.43.258.626.065-.186.136-.387.224-.608l.969-2.482a.359.359,0,0,1,.34-.214h1.216a.377.377,0,0,1,.3.136.292.292,0,0,1,.042.3Z" transform="translate(0 3.352)" fill="#303138"/>
      <g id="Group_31175" data-name="Group 31175" transform="translate(0.755 -0.001)">
        <path id="Path_12410" data-name="Path 12410" d="M3.377,11.769A14.422,14.422,0,0,1,4.766,9.105a1.269,1.269,0,0,0,.243.048H7.477a24.333,24.333,0,0,0-.643,2.615h2.7a20.94,20.94,0,0,1,.738-2.615H23.386a20.939,20.939,0,0,1,.741,2.616h2.7a24.333,24.333,0,0,0-.643-2.615h2.469a1.3,1.3,0,0,0,.244-.048,14.578,14.578,0,0,1,1.387,2.664h2.788a17.086,17.086,0,0,0-32.476,0ZM26.711,6.538H25.153a16.379,16.379,0,0,0-1.118-1.986,14.471,14.471,0,0,1,2.676,1.986ZM16.829,2.615c2.04,0,3.918,1.509,5.335,3.923H11.494C12.911,4.124,14.792,2.615,16.829,2.615ZM9.621,4.552A16.552,16.552,0,0,0,8.5,6.538H6.944A14.541,14.541,0,0,1,9.619,4.552Z" transform="translate(-0.59 0.001)" fill="#303138"/>
        <path id="Path_12411" data-name="Path 12411" d="M30.278,17a14.5,14.5,0,0,1-1.388,2.664,1.27,1.27,0,0,0-.243-.048h-2.47A24.335,24.335,0,0,0,26.82,17h-2.7a20.655,20.655,0,0,1-.738,2.615H10.269A20.876,20.876,0,0,1,9.531,17h-2.7a24.332,24.332,0,0,0,.643,2.615H5.006a1.27,1.27,0,0,0-.243.048A14.5,14.5,0,0,1,3.375,17H.588a17.086,17.086,0,0,0,32.476,0ZM6.942,22.231H8.5a16.451,16.451,0,0,0,1.117,1.986,14.506,14.506,0,0,1-2.677-1.986Zm9.885,3.923c-2.04,0-3.918-1.509-5.335-3.923H22.16c-1.416,2.414-3.3,3.924-5.333,3.924Zm7.208-1.937a16.281,16.281,0,0,0,1.118-1.986h1.561a14.559,14.559,0,0,1-2.679,1.986Z" transform="translate(-0.588 5.231)" fill="#303138"/>
      </g>
    </g>
  </g>
</svg>
