<svg xmlns="http://www.w3.org/2000/svg" width="50" height="50" viewBox="0 0 50 50">
  <g id="Group_31415" data-name="Group 31415" transform="translate(-10639.016 -8933)">
    <path id="Path" d="M0,25A25,25,0,1,1,25,50,25,25,0,0,1,0,25Z" transform="translate(10639.016 8933)" fill="#fff"/>
    <g id="WhatsApp" transform="translate(10647 8941)">
      <g id="WhatsApp-2" data-name="WhatsApp">
        <circle id="Oval" cx="17" cy="17" r="17" fill="#25d366"/>
        <path id="Page-1" d="M0,20.4H0l1.434-5.237a10.109,10.109,0,1,1,8.759,5.063h0a10.127,10.127,0,0,1-4.831-1.23L0,20.4Zm5.607-3.236h0l.307.182A8.4,8.4,0,1,0,3.076,14.58l.2.317L2.427,18l3.18-.834Zm7.214-2.194a3.174,3.174,0,0,1-.977-.149,14.48,14.48,0,0,1-1.44-.532,10.927,10.927,0,0,1-4.27-3.75l-.045-.063A4.81,4.81,0,0,1,5.057,7.863,2.784,2.784,0,0,1,5.891,5.81l.05-.054a.921.921,0,0,1,.674-.316c.162,0,.333,0,.484.009h.08c.156,0,.322.033.489.433.067.162.165.4.269.653l0,.007c.217.53.464,1.13.506,1.215a.462.462,0,0,1,.021.442l-.035.071a1.43,1.43,0,0,1-.218.351c-.042.05-.086.1-.13.157-.085.1-.173.211-.248.286-.122.122-.26.26-.111.516A7.572,7.572,0,0,0,9.13,11.33,6.561,6.561,0,0,0,11,12.508c.07.03.125.054.166.075a.625.625,0,0,0,.275.081.35.35,0,0,0,.272-.145c.116-.133.624-.727.8-.991a.35.35,0,0,1,.3-.191.836.836,0,0,1,.271.065c.227.083,1.437.677,1.726.822l.139.068a.813.813,0,0,1,.345.227,2.11,2.11,0,0,1-.147,1.2,2.592,2.592,0,0,1-1.705,1.2A4.116,4.116,0,0,1,12.821,14.97Z" transform="translate(7.367 6.233)" fill="#fdfdfd"/>
      </g>
    </g>
  </g>
</svg>
