<svg id="Youtube" xmlns="http://www.w3.org/2000/svg" width="50" height="50" viewBox="0 0 50 50">
  <g id="Youtube-2" data-name="Youtube" transform="translate(0 0)">
    <path id="back" d="M0,25A25,25,0,1,1,25,50,25,25,0,0,1,0,25Z" transform="translate(0 0)" fill="#fff"/>
    <path id="Fill-1" d="M26.109,2.993A3.385,3.385,0,0,0,23.752.572C21.672,0,13.333,0,13.333,0S4.994,0,2.915.572A3.385,3.385,0,0,0,.557,2.993,36.571,36.571,0,0,0,0,9.583a36.572,36.572,0,0,0,.557,6.59,3.386,3.386,0,0,0,2.358,2.421c2.08.572,10.418.572,10.418.572s8.339,0,10.418-.572a3.386,3.386,0,0,0,2.358-2.421,36.562,36.562,0,0,0,.557-6.59,36.561,36.561,0,0,0-.557-6.59" transform="translate(11.667 15.833)" fill="red"/>
    <path id="Fill-2" d="M0,8.333V0L6.667,4.167Z" transform="translate(22.5 21.667)" fill="#fff"/>
  </g>
</svg>
