<svg id="Youtube" xmlns="http://www.w3.org/2000/svg" width="73.297" height="73.297" viewBox="0 0 73.297 73.297">
  <g id="Youtube-2" data-name="Youtube">
    <path id="back" d="M0,36.649A36.649,36.649,0,1,1,36.649,73.3,36.649,36.649,0,0,1,0,36.649Z" fill="#fff"/>
    <path id="Fill-1" d="M38.275,4.387A4.963,4.963,0,0,0,34.819.839C31.77,0,19.546,0,19.546,0S7.322,0,4.273.839A4.963,4.963,0,0,0,.817,4.387C0,7.518,0,14.049,0,14.049s0,6.531.817,9.661a4.964,4.964,0,0,0,3.456,3.549c3.049.839,15.273.839,15.273.839s12.224,0,15.273-.839a4.964,4.964,0,0,0,3.456-3.549c.817-3.13.817-9.661.817-9.661s0-6.531-.817-9.661" transform="translate(17.103 23.211)" fill="red"/>
    <path id="Fill-2" d="M0,12.216V0L9.773,6.108Z" transform="translate(32.984 31.762)" fill="#fff"/>
  </g>
</svg>
